<svg width="86" height="86" viewBox="0 0 86 86" fill="none" xmlns="http://www.w3.org/2000/svg">
<rect width="86" height="86" rx="32" fill="#9BC332"/>
<path d="M34.2426 35.423C30.0166 38.8284 24.418 37.9651 21.2931 34.402C18.194 30.8674 18.2379 25.4937 21.4146 22.0379C24.6739 18.4942 29.9881 17.9954 33.8304 20.8334C37.648 23.6534 39.1588 29.672 35.4148 34.2922C35.4962 34.3839 35.5751 34.4822 35.6642 34.5713C37.2939 36.2023 38.9275 37.8294 40.552 39.4681C40.7613 39.6788 40.9164 39.7589 41.2046 39.5844C41.5019 39.4035 41.8521 39.3079 42.2165 39.1592C42.2165 37.3964 42.2243 35.6078 42.1997 33.8205C42.1984 33.7029 41.9839 33.5413 41.8353 33.478C39.8812 32.6392 39.2712 30.2703 40.6011 28.6445C41.4088 27.6584 42.7529 27.2707 43.9638 27.6765C45.1799 28.0836 46.0316 29.2028 46.082 30.4642C46.1337 31.7488 45.41 32.9378 44.2223 33.4198C43.8682 33.5633 43.748 33.7274 43.7545 34.1138C43.779 35.79 43.7648 37.4662 43.7648 39.1424C44.1719 39.3234 44.5596 39.5069 44.959 39.6607C45.0481 39.6956 45.2174 39.6607 45.2859 39.5948C46.8768 38.0181 48.4587 36.4323 50.038 34.8544C47.0771 30.6038 48.4406 25.4679 51.9184 22.9542C55.475 20.3837 60.3782 20.9019 63.2705 24.1639C66.2003 27.4685 66.1577 32.3782 63.171 35.6181C60.2012 38.8387 54.9102 39.5043 51.0564 36.0291C50.0806 37.0062 49.1023 37.9845 48.1253 38.9628C47.567 39.5211 46.9983 40.0717 46.4594 40.6493C46.3663 40.7489 46.3276 41.0022 46.387 41.1236C46.7127 41.7892 46.8923 42.4768 46.8626 43.2212C46.8574 43.3426 46.9531 43.5455 47.0487 43.5804C49.9876 44.6273 52.9329 45.6573 55.8627 46.686C57.2558 45.2295 58.7162 44.9284 60.1029 45.7917C61.3475 46.5658 61.8761 48.0818 61.3824 49.4607C60.8977 50.8138 59.5097 51.6784 58.1114 51.4975C56.4843 51.2868 55.5163 50.125 55.3496 48.149C53.9991 47.6747 52.6356 47.1965 51.2709 46.7183C49.7511 46.1859 48.2299 45.6624 46.714 45.1197C46.4335 45.0188 46.2642 45.0176 46.073 45.2941C45.5198 46.0954 44.7212 46.5594 43.7816 46.8023V51.5401C46.3508 51.8981 48.3527 53.1388 49.6787 55.3798C50.6428 57.0107 50.9465 58.7826 50.6066 60.6436C49.9191 64.4225 46.6119 67.0796 42.7361 66.9982C39.0825 66.9206 35.8736 63.9999 35.3243 60.4291C34.7518 56.7057 37.237 52.1424 42.1933 51.5169V46.8062C41.2666 46.5581 40.4641 46.0876 39.8851 45.2825C39.5784 44.856 39.1653 44.7035 38.6457 44.825C36.9372 45.2243 35.2313 45.6353 33.5163 46.0127C33.104 46.1031 32.9179 46.2556 32.8378 46.7015C32.5509 48.2924 31.0518 49.3715 29.4841 49.179C27.8855 48.9825 26.7055 47.6256 26.7378 46.0178C26.7637 44.7177 27.6334 43.5585 28.887 43.1527C30.1587 42.7417 31.5235 43.1772 32.3105 44.2925C32.5095 44.5743 32.6659 44.6492 33.0084 44.5639C34.9146 44.0922 36.8274 43.6464 38.7427 43.2108C39.0334 43.1449 39.0929 43.0208 39.1446 42.7391C39.2467 42.1924 39.4599 41.6664 39.6021 41.1262C39.6383 40.9879 39.6408 40.7657 39.5581 40.6817C37.8354 38.9382 36.0985 37.2091 34.3615 35.4786C34.3408 35.4579 34.3034 35.4527 34.2439 35.4282L34.2426 35.423ZM36.0222 28.2788C36.0196 24.0243 32.5496 20.5517 28.2977 20.5452C24.0187 20.5401 20.5383 24.0153 20.5409 28.293C20.5435 32.5462 24.0122 36.0214 28.2641 36.0278C32.5393 36.0343 36.0248 32.5526 36.0222 28.2788ZM49.9565 29.8206C49.9514 33.6512 53.0647 36.789 56.8836 36.802C60.7362 36.8162 63.8831 33.6912 63.8883 29.8477C63.8935 26.0171 60.7801 22.8806 56.9599 22.8676C53.1048 22.8547 49.9604 25.9745 49.9565 29.8206ZM42.9765 53.0613C39.5775 53.0651 36.7963 55.8528 36.7963 59.2543C36.7963 62.6558 39.5775 65.4435 42.9765 65.4473C46.3999 65.4525 49.1889 62.6571 49.1811 59.2297C49.1734 55.8321 46.3818 53.0574 42.9765 53.0613ZM43.0101 40.6752C41.7435 40.6649 40.689 41.6897 40.6683 42.9498C40.6476 44.2383 41.6854 45.307 42.9674 45.3174C44.2313 45.3277 45.2885 44.3003 45.3105 43.0415C45.3324 41.7543 44.2934 40.6855 43.0113 40.6752H43.0101ZM43.0049 32.1559C43.8436 32.1468 44.5376 31.4451 44.5351 30.605C44.5325 29.765 43.8359 29.0671 42.9958 29.0632C42.1351 29.0594 41.4269 29.7753 41.4424 30.6386C41.4566 31.4774 42.1648 32.1662 43.0049 32.1572V32.1559ZM31.3761 46.107C31.3839 45.267 30.6964 44.5588 29.8563 44.5445C29.015 44.5303 28.3029 45.2127 28.2822 46.0515C28.2615 46.9122 28.9659 47.6359 29.8253 47.6385C30.664 47.6398 31.3671 46.9458 31.3748 46.107H31.3761ZM60.0176 48.4049C60.0125 47.5648 59.3146 46.8695 58.4746 46.8669C57.6332 46.8656 56.9328 47.5571 56.925 48.3984C56.9172 49.2591 57.6332 49.9725 58.4926 49.9609C59.3314 49.9505 60.0228 49.2436 60.0176 48.4049Z" fill="#FFFEEB"/>
<path d="M66.9848 60.0103C66.9939 62.9918 64.5642 65.437 61.5853 65.446C58.6077 65.4551 56.1587 63.0215 56.1509 60.0452C56.1431 57.0637 58.5728 54.6186 61.5504 54.6108C64.5319 54.6018 66.9758 57.0301 66.9848 60.0103ZM65.4366 59.9935C65.4224 57.8637 63.6609 56.1397 61.5207 56.1591C59.4128 56.1784 57.694 57.9219 57.6979 60.0375C57.7017 62.1686 59.4529 63.9068 61.5892 63.8978C63.7203 63.8887 65.4508 62.1311 65.4353 59.9935H65.4366Z" fill="#FFFEEB"/>
<path d="M20.542 60.8129C20.5368 58.2579 22.6214 56.1629 25.1739 56.1591C27.7302 56.1539 29.8225 58.2372 29.8277 60.7909C29.8328 63.3472 27.7495 65.4409 25.1958 65.446C22.6421 65.4512 20.5459 63.3653 20.542 60.8129ZM25.1661 63.8978C26.8746 63.9068 28.2768 62.5149 28.2807 60.809C28.2833 59.1186 26.9121 57.7254 25.2294 57.7073C23.517 57.6879 22.1045 59.0669 22.0916 60.7715C22.0786 62.4826 23.4628 63.89 25.1674 63.8991L25.1661 63.8978Z" fill="#FFFEEB"/>
<path d="M28.2587 32.9468C28.2587 33.4496 28.2587 33.9277 28.2587 34.4072C25.6352 34.6993 22.0735 32.1611 22.1096 28.2878H23.6166C23.6863 29.5608 24.1012 30.6658 24.9955 31.5601C25.8898 32.4557 26.9896 32.8822 28.2587 32.9481V32.9468Z" fill="#FFFEEB"/>
<path d="M56.9419 25.9422V24.474C59.6417 24.2763 62.4177 26.8274 62.3014 29.8089H60.8332C60.439 27.3547 59.2746 26.1916 56.9419 25.9422Z" fill="#FFFEEB"/>
<path d="M39.752 62.5305C40.1125 62.1725 40.4524 61.8339 40.7936 61.4953C42.5047 62.6106 43.6329 62.6093 45.1734 61.4836C45.5211 61.83 45.8687 62.1776 46.2151 62.524C44.7392 64.332 41.3907 64.3437 39.752 62.5305Z" fill="#FFFEEB"/>
</svg>
