<svg width="86" height="86" viewBox="0 0 86 86" fill="none" xmlns="http://www.w3.org/2000/svg">
<rect width="86" height="86" rx="32" fill="#9BC332"/>
<path d="M50.5764 36.2811C50.8169 36.2811 50.9887 36.2811 51.1606 36.2811C53.4336 36.2811 55.7066 36.2762 57.9772 36.2811C62.8276 36.2959 66.5759 40.3289 66.22 45.1671C66.1046 46.7233 65.356 47.931 64.0746 48.8123C63.9323 48.9105 63.7899 49.0037 63.7187 49.0504C64.2489 51.1442 64.8724 53.1669 65.2529 55.2337C65.68 57.5558 65.9647 59.9123 66.1685 62.2639C66.3624 64.4829 64.4035 66.67 62.1698 66.9204C61.777 66.9646 61.3769 66.972 60.9793 66.972C58.8192 66.9769 56.6566 66.9769 54.4965 66.972C53.3722 66.972 52.9549 66.5424 52.9525 65.4059C52.9525 64.3725 52.9525 63.3415 52.9525 62.2246C52.8175 62.3375 52.7242 62.4014 52.6481 62.4799C49.7786 65.4525 46.3028 66.9891 42.147 66.9769C36.6952 66.9597 31.2433 66.8959 25.7939 66.999C21.9352 67.0726 19.4977 63.231 20.2783 60.0179C21.1644 56.3653 21.7118 52.6637 21.8984 48.9105C21.9057 48.7558 21.8665 48.5423 21.7634 48.4441C19.6548 46.419 19.564 43.5249 20.8208 41.1046C22.1095 38.6229 24.0634 36.9292 26.8593 36.3695C27.5024 36.2394 28.1848 36.2836 28.85 36.2836C31.614 36.2762 34.3804 36.2738 37.1444 36.2836C38.1385 36.2861 38.7129 37.1182 38.3472 37.9921C38.1213 38.5321 37.6844 38.7113 37.1223 38.7088C34.7535 38.7015 32.3872 38.699 30.0184 38.7088C29.1937 38.7113 28.3615 38.6941 27.5441 38.7874C24.5273 39.1286 22.1954 42.0914 22.5292 45.1106C22.6471 46.1735 23.5749 47.0891 24.6427 47.1848C24.8636 47.2045 25.087 47.202 25.3104 47.202C37.2131 47.202 49.1158 47.1799 61.0185 47.2265C62.8473 47.2339 64.0157 45.928 63.8022 44.0944C63.434 40.9426 60.9744 38.7113 57.8054 38.7088C54.9776 38.7064 52.1473 38.7088 49.3196 38.7088C48.161 38.7088 47.6774 38.0976 47.9229 36.9562C48.4752 34.396 49.0913 31.8406 49.1674 29.2092C49.1968 28.1365 49.1477 27.0393 48.9465 25.9887C48.4064 23.1879 46.5801 21.612 43.7303 21.4549C42.9055 21.4083 42.0365 21.4868 41.2388 21.6955C38.7718 22.341 37.5887 24.1231 37.2205 26.5385C36.9455 28.3354 37.1419 30.1199 37.434 31.8971C37.5617 32.6801 37.1493 33.2889 36.4227 33.4067C35.7526 33.5172 35.1094 33.0287 35.0407 32.2776C34.8885 30.601 34.6921 28.9245 34.6651 27.2455C34.594 22.8393 37.8955 19.339 42.2894 19.0297C44.2286 18.8947 46.0671 19.2089 47.7412 20.2055C50.5714 21.8918 51.7374 24.484 51.6613 27.6971C51.595 30.5618 51.2219 33.392 50.5788 36.2836L50.5764 36.2811ZM24.3162 49.6518C24.2819 50.1157 24.25 50.587 24.2082 51.0583C23.9284 54.2592 23.3908 57.4159 22.6716 60.5456C22.2199 62.502 23.5749 64.5934 25.87 64.559C31.3342 64.478 36.8007 64.5001 42.2673 64.5467C44.8766 64.5688 47.1545 63.7342 49.2238 62.2246C50.812 61.066 52.0565 59.5907 53.0703 57.9167C53.2961 57.5411 53.5956 57.2883 54.0546 57.2637C54.8696 57.222 55.3949 57.7424 55.3973 58.631C55.4047 60.4106 55.3973 62.1902 55.3973 63.9699C55.3973 64.1393 55.3973 64.3086 55.3973 64.5296C55.6256 64.5296 55.795 64.5296 55.9668 64.5296C57.6998 64.5296 59.4304 64.5296 61.1634 64.5296C62.9332 64.5296 63.893 63.555 63.6917 61.8098C63.4364 59.5883 63.1664 57.3619 62.7417 55.1699C62.3809 53.3092 61.7918 51.4928 61.3033 49.6542H24.3162V49.6518Z" fill="#FFFEEB"/>
<path d="M43.1585 28.6004C42.0122 28.6004 41.2021 27.7978 41.2021 26.6637C41.2021 25.5321 42.0146 24.7319 43.1634 24.7343C44.3024 24.7343 45.1296 25.5493 45.1296 26.6711C45.1296 27.7904 44.2999 28.6004 43.1585 28.6004Z" fill="#FFFEEB"/>
</svg>
