<svg width="86" height="86" viewBox="0 0 86 86" fill="none" xmlns="http://www.w3.org/2000/svg">
<rect width="86" height="86" rx="32" fill="#9BC332"/>
<path d="M66.2475 58.7058C66.2475 60.2941 66.3509 61.8162 66.2227 63.319C66.038 65.4905 64.247 66.9933 62.0245 66.996C56.6572 67.0029 51.2898 66.9988 45.9225 66.9988C41.5189 66.9988 37.1139 66.9988 32.7103 66.9988C30.0245 66.9988 28.286 65.2588 28.2846 62.5717C28.2832 59.2959 28.2846 56.0201 28.2846 52.7442V52.139C26.6604 53.7672 25.0708 55.361 23.4811 56.9562C23.4301 56.9273 23.3805 56.8983 23.3295 56.8693C23.3295 56.6901 23.3295 56.5095 23.3295 56.3303C23.3295 53.0034 23.324 49.6752 23.3364 46.3484C23.3364 46.0064 23.2192 45.7914 22.9793 45.5556C20.2729 42.9112 19.3326 39.725 20.4797 36.1155C21.6171 32.5322 24.1884 30.4642 27.9027 29.8534C27.9868 29.8396 28.0723 29.8272 28.155 29.8065C28.1867 29.7983 28.2129 29.7721 28.2625 29.7404V27.2835H21.7646C21.7646 25.5959 21.624 23.9511 21.8005 22.3394C22.0073 20.4492 23.75 19.0705 25.6485 19.0043C25.8208 18.9988 25.9931 19.0002 26.1641 19.0002C36.9333 19.0002 47.7024 19.0002 58.4716 19.0002C61.2607 19.0002 62.9662 20.7125 62.9662 23.5127C62.9662 35.0291 62.9662 46.5455 62.9662 58.0633V58.7086H66.2461L66.2475 58.7058ZM61.3007 58.7127C61.3076 58.5541 61.3158 58.4687 61.3158 58.3832C61.3158 46.6613 61.3186 34.9395 61.3145 23.2176C61.3145 21.7066 60.2515 20.6546 58.7363 20.6546C49.0177 20.6505 39.2991 20.6519 29.5819 20.6546C29.4551 20.6546 29.3296 20.6712 29.1311 20.6849C29.8618 21.6886 29.9611 22.7668 29.9445 23.8891C29.9184 25.6649 29.9377 27.4407 29.9377 29.2151V29.7776C30.0921 29.8093 30.19 29.8341 30.2892 29.8493C34.0311 30.449 36.6093 32.5323 37.7467 36.1362C38.8855 39.7457 37.9383 42.9319 35.225 45.568C34.9769 45.8093 34.8845 46.0354 34.8859 46.369C34.8955 49.6959 34.8914 53.0227 34.8914 56.3496V56.8804C34.8417 56.8997 34.7935 56.919 34.7439 56.9383C33.1611 55.3459 31.5797 53.7548 29.9804 52.1459C29.9625 52.2107 29.9404 52.2548 29.9404 52.3003C29.939 55.8518 29.9252 59.402 29.9473 62.9536C29.9556 64.2744 31.071 65.3291 32.3807 65.3443C33.7167 65.3595 34.8404 64.3103 34.8831 62.9688C34.9121 62.074 34.8914 61.1765 34.8914 60.2803C34.8914 59.7702 34.8914 59.2614 34.8914 58.7168H61.3021L61.3007 58.7127ZM64.6124 60.414H36.5569C36.4535 62.0919 36.8781 63.8139 35.709 65.3416H36.2853C44.8181 65.3416 53.351 65.3416 61.8839 65.3416C62.0218 65.3416 62.1596 65.3443 62.2961 65.3347C63.5273 65.2547 64.5462 64.2648 64.6041 63.0308C64.6441 62.1719 64.6124 61.3102 64.6124 60.4126V60.414ZM36.5389 38.8854C36.5458 34.7589 33.2328 31.4265 29.109 31.4127C25.0143 31.3989 21.6791 34.7506 21.6764 38.884C21.6736 42.9374 25.0115 46.296 29.0553 46.307C33.1776 46.3194 36.5321 42.9926 36.5376 38.8854H36.5389ZM33.2245 46.9743C31.8651 47.6278 30.5112 47.9615 29.0815 47.9628C27.6573 47.9642 26.3171 47.5906 25.0198 47.0005V52.9938C26.4302 51.5778 27.7634 50.2419 29.1835 48.8163C30.5346 50.1729 31.8706 51.5144 33.2245 52.8738V46.9743ZM28.2818 25.5932C28.2818 24.7232 28.3011 23.8849 28.2777 23.0467C28.2418 21.7672 27.2147 20.7235 25.9559 20.656C24.6641 20.5857 23.4839 21.5122 23.3653 22.8013C23.2812 23.7167 23.3488 24.646 23.3488 25.5932H28.2818Z" fill="#FFFEEB"/>
<path d="M55.5529 23.1349C57.3742 23.1446 58.8481 24.6433 58.8384 26.4756C58.8288 28.2955 57.3177 29.7748 55.4923 29.7541C53.6931 29.7335 52.2316 28.2472 52.2344 26.4397C52.2371 24.6115 53.7289 23.1253 55.5529 23.1349ZM57.1853 26.4728C57.1978 25.5684 56.4781 24.8156 55.5778 24.7922C54.6582 24.7687 53.8888 25.5174 53.8875 26.4397C53.8861 27.3414 54.6182 28.0845 55.5199 28.0956C56.4119 28.1066 57.1729 27.3648 57.1853 26.4714V26.4728Z" fill="#FFFEEB"/>
<path d="M45.604 23.9994V25.5904H34.0903V23.9994H45.604Z" fill="#FFFEEB"/>
<path d="M41.5229 36.3954H53.0242V38.0016H41.5229V36.3954Z" fill="#FFFEEB"/>
<path d="M53.0351 41.3781V42.9692H41.5215V41.3781H53.0351Z" fill="#FFFEEB"/>
<path d="M53.0382 46.3484V47.9298H41.5259V46.3484H53.0382Z" fill="#FFFEEB"/>
<path d="M57.9932 53.7975V55.3789H46.481V53.7975H57.9932Z" fill="#FFFEEB"/>
<path d="M47.253 31.4389V33.0272H41.5327V31.4389H47.253Z" fill="#FFFEEB"/>
<path d="M34.0628 38.8661C34.0601 41.6001 31.8238 43.835 29.1036 43.8239C26.3723 43.8115 24.1623 41.5918 24.1567 38.8495C24.1512 36.1238 26.3903 33.8862 29.1174 33.8944C31.8514 33.9013 34.0642 36.1266 34.0628 38.8661ZM25.8085 38.8358C25.796 40.6639 27.2782 42.1667 29.0994 42.1695C30.9056 42.1722 32.3904 40.7108 32.4125 38.9088C32.4346 37.0751 30.9662 35.5641 29.1477 35.5503C27.3181 35.5365 25.8209 37.0103 25.8085 38.8358Z" fill="#FFFEEB"/>
</svg>
