<svg width="86" height="86" viewBox="0 0 86 86" fill="none" xmlns="http://www.w3.org/2000/svg">
<rect width="86" height="86" rx="32" fill="#9BC332"/>
<path d="M19 60.6429C19.2412 60.3391 19.5275 60.1766 19.9437 60.1591C22.2887 60.0616 24.1212 58.2091 24.255 55.8654C24.27 55.6091 24.3687 55.2891 24.5475 55.1291C24.7037 54.9891 25.0425 54.9579 25.27 55.0116C25.63 55.0954 25.7425 55.4191 25.7537 55.7766C25.7925 56.9991 26.245 58.0479 27.1237 58.9016C27.9387 59.6941 28.9275 60.1054 30.0612 60.1691C30.67 60.2029 30.9937 60.4604 30.9962 60.9216C30.9987 61.3829 30.6712 61.6491 30.0662 61.6791C27.7212 61.7916 25.8562 63.6379 25.765 65.9729C25.7487 66.3891 25.5812 66.6716 25.2812 66.9154H24.7187C24.3562 66.6641 24.2537 66.3166 24.2312 65.8816C24.1162 63.6466 22.27 61.8041 20.0362 61.6929C19.6 61.6716 19.2512 61.5691 19 61.2066V60.6454V60.6429ZM27.1212 60.9229C26.43 60.2329 25.6812 59.4854 25 58.8054C24.3075 59.4966 23.5587 60.2429 22.8787 60.9216C23.5737 61.6166 24.3212 62.3629 25 63.0416C25.6862 62.3554 26.4275 61.6154 27.1212 60.9229Z" fill="#FFFEEB"/>
<path d="M66.9999 23.7691C66.7524 24.1029 66.4337 24.2304 66.0074 24.2566C64.5524 24.3479 63.3837 25.5291 63.2587 26.9791C63.2512 27.0716 63.2562 27.1666 63.2449 27.2591C63.1962 27.6804 62.9049 27.9666 62.5174 27.9766C62.1112 27.9879 61.8187 27.6916 61.7462 27.2504C61.6762 26.8241 61.6324 26.3741 61.4574 25.9879C60.9649 24.9004 60.0774 24.3341 58.8887 24.2416C58.3162 24.1966 58.0024 23.9366 58.0024 23.4879C58.0024 23.0379 58.3149 22.7741 58.8887 22.7366C60.4712 22.6329 61.6387 21.4579 61.7449 19.8654C61.7824 19.3079 62.0674 18.9879 62.5174 19.0004C62.9512 19.0116 63.2149 19.3204 63.2512 19.8579C63.3537 21.4154 64.4924 22.6216 66.0074 22.7204C66.4337 22.7479 66.7524 22.8729 66.9987 23.2079V23.7691H66.9999ZM62.5224 22.4641C62.1799 22.7941 61.7799 23.1779 61.4487 23.4954C61.7862 23.8216 62.1924 24.2141 62.4912 24.5016C62.8237 24.1816 63.2224 23.7979 63.5262 23.5066C63.2087 23.1779 62.8249 22.7779 62.5224 22.4641Z" fill="#FFFEEB"/>
<path d="M60.9935 29.1291C60.5335 35.9478 59.3448 42.6078 56.5948 48.9166C55.136 52.2641 53.2198 55.3128 50.4823 57.7866C48.421 59.6503 46.061 60.9716 43.336 61.5991C43.1185 61.6491 42.8685 61.6478 42.6523 61.5966C38.6135 60.6328 35.5023 58.2878 33.0035 55.0641C30.2573 51.5216 28.5685 47.4666 27.3485 43.1966C26.0585 38.6841 25.3098 34.0791 25.0273 29.3966C25.0185 29.2566 25.011 29.1166 25.006 28.9766C24.9823 28.1991 25.3298 27.9203 26.1073 28.0178C30.146 28.5266 34.1473 28.4816 38.0473 27.1353C39.6585 26.5791 41.1135 25.7516 42.3535 24.5641C42.806 24.1303 43.161 24.1053 43.5823 24.5078C45.7235 26.5553 48.371 27.4966 51.2198 27.9678C54.1385 28.4503 57.0673 28.4166 59.9935 28.0028C60.7223 27.9003 61.0273 28.2466 60.9935 29.1278V29.1291ZM59.4723 29.6053C57.0635 29.8628 54.7598 29.9178 52.4535 29.6678C50.1898 29.4216 47.9798 28.9491 45.9398 27.9128C44.9048 27.3878 43.9423 26.7203 43.041 26.1741C41.8735 26.8391 40.7448 27.6066 39.5185 28.1553C36.2423 29.6203 32.7523 29.9216 29.211 29.8028C28.3435 29.7741 27.4785 29.6953 26.5298 29.6341C26.6448 30.7578 26.7435 31.8391 26.8685 32.9178C27.3873 37.4203 28.3235 41.8291 29.896 46.0891C31.0848 49.3091 32.611 52.3491 34.8648 54.9778C36.9435 57.4016 39.4435 59.1953 42.5698 60.0241C42.8523 60.0991 43.1898 60.0966 43.471 60.0203C46.6398 59.1616 49.1673 57.3266 51.256 54.8453C53.631 52.0241 55.1873 48.7578 56.3935 45.3103C57.766 41.3841 58.6035 37.3316 59.111 33.2091C59.2548 32.0378 59.3498 30.8591 59.476 29.6066L59.4723 29.6053Z" fill="#FFFEEB"/>
<path d="M63.996 57.1916C63.9885 57.6253 63.6785 57.8953 63.1448 57.9303C61.6598 58.0291 60.5585 58.9953 60.2935 60.4378C60.266 60.5903 60.2635 60.7466 60.2498 60.9016C60.2085 61.3591 59.926 61.6553 59.5223 61.6678C59.101 61.6816 58.7773 61.3753 58.7548 60.8991C58.7248 60.2591 58.551 59.6728 58.1673 59.1578C57.6035 58.4003 56.8398 57.9991 55.8998 57.9328C55.3223 57.8916 55.011 57.6366 55.0035 57.1903C54.9973 56.7403 55.3123 56.4653 55.8773 56.4278C57.466 56.3228 58.641 55.1541 58.746 53.5741C58.7835 53.0041 59.051 52.6903 59.4998 52.6916C59.9485 52.6916 60.216 53.0053 60.2535 53.5753C60.356 55.1516 61.5348 56.3241 63.1223 56.4278C63.6848 56.4653 64.0035 56.7428 63.996 57.1916ZM60.596 57.2916C60.1935 56.8603 59.8085 56.4466 59.5185 56.1341C59.1648 56.4778 58.7673 56.8641 58.4498 57.1741C58.7948 57.5128 59.1973 57.9078 59.5935 58.2953C59.711 58.1616 59.876 57.9528 60.0623 57.7666C60.2598 57.5703 60.4785 57.3941 60.596 57.2903V57.2916Z" fill="#FFFEEB"/>
<path d="M29.4752 22.7216C29.5552 21.5603 29.7064 21.2678 30.2177 21.2453C30.7289 21.2228 30.8789 21.4841 31.0464 22.7253C31.6277 22.7866 32.4277 22.5428 32.4864 23.5141C32.5177 24.0266 32.1702 24.1878 30.9977 24.2591C30.9977 24.4941 31.0102 24.7366 30.9952 24.9778C30.9689 25.4228 30.6627 25.7253 30.2564 25.7303C29.8489 25.7341 29.5339 25.4341 29.5052 24.9928C29.4902 24.7616 29.5027 24.5291 29.5027 24.2603C28.8852 24.1791 27.9889 24.4391 28.0302 23.4378C28.0664 22.5478 28.8839 22.7878 29.4764 22.7216H29.4752Z" fill="#FFFEEB"/>
<path d="M25.0125 42.8166C25.4887 42.9641 25.9162 43.0628 26.3075 43.2403C26.4225 43.2916 26.4862 43.5666 26.4862 43.7391C26.4862 44.2391 26.185 44.3866 25.015 44.4803C24.945 45.0653 25.2 45.9578 24.2012 45.9191C23.31 45.8853 23.545 45.0691 23.4825 44.4803C22.8925 44.3866 22.0162 44.6566 22.0275 43.6891C22.0387 42.7578 22.8787 43.0041 23.4825 42.9378C23.5487 42.3291 23.3012 41.5291 24.2737 41.4691C24.7925 41.4366 24.9575 41.7878 25.0112 42.8166H25.0125Z" fill="#FFFEEB"/>
<path d="M30.9012 31.2991C34.11 31.2429 37.2512 30.8066 40.2112 29.4904C40.9775 29.1491 41.7112 28.7254 42.4337 28.2979C42.8337 28.0616 43.1687 28.0479 43.56 28.2979C46.615 30.2604 50.0312 31.0166 53.5962 31.2479C54.5775 31.3116 55.5637 31.3154 56.5462 31.2979C57.5537 31.2804 57.8537 31.5441 57.6887 32.5354C57.2787 35.0079 56.9162 37.4941 56.3825 39.9404C55.5625 43.6991 54.31 47.3166 52.38 50.6691C50.97 53.1179 49.2487 55.3116 46.835 56.8429C45.8175 57.4879 44.6775 57.9491 43.5612 58.4216C43.2425 58.5566 42.7875 58.5304 42.4425 58.4229C39.2537 57.4304 36.8675 55.3666 34.9437 52.7154C32.905 49.9066 31.5762 46.7541 30.5562 43.4654C29.4362 39.8541 28.715 36.1566 28.2925 32.4016C28.1975 31.5554 28.4912 31.2654 29.3525 31.2941C29.8675 31.3116 30.3837 31.2979 30.8987 31.2979L30.9012 31.2991ZM29.8937 32.8904C29.8937 32.9841 29.8812 33.0916 29.895 33.1966C30.3475 36.6779 31.0462 40.1054 32.1275 43.4504C33.1337 46.5641 34.4162 49.5441 36.4087 52.1754C38.0325 54.3204 40.01 56.0154 42.5975 56.9016C42.8387 56.9841 43.155 56.9829 43.3987 56.9029C44.8262 56.4391 46.0887 55.6729 47.225 54.7004C49.6287 52.6441 51.2187 50.0179 52.4687 47.1654C54.2637 43.0704 55.2825 38.7616 55.9387 34.3579C56.0125 33.8591 56.07 33.3579 56.135 32.8666C54.8662 32.7954 53.665 32.7666 52.4712 32.6541C49.24 32.3504 46.1412 31.5766 43.32 29.9041C43.0887 29.7666 42.9225 29.7654 42.6862 29.9041C40.1187 31.4204 37.3137 32.2216 34.3712 32.5566C32.9012 32.7241 31.4187 32.7804 29.895 32.8904H29.8937Z" fill="#FFFEEB"/>
<path d="M46 39.9591C46.9725 39.9591 47.8912 39.9566 48.8087 39.9591C49.4825 39.9616 49.7462 40.2216 49.7487 40.8904C49.7525 42.2629 49.7525 43.6341 49.7487 45.0066C49.7475 45.6804 49.4862 45.9441 48.8175 45.9466C47.8987 45.9504 46.98 45.9466 46 45.9466C46 46.8429 46 47.7091 46 48.5766C46 49.4916 45.7962 49.6904 44.865 49.6904C43.5687 49.6904 42.2725 49.6916 40.9762 49.6904C40.2475 49.6891 40.0025 49.4379 40 48.7004C39.9975 47.7991 40 46.8991 40 45.9466C39.0612 45.9466 38.16 45.9479 37.2587 45.9466C36.4912 45.9454 36.2512 45.7066 36.25 44.9429C36.2487 43.6016 36.2475 42.2616 36.25 40.9204C36.2512 40.2141 36.5037 39.9604 37.205 39.9579C38.11 39.9541 39.0162 39.9579 39.9987 39.9579C39.9987 39.4716 39.9987 38.9966 39.9987 38.5204C39.9987 38.0529 39.995 37.5854 39.9987 37.1179C40.005 36.4979 40.2687 36.2191 40.8725 36.2166C42.2937 36.2104 43.715 36.2104 45.1362 36.2166C45.7162 36.2191 45.99 36.5004 45.995 37.0854C46.0025 38.0191 45.9975 38.9541 45.9975 39.9579L46 39.9591ZM48.2287 41.4566C47.285 41.4566 46.3962 41.4579 45.5075 41.4566C44.7412 41.4554 44.5025 41.2166 44.5 40.4516C44.4987 39.5529 44.5 38.6541 44.5 37.7429H41.5C41.5 38.7191 41.5075 39.6679 41.4975 40.6154C41.4925 41.1679 41.2087 41.4404 40.6562 41.4566C40.4062 41.4641 40.1562 41.4579 39.9075 41.4579C39.1962 41.4579 38.485 41.4579 37.7887 41.4579V44.4529C38.7162 44.4529 39.605 44.4516 40.4937 44.4529C41.2587 44.4541 41.4987 44.6941 41.5 45.4591C41.5012 46.3579 41.5 47.2566 41.5 48.1666H44.5C44.5 47.1891 44.4937 46.2416 44.5025 45.2941C44.5075 44.7404 44.7887 44.4704 45.3425 44.4541C45.53 44.4479 45.7175 44.4541 45.9037 44.4541C46.6775 44.4541 47.4512 44.4541 48.2275 44.4541V41.4591L48.2287 41.4566Z" fill="#FFFEEB"/>
</svg>
