<svg width="86" height="86" viewBox="0 0 86 86" fill="none" xmlns="http://www.w3.org/2000/svg">
<rect width="86" height="86" rx="32" fill="#9BC332"/>
<path d="M67 42.3799C66.6982 43.0887 66.1621 43.3292 65.4007 43.3292C50.4634 43.3167 35.5274 43.3192 20.5901 43.3192C20.4811 43.3192 20.3709 43.3217 20.262 43.3179C19.6696 43.2929 19.2387 42.976 19.0647 42.4387C18.8994 41.929 19.0509 41.4205 19.5205 41.0674C20.3321 40.4574 21.1599 39.8688 21.9815 39.2714C23.0435 38.5 24.1093 37.7335 25.1663 36.9558C26.2133 36.1868 27.3593 35.6495 28.6392 35.3953C28.8358 35.3564 29.0437 35.2275 29.1865 35.0822C30.0657 34.1917 30.9273 33.285 31.7952 32.3833C33.5498 30.5635 35.8467 30.4959 37.7015 32.2092C38.8612 33.2812 40.3503 33.2512 41.4612 32.1228C42.1851 31.3864 42.8889 30.6312 43.6103 29.8935C46.0625 27.3825 49.8585 27.3674 52.3195 29.8572C52.6275 30.169 52.9369 30.4796 53.2299 30.804C53.5556 31.1622 53.5568 31.5604 53.255 31.8472C52.9532 32.1328 52.5649 32.1102 52.2168 31.7683C51.9049 31.4615 51.6093 31.1371 51.2988 30.8278C49.4126 28.9542 46.6023 28.9317 44.7049 30.794C43.9572 31.5279 43.2509 32.3031 42.5182 33.052C40.8012 34.8066 38.4705 34.8542 36.6771 33.1773C35.5211 32.0952 34.0283 32.1215 32.9199 33.2487C32.2887 33.8899 31.6687 34.5424 31.0288 35.2062C31.7326 35.3853 32.3839 35.5318 33.0226 35.7209C33.3645 35.8223 33.6901 35.9826 34.012 36.1404C34.538 36.3984 34.7196 36.7804 34.5292 37.1787C34.3414 37.5707 33.9168 37.6621 33.4008 37.4054C32.0445 36.7303 30.6217 36.5011 29.1239 36.7428C28.0894 36.9094 27.1363 37.2851 26.286 37.895C24.5213 39.1612 22.768 40.4437 21.0109 41.7199C20.9633 41.7549 20.9232 41.7988 20.7992 41.9115C21.0309 41.9115 21.1787 41.9115 21.3252 41.9115C28.6843 41.9115 36.0434 41.914 43.4024 41.9002C43.6729 41.9002 43.9835 41.7912 44.2064 41.6347C45.4952 40.7292 46.7626 39.7937 48.0864 38.8318C47.127 38.262 46.1439 38.0428 45.0931 38.108C43.9835 38.1768 43.0016 38.5814 42.125 39.2564C41.3898 39.8225 40.6271 40.3184 39.6728 40.4524C38.2764 40.6491 37.1329 40.1206 36.1135 39.2426C35.8154 38.9859 35.8041 38.6277 36.0559 38.3133C36.2913 38.019 36.6057 37.9652 36.9363 38.1455C37.1141 38.242 37.2732 38.3722 37.4385 38.4899C38.5557 39.2852 39.6715 39.2977 40.7749 38.4912C41.6616 37.8437 42.5545 37.22 43.6354 36.932C45.5152 36.4323 47.2911 36.6802 48.943 37.7009C49.2511 37.8913 49.4402 37.8738 49.7132 37.6621C50.8416 36.7942 51.9863 35.9376 53.3978 35.5794C54.059 35.4116 54.7366 35.3051 55.4579 35.1611C55.2313 34.9181 54.9983 34.6614 54.7566 34.4109C54.2857 33.92 54.2243 33.5292 54.5738 33.1986C54.9207 32.8692 55.2914 32.9443 55.7773 33.4428C55.9188 33.5881 56.0666 33.7296 56.2006 33.8824C57.0172 34.8129 57.8713 35.652 59.1437 35.9851C59.7098 36.1342 60.2258 36.5362 60.7192 36.8881C62.5277 38.1743 64.3236 39.4781 66.1058 40.7993C66.4452 41.0511 66.7032 41.413 66.9975 41.7236V42.3811L67 42.3799ZM65.2316 41.8902C63.4194 40.5739 61.7162 39.334 60.0091 38.0992C57.294 36.1379 54.2068 36.1379 51.4891 38.1017C49.8823 39.2627 48.2817 40.4324 46.6787 41.5996C46.5735 41.676 46.4745 41.7624 46.3167 41.8889H65.2329L65.2316 41.8902Z" fill="#FFFEEB"/>
<path d="M26.9211 51.6676H40.3969C39.8032 51.2318 39.2897 50.8723 38.7963 50.4866C38.6322 50.3589 38.4356 50.176 38.4068 49.9957C38.3742 49.7815 38.4381 49.4596 38.5871 49.3332C38.755 49.1904 39.0631 49.1829 39.3123 49.1741C39.43 49.1703 39.5527 49.3018 39.7093 49.3933C40.7713 48.623 41.8534 47.8578 42.9167 47.0651C43.9374 46.3036 45.0019 45.6336 46.2493 45.3092C48.6601 44.6805 50.9533 44.9786 53.011 46.39C55.3805 48.0156 57.6761 49.7477 60.0168 51.4159C60.2373 51.5724 60.5491 51.6601 60.8234 51.6714C61.6186 51.7052 62.4164 51.6826 63.2129 51.6839C63.888 51.6839 64.2199 51.9156 64.2249 52.384C64.2299 52.8611 63.9055 53.0928 63.2292 53.0928C52.0466 53.0928 40.8627 53.0928 29.6801 53.0928C27.3995 53.0928 25.1189 53.0928 22.8396 53.0928C22.7143 53.0928 22.5891 53.0991 22.4651 53.0891C22.0543 53.0565 21.7863 52.7822 21.7813 52.399C21.7775 52.0208 22.043 51.7127 22.4488 51.6939C22.9786 51.6689 23.5121 51.7127 24.0406 51.6726C24.3161 51.6513 24.6267 51.5724 24.8471 51.4159C26.5416 50.2136 28.1948 48.9537 29.9056 47.7752C31.992 46.3387 34.2201 46.1796 36.5182 47.2492C36.7198 47.3431 36.9415 47.5623 36.9928 47.7652C37.0429 47.9643 36.9553 48.3225 36.805 48.4189C36.5933 48.5529 36.2176 48.623 36.001 48.5254C33.9257 47.5873 32.0321 47.8816 30.2462 49.2467C29.1942 50.0508 28.1071 50.8097 26.9236 51.6701L26.9211 51.6676ZM57.7976 51.6826C57.8089 51.6488 57.8201 51.6163 57.8314 51.5825C55.9866 50.2499 54.1819 48.8535 52.2846 47.5986C49.8963 46.0193 47.3652 45.9605 44.9092 47.427C43.5354 48.2486 42.2892 49.2868 40.988 50.2299C40.9705 50.2424 40.9755 50.2862 40.9667 50.3313C41.4539 50.6845 41.931 51.0652 42.4445 51.3883C42.69 51.5424 43.0056 51.6689 43.2899 51.6701C47.9726 51.6877 52.6553 51.6826 57.3367 51.6826H57.7963H57.7976Z" fill="#FFFEEB"/>
<path d="M32.921 57.5025C32.2034 57.5025 31.487 57.5062 30.7694 57.5025C30.2484 57.4987 29.9478 57.2495 29.934 56.8237C29.9203 56.3791 30.2309 56.0985 30.7706 56.096C32.2359 56.091 33.7012 56.091 35.1665 56.096C35.7051 56.0985 36.0157 56.3791 36.0019 56.8249C35.9881 57.2495 35.6875 57.4987 35.1653 57.5012C34.4176 57.5062 33.6687 57.5012 32.9197 57.5012L32.921 57.5025Z" fill="#FFFEEB"/>
<path d="M23.4081 47.546C22.6755 47.546 21.9428 47.5498 21.2102 47.546C20.6879 47.5422 20.3873 47.2943 20.3736 46.8685C20.3585 46.4239 20.6704 46.1421 21.2089 46.1396C22.6742 46.1346 24.1395 46.1346 25.6048 46.1396C26.1446 46.1421 26.4552 46.4213 26.4414 46.8672C26.4289 47.293 26.1283 47.5422 25.6061 47.546C24.8734 47.551 24.1408 47.546 23.4081 47.546Z" fill="#FFFEEB"/>
<path d="M61.2328 47.546C60.5315 47.546 59.8302 47.5522 59.1288 47.5435C58.6454 47.5385 58.3536 47.278 58.3398 46.8659C58.326 46.4351 58.6279 46.1421 59.1288 46.1395C60.5315 46.132 61.9354 46.132 63.3381 46.1395C63.8391 46.1421 64.1409 46.4351 64.1271 46.8672C64.1146 47.278 63.8215 47.5385 63.3381 47.5435C62.6368 47.551 61.9354 47.546 61.2341 47.546H61.2328Z" fill="#FFFEEB"/>
<path d="M51.0232 57.5025C50.5874 57.5025 50.1503 57.5113 49.7145 57.5C49.2473 57.4875 48.9555 57.2007 48.963 56.7861C48.9705 56.3929 49.2548 56.1073 49.6969 56.0998C50.5686 56.086 51.4415 56.086 52.3132 56.0998C52.7803 56.1061 53.0721 56.4029 53.0634 56.8162C53.0546 57.2282 52.7615 57.4925 52.2831 57.5012C51.8623 57.51 51.4415 57.5025 51.022 57.5025H51.0232Z" fill="#FFFEEB"/>
<path d="M35.4335 50.925C34.9877 50.8999 34.6934 50.5918 34.7172 50.176C34.7422 49.7502 35.0741 49.4935 35.5663 49.5185C36.0146 49.5411 36.3064 49.8441 36.2827 50.2624C36.2576 50.6845 35.9157 50.9525 35.4335 50.925Z" fill="#FFFEEB"/>
<path d="M48.8188 32.7039C48.3429 32.7064 48.0173 32.4096 48.0261 31.9813C48.0348 31.5692 48.3429 31.2975 48.8038 31.2962C49.286 31.2937 49.6053 31.583 49.5953 32.0138C49.5865 32.4246 49.2734 32.7014 48.8188 32.7052V32.7039Z" fill="#FFFEEB"/>
<path d="M44.8754 34.9582C44.3995 34.9582 44.0777 34.6588 44.0902 34.2293C44.1027 33.8172 44.4108 33.5505 44.8742 33.5505C45.3551 33.5505 45.672 33.8423 45.6594 34.2744C45.6469 34.6839 45.3326 34.9582 44.8767 34.9582H44.8754Z" fill="#FFFEEB"/>
<path d="M35.2367 35.24C34.7608 35.2475 34.4301 34.9545 34.4326 34.5286C34.4351 34.1166 34.742 33.8386 35.2003 33.8323C35.685 33.8261 36.0069 34.1103 36.0044 34.5387C36.0019 34.9482 35.69 35.2337 35.2367 35.24Z" fill="#FFFEEB"/>
<path d="M50.6048 35.7096C50.1288 35.7146 49.8007 35.419 49.8082 34.992C49.8145 34.5799 50.1226 34.3057 50.581 34.3019C51.0631 34.2982 51.385 34.585 51.3775 35.0145C51.3712 35.4253 51.0594 35.7046 50.6048 35.7096Z" fill="#FFFEEB"/>
<path d="M39.2583 36.0866C39.7192 36.0891 40.026 36.3621 40.0348 36.7729C40.0435 37.2012 39.7166 37.498 39.242 37.4943C38.7861 37.4905 38.4743 37.2125 38.4655 36.8017C38.4567 36.3709 38.7774 36.0828 39.2595 36.0853L39.2583 36.0866Z" fill="#FFFEEB"/>
<path d="M29.1211 39.7486C28.6653 39.7473 28.3509 39.4706 28.3396 39.061C28.3284 38.6302 28.6465 38.3384 29.1287 38.3409C29.592 38.3421 29.8989 38.6102 29.9089 39.0222C29.9202 39.4518 29.5958 39.7498 29.1211 39.7486Z" fill="#FFFEEB"/>
<path d="M43.9458 39.0923C44.4067 39.0948 44.7135 39.3679 44.7223 39.7786C44.731 40.207 44.4041 40.5038 43.9295 40.5C43.4736 40.4963 43.1618 40.2182 43.153 39.8074C43.1442 39.3766 43.4649 39.0886 43.947 39.0911L43.9458 39.0923Z" fill="#FFFEEB"/>
<path d="M32.5217 50.0808C32.0445 50.0896 31.7126 49.799 31.7139 49.3732C31.7139 48.9599 32.0207 48.6806 32.4778 48.6731C32.9625 48.6656 33.2869 48.9474 33.2856 49.3757C33.2856 49.7852 32.9725 50.072 32.5217 50.0808Z" fill="#FFFEEB"/>
<path d="M34.0209 39.6559C34.4793 39.6634 34.7849 39.9415 34.7861 40.3547C34.7861 40.7806 34.4555 41.0724 33.9796 41.0636C33.5275 41.0561 33.2156 40.7693 33.2144 40.3598C33.2131 39.9314 33.5375 39.6484 34.0209 39.6559Z" fill="#FFFEEB"/>
<path d="M25.1889 41.1575C24.713 41.1575 24.3911 40.8582 24.4037 40.4286C24.4162 40.0166 24.7243 39.7498 25.1877 39.7498C25.6686 39.7498 25.9854 40.0416 25.9729 40.4737C25.9604 40.8832 25.646 41.1575 25.1902 41.1575H25.1889Z" fill="#FFFEEB"/>
<path d="M27.433 32.8003C27.9102 32.7978 28.2333 33.0946 28.2233 33.5242C28.2133 33.9362 27.9052 34.2067 27.4443 34.208C26.9634 34.2093 26.644 33.9187 26.654 33.4879C26.6641 33.0783 26.9772 32.8016 27.4343 32.8003H27.433Z" fill="#FFFEEB"/>
<path d="M59.4854 32.9869C59.0271 32.9819 58.719 32.7064 58.714 32.2944C58.7077 31.8673 59.0358 31.573 59.513 31.5793C59.9689 31.5843 60.2794 31.8648 60.2845 32.2756C60.2895 32.7052 59.9676 32.992 59.4854 32.9869Z" fill="#FFFEEB"/>
<path d="M24.0715 32.1416C23.5906 32.1453 23.2688 31.856 23.2775 31.4252C23.285 31.0156 23.5981 30.7376 24.054 30.7339C24.5312 30.7301 24.8568 31.0257 24.848 31.454C24.8405 31.866 24.5324 32.139 24.0728 32.1416H24.0715Z" fill="#FFFEEB"/>
<path d="M56.2984 30.169C55.84 30.164 55.532 29.8885 55.5269 29.4764C55.5207 29.0494 55.8488 28.7551 56.326 28.7613C56.7818 28.7663 57.0924 29.0469 57.0974 29.4577C57.1025 29.8872 56.7806 30.174 56.2984 30.169Z" fill="#FFFEEB"/>
<path d="M38.508 57.5025C38.0271 57.505 37.7065 57.2157 37.714 56.7861C37.7215 56.3766 38.0346 56.0986 38.4905 56.0948C38.9676 56.0911 39.292 56.3866 39.2832 56.8149C39.2745 57.227 38.9676 57.4988 38.5068 57.5025H38.508Z" fill="#FFFEEB"/>
<path d="M43.7482 56.0948C44.2241 56.0948 44.546 56.3917 44.5335 56.8225C44.5209 57.2345 44.2129 57.5025 43.7507 57.5025C43.2698 57.5025 42.9517 57.2107 42.9642 56.7787C42.9755 56.3691 43.2898 56.0948 43.747 56.0948H43.7482Z" fill="#FFFEEB"/>
<path d="M29.512 30.169C29.0298 30.1728 28.7079 29.8848 28.7155 29.4552C28.7217 29.0456 29.0336 28.7664 29.4894 28.7614C29.9666 28.7563 30.2922 29.0507 30.286 29.479C30.2797 29.891 29.9716 30.1653 29.512 30.169Z" fill="#FFFEEB"/>
<path d="M56.2067 57.5025C55.7483 57.4988 55.4403 57.2233 55.4327 56.8125C55.4252 56.3854 55.7521 56.0898 56.2293 56.0949C56.6851 56.0999 56.997 56.3779 57.0032 56.7887C57.0095 57.2182 56.6876 57.5063 56.2067 57.5025Z" fill="#FFFEEB"/>
<path d="M60.3437 41.0636C59.8878 41.0636 59.5722 40.788 59.5609 40.3798C59.5484 39.9477 59.864 39.6559 60.3462 39.6559C60.8083 39.6559 61.1176 39.9239 61.1302 40.3347C61.1427 40.7643 60.8196 41.0636 60.3449 41.0636H60.3437Z" fill="#FFFEEB"/>
<path d="M52.1965 39.468C52.6562 39.4705 52.9655 39.7436 52.973 40.1543C52.9818 40.5827 52.6549 40.8795 52.179 40.8757C51.7231 40.872 51.4113 40.5939 51.4025 40.1844C51.3938 39.7536 51.7131 39.4655 52.1953 39.468H52.1965Z" fill="#FFFEEB"/>
<path d="M56.3058 39.4668C55.8499 39.4643 55.5368 39.1863 55.5281 38.7767C55.518 38.3459 55.8374 38.0566 56.3196 38.0591C56.7792 38.0616 57.0885 38.3334 57.0973 38.7442C57.1061 39.1725 56.7817 39.4693 56.3058 39.4668Z" fill="#FFFEEB"/>
<path d="M52.366 50.7384C51.9114 50.7346 51.5983 50.4553 51.5895 50.0458C51.5808 49.615 51.9014 49.3269 52.3835 49.3307C52.8444 49.3344 53.1513 49.6062 53.1588 50.0182C53.1663 50.4465 52.8407 50.7434 52.3648 50.7396L52.366 50.7384Z" fill="#FFFEEB"/>
<path d="M47.7859 50.6444C47.31 50.6456 46.9856 50.3488 46.9969 49.9193C47.0069 49.5072 47.315 49.238 47.7771 49.2367C48.2593 49.2354 48.5774 49.526 48.5661 49.9568C48.5561 50.3664 48.2417 50.6431 47.7859 50.6444Z" fill="#FFFEEB"/>
<path d="M44.3064 50.1747C43.8505 50.1722 43.5374 49.8955 43.5262 49.4859C43.5149 49.0551 43.8343 48.7645 44.3164 48.767C44.7786 48.7695 45.0854 49.0388 45.0954 49.4509C45.1054 49.8804 44.7811 50.1772 44.3052 50.1747H44.3064Z" fill="#FFFEEB"/>
<path d="M49.8386 47.2642C50.3208 47.263 50.6389 47.5535 50.6276 47.9844C50.6176 48.3939 50.3033 48.6707 49.8474 48.6719C49.3715 48.6732 49.0471 48.3763 49.0584 47.9468C49.0684 47.5347 49.3765 47.2655 49.8386 47.2642Z" fill="#FFFEEB"/>
</svg>
