<svg width="86" height="86" viewBox="0 0 86 86" fill="none" xmlns="http://www.w3.org/2000/svg">
<rect width="86" height="86" rx="32" fill="#9BC332"/>
<path d="M58.723 19C59.7011 19.3081 60.4563 19.8566 60.7117 20.9074C60.7806 21.1917 60.7932 21.4935 60.7957 21.7878C60.8057 22.8486 60.7994 23.9106 60.7994 25.0528C61.1463 25.0528 61.4669 25.0503 61.7888 25.0528C63.4394 25.0691 64.4902 26.101 64.5015 27.7441C64.514 29.4474 64.5127 31.1494 64.5015 32.8526C64.4927 34.3154 63.7087 35.2647 62.2572 35.524C57.6634 36.3405 53.0672 37.1383 48.4722 37.9436C47.4277 38.1264 46.382 38.308 45.3375 38.4996C44.7639 38.6048 44.3907 38.9567 44.3706 39.4852C44.3393 40.3243 44.3619 41.1672 44.3619 42.0689C44.9568 42.0689 45.5291 42.0664 46.1014 42.0689C46.799 42.0727 47.032 42.2993 47.037 42.9907C47.0432 43.7859 47.0382 44.5799 47.0382 45.3639C47.7997 45.5668 47.9049 45.7071 47.9061 46.4923C47.9061 49.0071 47.9061 51.5232 47.9061 54.0379C47.9061 54.1319 47.9099 54.2258 47.9036 54.3185C47.8686 54.7856 47.5805 55.0899 47.1835 55.0824C46.7852 55.0749 46.5047 54.7718 46.5009 54.2909C46.4909 52.7755 46.4959 51.2602 46.4959 49.7448C46.4959 48.7942 46.4959 47.8449 46.4959 46.8668H40.8189C40.8076 46.992 40.7888 47.111 40.7888 47.23C40.7876 52.3547 40.7826 57.4782 40.7901 62.603C40.7926 64.335 42.0274 65.6012 43.6618 65.5874C45.0958 65.5762 46.3557 64.4966 46.4446 63.0626C46.5323 61.6612 46.4847 60.2523 46.4947 58.8471C46.4984 58.3474 46.4897 57.8477 46.4972 57.3467C46.506 56.7969 46.7752 56.4864 47.2136 56.4976C47.6331 56.5089 47.8986 56.812 47.9011 57.3355C47.9099 58.7106 47.9199 60.0857 47.8986 61.4596C47.8873 62.221 47.9111 63.005 47.7483 63.7402C47.2899 65.8028 45.3412 67.1717 43.2635 66.9826C41.1345 66.7885 39.4438 65.0639 39.3999 62.9173C39.3461 60.3562 39.3799 57.7938 39.3774 55.2315C39.3761 52.2783 39.3761 49.3265 39.3774 46.3734C39.3774 45.6883 39.5126 45.5305 40.2353 45.3827C40.2353 44.6025 40.2328 43.811 40.2353 43.0182C40.2378 42.2918 40.4594 42.0714 41.1846 42.0677C41.7456 42.0652 42.3067 42.0677 42.9379 42.0677C42.9379 41.2135 42.9179 40.3907 42.9429 39.5692C42.9805 38.288 43.8334 37.3249 45.0908 37.102C45.4289 37.0418 45.7671 36.9817 46.1052 36.9229C51.3614 36.0061 56.619 35.0906 61.8752 34.1726C62.7682 34.0173 63.0863 33.6479 63.0888 32.7499C63.0938 31.1256 63.0925 29.5 63.0888 27.8756C63.0863 26.8587 62.688 26.4655 61.6636 26.4579C61.3993 26.4554 61.1363 26.4579 60.8169 26.4579C60.8082 26.6583 60.7944 26.8224 60.7944 26.9865C60.7919 27.9708 60.8032 28.9552 60.7894 29.9396C60.7694 31.4287 59.6911 32.4957 58.197 32.5007C55.9477 32.5082 53.6971 32.5045 51.4479 32.5007C50.9031 32.5007 50.5762 32.2327 50.575 31.8019C50.575 31.3723 50.9031 31.098 51.4441 31.0968C53.6308 31.0943 55.8187 31.0968 58.0053 31.0943C58.9709 31.0943 59.3817 30.6898 59.3817 29.7367C59.3842 27.0491 59.3855 24.3627 59.3817 21.6751C59.3805 20.861 58.9459 20.4077 58.1506 20.4064C54.1355 20.4002 50.1203 20.4039 46.1052 20.4052C46.0451 20.4052 45.9837 20.4164 45.8597 20.4277C45.8597 20.598 45.8597 20.7634 45.8597 20.9274C45.8597 22.8799 45.876 24.8336 45.8547 26.7861C45.8309 28.8663 43.8033 30.2201 41.956 29.3898C40.8502 28.8926 40.3154 27.9896 40.2816 26.7886C40.2666 26.2738 40.2916 25.7566 40.2716 25.2419C40.2403 24.4742 39.6604 23.9018 38.9278 23.8893C38.1901 23.8768 37.5489 24.4767 37.5401 25.2519C37.5214 27.0328 37.5339 28.8137 37.5326 30.5946C37.5326 30.7348 37.5326 30.8751 37.5326 31.093H38.0862C41.43 31.093 44.7727 31.093 48.1165 31.093C48.2568 31.093 48.4008 31.0792 48.5373 31.103C48.9218 31.1732 49.161 31.3999 49.1547 31.8044C49.1485 32.2051 48.9155 32.4343 48.5235 32.4907C48.3858 32.5107 48.243 32.4982 48.1027 32.4982C44.7752 32.4982 41.4476 32.4982 38.12 32.4982H37.5351C37.5351 32.6698 37.5351 32.8176 37.5351 32.9666C37.5351 33.9823 37.5451 34.998 37.5314 36.0124C37.5113 37.5703 36.2928 38.7827 34.7623 38.7852C33.2219 38.7877 32.0121 37.6017 31.9833 36.0299C31.9633 34.8765 31.9796 33.723 31.9796 32.4982C31.7779 32.4982 31.6139 32.4982 31.4485 32.4982C30.1836 32.4982 28.9175 32.4982 27.6526 32.4982C25.898 32.4982 24.9186 31.5852 24.8021 29.8456C24.7996 29.8006 24.7871 29.7555 24.7646 29.629C24.2048 29.629 23.6362 29.6302 23.0663 29.629C22.1834 29.6265 22.0006 29.4424 22.0006 28.5482C22.0006 26.6583 21.9993 24.7672 22.0006 22.8774C22.0006 22.0759 22.1984 21.8805 22.9975 21.878C23.5736 21.8767 24.1496 21.878 24.7683 21.878C24.7859 21.7001 24.7996 21.5511 24.8147 21.4033C24.9349 20.2449 25.5436 19.4747 26.6456 19.0939C26.7195 19.0751 26.7834 19.0338 26.8498 19C37.4738 19 48.099 19 58.723 19ZM31.9833 31.093C31.9833 30.8713 31.9833 30.7023 31.9833 30.5345C31.9833 29.4261 31.977 28.3165 31.9896 27.2081C31.9946 26.7447 32.2563 26.4817 32.6646 26.473C33.0654 26.4642 33.3421 26.731 33.3872 27.1756C33.3998 27.2995 33.3922 27.4248 33.3922 27.55C33.3922 29.0804 33.3922 30.6109 33.3922 32.1425C33.3922 33.4237 33.3822 34.7036 33.3973 35.9848C33.4073 36.8753 34.1286 37.4952 34.969 37.37C35.6666 37.2648 36.1312 36.6874 36.1312 35.8959C36.135 32.3504 36.1237 28.8049 36.1387 25.2594C36.145 23.729 37.3598 22.5179 38.8689 22.4841C40.363 22.4503 41.6129 23.6313 41.6855 25.1617C41.7106 25.6915 41.693 26.2238 41.6981 26.7548C41.7031 27.252 41.8696 27.6765 42.2892 27.9658C42.7388 28.2764 43.2285 28.309 43.7094 28.0597C44.2304 27.7905 44.4571 27.3246 44.4571 26.7498C44.4596 24.7196 44.4571 22.6883 44.4571 20.6582C44.4571 20.5843 44.4345 20.5116 44.422 20.4415H33.391C33.391 21.7415 33.3998 23.0064 33.386 24.27C33.381 24.7459 33.0854 25.039 32.6784 25.0377C32.2638 25.0377 31.9933 24.7509 31.9871 24.2663C31.977 23.3608 31.9833 22.4541 31.9833 21.5486C31.9833 21.1791 31.9833 20.8097 31.9833 20.4052C30.5017 20.4052 29.0828 20.4052 27.6638 20.4052C26.6269 20.4052 26.2211 20.8109 26.2211 21.8517C26.2186 24.4441 26.2211 27.0378 26.2211 29.6302C26.2211 29.8018 26.2248 29.9759 26.2537 30.1425C26.3513 30.6935 26.7546 31.078 27.3157 31.0843C28.8448 31.1018 30.3752 31.0905 31.9833 31.0905V31.093ZM45.5892 45.4053V43.5079H41.678V45.4053H45.5892ZM24.7783 28.1875V23.3207H23.4408V28.1875H24.7783Z" fill="#FFFEEB"/>
</svg>
