<svg width="86" height="86" viewBox="0 0 86 86" fill="none" xmlns="http://www.w3.org/2000/svg">
<rect width="86" height="86" rx="32" fill="#9BC332"/>
<path d="M20.9879 66.9835C20.0189 66.678 19.2991 66.1197 19.0787 65.0718C19.0337 64.8602 19.0237 64.6386 19.0224 64.422C19.0187 62.4077 19.0174 60.3933 19.0212 58.3777C19.0237 56.7891 19.9939 55.8063 21.5839 55.7925C22.6142 55.7838 23.6458 55.7925 24.6761 55.79C24.8276 55.79 24.9791 55.7775 25.1481 55.77C19.915 52.0881 17.7467 47.2081 19.721 41.0298C21.2558 36.2274 24.8063 33.3317 29.8103 32.7483C36.0348 32.0222 40.359 34.9417 43.0431 40.5178C43.0945 40.4076 43.147 40.3012 43.1934 40.1923C45.3617 35.0381 50.5272 32.2275 55.5699 32.6319C61.2061 33.0838 65.7331 37.2089 66.7897 42.6898C66.8685 43.1017 66.9311 43.5161 67 43.9293V45.9912C66.9725 46.0951 66.9311 46.1977 66.9174 46.3042C66.4429 50.2265 64.5299 53.2574 61.2524 55.4407C61.1235 55.5271 60.992 55.6097 60.8618 55.6936C62.0874 55.7913 63.268 55.7975 64.4498 55.79C65.3374 55.7838 66.0698 56.0917 66.5731 56.8391C66.7509 57.1045 66.8598 57.4163 67 57.7067V65.0167C66.7096 66.0383 66.0535 66.6943 65.032 66.9847H20.9879V66.9835ZM42.9768 65.3873C50.0827 65.3873 57.1887 65.3873 64.2946 65.3873C65.1534 65.3873 65.4038 65.1344 65.4038 64.2668C65.4038 62.3151 65.4063 60.362 65.4038 58.4103C65.4038 57.6679 65.1334 57.3962 64.3847 57.3962C50.1416 57.395 35.8984 57.395 21.6552 57.3962C20.8765 57.3962 20.6186 57.6591 20.6174 58.4378C20.6161 60.3583 20.6174 62.28 20.6174 64.2005C20.6174 65.1619 20.8415 65.3873 21.8004 65.3873C28.8601 65.3873 35.9184 65.3873 42.978 65.3873H42.9768ZM31.3727 55.7888C37.2104 55.8927 42.1054 51.079 42.2031 45.1399C42.2995 39.2383 37.5584 34.312 31.6694 34.193C25.7039 34.0728 20.715 38.8277 20.6199 44.723C20.5222 50.8149 25.2495 55.6798 31.3727 55.7888ZM54.6022 55.7888C60.6189 55.7525 65.4251 50.9113 65.4038 44.9083C65.3825 38.9879 60.4887 34.1617 54.5371 34.1905C48.5979 34.2193 43.7743 39.1031 43.8143 45.0472C43.8544 50.9964 48.7043 55.8251 54.6022 55.7888ZM43.0093 49.3501C41.8901 52.1394 40.1149 54.2138 37.5509 55.7625H48.4727C45.9013 54.2138 44.1273 52.1331 43.0093 49.3501Z" fill="#FFFEEB"/>
<path d="M40.6068 23.7833C40.6068 22.9883 40.5843 22.1908 40.6118 21.3971C40.6569 20.1339 41.5195 19.1762 42.7113 19.0197C43.8418 18.8719 44.9385 19.5693 45.284 20.6735C45.3529 20.8938 45.403 21.1317 45.4042 21.3608C45.4142 22.9833 45.4343 24.6058 45.4017 26.227C45.3792 27.33 44.7257 28.1625 43.7404 28.4792C42.809 28.7784 41.7886 28.4792 41.1614 27.7256C40.7633 27.2473 40.6068 26.6877 40.6056 26.0768C40.6043 25.3119 40.6056 24.5482 40.6056 23.7833C40.6056 23.7833 40.6068 23.7833 40.6081 23.7833H40.6068ZM43.8105 23.8383C43.8105 23.0747 43.818 22.311 43.808 21.5486C43.7992 20.9577 43.4813 20.5996 43.0005 20.6046C42.5185 20.6109 42.213 20.9652 42.2105 21.5648C42.203 23.0609 42.2018 24.5557 42.2105 26.0517C42.2143 26.6552 42.5185 26.9907 43.018 26.9857C43.5151 26.9807 43.8017 26.6489 43.8093 26.0342C43.8193 25.3018 43.8118 24.5695 43.8118 23.8371L43.8105 23.8383Z" fill="#FFFEEB"/>
<path d="M49.3866 31.0206C48.375 30.9893 47.6189 30.5336 47.2007 29.6084C46.7826 28.682 46.9053 27.7769 47.5988 27.042C48.6905 25.884 49.8223 24.7622 50.9728 23.6618C51.9092 22.7679 53.3564 22.8268 54.2703 23.7369C55.1642 24.627 55.2431 26.073 54.3718 26.9969C53.2688 28.1662 52.1158 29.2867 50.9665 30.4122C50.5384 30.8316 49.995 31.0219 49.3866 31.0194V31.0206ZM53.5217 25.3356C53.3114 25.0927 53.1661 24.8173 52.9395 24.6859C52.5965 24.4868 52.2547 24.6158 51.9718 24.9012C50.9628 25.9178 49.9449 26.9256 48.9359 27.9421C48.5478 28.334 48.514 28.8122 48.8295 29.1427C49.1687 29.4983 49.6495 29.4782 50.0651 29.0676C51.0829 28.0598 52.0983 27.0495 53.0998 26.0254C53.2625 25.8589 53.3527 25.6198 53.5229 25.3369L53.5217 25.3356Z" fill="#FFFEEB"/>
<path d="M33.436 23.0121C34.0757 23.0121 34.6303 23.2362 35.0823 23.6831C36.1589 24.7485 37.2393 25.8114 38.2947 26.8981C39.2337 27.8645 39.2074 29.3368 38.2709 30.2682C37.3495 31.1859 35.8873 31.2185 34.9358 30.2995C33.8353 29.2367 32.7524 28.155 31.692 27.052C30.9747 26.3071 30.8245 25.412 31.2176 24.4518C31.5819 23.5604 32.4607 23.0058 33.4372 23.0121H33.436ZM37.5173 28.6457C37.3382 28.3478 37.2544 28.1224 37.1016 27.9659C36.0963 26.9406 35.0798 25.9253 34.0569 24.9163C33.6663 24.5307 33.1856 24.5194 32.8551 24.8587C32.5171 25.2067 32.5446 25.6486 32.9465 26.058C33.5274 26.6477 34.1158 27.2286 34.7017 27.8145C35.1436 28.2564 35.5805 28.7021 36.0287 29.1365C36.2854 29.3844 36.6134 29.5071 36.9226 29.3043C37.1555 29.1515 37.3107 28.8824 37.5173 28.6457Z" fill="#FFFEEB"/>
<path d="M34.2096 47.7839C33.1455 47.7839 32.1477 47.7839 31.1512 47.7839C30.3236 47.7839 29.4961 47.7914 28.6686 47.7814C27.7059 47.7702 27.0536 47.1404 27.0148 46.1765C26.9935 45.6469 26.991 45.1136 27.016 44.584C27.0611 43.625 27.7234 42.9991 28.6899 42.9953C30.3449 42.9878 32 42.9928 33.6563 42.9928C33.824 42.9928 33.9918 42.9928 34.2109 42.9928C34.2109 42.7061 34.2009 42.4607 34.2121 42.2166C34.2447 41.5331 34.5539 41.0185 35.1936 40.7494C35.8396 40.4777 36.4769 40.5415 36.9776 41.0373C38.0868 42.1352 39.176 43.2557 40.2414 44.3962C40.7622 44.9533 40.7509 45.8447 40.2226 46.4106C39.1672 47.5398 38.0918 48.6515 36.9952 49.7394C36.4981 50.2327 35.8709 50.3241 35.2162 50.0474C34.5564 49.7695 34.2409 49.2499 34.2109 48.5464C34.2009 48.3147 34.2096 48.0806 34.2096 47.7827V47.7839ZM28.636 46.1865C28.8514 46.1865 29.0229 46.1865 29.1931 46.1865C31.0498 46.1865 32.9076 46.1852 34.7642 46.1865C35.5392 46.1865 35.8021 46.4519 35.8058 47.2256C35.8083 47.6625 35.8058 48.0994 35.8058 48.3611C36.8437 47.4121 37.9216 46.4268 39.007 45.4341C37.9366 44.3186 36.9263 43.267 35.9172 42.2166C35.8046 42.6711 35.8046 43.0829 35.8046 43.4961C35.8046 44.3436 35.5655 44.589 34.7304 44.589C32.8738 44.589 31.016 44.589 29.1593 44.589C28.9928 44.589 28.8263 44.589 28.6348 44.589V46.1865H28.636Z" fill="#FFFEEB"/>
<path d="M51.8102 42.9928C52.8655 42.9928 53.8621 42.9928 54.8586 42.9928C55.6861 42.9928 56.5136 42.9866 57.3412 42.9953C58.3001 43.0054 58.9612 43.6351 59.0037 44.5966C59.0275 45.1261 59.0275 45.6594 59.0037 46.189C58.9599 47.153 58.3077 47.7764 57.3387 47.7815C55.6836 47.7902 54.0273 47.784 52.3723 47.784C52.2045 47.784 52.0355 47.784 51.8089 47.784C51.8089 48.0719 51.8189 48.316 51.8064 48.5602C51.7714 49.2625 51.4521 49.782 50.7898 50.0537C50.1338 50.3229 49.5079 50.229 49.0108 49.7332C47.9167 48.6415 46.84 47.5311 45.7871 46.3993C45.2476 45.8197 45.2676 44.9283 45.8134 44.3487C46.8638 43.2357 47.9279 42.1353 49.0121 41.0549C49.5116 40.5578 50.1388 40.4715 50.7911 40.7331C51.4559 40.9998 51.7714 41.5231 51.8064 42.2254C51.8177 42.4583 51.8077 42.6911 51.8077 42.9916L51.8102 42.9928ZM50.1326 48.604C50.1614 48.0494 50.1877 47.6175 50.2064 47.1868C50.2402 46.4381 50.4944 46.1878 51.248 46.1865C53.1222 46.184 54.9963 46.1865 56.8704 46.1865C57.0357 46.1865 57.201 46.1865 57.3675 46.1865V44.589H52.0343C50.8207 44.589 50.2135 43.989 50.2127 42.7888C50.2127 42.6123 50.2127 42.4357 50.2127 42.3706C49.1548 43.3409 48.0782 44.3286 46.9902 45.3277C48.0519 46.4344 49.0447 47.471 50.1313 48.604H50.1326Z" fill="#FFFEEB"/>
</svg>
