<svg width="86" height="86" viewBox="0 0 86 86" fill="none" xmlns="http://www.w3.org/2000/svg">
<rect width="86" height="86" rx="32" fill="#9BC332"/>
<path d="M19 52.9316C19.2167 52.2804 19.5811 51.7318 20.0971 51.2772C20.9324 50.5421 21.8579 50.3805 22.8761 50.8264C23.2468 50.9892 23.6162 51.1645 23.9569 51.3812C25.466 52.3417 27.0465 52.3818 28.662 51.7381C29.967 51.2184 31.3133 50.9854 32.6971 51.1645C33.5074 51.2684 34.3152 51.4939 35.0917 51.7581C36.6609 52.2916 38.2201 52.3442 39.7642 51.7456C41.9333 50.904 44.0736 50.9078 46.244 51.7506C47.7706 52.3442 49.3411 52.348 50.8652 51.7494C52.4219 51.137 54.0049 50.9766 55.643 51.2409C55.7808 51.2634 55.9185 51.2947 56.0538 51.3311C56.5059 51.4538 56.7488 51.802 56.6537 52.1827C56.5535 52.5809 56.1965 52.7838 55.7419 52.6924C54.3017 52.4018 52.8928 52.4532 51.5114 53.0142C51.0518 53.2009 50.5647 53.3399 50.0775 53.4288C48.656 53.6893 47.2334 53.658 45.8821 53.1132C43.9421 52.3317 42.0486 52.3593 40.0986 53.1094C38.3015 53.8007 36.4442 53.7669 34.6483 53.0731C32.7773 52.3492 30.9526 52.3417 29.0866 53.0756C28.4867 53.3123 27.8242 53.4112 27.1805 53.5139C25.9481 53.7106 24.7934 53.4338 23.7064 52.8414C23.2681 52.6035 22.8335 52.3543 22.3814 52.1451C21.7489 51.8533 21.407 51.9422 20.876 52.477C20.3601 52.9967 20.2787 53.3186 20.5604 53.9423C20.7333 54.3255 20.9311 54.6999 21.1466 55.0606C22.176 56.7976 22.1923 58.6086 21.5811 60.4771C21.3782 61.0983 21.1904 61.7245 21.0126 62.3544C20.9637 62.526 20.9787 62.7151 20.96 62.9455C21.7402 62.9455 22.4703 62.943 23.2017 62.9455C23.779 62.9493 24.0708 63.176 24.0846 63.618C24.0984 64.0764 23.7803 64.3457 23.2004 64.3482C22.3263 64.3532 21.4509 64.3557 20.5767 64.3482C19.8479 64.3407 19.5485 64.0088 19.5385 63.2686C19.526 62.2191 19.7827 61.231 20.1572 60.2629C20.7834 58.6411 20.7546 57.0744 19.8216 55.549C19.4872 54.9967 19.2718 54.3693 19 53.7757C19 53.4939 19 53.2134 19 52.9316Z" fill="#FFFEEB"/>
<path d="M50.7286 30.1786C50.7286 31.1003 50.7073 32.0221 50.7424 32.9425C50.7511 33.193 50.8689 33.4886 51.0342 33.6764C53.4262 36.3928 54.3905 39.5225 53.6904 43.0892C53.2008 45.5802 51.5213 47.0605 49.1807 47.7443C47.8607 48.13 46.468 48.3492 45.0929 48.4544C42.5193 48.651 39.937 48.6172 37.4159 47.9484C35.0565 47.3222 33.1967 46.0799 32.4265 43.6152C32.0232 42.3253 31.9995 40.999 32.1698 39.6728C32.4678 37.3396 33.4447 35.322 35.0402 33.5938C35.1792 33.4435 35.2556 33.183 35.2594 32.9713C35.2781 31.6288 35.2681 30.285 35.2706 28.9412C35.2706 28.7859 35.2681 28.6269 35.2957 28.4741C35.3596 28.1209 35.5862 27.9206 35.9394 27.9068C36.3151 27.8917 36.5643 28.0859 36.6432 28.4578C36.6783 28.6231 36.6758 28.7997 36.6758 28.97C36.6783 30.4065 36.6645 31.8442 36.6846 33.2807C36.6908 33.7516 36.5418 34.0985 36.2124 34.4416C34.0358 36.7021 33.1516 39.401 33.6163 42.5069C33.903 44.423 35.0915 45.6115 36.8561 46.2878C38.2137 46.8088 39.6351 46.9991 41.0728 47.0705C43.5112 47.192 45.9471 47.1957 48.3291 46.552C48.8075 46.423 49.2784 46.2402 49.7267 46.0273C51.3999 45.237 52.289 43.8745 52.4569 42.061C52.7336 39.0729 51.8232 36.4867 49.7029 34.349C49.4274 34.0709 49.3159 33.7729 49.3184 33.3896C49.3285 31.6401 49.3272 29.8905 49.3209 28.141C49.3109 25.2931 47.4324 23.417 44.587 23.4208C43.2445 23.4233 41.8957 23.3745 40.5619 23.4897C39.0052 23.6249 37.8806 24.5041 37.1492 25.883C37.0903 25.9932 37.0427 26.1121 36.9676 26.2098C36.7359 26.5054 36.4316 26.5981 36.0972 26.424C35.749 26.2436 35.5762 25.9205 35.7666 25.5636C36.0584 25.0176 36.3627 24.4578 36.7635 23.9931C37.7992 22.7909 39.148 22.1058 40.7297 22.0482C42.3653 21.9893 44.0159 21.9618 45.644 22.1008C48.3215 22.33 50.5295 24.6894 50.691 27.3683C50.7474 28.3013 50.6998 29.2418 50.6998 30.1786C50.7098 30.1786 50.7198 30.1786 50.7286 30.1786Z" fill="#FFFEEB"/>
<path d="M31.7302 62.9455C33.1016 62.9455 34.3965 62.9455 35.6927 62.9455C37.6138 62.9455 39.5362 62.9368 41.4574 62.953C41.7993 62.9555 41.9345 62.8604 42.0197 62.516C42.2301 61.6706 42.5194 60.8466 42.7435 60.005C42.8187 59.7244 42.7999 59.4164 42.8137 59.1208C42.8387 58.581 43.1105 58.2642 43.5476 58.2792C43.9658 58.293 44.2752 58.6148 44.2088 59.1208C44.0898 60.0275 43.9082 60.9267 43.7204 61.8221C43.6452 62.1816 43.4849 62.5235 43.3472 62.9205C43.5551 62.9305 43.7041 62.9443 43.8531 62.9443C46.9152 62.9455 49.9772 62.9393 53.0392 62.953C53.3937 62.9543 53.5477 62.8729 53.6379 62.5009C53.8495 61.6243 54.1463 60.7702 54.373 59.8973C54.4494 59.6004 54.4131 59.2761 54.4394 58.9655C54.4745 58.5572 54.7575 58.2817 55.1294 58.2779C55.5189 58.2729 55.8258 58.566 55.8358 58.9956C55.8583 59.9737 55.683 60.9204 55.3373 61.8372C55.2071 62.1816 55.0931 62.5335 54.9579 62.9205H65.1171C64.943 62.258 64.7714 61.6518 64.6236 61.0394C64.4095 60.149 64.1465 59.2636 64.0263 58.3594C63.881 57.261 64.2154 56.2303 64.7414 55.261C65.0019 54.7813 65.2573 54.2979 65.4903 53.8057C65.747 53.2622 65.489 52.8477 65.1108 52.4695C64.7338 52.0913 64.3218 51.8283 63.777 52.0825C63.2686 52.3204 62.7714 52.5809 62.278 52.8477C61.1871 53.4363 60.0362 53.693 58.8001 53.5215C58.318 53.4551 58.0562 53.1771 58.09 52.7638C58.1239 52.3392 58.4632 52.0687 58.9604 52.1338C59.9999 52.2691 60.9342 51.9973 61.8309 51.4976C62.3331 51.2171 62.8453 50.9366 63.3825 50.7362C64.4458 50.3392 65.3387 50.7024 66.1014 51.4713C66.8616 52.2365 67.2411 53.122 66.8341 54.189C66.6349 54.7112 66.3857 55.2209 66.0964 55.6993C65.2473 57.107 65.2248 58.5698 65.7683 60.0676C66.149 61.1158 66.4771 62.1653 66.4546 63.2974C66.4408 64.005 66.1378 64.3356 65.4364 64.3519C65.1246 64.3594 64.8115 64.3532 64.4997 64.3532C51.9084 64.3532 39.3171 64.3532 26.7245 64.3532C26.568 64.3532 26.4114 64.3607 26.2561 64.3494C25.7928 64.3169 25.4972 64.0201 25.516 63.6118C25.5335 63.2185 25.8153 62.9555 26.2724 62.9518C27.4434 62.9418 28.6156 62.9305 29.7866 62.9568C30.1673 62.9656 30.3238 62.8579 30.4177 62.4821C30.6219 61.6681 30.9099 60.8741 31.1203 60.0613C31.2042 59.7345 31.1729 59.3788 31.1992 59.0369C31.2355 58.5622 31.5161 58.2704 31.9231 58.2792C32.3314 58.288 32.5906 58.591 32.6019 59.0694C32.6269 60.1164 32.3977 61.1133 32.0208 62.0839C31.9206 62.3431 31.8417 62.6111 31.729 62.948L31.7302 62.9455Z" fill="#FFFEEB"/>
<path d="M38.1224 29.6476C38.1224 29.0389 38.1124 28.429 38.125 27.8204C38.155 26.2174 39.4024 24.9287 41.0029 24.8911C42.3291 24.8598 43.6579 24.8598 44.9854 24.8911C46.5897 24.9274 47.8483 26.2073 47.8734 27.8091C47.8934 29.089 47.8859 30.3702 47.8771 31.6514C47.8721 32.3101 47.4188 32.6195 46.8064 32.364C44.2716 31.307 41.7443 31.307 39.2082 32.359C38.5708 32.6232 38.1337 32.3126 38.1262 31.6163C38.1187 30.9601 38.125 30.3051 38.125 29.6488C38.125 29.6488 38.125 29.6488 38.1262 29.6488L38.1224 29.6476ZM46.4645 30.7196C46.4645 29.6801 46.4933 28.6983 46.4557 27.7189C46.4244 26.9224 45.7544 26.3075 44.9353 26.295C43.6416 26.275 42.3467 26.2762 41.053 26.295C40.3216 26.305 39.6503 26.7897 39.5915 27.501C39.5038 28.5555 39.5689 29.6238 39.5689 30.7134C41.8683 29.9807 44.1376 29.9895 46.4657 30.7209L46.4645 30.7196Z" fill="#FFFEEB"/>
<path d="M43.0166 41.6427C43.9821 41.6427 44.949 41.6377 45.9145 41.644C46.4743 41.6477 46.7862 41.8982 46.7962 42.3265C46.8062 42.7736 46.4819 43.0441 45.9008 43.0466C43.9533 43.0516 42.0059 43.0529 40.0572 43.0466C39.4699 43.0441 39.1317 42.716 39.2119 42.2451C39.2883 41.793 39.6039 41.644 40.0247 41.644C41.0215 41.644 42.0197 41.644 43.0166 41.644V41.6427Z" fill="#FFFEEB"/>
<path d="M32.8814 28.2224C32.8814 29.049 32.8852 29.8743 32.8802 30.7008C32.8764 31.2118 32.6097 31.5261 32.1951 31.5337C31.7819 31.5412 31.4813 31.2193 31.4788 30.7234C31.4713 29.0402 31.4713 27.357 31.4788 25.6738C31.4813 25.1666 31.7643 24.8698 32.1951 24.8761C32.6259 24.8823 32.8764 25.1741 32.8802 25.6976C32.8864 26.5392 32.8814 27.3808 32.8814 28.2224Z" fill="#FFFEEB"/>
<path d="M54.522 28.2061C54.522 29.0163 54.5258 29.8266 54.522 30.6369C54.5195 31.2055 54.2365 31.5474 53.7956 31.5336C53.3673 31.5198 53.1181 31.2005 53.1181 30.6457C53.1156 29.0088 53.1156 27.3732 53.1181 25.7364C53.1181 25.1766 53.3661 24.8773 53.8106 24.8748C54.2552 24.8723 54.517 25.1791 54.522 25.7276C54.5283 26.5542 54.5232 27.3795 54.5232 28.2061H54.522Z" fill="#FFFEEB"/>
<path d="M29.5535 32.6845C29.5535 33.0728 29.5673 33.4622 29.551 33.8505C29.531 34.3201 29.2442 34.6257 28.8509 34.6269C28.4552 34.6282 28.1634 34.3239 28.1559 33.8542C28.1433 33.0765 28.1421 32.2988 28.1559 31.5223C28.1646 31.0564 28.4201 30.7947 28.8234 30.7822C29.2442 30.7684 29.5234 31.0377 29.5485 31.5186C29.5685 31.9068 29.5523 32.2963 29.5535 32.6845Z" fill="#FFFEEB"/>
<path d="M57.8435 32.6833C57.8435 33.0878 57.856 33.4924 57.8397 33.8956C57.821 34.3327 57.5317 34.6257 57.1509 34.627C56.7727 34.6295 56.4621 34.3377 56.4509 33.9031C56.4308 33.0954 56.4283 32.2863 56.4521 31.4786C56.4646 31.029 56.7615 30.7735 57.166 30.7835C57.5717 30.7935 57.821 31.0515 57.8397 31.5174C57.856 31.9056 57.8435 32.2951 57.8423 32.6833H57.8435Z" fill="#FFFEEB"/>
<path d="M29.5388 28.2036C29.5388 28.4829 29.5651 28.7647 29.5326 29.0402C29.4862 29.4359 29.2207 29.6601 28.8337 29.6501C28.4505 29.6401 28.1825 29.4134 28.1675 29.0101C28.1462 28.4679 28.1437 27.9231 28.17 27.3808C28.1888 26.9813 28.4442 26.7621 28.8438 26.7559C29.247 26.7509 29.4887 26.975 29.5351 27.367C29.5676 27.6426 29.5413 27.9243 29.5413 28.2036C29.5413 28.2036 29.5413 28.2036 29.5401 28.2036H29.5388Z" fill="#FFFEEB"/>
<path d="M57.837 28.2437C57.837 28.4917 57.8496 28.7409 57.8345 28.9888C57.8107 29.3934 57.564 29.6276 57.182 29.6488C56.7963 29.6701 56.4995 29.4547 56.472 29.059C56.4319 28.4879 56.4319 27.9106 56.472 27.3395C56.4995 26.945 56.7813 26.7371 57.1808 26.7546C57.5815 26.7734 57.807 27.0076 57.8345 27.4059C57.8533 27.6839 57.8383 27.9644 57.8383 28.2437H57.837Z" fill="#FFFEEB"/>
</svg>
