<?xml version="1.0" standalone="no"?>
<!DOCTYPE svg PUBLIC "-//W3C//DTD SVG 1.1//EN" "http://www.w3.org/Graphics/SVG/1.1/DTD/svg11.dtd" >
<svg xmlns="http://www.w3.org/2000/svg" xmlns:xlink="http://www.w3.org/1999/xlink" version="1.1">
<metadata>
Created by FontForge 20190801 at Wed Apr 26 08:59:22 2017
 By www-data
Copyright (c) 2017 by Gayane Bagdasaryan, Vyacheslav Kirilenko. All rights reserved.
</metadata>
<defs>
<font id="AeroportMedium" horiz-adv-x="272" >
  <font-face 
    font-family="AeroportMedium"
    font-weight="500"
    font-stretch="normal"
    units-per-em="1000"
    panose-1="2 0 0 0 0 0 0 0 0 0"
    ascent="755"
    descent="-245"
    x-height="467"
    cap-height="664"
    bbox="-52 -217 1093 885"
    underline-thickness="50"
    underline-position="-100"
    unicode-range="U+0020-F6D4"
  />
<missing-glyph horiz-adv-x="220" 
 />
    <glyph glyph-name=".notdef" horiz-adv-x="220" 
 />
    <glyph glyph-name=".null" horiz-adv-x="0" 
 />
    <glyph glyph-name="nonmarkingreturn" horiz-adv-x="333" 
 />
    <glyph glyph-name="space" unicode=" " horiz-adv-x="220" 
 />
    <glyph glyph-name="comma" unicode="," horiz-adv-x="244" 
d="M116 -127h-75l77 127h-61v130h130v-143z" />
    <glyph glyph-name="period" unicode="." horiz-adv-x="245" 
d="M57 0v130h130v-130h-130z" />
    <glyph glyph-name="A" unicode="A" horiz-adv-x="693" 
d="M179 150l-66 -150h-113l290 664h113l290 -664h-117l-66 150h-331zM466 251l-121 277l-122 -277h243z" />
    <glyph glyph-name="B" unicode="B" horiz-adv-x="654" 
d="M519 332q82 -46 82 -148q0 -81 -55 -132.5t-161 -51.5h-304v664h304q106 0 161 -52t55 -133q0 -101 -82 -147zM191 101h187q53 0 83 23t30 67q0 45 -30 68t-83 23h-187v-181zM191 383h187q53 0 83 23t30 66q0 45 -30 68t-83 23h-187v-180z" />
    <glyph glyph-name="C" unicode="C" horiz-adv-x="718" 
d="M385 576q-100 0 -166 -69.5t-66 -174.5t66 -174.5t166 -69.5q111 0 174 86h121q-41 -87 -117 -137t-178 -50q-146 0 -244 98.5t-98 246.5t98 246.5t244 98.5q101 0 177.5 -50.5t117.5 -137.5h-121q-64 87 -174 87z" />
    <glyph glyph-name="D" unicode="D" horiz-adv-x="713" 
d="M81 664h226q168 0 265.5 -95t97.5 -237t-97.5 -237t-265.5 -95h-226v664zM560 332q0 103 -68 167t-184 64h-117v-462h117q116 0 184 64t68 167z" />
    <glyph glyph-name="E" unicode="E" horiz-adv-x="601" 
d="M539 563h-348v-180h341v-101h-341v-181h348v-101h-458v664h458v-101z" />
    <glyph glyph-name="F" unicode="F" horiz-adv-x="582" 
d="M539 563h-348v-180h341v-101h-341v-282h-110v664h458v-101z" />
    <glyph glyph-name="G" unicode="G" horiz-adv-x="749" 
d="M385 576q-100 0 -166 -69.5t-66 -174.5t66 -174.5t166 -69.5q80 0 132.5 44.5t70.5 119.5h-228v101h346q0 -164 -91 -265t-228 -101q-147 0 -245.5 98.5t-98.5 246.5t98 246.5t244 98.5q101 0 179 -51t119 -137h-122q-64 87 -176 87z" />
    <glyph glyph-name="H" unicode="H" horiz-adv-x="738" 
d="M657 0h-110v282h-356v-282h-110v664h110v-281h356v281h110v-664z" />
    <glyph glyph-name="I" unicode="I" 
d="M191 664v-664h-110v664h110z" />
    <glyph glyph-name="J" unicode="J" horiz-adv-x="409" 
d="M223 664h110v-479q0 -88 -53.5 -136.5t-144.5 -48.5h-130v101h130q88 0 88 84v479z" />
    <glyph glyph-name="K" unicode="K" horiz-adv-x="626" 
d="M282 332l340 -332h-147l-284 275v-275h-110v664h110v-278l288 278h143z" />
    <glyph glyph-name="L" unicode="L" horiz-adv-x="567" 
d="M191 664v-563h348v-101h-458v664h110z" />
    <glyph glyph-name="M" unicode="M" horiz-adv-x="951" 
d="M760 488l-284 -488l-285 488v-488h-110v664h130l266 -462l268 462h125v-664h-110v488z" />
    <glyph glyph-name="N" unicode="N" horiz-adv-x="761" 
d="M570 664h110v-664h-121l-368 501v-501h-110v664h121l368 -501v501z" />
    <glyph glyph-name="O" unicode="O" horiz-adv-x="772" 
d="M386 677q148 0 245.5 -99.5t97.5 -245.5t-97.5 -245.5t-245.5 -99.5t-245.5 99.5t-97.5 245.5t97.5 245.5t245.5 99.5zM386 88q100 0 166.5 70t66.5 174t-66.5 174t-166.5 70t-166.5 -70t-66.5 -174t66.5 -174t166.5 -70z" />
    <glyph glyph-name="P" unicode="P" horiz-adv-x="665" 
d="M627 464q0 -87 -57.5 -143.5t-168.5 -56.5h-210v-264h-110v664h320q111 0 168.5 -56.5t57.5 -143.5zM517 464q0 47 -32 73t-88 26h-206v-198h206q56 0 88 26t32 73z" />
    <glyph glyph-name="Q" unicode="Q" horiz-adv-x="772" 
d="M386 677q148 0 245.5 -99.5t97.5 -245.5q0 -148 -100 -248l102 -107h-136l-47 48q-74 -38 -162 -38q-148 0 -245.5 99.5t-97.5 245.5t97.5 245.5t245.5 99.5zM386 88q48 0 87 16l-170 177h137l115 -120q64 69 64 171q0 104 -66.5 174t-166.5 70t-166.5 -70t-66.5 -174
t66.5 -174t166.5 -70z" />
    <glyph glyph-name="R" unicode="R" horiz-adv-x="678" 
d="M627 464q0 -87 -57.5 -143.5t-168.5 -56.5h-43l296 -264h-157l-295 264h-11v-264h-110v664h320q111 0 168.5 -56.5t57.5 -143.5zM517 464q0 47 -32 73t-88 26h-206v-198h206q56 0 88 26t32 73z" />
    <glyph glyph-name="S" unicode="S" horiz-adv-x="622" 
d="M24 174h115q22 -41 69.5 -63.5t109.5 -22.5q70 0 113.5 27t43.5 71q0 41 -30.5 63t-96.5 29l-115 12q-97 9 -144 58t-47 125q0 91 70.5 147.5t189.5 56.5q114 0 188 -55.5t99 -132.5h-116q-18 39 -66 63t-107 24q-69 0 -108.5 -28.5t-39.5 -70.5q0 -77 110 -88l123 -13
q93 -10 146.5 -59.5t53.5 -125.5q0 -84 -70.5 -144t-196.5 -60q-122 0 -194.5 52.5t-99.5 134.5z" />
    <glyph glyph-name="T" unicode="T" horiz-adv-x="604" 
d="M24 664h556v-101h-223v-563h-110v563h-223v101z" />
    <glyph glyph-name="U" unicode="U" horiz-adv-x="732" 
d="M76 276v388h110v-387q0 -92 47.5 -140.5t132.5 -48.5t132.5 48.5t47.5 140.5v387h110v-388q0 -137 -78.5 -213t-211.5 -76t-211.5 76t-78.5 213z" />
    <glyph glyph-name="V" unicode="V" horiz-adv-x="685" 
d="M122 664l222 -528l223 528h113l-281 -664h-113l-281 664h117z" />
    <glyph glyph-name="W" unicode="W" horiz-adv-x="1054" 
d="M9 664h115l173 -515l169 515h121l172 -514l171 514h115l-224 -664h-121l-174 524l-170 -524h-122z" />
    <glyph glyph-name="X" unicode="X" horiz-adv-x="629" 
d="M489 0l-176 245l-176 -245h-123l237 331l-237 333h127l174 -244l175 244h125l-238 -331l238 -333h-126z" />
    <glyph glyph-name="Y" unicode="Y" horiz-adv-x="619" 
d="M311 348l189 316h119l-254 -424v-240h-110v240l-255 424h121z" />
    <glyph glyph-name="Z" unicode="Z" horiz-adv-x="638" 
d="M585 664v-102l-398 -461h398v-101h-532v102l397 461h-398v101h533z" />
    <glyph glyph-name="a" unicode="a" horiz-adv-x="565" 
d="M269 480q104 0 167 -49t63 -137v-294h-106v43q-53 -56 -157 -56q-86 0 -136.5 40.5t-50.5 116.5q0 55 31.5 89.5t77 47.5t104.5 13h131q0 45 -34 66.5t-89 21.5q-95 0 -119 -60h-113q20 76 83.5 117t147.5 41zM393 184v25h-132q-106 0 -106 -65q0 -31 26 -49t72 -18
q61 0 100.5 29t39.5 78z" />
    <glyph glyph-name="b" unicode="b" horiz-adv-x="614" 
d="M76 669h106v-245q53 56 147 56q109 0 173.5 -72.5t64.5 -174.5q0 -101 -64.5 -173.5t-173.5 -72.5q-94 0 -147 56v-43h-106v669zM178 233q0 -70 42.5 -109t101.5 -39q60 0 99.5 43.5t39.5 104.5q0 62 -39.5 105.5t-99.5 43.5q-59 0 -101.5 -39t-42.5 -110z" />
    <glyph glyph-name="c" unicode="c" horiz-adv-x="562" 
d="M519 322h-111q-37 60 -114 60q-62 0 -101.5 -42t-39.5 -106t39.5 -106.5t101.5 -42.5q77 0 114 60h111q-25 -73 -86 -115.5t-139 -42.5q-105 0 -176 70.5t-71 176.5q0 105 71 175.5t176 70.5q78 0 139 -42.5t86 -115.5z" />
    <glyph glyph-name="d" unicode="d" horiz-adv-x="614" 
d="M432 669h106v-669h-106v43q-53 -56 -147 -56q-109 0 -173.5 72.5t-64.5 173.5q0 102 64.5 174.5t173.5 72.5q94 0 147 -56v245zM436 233q0 71 -42.5 110t-101.5 39q-60 0 -99.5 -43.5t-39.5 -105.5q0 -61 39.5 -104.5t99.5 -43.5q59 0 101.5 39t42.5 109z" />
    <glyph glyph-name="e" unicode="e" horiz-adv-x="575" 
d="M296 85q76 0 110 51h115q-25 -69 -86.5 -109t-138.5 -40q-107 0 -178 70t-71 177q0 106 68.5 176t175.5 70q103 0 170 -69.5t67 -172.5q0 -28 -2 -42h-369q9 -49 47.5 -80t91.5 -31zM291 385q-51 0 -88 -29t-44 -75h257q-8 47 -41.5 75.5t-83.5 28.5z" />
    <glyph glyph-name="f" unicode="f" horiz-adv-x="377" 
d="M206 0h-106v374h-86v93h86v50q0 67 47 109.5t131 42.5h74v-93h-74q-35 0 -53.5 -18t-18.5 -48v-43h146v-93h-146v-374z" />
    <glyph glyph-name="g" unicode="g" horiz-adv-x="612" 
d="M430 467h106v-443q0 -111 -64.5 -176t-179.5 -65q-83 0 -148 43t-90 118h116q33 -63 122 -63q64 0 101 39t37 102v21q-53 -56 -147 -56q-109 0 -173.5 72.5t-64.5 174.5q0 101 64.5 173.5t173.5 72.5q94 0 147 -56v43zM434 234q0 70 -42.5 109t-101.5 39
q-60 0 -99.5 -43.5t-39.5 -104.5q0 -62 39.5 -105.5t99.5 -43.5q59 0 101.5 39t42.5 110z" />
    <glyph glyph-name="h" unicode="h" horiz-adv-x="603" 
d="M331 480q94 0 150 -55t56 -147v-278h-106v263q0 55 -30 87t-87 32q-54 0 -93 -39t-39 -103v-240h-106v669h106v-245q48 56 149 56z" />
    <glyph glyph-name="i" unicode="i" horiz-adv-x="262" 
d="M78 467h106v-467h-106v467zM71 558v121h119v-121h-119z" />
    <glyph glyph-name="j" unicode="j" horiz-adv-x="282" 
d="M98 467h106v-490q0 -181 -184 -181h-72v93h71q79 0 79 88v490zM91 558v121h119v-121h-119z" />
    <glyph glyph-name="k" unicode="k" horiz-adv-x="539" 
d="M76 669h106v-394l207 192h145l-255 -234l255 -233h-145l-207 181v-181h-106v669z" />
    <glyph glyph-name="l" unicode="l" horiz-adv-x="258" 
d="M76 669h106v-669h-106v669z" />
    <glyph glyph-name="m" unicode="m" horiz-adv-x="938" 
d="M765 0v265q0 55 -28 86t-84 31q-52 0 -89.5 -39t-37.5 -103v-240h-106v265q0 55 -28 86t-84 31q-52 0 -89 -38.5t-37 -101.5v-242h-106v467h106v-43q49 56 142 56q118 0 170 -79q63 79 174 79q92 0 147.5 -55t55.5 -146v-279h-106z" />
    <glyph glyph-name="n" unicode="n" horiz-adv-x="603" 
d="M331 480q94 0 150 -55t56 -147v-278h-106v263q0 55 -30 87t-87 32q-54 0 -93 -39t-39 -103v-240h-106v467h106v-43q48 56 149 56z" />
    <glyph glyph-name="o" unicode="o" horiz-adv-x="594" 
d="M297 480q107 0 178 -70.5t71 -176.5q0 -105 -71.5 -175.5t-177.5 -70.5q-107 0 -178.5 70.5t-71.5 175.5q0 106 71.5 176.5t178.5 70.5zM297 85q62 0 102.5 42.5t40.5 105.5q0 65 -40.5 107t-102.5 42t-103 -42.5t-41 -106.5q0 -63 41 -105.5t103 -42.5z" />
    <glyph glyph-name="p" unicode="p" horiz-adv-x="614" 
d="M182 -204h-106v671h106v-43q53 56 147 56q109 0 173.5 -72.5t64.5 -173.5q0 -102 -64.5 -174.5t-173.5 -72.5q-94 0 -147 56v-247zM178 234q0 -71 42.5 -110t101.5 -39q60 0 99.5 43.5t39.5 105.5q0 61 -39.5 104.5t-99.5 43.5q-59 0 -101.5 -39t-42.5 -109z" />
    <glyph glyph-name="q" unicode="q" horiz-adv-x="614" 
d="M538 -204h-106v247q-53 -56 -147 -56q-109 0 -173.5 72.5t-64.5 174.5q0 101 64.5 173.5t173.5 72.5q94 0 147 -56v43h106v-671zM436 234q0 70 -42.5 109t-101.5 39q-60 0 -99.5 -43.5t-39.5 -104.5q0 -62 39.5 -105.5t99.5 -43.5q59 0 101.5 39t42.5 110z" />
    <glyph glyph-name="r" unicode="r" horiz-adv-x="406" 
d="M76 467h106v-57q18 27 55.5 44t87.5 17h43v-101h-43q-67 0 -105 -39t-38 -105v-226h-106v467z" />
    <glyph glyph-name="s" unicode="s" horiz-adv-x="532" 
d="M499 332h-115q-29 56 -127 56q-45 0 -72 -15t-27 -40q0 -42 86 -50l89 -7q161 -13 161 -139q0 -65 -57.5 -107.5t-155.5 -42.5q-100 0 -163.5 42t-79.5 113h116q23 -63 138 -63q42 0 69 14t27 39q0 44 -85 52l-95 9q-156 15 -156 136q0 66 56.5 108.5t150.5 42.5
q100 0 160.5 -40.5t79.5 -107.5z" />
    <glyph glyph-name="t" unicode="t" horiz-adv-x="409" 
d="M114 584h106v-117h146v-93h-146v-211q0 -70 71 -70h75v-93h-76q-86 0 -131 38.5t-45 106.5v229h-86v93h86v117z" />
    <glyph glyph-name="u" unicode="u" horiz-adv-x="597" 
d="M269 -13q-92 0 -147.5 55t-55.5 147v278h106v-263q0 -55 29 -87t85 -32q53 0 91 39t38 103v240h106v-467h-106v43q-48 -56 -146 -56z" />
    <glyph glyph-name="v" unicode="v" horiz-adv-x="548" 
d="M539 467l-214 -467h-102l-214 467h118l150 -327l149 327h113z" />
    <glyph glyph-name="w" unicode="w" horiz-adv-x="857" 
d="M19 467h110l124 -331l123 331h108l124 -332l124 332h106l-174 -467h-111l-125 335l-125 -335h-110z" />
    <glyph glyph-name="x" unicode="x" horiz-adv-x="550" 
d="M528 467l-188 -229l191 -238h-133l-126 155l-127 -155h-126l190 234l-187 233h135l120 -150l121 150h130z" />
    <glyph glyph-name="y" unicode="y" horiz-adv-x="548" 
d="M218 10l-209 457h118l150 -327l149 327h113l-225 -492q-49 -106 -70 -133q-33 -41 -99 -45q-11 -1 -24 -1h-57v93h41q34 0 54.5 17t40.5 63z" />
    <glyph glyph-name="z" unicode="z" horiz-adv-x="520" 
d="M472 0h-422v93l280 281h-280v93h420v-93l-282 -281h284v-93z" />
    <glyph glyph-name="nbspace" unicode="&#xa0;" horiz-adv-x="220" 
 />
    <glyph glyph-name="Agrave" unicode="&#xc0;" horiz-adv-x="693" 
d="M179 150l-66 -150h-113l290 664h113l290 -664h-117l-66 150h-331zM466 251l-121 277l-122 -277h243z" />
    <glyph glyph-name="Aacute" unicode="&#xc1;" horiz-adv-x="693" 
d="M179 150l-66 -150h-113l290 664h113l290 -664h-117l-66 150h-331zM466 251l-121 277l-122 -277h243z" />
    <glyph glyph-name="Acircumflex" unicode="&#xc2;" horiz-adv-x="693" 
d="M179 150l-66 -150h-113l290 664h113l290 -664h-117l-66 150h-331zM466 251l-121 277l-122 -277h243z" />
    <glyph glyph-name="Atilde" unicode="&#xc3;" horiz-adv-x="693" 
d="M179 150l-66 -150h-113l290 664h113l290 -664h-117l-66 150h-331zM466 251l-121 277l-122 -277h243z" />
    <glyph glyph-name="Adieresis" unicode="&#xc4;" horiz-adv-x="693" 
d="M179 150l-66 -150h-113l290 664h113l290 -664h-117l-66 150h-331zM466 251l-121 277l-122 -277h243z" />
    <glyph glyph-name="Aring" unicode="&#xc5;" horiz-adv-x="693" 
d="M179 150l-66 -150h-113l290 664h113l290 -664h-117l-66 150h-331zM466 251l-121 277l-122 -277h243z" />
    <glyph glyph-name="AE" unicode="&#xc6;" horiz-adv-x="1015" 
d="M953 563h-348v-180h341v-101h-341v-181h348v-101h-458v150h-265l-106 -150h-135l476 664h488v-101zM301 251h194v274z" />
    <glyph glyph-name="Ccedilla" unicode="&#xc7;" horiz-adv-x="718" 
d="M385 576q-100 0 -166 -69.5t-66 -174.5t66 -174.5t166 -69.5q111 0 174 86h121q-35 -75 -97.5 -123t-145.5 -60l-133 -175h-112l134 176q-124 20 -203.5 114t-79.5 226q0 148 98 246.5t244 98.5q101 0 177.5 -50.5t117.5 -137.5h-121q-64 87 -174 87z" />
    <glyph glyph-name="Egrave" unicode="&#xc8;" horiz-adv-x="601" 
d="M539 563h-348v-180h341v-101h-341v-181h348v-101h-458v664h458v-101z" />
    <glyph glyph-name="Eacute" unicode="&#xc9;" horiz-adv-x="601" 
d="M539 563h-348v-180h341v-101h-341v-181h348v-101h-458v664h458v-101z" />
    <glyph glyph-name="Ecircumflex" unicode="&#xca;" horiz-adv-x="601" 
d="M539 563h-348v-180h341v-101h-341v-181h348v-101h-458v664h458v-101z" />
    <glyph glyph-name="Edieresis" unicode="&#xcb;" horiz-adv-x="601" 
d="M539 563h-348v-180h341v-101h-341v-181h348v-101h-458v664h458v-101z" />
    <glyph glyph-name="Igrave" unicode="&#xcc;" 
d="M191 664v-664h-110v664h110z" />
    <glyph glyph-name="Iacute" unicode="&#xcd;" 
d="M191 664v-664h-110v664h110z" />
    <glyph glyph-name="Icircumflex" unicode="&#xce;" 
d="M191 664v-664h-110v664h110z" />
    <glyph glyph-name="Idieresis" unicode="&#xcf;" 
d="M191 664v-664h-110v664h110z" />
    <glyph glyph-name="Eth" unicode="&#xd0;" horiz-adv-x="742" 
d="M110 664h226q168 0 265.5 -95t97.5 -237t-97.5 -237t-265.5 -95h-226v282h-91v100h91v282zM589 332q0 103 -68 167t-184 64h-117v-181h206v-100h-206v-181h117q116 0 184 64t68 167z" />
    <glyph glyph-name="Ntilde" unicode="&#xd1;" horiz-adv-x="761" 
d="M570 664h110v-664h-121l-368 501v-501h-110v664h121l368 -501v501z" />
    <glyph glyph-name="Ograve" unicode="&#xd2;" horiz-adv-x="772" 
d="M386 677q148 0 245.5 -99.5t97.5 -245.5t-97.5 -245.5t-245.5 -99.5t-245.5 99.5t-97.5 245.5t97.5 245.5t245.5 99.5zM386 88q100 0 166.5 70t66.5 174t-66.5 174t-166.5 70t-166.5 -70t-66.5 -174t66.5 -174t166.5 -70z" />
    <glyph glyph-name="Oacute" unicode="&#xd3;" horiz-adv-x="772" 
d="M386 677q148 0 245.5 -99.5t97.5 -245.5t-97.5 -245.5t-245.5 -99.5t-245.5 99.5t-97.5 245.5t97.5 245.5t245.5 99.5zM386 88q100 0 166.5 70t66.5 174t-66.5 174t-166.5 70t-166.5 -70t-66.5 -174t66.5 -174t166.5 -70z" />
    <glyph glyph-name="Ocircumflex" unicode="&#xd4;" horiz-adv-x="772" 
d="M386 677q148 0 245.5 -99.5t97.5 -245.5t-97.5 -245.5t-245.5 -99.5t-245.5 99.5t-97.5 245.5t97.5 245.5t245.5 99.5zM386 88q100 0 166.5 70t66.5 174t-66.5 174t-166.5 70t-166.5 -70t-66.5 -174t66.5 -174t166.5 -70z" />
    <glyph glyph-name="Otilde" unicode="&#xd5;" horiz-adv-x="772" 
d="M386 677q148 0 245.5 -99.5t97.5 -245.5t-97.5 -245.5t-245.5 -99.5t-245.5 99.5t-97.5 245.5t97.5 245.5t245.5 99.5zM386 88q100 0 166.5 70t66.5 174t-66.5 174t-166.5 70t-166.5 -70t-66.5 -174t66.5 -174t166.5 -70z" />
    <glyph glyph-name="Odieresis" unicode="&#xd6;" horiz-adv-x="772" 
d="M386 677q148 0 245.5 -99.5t97.5 -245.5t-97.5 -245.5t-245.5 -99.5t-245.5 99.5t-97.5 245.5t97.5 245.5t245.5 99.5zM386 88q100 0 166.5 70t66.5 174t-66.5 174t-166.5 70t-166.5 -70t-66.5 -174t66.5 -174t166.5 -70z" />
    <glyph glyph-name="Oslash" unicode="&#xd8;" horiz-adv-x="804" 
d="M766 677l-102 -118q81 -95 81 -227q0 -146 -97.5 -245.5t-245.5 -99.5q-105 0 -188 53l-46 -53h-131l102 118q-80 96 -80 227q0 146 97.5 245.5t245.5 99.5q104 0 187 -53l46 53h131zM402 88q100 0 166.5 70t66.5 174q0 80 -43 144l-309 -356q52 -32 119 -32zM169 332
q0 -82 42 -144l309 356q-54 32 -118 32q-100 0 -166.5 -70t-66.5 -174z" />
    <glyph glyph-name="Ugrave" unicode="&#xd9;" horiz-adv-x="731" 
d="M76 276v388h110v-387q0 -92 47.5 -140.5t132.5 -48.5t132.5 48.5t47.5 140.5v387h110v-388q0 -137 -78.5 -213t-211.5 -76t-211.5 76t-78.5 213z" />
    <glyph glyph-name="Uacute" unicode="&#xda;" horiz-adv-x="731" 
d="M76 276v388h110v-387q0 -92 47.5 -140.5t132.5 -48.5t132.5 48.5t47.5 140.5v387h110v-388q0 -137 -78.5 -213t-211.5 -76t-211.5 76t-78.5 213z" />
    <glyph glyph-name="Ucircumflex" unicode="&#xdb;" horiz-adv-x="731" 
d="M76 276v388h110v-387q0 -92 47.5 -140.5t132.5 -48.5t132.5 48.5t47.5 140.5v387h110v-388q0 -137 -78.5 -213t-211.5 -76t-211.5 76t-78.5 213z" />
    <glyph glyph-name="Udieresis" unicode="&#xdc;" horiz-adv-x="731" 
d="M76 276v388h110v-387q0 -92 47.5 -140.5t132.5 -48.5t132.5 48.5t47.5 140.5v387h110v-388q0 -137 -78.5 -213t-211.5 -76t-211.5 76t-78.5 213z" />
    <glyph glyph-name="Yacute" unicode="&#xdd;" horiz-adv-x="619" 
d="M311 348l189 316h119l-254 -424v-240h-110v240l-255 424h121z" />
    <glyph glyph-name="Thorn" unicode="&#xde;" horiz-adv-x="665" 
d="M627 338q0 -87 -57.5 -143.5t-168.5 -56.5h-210v-138h-110v664h110v-126h210q111 0 168.5 -56.5t57.5 -143.5zM517 338q0 47 -32 73t-88 26h-206v-198h206q56 0 88 26t32 73z" />
    <glyph glyph-name="germandbls" unicode="&#xdf;" horiz-adv-x="585" 
d="M300 584q-53 0 -85.5 -34.5t-32.5 -104.5v-445h-106v445q0 113 60 175t164 62q98 0 157 -55.5t59 -139.5q0 -94 -77 -148q37 -23 60 -63.5t23 -84.5q0 -82 -54.5 -136.5t-144.5 -54.5h-50v93h31q52 0 82 28t30 71q0 44 -29.5 72t-82.5 28h-31v93h31q49 0 77.5 28t28.5 73
q0 42 -30 70t-80 28z" />
    <glyph glyph-name="agrave" unicode="&#xe0;" horiz-adv-x="565" 
d="M269 480q104 0 167 -49t63 -137v-294h-106v43q-53 -56 -157 -56q-86 0 -136.5 40.5t-50.5 116.5q0 55 31.5 89.5t77 47.5t104.5 13h131q0 45 -34 66.5t-89 21.5q-95 0 -119 -60h-113q20 76 83.5 117t147.5 41zM393 184v25h-132q-106 0 -106 -65q0 -31 26 -49t72 -18
q61 0 100.5 29t39.5 78z" />
    <glyph glyph-name="aacute" unicode="&#xe1;" horiz-adv-x="565" 
d="M269 480q104 0 167 -49t63 -137v-294h-106v43q-53 -56 -157 -56q-86 0 -136.5 40.5t-50.5 116.5q0 55 31.5 89.5t77 47.5t104.5 13h131q0 45 -34 66.5t-89 21.5q-95 0 -119 -60h-113q20 76 83.5 117t147.5 41zM393 184v25h-132q-106 0 -106 -65q0 -31 26 -49t72 -18
q61 0 100.5 29t39.5 78z" />
    <glyph glyph-name="acircumflex" unicode="&#xe2;" horiz-adv-x="565" 
d="M269 480q104 0 167 -49t63 -137v-294h-106v43q-53 -56 -157 -56q-86 0 -136.5 40.5t-50.5 116.5q0 55 31.5 89.5t77 47.5t104.5 13h131q0 45 -34 66.5t-89 21.5q-95 0 -119 -60h-113q20 76 83.5 117t147.5 41zM393 184v25h-132q-106 0 -106 -65q0 -31 26 -49t72 -18
q61 0 100.5 29t39.5 78z" />
    <glyph glyph-name="atilde" unicode="&#xe3;" horiz-adv-x="565" 
d="M269 480q104 0 167 -49t63 -137v-294h-106v43q-53 -56 -157 -56q-86 0 -136.5 40.5t-50.5 116.5q0 55 31.5 89.5t77 47.5t104.5 13h131q0 45 -34 66.5t-89 21.5q-95 0 -119 -60h-113q20 76 83.5 117t147.5 41zM393 184v25h-132q-106 0 -106 -65q0 -31 26 -49t72 -18
q61 0 100.5 29t39.5 78z" />
    <glyph glyph-name="adieresis" unicode="&#xe4;" horiz-adv-x="565" 
d="M269 480q104 0 167 -49t63 -137v-294h-106v43q-53 -56 -157 -56q-86 0 -136.5 40.5t-50.5 116.5q0 55 31.5 89.5t77 47.5t104.5 13h131q0 45 -34 66.5t-89 21.5q-95 0 -119 -60h-113q20 76 83.5 117t147.5 41zM393 184v25h-132q-106 0 -106 -65q0 -31 26 -49t72 -18
q61 0 100.5 29t39.5 78z" />
    <glyph glyph-name="aring" unicode="&#xe5;" horiz-adv-x="565" 
d="M269 480q104 0 167 -49t63 -137v-294h-106v43q-53 -56 -157 -56q-86 0 -136.5 40.5t-50.5 116.5q0 55 31.5 89.5t77 47.5t104.5 13h131q0 45 -34 66.5t-89 21.5q-95 0 -119 -60h-113q20 76 83.5 117t147.5 41zM393 184v25h-132q-106 0 -106 -65q0 -31 26 -49t72 -18
q61 0 100.5 29t39.5 78z" />
    <glyph glyph-name="ae" unicode="&#xe6;" horiz-adv-x="917" 
d="M638 85q76 0 110 51h115q-25 -69 -86.5 -109t-138.5 -40q-125 0 -197 91q-27 -38 -82.5 -64.5t-122.5 -26.5q-86 0 -136.5 40.5t-50.5 116.5q0 55 31.5 89.5t77 47.5t104.5 13h131q0 45 -34 66.5t-89 21.5q-95 0 -119 -60h-113q20 76 83.5 117t147.5 41q126 0 188 -70
q68 70 176 70q103 0 170 -69.5t67 -172.5q0 -28 -2 -42h-369q9 -49 47.5 -80t91.5 -31zM393 184v25h-132q-106 0 -106 -65q0 -31 26 -49t72 -18q61 0 100.5 29t39.5 78zM633 385q-51 0 -88 -29t-44 -75h257q-8 47 -41.5 75.5t-83.5 28.5z" />
    <glyph glyph-name="ccedilla" unicode="&#xe7;" horiz-adv-x="562" 
d="M519 322h-111q-37 60 -114 60q-62 0 -101.5 -42t-39.5 -106t39.5 -106.5t101.5 -42.5q77 0 114 60h111q-20 -59 -64.5 -98.5t-103.5 -52.5l-136 -178h-112l136 177q-85 17 -138.5 83.5t-53.5 157.5q0 105 71 175.5t176 70.5q78 0 139 -42.5t86 -115.5z" />
    <glyph glyph-name="egrave" unicode="&#xe8;" horiz-adv-x="575" 
d="M296 85q76 0 110 51h115q-25 -69 -86.5 -109t-138.5 -40q-107 0 -178 70t-71 177q0 106 68.5 176t175.5 70q103 0 170 -69.5t67 -172.5q0 -28 -2 -42h-369q9 -49 47.5 -80t91.5 -31zM291 385q-51 0 -88 -29t-44 -75h257q-8 47 -41.5 75.5t-83.5 28.5z" />
    <glyph glyph-name="eacute" unicode="&#xe9;" horiz-adv-x="575" 
d="M296 85q76 0 110 51h115q-25 -69 -86.5 -109t-138.5 -40q-107 0 -178 70t-71 177q0 106 68.5 176t175.5 70q103 0 170 -69.5t67 -172.5q0 -28 -2 -42h-369q9 -49 47.5 -80t91.5 -31zM291 385q-51 0 -88 -29t-44 -75h257q-8 47 -41.5 75.5t-83.5 28.5z" />
    <glyph glyph-name="ecircumflex" unicode="&#xea;" horiz-adv-x="575" 
d="M296 85q76 0 110 51h115q-25 -69 -86.5 -109t-138.5 -40q-107 0 -178 70t-71 177q0 106 68.5 176t175.5 70q103 0 170 -69.5t67 -172.5q0 -28 -2 -42h-369q9 -49 47.5 -80t91.5 -31zM291 385q-51 0 -88 -29t-44 -75h257q-8 47 -41.5 75.5t-83.5 28.5z" />
    <glyph glyph-name="edieresis" unicode="&#xeb;" horiz-adv-x="575" 
d="M296 85q76 0 110 51h115q-25 -69 -86.5 -109t-138.5 -40q-107 0 -178 70t-71 177q0 106 68.5 176t175.5 70q103 0 170 -69.5t67 -172.5q0 -28 -2 -42h-369q9 -49 47.5 -80t91.5 -31zM291 385q-51 0 -88 -29t-44 -75h257q-8 47 -41.5 75.5t-83.5 28.5z" />
    <glyph glyph-name="igrave" unicode="&#xec;" horiz-adv-x="262" 
d="M79 467h106v-467h-106v467z" />
    <glyph glyph-name="iacute" unicode="&#xed;" horiz-adv-x="262" 
d="M79 467h106v-467h-106v467z" />
    <glyph glyph-name="icircumflex" unicode="&#xee;" horiz-adv-x="262" 
d="M79 467h106v-467h-106v467z" />
    <glyph glyph-name="idieresis" unicode="&#xef;" horiz-adv-x="262" 
d="M79 467h106v-467h-106v467z" />
    <glyph glyph-name="eth" unicode="&#xf0;" horiz-adv-x="584" 
d="M131 669h115l37 -44l140 66v-89l-86 -41l114 -137q86 -103 86 -202q0 -98 -71 -166.5t-174 -68.5q-104 0 -174.5 66.5t-70.5 164.5q0 96 69 164.5t166 68.5q18 0 26 -1l-57 70l-144 -69v91l92 43zM292 85q60 0 99.5 39t39.5 95t-39.5 95t-99.5 39t-99.5 -39t-39.5 -95
t39.5 -95t99.5 -39z" />
    <glyph glyph-name="ntilde" unicode="&#xf1;" horiz-adv-x="603" 
d="M331 480q94 0 150 -55t56 -147v-278h-106v263q0 55 -30 87t-87 32q-54 0 -93 -39t-39 -103v-240h-106v467h106v-43q48 56 149 56z" />
    <glyph glyph-name="ograve" unicode="&#xf2;" horiz-adv-x="594" 
d="M297 480q107 0 178 -70.5t71 -176.5q0 -105 -71.5 -175.5t-177.5 -70.5q-107 0 -178.5 70.5t-71.5 175.5q0 106 71.5 176.5t178.5 70.5zM297 85q62 0 102.5 42.5t40.5 105.5q0 65 -40.5 107t-102.5 42t-103 -42.5t-41 -106.5q0 -63 41 -105.5t103 -42.5z" />
    <glyph glyph-name="oacute" unicode="&#xf3;" horiz-adv-x="594" 
d="M297 480q107 0 178 -70.5t71 -176.5q0 -105 -71.5 -175.5t-177.5 -70.5q-107 0 -178.5 70.5t-71.5 175.5q0 106 71.5 176.5t178.5 70.5zM297 85q62 0 102.5 42.5t40.5 105.5q0 65 -40.5 107t-102.5 42t-103 -42.5t-41 -106.5q0 -63 41 -105.5t103 -42.5z" />
    <glyph glyph-name="ocircumflex" unicode="&#xf4;" horiz-adv-x="594" 
d="M297 480q107 0 178 -70.5t71 -176.5q0 -105 -71.5 -175.5t-177.5 -70.5q-107 0 -178.5 70.5t-71.5 175.5q0 106 71.5 176.5t178.5 70.5zM297 85q62 0 102.5 42.5t40.5 105.5q0 65 -40.5 107t-102.5 42t-103 -42.5t-41 -106.5q0 -63 41 -105.5t103 -42.5z" />
    <glyph glyph-name="otilde" unicode="&#xf5;" horiz-adv-x="594" 
d="M297 480q107 0 178 -70.5t71 -176.5q0 -105 -71.5 -175.5t-177.5 -70.5q-107 0 -178.5 70.5t-71.5 175.5q0 106 71.5 176.5t178.5 70.5zM297 85q62 0 102.5 42.5t40.5 105.5q0 65 -40.5 107t-102.5 42t-103 -42.5t-41 -106.5q0 -63 41 -105.5t103 -42.5z" />
    <glyph glyph-name="odieresis" unicode="&#xf6;" horiz-adv-x="594" 
d="M297 480q107 0 178 -70.5t71 -176.5q0 -105 -71.5 -175.5t-177.5 -70.5q-107 0 -178.5 70.5t-71.5 175.5q0 106 71.5 176.5t178.5 70.5zM297 85q62 0 102.5 42.5t40.5 105.5q0 65 -40.5 107t-102.5 42t-103 -42.5t-41 -106.5q0 -63 41 -105.5t103 -42.5z" />
    <glyph glyph-name="oslash" unicode="&#xf8;" horiz-adv-x="587" 
d="M567 480l-77 -91q53 -67 53 -156q0 -105 -71.5 -175.5t-177.5 -70.5q-66 0 -122 29l-25 -29h-127l77 90q-53 67 -53 156q0 106 71.5 176.5t178.5 70.5q65 0 122 -30l25 30h126zM148 233q0 -42 18 -75l184 215q-27 11 -56 11q-63 0 -104.5 -43t-41.5 -108zM294 83
q63 0 104 43t41 107q0 39 -18 75l-183 -215q24 -10 56 -10z" />
    <glyph glyph-name="ugrave" unicode="&#xf9;" horiz-adv-x="597" 
d="M269 -13q-92 0 -147.5 55t-55.5 147v278h106v-263q0 -55 29 -87t85 -32q53 0 91 39t38 103v240h106v-467h-106v43q-48 -56 -146 -56z" />
    <glyph glyph-name="uacute" unicode="&#xfa;" horiz-adv-x="597" 
d="M269 -13q-92 0 -147.5 55t-55.5 147v278h106v-263q0 -55 29 -87t85 -32q53 0 91 39t38 103v240h106v-467h-106v43q-48 -56 -146 -56z" />
    <glyph glyph-name="ucircumflex" unicode="&#xfb;" horiz-adv-x="597" 
d="M269 -13q-92 0 -147.5 55t-55.5 147v278h106v-263q0 -55 29 -87t85 -32q53 0 91 39t38 103v240h106v-467h-106v43q-48 -56 -146 -56z" />
    <glyph glyph-name="udieresis" unicode="&#xfc;" horiz-adv-x="597" 
d="M269 -13q-92 0 -147.5 55t-55.5 147v278h106v-263q0 -55 29 -87t85 -32q53 0 91 39t38 103v240h106v-467h-106v43q-48 -56 -146 -56z" />
    <glyph glyph-name="yacute" unicode="&#xfd;" horiz-adv-x="548" 
d="M218 10l-209 457h118l150 -327l149 327h113l-225 -492q-49 -106 -70 -133q-33 -41 -99 -45q-11 -1 -24 -1h-57v93h41q34 0 54.5 17t40.5 63z" />
    <glyph glyph-name="thorn" unicode="&#xfe;" horiz-adv-x="614" 
d="M182 -204h-106v873h106v-245q53 56 147 56q109 0 173.5 -72.5t64.5 -173.5q0 -102 -64.5 -174.5t-173.5 -72.5q-94 0 -147 56v-247zM178 234q0 -71 42.5 -110t101.5 -39q60 0 99.5 43.5t39.5 105.5q0 61 -39.5 104.5t-99.5 43.5q-59 0 -101.5 -39t-42.5 -109z" />
    <glyph glyph-name="ydieresis" unicode="&#xff;" horiz-adv-x="548" 
d="M218 10l-209 457h118l150 -327l149 327h113l-225 -492q-49 -106 -70 -133q-33 -41 -99 -45q-11 -1 -24 -1h-57v93h41q34 0 54.5 17t40.5 63z" />
    <glyph glyph-name="Amacron" unicode="&#x100;" horiz-adv-x="693" 
d="M179 150l-66 -150h-113l290 664h113l290 -664h-117l-66 150h-331zM466 251l-121 277l-122 -277h243z" />
    <glyph glyph-name="amacron" unicode="&#x101;" horiz-adv-x="565" 
d="M269 480q104 0 167 -49t63 -137v-294h-106v43q-53 -56 -157 -56q-86 0 -136.5 40.5t-50.5 116.5q0 55 31.5 89.5t77 47.5t104.5 13h131q0 45 -34 66.5t-89 21.5q-95 0 -119 -60h-113q20 76 83.5 117t147.5 41zM393 184v25h-132q-106 0 -106 -65q0 -31 26 -49t72 -18
q61 0 100.5 29t39.5 78z" />
    <glyph glyph-name="Abreve" unicode="&#x102;" horiz-adv-x="693" 
d="M179 150l-66 -150h-113l290 664h113l290 -664h-117l-66 150h-331zM466 251l-121 277l-122 -277h243z" />
    <glyph glyph-name="abreve" unicode="&#x103;" horiz-adv-x="565" 
d="M269 480q104 0 167 -49t63 -137v-294h-106v43q-53 -56 -157 -56q-86 0 -136.5 40.5t-50.5 116.5q0 55 31.5 89.5t77 47.5t104.5 13h131q0 45 -34 66.5t-89 21.5q-95 0 -119 -60h-113q20 76 83.5 117t147.5 41zM393 184v25h-132q-106 0 -106 -65q0 -31 26 -49t72 -18
q61 0 100.5 29t39.5 78z" />
    <glyph glyph-name="Aogonek" unicode="&#x104;" horiz-adv-x="693" 
d="M576 0l-66 150h-331l-65 -150h-114l289 664h116l288 -664q-93 -56 -93 -91q0 -32 47 -32h46v-81h-55q-137 0 -137 92q0 55 75 112zM345 533l-123 -282h245z" />
    <glyph glyph-name="aogonek" unicode="&#x105;" horiz-adv-x="565" 
d="M269 480q104 0 167 -49t63 -137v-294q-94 -56 -94 -91q0 -32 47 -32h47v-81h-56q-137 0 -137 92q0 58 87 112v43q-53 -56 -157 -56q-86 0 -136.5 40.5t-50.5 116.5q0 55 31.5 89.5t77 47.5t104.5 13h131q0 45 -34 66.5t-89 21.5q-95 0 -119 -60h-113q20 76 83.5 117
t147.5 41zM393 184v25h-132q-106 0 -106 -65q0 -31 26 -49t72 -18q61 0 100.5 29t39.5 78z" />
    <glyph glyph-name="Cacute" unicode="&#x106;" horiz-adv-x="718" 
d="M385 576q-100 0 -166 -69.5t-66 -174.5t66 -174.5t166 -69.5q111 0 174 86h121q-41 -87 -117 -137t-178 -50q-146 0 -244 98.5t-98 246.5t98 246.5t244 98.5q101 0 177.5 -50.5t117.5 -137.5h-121q-64 87 -174 87z" />
    <glyph glyph-name="cacute" unicode="&#x107;" horiz-adv-x="562" 
d="M519 322h-111q-37 60 -114 60q-62 0 -101.5 -42t-39.5 -106t39.5 -106.5t101.5 -42.5q77 0 114 60h111q-25 -73 -86 -115.5t-139 -42.5q-105 0 -176 70.5t-71 176.5q0 105 71 175.5t176 70.5q78 0 139 -42.5t86 -115.5z" />
    <glyph glyph-name="Ccircumflex" unicode="&#x108;" horiz-adv-x="718" 
d="M385 576q-100 0 -166 -69.5t-66 -174.5t66 -174.5t166 -69.5q111 0 174 86h121q-41 -87 -117 -137t-178 -50q-146 0 -244 98.5t-98 246.5t98 246.5t244 98.5q101 0 177.5 -50.5t117.5 -137.5h-121q-64 87 -174 87z" />
    <glyph glyph-name="ccircumflex" unicode="&#x109;" horiz-adv-x="562" 
d="M519 322h-111q-37 60 -114 60q-62 0 -101.5 -42t-39.5 -106t39.5 -106.5t101.5 -42.5q77 0 114 60h111q-25 -73 -86 -115.5t-139 -42.5q-105 0 -176 70.5t-71 176.5q0 105 71 175.5t176 70.5q78 0 139 -42.5t86 -115.5z" />
    <glyph glyph-name="Cdotaccent" unicode="&#x10a;" horiz-adv-x="718" 
d="M385 576q-100 0 -166 -69.5t-66 -174.5t66 -174.5t166 -69.5q111 0 174 86h121q-41 -87 -117 -137t-178 -50q-146 0 -244 98.5t-98 246.5t98 246.5t244 98.5q101 0 177.5 -50.5t117.5 -137.5h-121q-64 87 -174 87z" />
    <glyph glyph-name="cdotaccent" unicode="&#x10b;" horiz-adv-x="562" 
d="M519 322h-111q-37 60 -114 60q-62 0 -101.5 -42t-39.5 -106t39.5 -106.5t101.5 -42.5q77 0 114 60h111q-25 -73 -86 -115.5t-139 -42.5q-105 0 -176 70.5t-71 176.5q0 105 71 175.5t176 70.5q78 0 139 -42.5t86 -115.5z" />
    <glyph glyph-name="Ccaron" unicode="&#x10c;" horiz-adv-x="718" 
d="M385 576q-100 0 -166 -69.5t-66 -174.5t66 -174.5t166 -69.5q111 0 174 86h121q-41 -87 -117 -137t-178 -50q-146 0 -244 98.5t-98 246.5t98 246.5t244 98.5q101 0 177.5 -50.5t117.5 -137.5h-121q-64 87 -174 87z" />
    <glyph glyph-name="ccaron" unicode="&#x10d;" horiz-adv-x="562" 
d="M519 322h-111q-37 60 -114 60q-62 0 -101.5 -42t-39.5 -106t39.5 -106.5t101.5 -42.5q77 0 114 60h111q-25 -73 -86 -115.5t-139 -42.5q-105 0 -176 70.5t-71 176.5q0 105 71 175.5t176 70.5q78 0 139 -42.5t86 -115.5z" />
    <glyph glyph-name="Dcaron" unicode="&#x10e;" horiz-adv-x="713" 
d="M81 664h226q168 0 265.5 -95t97.5 -237t-97.5 -237t-265.5 -95h-226v664zM560 332q0 103 -68 167t-184 64h-117v-463h117q116 0 184 64.5t68 167.5z" />
    <glyph glyph-name="dcaron" unicode="&#x10f;" horiz-adv-x="764" 
d="M432 669h106v-669h-106v43q-53 -56 -147 -56q-109 0 -173.5 72.5t-64.5 173.5q0 102 64.5 174.5t173.5 72.5q94 0 147 -56v245zM436 233q0 71 -42.5 110t-101.5 39q-60 0 -99.5 -43.5t-39.5 -105.5q0 -61 39.5 -104.5t99.5 -43.5q59 0 101.5 39t42.5 109zM693 407h-75
l77 127h-61v130h130v-143z" />
    <glyph glyph-name="Dcroat" unicode="&#x110;" horiz-adv-x="742" 
d="M110 664h226q168 0 265.5 -95t97.5 -237t-97.5 -237t-265.5 -95h-226v282h-91v100h91v282zM589 332q0 103 -68 167t-184 64h-117v-181h206v-100h-206v-181h117q116 0 184 64t68 167z" />
    <glyph glyph-name="dcroat" unicode="&#x111;" horiz-adv-x="627" 
d="M432 669h106v-63h79v-85h-79v-521h-104v43q-55 -56 -149 -56q-109 0 -173.5 71.5t-64.5 171.5q0 99 64.5 170.5t173.5 71.5q94 0 147 -54v103h-154v85h154v63zM436 230q0 69 -42.5 106.5t-101.5 37.5q-61 0 -100 -42t-39 -102q0 -61 39 -103t100 -42q59 0 101.5 38
t42.5 107z" />
    <glyph glyph-name="Emacron" unicode="&#x112;" horiz-adv-x="601" 
d="M539 563h-348v-180h341v-101h-341v-181h348v-101h-458v664h458v-101z" />
    <glyph glyph-name="emacron" unicode="&#x113;" horiz-adv-x="575" 
d="M296 85q76 0 110 51h115q-25 -69 -86.5 -109t-138.5 -40q-107 0 -178 70t-71 177q0 106 68.5 176t175.5 70q103 0 170 -69.5t67 -172.5q0 -28 -2 -42h-369q9 -49 47.5 -80t91.5 -31zM291 385q-51 0 -88 -29t-44 -75h257q-8 47 -41.5 75.5t-83.5 28.5z" />
    <glyph glyph-name="Ebreve" unicode="&#x114;" horiz-adv-x="601" 
d="M539 563h-348v-180h341v-101h-341v-181h348v-101h-458v664h458v-101z" />
    <glyph glyph-name="ebreve" unicode="&#x115;" horiz-adv-x="575" 
d="M296 85q76 0 110 51h115q-25 -69 -86.5 -109t-138.5 -40q-107 0 -178 70t-71 177q0 106 68.5 176t175.5 70q103 0 170 -69.5t67 -172.5q0 -28 -2 -42h-369q9 -49 47.5 -80t91.5 -31zM291 385q-51 0 -88 -29t-44 -75h257q-8 47 -41.5 75.5t-83.5 28.5z" />
    <glyph glyph-name="Edotaccent" unicode="&#x116;" horiz-adv-x="601" 
d="M539 563h-348v-180h341v-101h-341v-181h348v-101h-458v664h458v-101z" />
    <glyph glyph-name="edotaccent" unicode="&#x117;" horiz-adv-x="575" 
d="M296 85q76 0 110 51h115q-25 -69 -86.5 -109t-138.5 -40q-107 0 -178 70t-71 177q0 106 68.5 176t175.5 70q103 0 170 -69.5t67 -172.5q0 -28 -2 -42h-369q9 -49 47.5 -80t91.5 -31zM291 385q-51 0 -88 -29t-44 -75h257q-8 47 -41.5 75.5t-83.5 28.5z" />
    <glyph glyph-name="Eogonek" unicode="&#x118;" horiz-adv-x="601" 
d="M431 0h-350v664h458v-101h-348v-180h341v-101h-341v-181h348v-101q-94 -56 -94 -91q0 -32 47 -32h47v-81h-56q-137 0 -137 92q0 55 85 112z" />
    <glyph glyph-name="eogonek" unicode="&#x119;" horiz-adv-x="575" 
d="M296 85q76 0 110 51h115q-17 -46 -48.5 -77t-78.5 -59q-93 -55 -93 -91q0 -32 47 -32h46v-81h-55q-137 0 -137 92q0 50 69 101q-99 8 -161.5 76.5t-62.5 168.5q0 106 68.5 176t175.5 70q103 0 170 -69.5t67 -172.5q0 -28 -2 -42h-369q9 -49 47.5 -80t91.5 -31zM291 385
q-52 0 -88.5 -28.5t-43.5 -75.5h257q-8 47 -41.5 75.5t-83.5 28.5z" />
    <glyph glyph-name="Ecaron" unicode="&#x11a;" horiz-adv-x="601" 
d="M539 563h-348v-180h341v-101h-341v-181h348v-101h-458v664h458v-101z" />
    <glyph glyph-name="ecaron" unicode="&#x11b;" horiz-adv-x="575" 
d="M296 85q76 0 110 51h115q-25 -69 -86.5 -109t-138.5 -40q-107 0 -178 70t-71 177q0 106 68.5 176t175.5 70q103 0 170 -69.5t67 -172.5q0 -28 -2 -42h-369q9 -49 47.5 -80t91.5 -31zM291 385q-51 0 -88 -29t-44 -75h257q-8 47 -41.5 75.5t-83.5 28.5z" />
    <glyph glyph-name="Gcircumflex" unicode="&#x11c;" horiz-adv-x="749" 
d="M385 576q-100 0 -166 -69.5t-66 -174.5t66 -174.5t166 -69.5q80 0 132.5 44.5t70.5 119.5h-228v101h346q0 -164 -91 -265t-228 -101q-147 0 -245.5 98.5t-98.5 246.5t98 246.5t244 98.5q101 0 179 -51t119 -137h-122q-64 87 -176 87z" />
    <glyph glyph-name="gcircumflex" unicode="&#x11d;" horiz-adv-x="612" 
d="M430 467h106v-443q0 -111 -64.5 -176t-179.5 -65q-83 0 -148 43t-90 118h116q33 -63 122 -63q64 0 101 39t37 102v21q-53 -56 -147 -56q-109 0 -173.5 72.5t-64.5 174.5q0 101 64.5 173.5t173.5 72.5q94 0 147 -56v43zM434 234q0 70 -42.5 109t-101.5 39
q-60 0 -99.5 -43.5t-39.5 -104.5q0 -62 39.5 -105.5t99.5 -43.5q59 0 101.5 39t42.5 110z" />
    <glyph glyph-name="Gbreve" unicode="&#x11e;" horiz-adv-x="749" 
d="M385 576q-100 0 -166 -69.5t-66 -174.5t66 -174.5t166 -69.5q80 0 132.5 44.5t70.5 119.5h-228v101h346q0 -164 -91 -265t-228 -101q-147 0 -245.5 98.5t-98.5 246.5t98 246.5t244 98.5q101 0 179 -51t119 -137h-122q-64 87 -176 87z" />
    <glyph glyph-name="gbreve" unicode="&#x11f;" horiz-adv-x="612" 
d="M430 467h106v-443q0 -111 -64.5 -176t-179.5 -65q-83 0 -148 43t-90 118h116q33 -63 122 -63q64 0 101 39t37 102v21q-53 -56 -147 -56q-109 0 -173.5 72.5t-64.5 174.5q0 101 64.5 173.5t173.5 72.5q94 0 147 -56v43zM434 234q0 70 -42.5 109t-101.5 39
q-60 0 -99.5 -43.5t-39.5 -104.5q0 -62 39.5 -105.5t99.5 -43.5q59 0 101.5 39t42.5 110z" />
    <glyph glyph-name="Gdotaccent" unicode="&#x120;" horiz-adv-x="749" 
d="M385 576q-100 0 -166 -69.5t-66 -174.5t66 -174.5t166 -69.5q80 0 132.5 44.5t70.5 119.5h-228v101h346q0 -164 -91 -265t-228 -101q-147 0 -245.5 98.5t-98.5 246.5t98 246.5t244 98.5q101 0 179 -51t119 -137h-122q-64 87 -176 87z" />
    <glyph glyph-name="gdotaccent" unicode="&#x121;" horiz-adv-x="611" 
d="M429 467h106v-443q0 -111 -64.5 -176t-179.5 -65q-83 0 -148 43t-90 118h116q33 -63 122 -63q64 0 101 39t37 102v21q-53 -56 -147 -56q-109 0 -173.5 72.5t-64.5 174.5q0 101 64.5 173.5t173.5 72.5q94 0 147 -56v43zM433 234q0 70 -42.5 109t-101.5 39
q-60 0 -99.5 -43.5t-39.5 -104.5q0 -62 39.5 -105.5t99.5 -43.5q59 0 101.5 39t42.5 110z" />
    <glyph glyph-name="uni0122" unicode="&#x122;" horiz-adv-x="749" 
d="M385 576q-100 0 -166 -69.5t-66 -174.5t66 -174.5t166 -69.5q80 0 132.5 44.5t70.5 119.5h-228v101h346q0 -164 -91 -265t-228 -101q-147 0 -245.5 98.5t-98.5 246.5t98 246.5t244 98.5q101 0 179 -51t119 -137h-122q-64 87 -176 87z" />
    <glyph glyph-name="uni0123" unicode="&#x123;" horiz-adv-x="612" 
d="M430 467h106v-443q0 -111 -64.5 -176t-179.5 -65q-83 0 -148 43t-90 118h116q33 -63 122 -63q64 0 101 39t37 102v21q-53 -56 -147 -56q-109 0 -173.5 72.5t-64.5 174.5q0 101 64.5 173.5t173.5 72.5q94 0 147 -56v43zM434 234q0 70 -42.5 109t-101.5 39
q-60 0 -99.5 -43.5t-39.5 -104.5q0 -62 39.5 -105.5t99.5 -43.5q59 0 101.5 39t42.5 110z" />
    <glyph glyph-name="Hcircumflex" unicode="&#x124;" horiz-adv-x="738" 
d="M657 0h-110v282h-356v-282h-110v664h110v-281h356v281h110v-664z" />
    <glyph glyph-name="hcircumflex" unicode="&#x125;" horiz-adv-x="603" 
d="M331 480q94 0 150 -55t56 -147v-278h-106v263q0 55 -30 87t-87 32q-54 0 -93 -39t-39 -103v-240h-106v669h106v-245q48 56 149 56z" />
    <glyph glyph-name="Hbar" unicode="&#x126;" horiz-adv-x="762" 
d="M669 0h-110v282h-356v-282h-110v477h-84v101h84v86h110v-86h356v86h110v-86h83v-101h-83v-477zM203 383h356v94h-356v-94z" />
    <glyph glyph-name="hbar" unicode="&#x127;" horiz-adv-x="616" 
d="M344 472q94 0 150 -55t56 -147v-270h-106v255q0 55 -30 87t-87 32q-54 0 -93 -39t-39 -103v-232h-106v521h-80v85h80v63h106v-63h154v-85h-154v-105q48 56 149 56z" />
    <glyph glyph-name="Itilde" unicode="&#x128;" 
d="M191 664v-664h-110v664h110z" />
    <glyph glyph-name="itilde" unicode="&#x129;" horiz-adv-x="262" 
d="M79 467h106v-467h-106v467z" />
    <glyph glyph-name="Imacron" unicode="&#x12a;" 
d="M191 664v-664h-110v664h110z" />
    <glyph glyph-name="imacron" unicode="&#x12b;" horiz-adv-x="262" 
d="M0 646h262v-88h-262v88zM79 467h106v-467h-106v467z" />
    <glyph glyph-name="Ibreve" unicode="&#x12c;" 
d="M191 664v-664h-110v664h110z" />
    <glyph glyph-name="ibreve" unicode="&#x12d;" horiz-adv-x="262" 
d="M79 467h106v-467h-106v467z" />
    <glyph glyph-name="Iogonek" unicode="&#x12e;" 
d="M81 0v664h110v-664q-93 -56 -93 -91q0 -32 47 -32h46v-81h-55q-137 0 -137 92q0 55 82 112z" />
    <glyph glyph-name="iogonek" unicode="&#x12f;" horiz-adv-x="262" 
d="M78 0v467h106v-467q-94 -56 -94 -91q0 -32 47 -32h47v-81h-56q-137 0 -137 92q0 55 87 112zM71 558v121h119v-121h-119z" />
    <glyph glyph-name="Idotaccent" unicode="&#x130;" 
d="M191 664v-664h-110v664h110z" />
    <glyph glyph-name="IJ" unicode="&#x132;" horiz-adv-x="663" 
d="M188 664v-664h-110v664h110zM474 664h110v-479q0 -88 -53.5 -136.5t-144.5 -48.5h-130v101h130q88 0 88 84v479z" />
    <glyph glyph-name="ij" unicode="&#x133;" horiz-adv-x="506" 
d="M78 467h106v-467h-106v467zM71 558v121h119v-121h-119zM322 467h106v-490q0 -181 -184 -181h-72v93h71q79 0 79 88v490zM315 558v121h119v-121h-119z" />
    <glyph glyph-name="Jcircumflex" unicode="&#x134;" horiz-adv-x="409" 
d="M223 664h110v-479q0 -88 -53.5 -136.5t-144.5 -48.5h-130v101h130q88 0 88 84v479z" />
    <glyph glyph-name="jcircumflex" unicode="&#x135;" horiz-adv-x="282" 
d="M98 467h106v-490q0 -181 -184 -181h-72v92h71q79 0 79 89v490z" />
    <glyph glyph-name="uni0136" unicode="&#x136;" horiz-adv-x="626" 
d="M282 332l340 -332h-147l-284 275v-275h-110v664h110v-278l288 278h143z" />
    <glyph glyph-name="uni0137" unicode="&#x137;" horiz-adv-x="539" 
d="M76 669h106v-394l207 192h145l-255 -234l255 -233h-145l-207 181v-181h-106v669z" />
    <glyph glyph-name="kgreenlandic" unicode="&#x138;" horiz-adv-x="541" 
d="M76 467h106v-192l207 192h145l-255 -234l255 -233h-145l-207 181v-181h-106v467z" />
    <glyph glyph-name="Lacute" unicode="&#x139;" horiz-adv-x="567" 
d="M191 664v-563h348v-101h-458v664h110z" />
    <glyph glyph-name="lacute" unicode="&#x13a;" horiz-adv-x="258" 
d="M76 669h106v-669h-106v669z" />
    <glyph glyph-name="uni013B" unicode="&#x13b;" horiz-adv-x="567" 
d="M191 664v-563h348v-101h-458v664h110z" />
    <glyph glyph-name="uni013C" unicode="&#x13c;" horiz-adv-x="258" 
d="M76 669h106v-669h-106v669z" />
    <glyph glyph-name="Lcaron" unicode="&#x13d;" horiz-adv-x="567" 
d="M191 664v-564h348v-100h-458v664h110zM475 423h-74l70 116h-62v125h130v-138z" />
    <glyph glyph-name="lcaron" unicode="&#x13e;" horiz-adv-x="416" 
d="M84 669h106v-669h-106v669zM345 407h-75l77 127h-61v130h130v-143z" />
    <glyph glyph-name="Ldot" unicode="&#x13f;" horiz-adv-x="567" 
d="M191 664v-563h348v-101h-458v664h110zM359 291v130h130v-130h-130z" />
    <glyph glyph-name="ldot" unicode="&#x140;" horiz-adv-x="431" 
d="M76 669h106v-669h-106v669zM266 302v130h130v-130h-130z" />
    <glyph glyph-name="Nacute" unicode="&#x143;" horiz-adv-x="761" 
d="M570 664h110v-664h-121l-368 501v-501h-110v664h121l368 -501v501z" />
    <glyph glyph-name="nacute" unicode="&#x144;" horiz-adv-x="603" 
d="M331 480q94 0 150 -55t56 -147v-278h-106v263q0 55 -30 87t-87 32q-54 0 -93 -39t-39 -103v-240h-106v467h106v-43q48 56 149 56z" />
    <glyph glyph-name="uni0145" unicode="&#x145;" horiz-adv-x="761" 
d="M570 664h110v-664h-121l-368 501v-501h-110v664h121l368 -501v501z" />
    <glyph glyph-name="uni0146" unicode="&#x146;" horiz-adv-x="603" 
d="M331 480q94 0 150 -55t56 -147v-278h-106v263q0 55 -30 87t-87 32q-54 0 -93 -39t-39 -103v-240h-106v467h106v-43q48 56 149 56z" />
    <glyph glyph-name="Ncaron" unicode="&#x147;" horiz-adv-x="761" 
d="M570 664h110v-664h-121l-368 501v-501h-110v664h121l368 -501v501z" />
    <glyph glyph-name="ncaron" unicode="&#x148;" horiz-adv-x="603" 
d="M331 480q94 0 150 -55t56 -147v-278h-106v263q0 55 -30 87t-87 32q-54 0 -93 -39t-39 -103v-240h-106v467h106v-43q48 56 149 56z" />
    <glyph glyph-name="napostrophe" unicode="&#x149;" horiz-adv-x="603" 
d="M331 480q94 0 150 -55t56 -147v-278h-106v263q0 55 -30 87t-87 32q-54 0 -93 -39t-39 -103v-240h-106v467h106v-43q48 56 149 56z" />
    <glyph glyph-name="Eng" unicode="&#x14a;" horiz-adv-x="761" 
d="M570 664h110v-682q0 -89 -53.5 -137.5t-144.5 -48.5h-130v101h130q88 0 88 85v18l-379 501v-501h-110v664h121l368 -489v489z" />
    <glyph glyph-name="eng" unicode="&#x14b;" horiz-adv-x="603" 
d="M331 480q94 0 150 -55t56 -147v-301q0 -181 -184 -181h-72v93h71q79 0 79 88v286q0 55 -30 87t-87 32q-54 0 -93 -39t-39 -103v-240h-106v467h106v-43q48 56 149 56z" />
    <glyph glyph-name="Omacron" unicode="&#x14c;" horiz-adv-x="772" 
d="M386 677q148 0 245.5 -99.5t97.5 -245.5t-97.5 -245.5t-245.5 -99.5t-245.5 99.5t-97.5 245.5t97.5 245.5t245.5 99.5zM386 88q100 0 166.5 70t66.5 174t-66.5 174t-166.5 70t-166.5 -70t-66.5 -174t66.5 -174t166.5 -70z" />
    <glyph glyph-name="omacron" unicode="&#x14d;" horiz-adv-x="594" 
d="M297 480q107 0 178 -70.5t71 -176.5q0 -105 -71.5 -175.5t-177.5 -70.5q-107 0 -178.5 70.5t-71.5 175.5q0 106 71.5 176.5t178.5 70.5zM297 85q62 0 102.5 42.5t40.5 105.5q0 65 -40.5 107t-102.5 42t-103 -42.5t-41 -106.5q0 -63 41 -105.5t103 -42.5z" />
    <glyph glyph-name="Obreve" unicode="&#x14e;" horiz-adv-x="772" 
d="M386 677q148 0 245.5 -99.5t97.5 -245.5t-97.5 -245.5t-245.5 -99.5t-245.5 99.5t-97.5 245.5t97.5 245.5t245.5 99.5zM386 88q100 0 166.5 70t66.5 174t-66.5 174t-166.5 70t-166.5 -70t-66.5 -174t66.5 -174t166.5 -70z" />
    <glyph glyph-name="obreve" unicode="&#x14f;" horiz-adv-x="594" 
d="M297 480q107 0 178 -70.5t71 -176.5q0 -105 -71.5 -175.5t-177.5 -70.5q-107 0 -178.5 70.5t-71.5 175.5q0 106 71.5 176.5t178.5 70.5zM297 85q62 0 102.5 42.5t40.5 105.5q0 65 -40.5 107t-102.5 42t-103 -42.5t-41 -106.5q0 -63 41 -105.5t103 -42.5z" />
    <glyph glyph-name="Ohungarumlaut" unicode="&#x150;" horiz-adv-x="772" 
d="M386 677q148 0 245.5 -99.5t97.5 -245.5t-97.5 -245.5t-245.5 -99.5t-245.5 99.5t-97.5 245.5t97.5 245.5t245.5 99.5zM386 88q100 0 166.5 70t66.5 174t-66.5 174t-166.5 70t-166.5 -70t-66.5 -174t66.5 -174t166.5 -70z" />
    <glyph glyph-name="ohungarumlaut" unicode="&#x151;" horiz-adv-x="594" 
d="M297 480q107 0 178 -70.5t71 -176.5q0 -105 -71.5 -175.5t-177.5 -70.5q-107 0 -178.5 70.5t-71.5 175.5q0 106 71.5 176.5t178.5 70.5zM297 85q62 0 102.5 42.5t40.5 105.5q0 65 -40.5 107t-102.5 42t-103 -42.5t-41 -106.5q0 -63 41 -105.5t103 -42.5z" />
    <glyph glyph-name="oe" unicode="&#x153;" horiz-adv-x="968" 
d="M689 85q76 0 110 51h115q-25 -69 -86.5 -109t-138.5 -40q-125 0 -197 90q-72 -90 -195 -90q-107 0 -178.5 70.5t-71.5 175.5q0 106 71.5 176.5t178.5 70.5q122 0 195 -89q70 89 192 89q103 0 170 -69.5t67 -172.5q0 -28 -2 -42h-369q9 -49 47.5 -80t91.5 -31zM297 85
q62 0 102.5 42.5t40.5 105.5q0 65 -40.5 107t-102.5 42t-103 -42.5t-41 -106.5q0 -63 41 -105.5t103 -42.5zM684 385q-51 0 -88 -29t-44 -75h257q-8 47 -41.5 75.5t-83.5 28.5z" />
    <glyph glyph-name="Racute" unicode="&#x154;" horiz-adv-x="678" 
d="M627 464q0 -87 -57.5 -143.5t-168.5 -56.5h-43l296 -264h-157l-295 264h-11v-264h-110v664h320q111 0 168.5 -56.5t57.5 -143.5zM517 464q0 47 -32 73t-88 26h-206v-198h206q56 0 88 26t32 73z" />
    <glyph glyph-name="racute" unicode="&#x155;" horiz-adv-x="406" 
d="M76 467h106v-57q18 27 55.5 44t87.5 17h43v-101h-43q-67 0 -105 -39t-38 -105v-226h-106v467z" />
    <glyph glyph-name="uni0156" unicode="&#x156;" horiz-adv-x="678" 
d="M627 464q0 -87 -57.5 -143.5t-168.5 -56.5h-43l296 -264h-157l-295 264h-11v-264h-110v664h320q111 0 168.5 -56.5t57.5 -143.5zM517 464q0 47 -32 73t-88 26h-206v-198h206q56 0 88 26t32 73z" />
    <glyph glyph-name="uni0157" unicode="&#x157;" horiz-adv-x="406" 
d="M76 467h106v-57q18 27 55.5 44t87.5 17h43v-101h-43q-67 0 -105 -39t-38 -105v-226h-106v467z" />
    <glyph glyph-name="Rcaron" unicode="&#x158;" horiz-adv-x="678" 
d="M627 464q0 -87 -57.5 -143.5t-168.5 -56.5h-43l296 -264h-157l-295 264h-11v-264h-110v664h320q111 0 168.5 -56.5t57.5 -143.5zM517 464q0 47 -32 73t-88 26h-206v-198h206q56 0 88 26t32 73z" />
    <glyph glyph-name="rcaron" unicode="&#x159;" horiz-adv-x="406" 
d="M76 467h106v-57q18 27 55.5 44t87.5 17h43v-101h-43q-67 0 -105 -39t-38 -105v-226h-106v467z" />
    <glyph glyph-name="Sacute" unicode="&#x15a;" horiz-adv-x="622" 
d="M24 174h115q22 -41 69.5 -63.5t109.5 -22.5q70 0 113.5 27t43.5 71q0 41 -30.5 63t-96.5 29l-115 12q-97 9 -144 58t-47 125q0 91 70.5 147.5t189.5 56.5q114 0 188 -55.5t99 -132.5h-116q-18 39 -66 63t-107 24q-69 0 -108.5 -28.5t-39.5 -70.5q0 -77 110 -88l123 -13
q93 -10 146.5 -59.5t53.5 -125.5q0 -84 -70.5 -144t-196.5 -60q-122 0 -194.5 52.5t-99.5 134.5z" />
    <glyph glyph-name="sacute" unicode="&#x15b;" horiz-adv-x="532" 
d="M499 332h-115q-29 56 -127 56q-45 0 -72 -15t-27 -40q0 -42 86 -50l89 -7q161 -13 161 -139q0 -65 -57.5 -107.5t-155.5 -42.5q-100 0 -163.5 42t-79.5 113h116q23 -63 138 -63q42 0 69 14t27 39q0 44 -85 52l-95 9q-156 15 -156 136q0 66 56.5 108.5t150.5 42.5
q100 0 160.5 -40.5t79.5 -107.5z" />
    <glyph glyph-name="Scircumflex" unicode="&#x15c;" horiz-adv-x="622" 
d="M24 174h115q22 -41 69.5 -63.5t109.5 -22.5q70 0 113.5 27t43.5 71q0 41 -30.5 63t-96.5 29l-115 12q-97 9 -144 58t-47 125q0 91 70.5 147.5t189.5 56.5q114 0 188 -55.5t99 -132.5h-116q-18 39 -66 63t-107 24q-69 0 -108.5 -28.5t-39.5 -70.5q0 -77 110 -88l123 -13
q93 -10 146.5 -59.5t53.5 -125.5q0 -84 -70.5 -144t-196.5 -60q-122 0 -194.5 52.5t-99.5 134.5z" />
    <glyph glyph-name="scircumflex" unicode="&#x15d;" horiz-adv-x="532" 
d="M499 332h-115q-29 56 -127 56q-45 0 -72 -15t-27 -40q0 -42 86 -50l89 -7q161 -13 161 -139q0 -65 -57.5 -107.5t-155.5 -42.5q-100 0 -163.5 42t-79.5 113h116q23 -63 138 -63q42 0 69 14t27 39q0 44 -85 52l-95 9q-156 15 -156 136q0 66 56.5 108.5t150.5 42.5
q100 0 160.5 -40.5t79.5 -107.5z" />
    <glyph glyph-name="Scedilla" unicode="&#x15e;" horiz-adv-x="622" 
d="M24 174h115q22 -42 69.5 -64.5t109.5 -22.5q70 0 113.5 27.5t43.5 71.5q0 41 -30.5 63t-96.5 29l-115 12q-97 9 -144 58t-47 125q0 91 70.5 147.5t189.5 56.5q114 0 188 -55.5t99 -132.5h-116q-18 39 -66 63t-107 24t-95.5 -21.5t-44.5 -55.5q-8 -25 0 -48
q15 -54 102 -62l123 -13q93 -10 146.5 -59.5t53.5 -125.5q0 -74 -56.5 -131t-157.5 -70l-133 -174h-112l133 175q-96 12 -154 62t-81 121z" />
    <glyph glyph-name="scedilla" unicode="&#x15f;" horiz-adv-x="532" 
d="M499 332h-115q-29 56 -127 56q-45 0 -72 -15t-27 -40q0 -42 86 -50l89 -7q161 -13 161 -139q0 -57 -44 -97t-121 -50l-133 -174h-112l135 176q-74 12 -120.5 51.5t-60.5 98.5h116q23 -63 138 -63q42 0 69 14t27 39q0 44 -85 52l-95 9q-156 15 -156 136q0 66 56.5 108.5
t150.5 42.5q100 0 160.5 -40.5t79.5 -107.5z" />
    <glyph glyph-name="scaron" unicode="&#x161;" horiz-adv-x="532" 
d="M499 332h-115q-29 56 -127 56q-45 0 -72 -15t-27 -40q0 -42 86 -50l89 -7q161 -13 161 -139q0 -65 -57.5 -107.5t-155.5 -42.5q-100 0 -163.5 42t-79.5 113h116q23 -63 138 -63q42 0 69 14t27 39q0 44 -85 52l-95 9q-156 15 -156 136q0 66 56.5 108.5t150.5 42.5
q100 0 160.5 -40.5t79.5 -107.5z" />
    <glyph glyph-name="uni0162" unicode="&#x162;" horiz-adv-x="605" 
d="M24 664h557v-101h-223v-563l-144 -188h-111l144 188v563h-223v101z" />
    <glyph glyph-name="uni0163" unicode="&#x163;" horiz-adv-x="409" 
d="M114 584h106v-117h146v-93h-146v-211q0 -70 71 -70h75v-93h-37l-143 -188h-112l149 195q-53 13 -81 49t-28 89v229h-86v93h86v117z" />
    <glyph glyph-name="Tcaron" unicode="&#x164;" horiz-adv-x="605" 
d="M24 664h556v-101h-223v-563h-110v563h-223v101z" />
    <glyph glyph-name="tcaron" unicode="&#x165;" horiz-adv-x="563" 
d="M114 584h106v-117h146v-93h-146v-211q0 -70 71 -70h75v-93h-76q-86 0 -131 38.5t-45 106.5v229h-86v93h86v117zM492 407h-75l77 127h-61v130h130v-143z" />
    <glyph glyph-name="Tbar" unicode="&#x166;" horiz-adv-x="605" 
d="M24 664h556v-101h-223v-180h166v-101h-166v-282h-110v282h-167v101h167v180h-223v101z" />
    <glyph glyph-name="tbar" unicode="&#x167;" horiz-adv-x="423" 
d="M114 584h106v-117h146v-93h-146v-65h146v-93h-146v-53q0 -70 71 -70h75v-93h-76q-86 0 -131 38.5t-45 106.5v71h-86v93h86v65h-86v93h86v117z" />
    <glyph glyph-name="Utilde" unicode="&#x168;" horiz-adv-x="731" 
d="M76 276v388h110v-387q0 -92 47.5 -140.5t132.5 -48.5t132.5 48.5t47.5 140.5v387h110v-388q0 -137 -78.5 -213t-211.5 -76t-211.5 76t-78.5 213z" />
    <glyph glyph-name="utilde" unicode="&#x169;" horiz-adv-x="597" 
d="M267 -13q-92 0 -147.5 55t-55.5 147v278h106v-263q0 -55 29 -87t85 -32q53 0 91 39t38 103v240h106v-467h-106v43q-48 -56 -146 -56z" />
    <glyph glyph-name="Umacron" unicode="&#x16a;" horiz-adv-x="731" 
d="M76 276v388h110v-387q0 -92 47.5 -140.5t132.5 -48.5t132.5 48.5t47.5 140.5v387h110v-388q0 -137 -78.5 -213t-211.5 -76t-211.5 76t-78.5 213z" />
    <glyph glyph-name="umacron" unicode="&#x16b;" horiz-adv-x="597" 
d="M269 -13q-92 0 -147.5 55t-55.5 147v278h106v-263q0 -55 29 -87t85 -32q53 0 91 39t38 103v240h106v-467h-106v43q-48 -56 -146 -56z" />
    <glyph glyph-name="Ubreve" unicode="&#x16c;" horiz-adv-x="731" 
d="M76 276v388h110v-387q0 -92 47.5 -140.5t132.5 -48.5t132.5 48.5t47.5 140.5v387h110v-388q0 -137 -78.5 -213t-211.5 -76t-211.5 76t-78.5 213z" />
    <glyph glyph-name="ubreve" unicode="&#x16d;" horiz-adv-x="597" 
d="M269 -13q-92 0 -147.5 55t-55.5 147v278h106v-263q0 -55 29 -87t85 -32q53 0 91 39t38 103v240h106v-467h-106v43q-48 -56 -146 -56z" />
    <glyph glyph-name="Uring" unicode="&#x16e;" horiz-adv-x="731" 
d="M76 276v388h110v-387q0 -92 47.5 -140.5t132.5 -48.5t132.5 48.5t47.5 140.5v387h110v-388q0 -137 -78.5 -213t-211.5 -76t-211.5 76t-78.5 213z" />
    <glyph glyph-name="uring" unicode="&#x16f;" horiz-adv-x="597" 
d="M269 -13q-92 0 -147.5 55t-55.5 147v278h106v-263q0 -55 29 -87t85 -32q53 0 91 39t38 103v240h106v-467h-106v43q-48 -56 -146 -56z" />
    <glyph glyph-name="Uhungarumlaut" unicode="&#x170;" horiz-adv-x="731" 
d="M76 276v388h110v-387q0 -92 47.5 -140.5t132.5 -48.5t132.5 48.5t47.5 140.5v387h110v-388q0 -137 -78.5 -213t-211.5 -76t-211.5 76t-78.5 213z" />
    <glyph glyph-name="uhungarumlaut" unicode="&#x171;" horiz-adv-x="597" 
d="M269 -13q-92 0 -147.5 55t-55.5 147v278h106v-263q0 -55 29 -87t85 -32q53 0 91 39t38 103v240h106v-467h-106v43q-48 -56 -146 -56z" />
    <glyph glyph-name="Uogonek" unicode="&#x172;" horiz-adv-x="731" 
d="M76 276v388h110v-387q0 -92 47.5 -141t132.5 -49q84 0 131.5 49t47.5 141v387h110v-388q0 -103 -41 -166.5t-116 -108.5q-93 -55 -93 -92q0 -32 47 -32h46v-81h-55q-137 0 -137 92q0 50 66 99q-27 0 -47 4q-116 11 -182.5 85t-66.5 200z" />
    <glyph glyph-name="uogonek" unicode="&#x173;" horiz-adv-x="600" 
d="M270 -13q-93 0 -148.5 55t-55.5 147v278h106v-263q0 -55 29.5 -87t86.5 -32q53 0 91.5 39t38.5 103v240h106v-467q-93 -56 -93 -91q0 -32 47 -32h46v-81h-55q-137 0 -137 92q0 58 86 112v43q-48 -56 -148 -56z" />
    <glyph glyph-name="Wcircumflex" unicode="&#x174;" horiz-adv-x="1054" 
d="M9 664h115l173 -515l169 515h121l172 -514l171 514h115l-224 -664h-121l-174 524l-170 -524h-122z" />
    <glyph glyph-name="wcircumflex" unicode="&#x175;" horiz-adv-x="849" 
d="M19 467h110l124 -331l123 331h108l124 -332l124 332h106l-174 -467h-111l-125 335l-125 -335h-110z" />
    <glyph glyph-name="Ycircumflex" unicode="&#x176;" horiz-adv-x="619" 
d="M311 348l189 316h119l-254 -424v-240h-110v240l-255 424h121z" />
    <glyph glyph-name="ycircumflex" unicode="&#x177;" horiz-adv-x="548" 
d="M218 10l-209 457h118l150 -327l149 327h113l-225 -492q-49 -106 -70 -133q-33 -41 -99 -45q-11 -1 -24 -1h-57v93h41q34 0 54.5 17t40.5 63z" />
    <glyph glyph-name="Ydieresis" unicode="&#x178;" horiz-adv-x="619" 
d="M311 348l189 316h119l-254 -424v-240h-110v240l-255 424h121z" />
    <glyph glyph-name="Zacute" unicode="&#x179;" horiz-adv-x="638" 
d="M585 664v-102l-398 -461h398v-101h-532v102l397 461h-398v101h533z" />
    <glyph glyph-name="zacute" unicode="&#x17a;" horiz-adv-x="520" 
d="M472 0h-422v93l280 281h-280v93h420v-93l-282 -281h284v-93z" />
    <glyph glyph-name="Zdotaccent" unicode="&#x17b;" horiz-adv-x="638" 
d="M585 664v-102l-398 -461h398v-101h-532v102l397 461h-398v101h533z" />
    <glyph glyph-name="zdotaccent" unicode="&#x17c;" horiz-adv-x="520" 
d="M472 0h-422v93l280 281h-280v93h420v-93l-282 -281h284v-93z" />
    <glyph glyph-name="uni018F" unicode="&#x18f;" horiz-adv-x="754" 
d="M184 489h-119q38 86 118 137t183 51q151 0 248 -99.5t97 -245.5q0 -145 -97 -245t-242 -100t-237 99t-92 245q0 31 1 48h552q-12 87 -76 142t-154 55q-122 0 -182 -87zM373 88q86 0 148 53t74 137h-437q12 -85 70.5 -137.5t144.5 -52.5z" />
    <glyph glyph-name="uni01B5" unicode="&#x1b5;" horiz-adv-x="638" 
d="M585 664v-102l-155 -180h128v-100h-214l-157 -181h398v-101h-532v102l155 180h-126v100h213l155 181h-398v101h533z" />
    <glyph glyph-name="uni01B6" unicode="&#x1b6;" horiz-adv-x="517" 
d="M470 0h-423v95l95 95h-72v88h162l97 96h-282v93h420v-95l-95 -94h76v-88h-167l-97 -97h286v-93z" />
    <glyph glyph-name="Icaron" unicode="&#x1cf;" 
d="M191 664v-664h-110v664h110z" />
    <glyph glyph-name="icaron" unicode="&#x1d0;" horiz-adv-x="262" 
d="M78 467h106v-467h-106v467z" />
    <glyph glyph-name="AEacute" unicode="&#x1fc;" horiz-adv-x="1015" 
d="M953 563h-348v-180h341v-101h-341v-181h348v-101h-458v150h-265l-106 -150h-135l476 664h488v-101zM301 251h194v274z" />
    <glyph glyph-name="aeacute" unicode="&#x1fd;" horiz-adv-x="917" 
d="M637 85q76 0 110 51h115q-25 -69 -86.5 -109t-138.5 -40q-125 0 -197 91q-27 -38 -82.5 -64.5t-122.5 -26.5q-86 0 -136.5 40.5t-50.5 116.5q0 55 31.5 89.5t77 47.5t104.5 13h131q0 45 -34 66.5t-89 21.5q-95 0 -119 -60h-113q20 76 83.5 117t147.5 41q126 0 188 -70
q68 70 176 70q103 0 170 -69.5t67 -172.5q0 -28 -2 -42h-369q9 -49 47.5 -80t91.5 -31zM392 184v25h-132q-106 0 -106 -65q0 -31 26 -49t72 -18q61 0 100.5 29t39.5 78zM632 385q-51 0 -88 -29t-44 -75h257q-8 47 -41.5 75.5t-83.5 28.5z" />
    <glyph glyph-name="Oslashacute" unicode="&#x1fe;" horiz-adv-x="804" 
d="M766 677l-102 -118q81 -95 81 -227q0 -146 -97.5 -245.5t-245.5 -99.5q-105 0 -188 53l-46 -53h-131l102 118q-80 96 -80 227q0 146 97.5 245.5t245.5 99.5q104 0 187 -53l46 53h131zM402 88q100 0 166.5 70t66.5 174q0 80 -43 144l-309 -356q52 -32 119 -32zM169 332
q0 -82 42 -144l309 356q-54 32 -118 32q-100 0 -166.5 -70t-66.5 -174z" />
    <glyph glyph-name="oslashacute" unicode="&#x1ff;" horiz-adv-x="588" 
d="M297 480q107 0 178 -70.5t71 -176.5q0 -105 -71.5 -175.5t-177.5 -70.5q-107 0 -178.5 70.5t-71.5 175.5q0 106 71.5 176.5t178.5 70.5zM297 85q62 0 102.5 42.5t40.5 105.5q0 65 -40.5 107t-102.5 42t-103 -42.5t-41 -106.5q0 -63 41 -105.5t103 -42.5z" />
    <glyph glyph-name="uni0218" unicode="&#x218;" horiz-adv-x="622" 
d="M24 174h115q22 -41 69.5 -63.5t109.5 -22.5q70 0 113.5 27t43.5 71q0 41 -30.5 63t-96.5 29l-115 12q-97 9 -144 58t-47 125q0 91 70.5 147.5t189.5 56.5q114 0 188 -55.5t99 -132.5h-116q-18 39 -66 63t-107 24q-69 0 -108.5 -28.5t-39.5 -70.5q0 -77 110 -88l123 -13
q93 -10 146.5 -59.5t53.5 -125.5q0 -84 -70.5 -144t-196.5 -60q-122 0 -194.5 52.5t-99.5 134.5z" />
    <glyph glyph-name="uni0219" unicode="&#x219;" horiz-adv-x="532" 
d="M499 332h-115q-29 56 -127 56q-45 0 -72 -15t-27 -40q0 -42 86 -50l89 -7q161 -13 161 -139q0 -65 -57.5 -107.5t-155.5 -42.5q-100 0 -163.5 42t-79.5 113h116q23 -63 138 -63q42 0 69 14t27 39q0 44 -85 52l-95 9q-156 15 -156 136q0 66 56.5 108.5t150.5 42.5
q100 0 160.5 -40.5t79.5 -107.5z" />
    <glyph glyph-name="uni021A" unicode="&#x21a;" horiz-adv-x="605" 
d="M24 664h556v-101h-223v-563h-110v563h-223v101z" />
    <glyph glyph-name="uni021B" unicode="&#x21b;" horiz-adv-x="409" 
d="M114 584h106v-117h146v-93h-146v-211q0 -70 71 -70h75v-93h-76q-86 0 -131 38.5t-45 106.5v229h-86v93h86v117z" />
    <glyph glyph-name="uni0259" unicode="&#x259;" horiz-adv-x="575" 
d="M283 383q-79 0 -113 -52h-115q24 68 87 108.5t141 40.5q106 0 175.5 -70t69.5 -177q0 -106 -68.5 -176t-175.5 -70q-103 0 -170 69.5t-67 172.5q0 27 2 41h369q-9 50 -46.5 81.5t-88.5 31.5zM284 81q51 0 88 29t44 76h-257q8 -48 41.5 -76.5t83.5 -28.5z" />
    <glyph glyph-name="uni0401" unicode="&#x401;" horiz-adv-x="601" 
d="M539 563h-348v-180h341v-101h-341v-181h348v-101h-458v664h458v-101z" />
    <glyph glyph-name="uni0402" unicode="&#x402;" horiz-adv-x="798" 
d="M482 411q126 0 202 -53t76 -153q0 -99 -70 -152t-192 -53h-70v101h62q160 0 160 103q0 51 -44.5 78.5t-126.5 27.5q-68 0 -161 -15v-295h-110v563h-194v101h527v-101h-223v-168q84 16 164 16z" />
    <glyph glyph-name="uni0403" unicode="&#x403;" horiz-adv-x="559" 
d="M83 664h454v-101h-344v-563h-110v664z" />
    <glyph glyph-name="uni0404" unicode="&#x404;" horiz-adv-x="718" 
d="M384 576q-87 0 -149.5 -53.5t-74.5 -139.5h339v-101h-339q13 -87 75 -140.5t149 -53.5q112 0 177 86h121q-41 -87 -118 -137t-180 -50q-146 0 -243 98t-97 247t97 247t243 98q103 0 180 -50.5t118 -137.5h-121q-65 87 -177 87z" />
    <glyph glyph-name="uni0405" unicode="&#x405;" horiz-adv-x="622" 
d="M24 174h115q22 -41 69.5 -63.5t109.5 -22.5q70 0 113.5 27t43.5 71q0 41 -30.5 63t-96.5 29l-115 12q-97 9 -144 58t-47 125q0 91 70.5 147.5t189.5 56.5q114 0 188 -55.5t99 -132.5h-116q-18 39 -66 63t-107 24q-69 0 -108.5 -28.5t-39.5 -70.5q0 -77 110 -88l123 -13
q93 -10 146.5 -59.5t53.5 -125.5q0 -84 -70.5 -144t-196.5 -60q-122 0 -194.5 52.5t-99.5 134.5z" />
    <glyph glyph-name="uni0406" unicode="&#x406;" 
d="M191 664v-664h-110v664h110z" />
    <glyph glyph-name="uni0407" unicode="&#x407;" 
d="M191 664v-664h-110v664h110z" />
    <glyph glyph-name="uni0408" unicode="&#x408;" horiz-adv-x="409" 
d="M223 664h110v-479q0 -88 -53.5 -136.5t-144.5 -48.5h-130v101h130q88 0 88 84v479z" />
    <glyph glyph-name="uni0409" unicode="&#x409;" horiz-adv-x="1108" 
d="M1070 205q0 -89 -59 -147t-173 -58h-314v563h-259v-210q0 -48 -2 -84.5t-8.5 -80.5t-20 -74.5t-35 -58t-55 -41.5t-78.5 -14h-52v101h33q26 0 45 9.5t30.5 29.5t18.5 40t10 52t3.5 53t0.5 55v324h479v-254h204q114 0 173 -58t59 -147zM960 205q0 49 -33.5 76.5
t-93.5 27.5h-199v-208h199q60 0 93.5 27t33.5 77z" />
    <glyph glyph-name="uni040A" unicode="&#x40a;" horiz-adv-x="1130" 
d="M861 0h-314v282h-356v-282h-110v664h110v-281h356v281h110v-254h204q114 0 173 -58t59 -147t-59 -147t-173 -58zM983 205q0 49 -33.5 76.5t-93.5 27.5h-199v-208h199q60 0 93.5 27t33.5 77z" />
    <glyph glyph-name="uni040B" unicode="&#x40b;" horiz-adv-x="813" 
d="M318 563v-169q87 17 167 17q143 0 209 -54.5t66 -170.5v-186h-110v185q0 66 -38 95.5t-124 29.5q-84 0 -170 -17v-293h-110v563h-194v101h527v-101h-223z" />
    <glyph glyph-name="uni040C" unicode="&#x40c;" horiz-adv-x="626" 
d="M282 332l340 -332h-147l-284 275v-275h-110v664h110v-278l288 278h143z" />
    <glyph glyph-name="uni040E" unicode="&#x40e;" horiz-adv-x="617" 
d="M325 299l175 365h112l-246 -509q-45 -93 -79 -124t-104 -31h-76v101h60q36 0 56.5 12t35.5 51l9 23l-249 477h114z" />
    <glyph glyph-name="uni040F" unicode="&#x40f;" horiz-adv-x="719" 
d="M528 664h110v-664h-225v-147h-109v147h-223v664h110v-563h337v563z" />
    <glyph glyph-name="uni0410" unicode="&#x410;" horiz-adv-x="693" 
d="M179 150l-66 -150h-113l290 664h113l290 -664h-117l-66 150h-331zM466 251l-121 277l-122 -277h243z" />
    <glyph glyph-name="uni0411" unicode="&#x411;" horiz-adv-x="665" 
d="M627 205q0 -89 -59.5 -147t-173.5 -58h-313v664h500v-101h-390v-153h203q114 0 173.5 -58t59.5 -147zM517 205q0 49 -33.5 76.5t-93.5 27.5h-199v-208h199q60 0 93.5 27t33.5 77z" />
    <glyph glyph-name="uni0412" unicode="&#x412;" horiz-adv-x="654" 
d="M519 332q82 -46 82 -148q0 -81 -55 -132.5t-161 -51.5h-304v664h304q106 0 161 -52t55 -133q0 -101 -82 -147zM191 101h187q53 0 83 23t30 67q0 45 -30 68t-83 23h-187v-181zM191 383h187q53 0 83 23t30 66q0 45 -30 68t-83 23h-187v-180z" />
    <glyph glyph-name="uni0413" unicode="&#x413;" horiz-adv-x="559" 
d="M81 664h454v-101h-344v-563h-110v664z" />
    <glyph glyph-name="uni0414" unicode="&#x414;" horiz-adv-x="754" 
d="M721 -147h-109v147h-487v-147h-109v248h64q72 73 72 264v299h478v-563h91v-248zM262 366q0 -175 -50 -265h308v462h-258v-197z" />
    <glyph glyph-name="uni0415" unicode="&#x415;" horiz-adv-x="601" 
d="M539 563h-348v-180h341v-101h-341v-181h348v-101h-458v664h458v-101z" />
    <glyph glyph-name="uni0416" unicode="&#x416;" horiz-adv-x="938" 
d="M9 0l314 332l-314 332h140l265 -279v279h110v-279l265 279h140l-314 -332l314 -332h-144l-261 275v-275h-110v275l-261 -275h-144z" />
    <glyph glyph-name="uni0417" unicode="&#x417;" horiz-adv-x="643" 
d="M476 190q0 44 -30.5 67.5t-84.5 23.5h-156v101h156q52 0 83 24.5t31 65.5q0 49 -43 76.5t-112 27.5q-60 0 -106.5 -23.5t-64.5 -63.5h-115q25 78 97 133t186 55q115 0 191.5 -54t76.5 -151q0 -93 -82 -140q83 -47 83 -141q0 -90 -76 -147t-194 -57q-225 0 -286 187h115
q46 -86 171 -86q70 0 115 26t45 76z" />
    <glyph glyph-name="uni0418" unicode="&#x418;" horiz-adv-x="746" 
d="M81 664h110v-502l359 502h115v-664h-110v502l-358 -502h-116v664z" />
    <glyph glyph-name="uni0419" unicode="&#x419;" horiz-adv-x="746" 
d="M81 664h110v-502l359 502h115v-664h-110v502l-358 -502h-116v664zM172 885h90q4 -39 35.5 -63.5t75.5 -24.5t75.5 24.5t35.5 63.5h90q-5 -77 -62.5 -127.5t-138.5 -50.5t-138.5 50.5t-62.5 127.5z" />
    <glyph glyph-name="uni041A" unicode="&#x41a;" horiz-adv-x="626" 
d="M282 332l340 -332h-147l-284 275v-275h-110v664h110v-278l288 278h143z" />
    <glyph glyph-name="uni041B" unicode="&#x41b;" horiz-adv-x="715" 
d="M155 664h479v-664h-110v563h-259v-210q0 -48 -2 -84.5t-8.5 -80.5t-20 -74.5t-35 -58t-55 -41.5t-78.5 -14h-52v101h33q26 0 45 9.5t30.5 29.5t18.5 40t10 52t3.5 53t0.5 55v324z" />
    <glyph glyph-name="uni041C" unicode="&#x41c;" horiz-adv-x="952" 
d="M760 488l-284 -488l-285 488v-488h-110v664h130l266 -462l268 462h125v-664h-110v488z" />
    <glyph glyph-name="uni041D" unicode="&#x41d;" horiz-adv-x="738" 
d="M657 0h-110v282h-356v-282h-110v664h110v-281h356v281h110v-664z" />
    <glyph glyph-name="uni041E" unicode="&#x41e;" horiz-adv-x="772" 
d="M386 677q148 0 245.5 -99.5t97.5 -245.5t-97.5 -245.5t-245.5 -99.5t-245.5 99.5t-97.5 245.5t97.5 245.5t245.5 99.5zM386 88q100 0 166.5 70t66.5 174t-66.5 174t-166.5 70t-166.5 -70t-66.5 -174t66.5 -174t166.5 -70z" />
    <glyph glyph-name="uni041F" unicode="&#x41f;" horiz-adv-x="727" 
d="M646 0h-110v563h-345v-563h-110v664h565v-664z" />
    <glyph glyph-name="uni0420" unicode="&#x420;" horiz-adv-x="665" 
d="M627 464q0 -87 -57.5 -143.5t-168.5 -56.5h-210v-264h-110v664h320q111 0 168.5 -56.5t57.5 -143.5zM517 464q0 47 -32 73t-88 26h-206v-198h206q56 0 88 26t32 73z" />
    <glyph glyph-name="uni0421" unicode="&#x421;" horiz-adv-x="718" 
d="M385 576q-100 0 -166 -69.5t-66 -174.5t66 -174.5t166 -69.5q111 0 174 86h121q-41 -87 -117 -137t-178 -50q-146 0 -244 98.5t-98 246.5t98 246.5t244 98.5q101 0 177.5 -50.5t117.5 -137.5h-121q-64 87 -174 87z" />
    <glyph glyph-name="uni0422" unicode="&#x422;" horiz-adv-x="605" 
d="M24 664h556v-101h-223v-563h-110v563h-223v101z" />
    <glyph glyph-name="uni0423" unicode="&#x423;" horiz-adv-x="612" 
d="M325 299l175 365h112l-246 -509q-45 -93 -79 -124t-104 -31h-76v101h60q36 0 56.5 12t35.5 51l9 23l-249 477h114z" />
    <glyph glyph-name="uni0424" unicode="&#x424;" horiz-adv-x="890" 
d="M500 681v-77h58q125 0 207 -72t82 -193q0 -122 -82 -194t-207 -72h-58v-90h-110v90h-58q-125 0 -207 72t-82 194q0 121 82 193t207 72h58v77h110zM500 174h58q75 0 127 42t52 123q0 80 -52 122t-127 42h-58v-329zM332 174h58v329h-58q-75 0 -127 -42t-52 -122
q0 -81 52 -123t127 -42z" />
    <glyph glyph-name="uni0425" unicode="&#x425;" horiz-adv-x="629" 
d="M489 0l-176 245l-176 -245h-123l237 331l-237 333h127l174 -244l175 244h125l-238 -331l238 -333h-126z" />
    <glyph glyph-name="uni0426" unicode="&#x426;" horiz-adv-x="762" 
d="M528 664h110v-563h90v-248h-109v147h-538v664h110v-563h337v563z" />
    <glyph glyph-name="uni0427" unicode="&#x427;" horiz-adv-x="688" 
d="M52 664h111v-192q0 -68 38 -97.5t124 -29.5q85 0 171 17v302h111v-664h-111v261q-85 -17 -167 -17q-144 0 -210.5 55.5t-66.5 171.5v193z" />
    <glyph glyph-name="uni0428" unicode="&#x428;" horiz-adv-x="1018" 
d="M937 0h-856v664h110v-563h263v563h110v-563h263v563h110v-664z" />
    <glyph glyph-name="uni0429" unicode="&#x429;" horiz-adv-x="1061" 
d="M564 101h263v563h110v-563h90v-248h-109v147h-837v664h110v-563h263v563h110v-563z" />
    <glyph glyph-name="uni042A" unicode="&#x42a;" horiz-adv-x="777" 
d="M739 205q0 -89 -59 -147t-173 -58h-314v563h-179v101h289v-254h204q114 0 173 -58t59 -147zM629 205q0 49 -33.5 76.5t-93.5 27.5h-199v-208h199q60 0 93.5 27t33.5 77z" />
    <glyph glyph-name="uni042B" unicode="&#x42b;" horiz-adv-x="880" 
d="M799 664v-664h-110v664h110zM607 205q0 -89 -59 -147t-173 -58h-293v664h110v-254h183q114 0 173 -58t59 -147zM497 205q0 49 -33.5 76.5t-93.5 27.5h-178v-208h178q60 0 93.5 27t33.5 77z" />
    <glyph glyph-name="uni042C" unicode="&#x42c;" horiz-adv-x="666" 
d="M628 205q0 -89 -59 -147t-173 -58h-314v664h110v-254h204q114 0 173 -58t59 -147zM518 205q0 49 -33.5 76.5t-93.5 27.5h-199v-208h199q60 0 93.5 27t33.5 77z" />
    <glyph glyph-name="uni042D" unicode="&#x42d;" horiz-adv-x="716" 
d="M333 576q-112 0 -177 -87h-121q41 87 118 137.5t180 50.5q146 0 243 -98t97 -247t-97 -247t-243 -98q-103 0 -180 50t-118 137h121q64 -86 177 -86q87 0 149 53.5t75 140.5h-339v101h339q-12 86 -74.5 139.5t-149.5 53.5z" />
    <glyph glyph-name="uni042E" unicode="&#x42e;" horiz-adv-x="1038" 
d="M657 677q147 0 242.5 -99t95.5 -246t-95.5 -246t-242.5 -99q-133 0 -225.5 83t-109.5 212h-131v-282h-110v664h110v-281h131q18 129 110 211.5t225 82.5zM657 576q-99 0 -163.5 -69.5t-64.5 -174.5t64.5 -175t163.5 -70t163.5 70t64.5 175t-64.5 174.5t-163.5 69.5z" />
    <glyph glyph-name="uni042F" unicode="&#x42f;" horiz-adv-x="679" 
d="M162 464q0 -47 32 -73t88 -26h206v198h-206q-56 0 -88 -26t-32 -73zM52 464q0 87 57.5 143.5t168.5 56.5h320v-664h-110v264h-36l-276 -264h-150l278 264h-26q-111 0 -168.5 56.5t-57.5 143.5z" />
    <glyph glyph-name="uni0430" unicode="&#x430;" horiz-adv-x="565" 
d="M269 480q104 0 167 -49t63 -137v-294h-106v43q-53 -56 -157 -56q-86 0 -136.5 40.5t-50.5 116.5q0 55 31.5 89.5t77 47.5t104.5 13h131q0 45 -34 66.5t-89 21.5q-95 0 -119 -60h-113q20 76 83.5 117t147.5 41zM393 184v25h-132q-106 0 -106 -65q0 -31 26 -49t72 -18
q61 0 100.5 29t39.5 78z" />
    <glyph glyph-name="uni0431" unicode="&#x431;" horiz-adv-x="596" 
d="M313 460q100 0 168 -68.5t68 -168.5t-71 -168t-175 -68q-116 0 -181 75.5t-65 209.5q0 165 49 246t158 92l86 9q37 4 56.5 15t25.5 35h106q-12 -125 -147 -140l-115 -12q-56 -6 -86 -40t-34 -83q49 66 157 66zM303 85q60 0 100 39t40 99t-40 99.5t-100 39.5t-100 -39.5
t-40 -99.5t40 -99t100 -39z" />
    <glyph glyph-name="uni0432" unicode="&#x432;" horiz-adv-x="564" 
d="M463 235q53 -34 53 -102q0 -58 -39.5 -95.5t-114.5 -37.5h-286v467h281q75 0 114.5 -37.5t39.5 -95.5q0 -65 -48 -99zM348 89q62 0 62 51t-62 51h-166v-102h166zM343 277q62 0 62 51q0 50 -62 50h-161v-101h161z" />
    <glyph glyph-name="uni0433" unicode="&#x433;" horiz-adv-x="471" 
d="M76 467h367v-93h-261v-374h-106v467z" />
    <glyph glyph-name="uni0434" unicode="&#x434;" horiz-adv-x="631" 
d="M593 -126h-103v126h-373v-126h-102v219h59q50 50 50 180v194h391v-374h78v-219zM230 274q0 -117 -33 -181h212v281h-179v-100z" />
    <glyph glyph-name="uni0435" unicode="&#x435;" horiz-adv-x="570" 
d="M293 85q76 0 110 51h115q-25 -69 -86.5 -109t-138.5 -40q-107 0 -178 70t-71 177q0 106 68.5 176t175.5 70q103 0 170 -69.5t67 -172.5q0 -28 -2 -42h-369q9 -49 47.5 -80t91.5 -31zM288 385q-51 0 -88 -29t-44 -75h257q-8 47 -41.5 75.5t-83.5 28.5z" />
    <glyph glyph-name="uni0436" unicode="&#x436;" horiz-adv-x="767" 
d="M330 467h106v-191l185 191h136l-230 -235l230 -232h-141l-180 181v-181h-106v181l-180 -181h-140l230 232l-230 235h135l185 -191v191z" />
    <glyph glyph-name="uni0437" unicode="&#x437;" horiz-adv-x="550" 
d="M493 329q0 -61 -52 -94q56 -36 56 -99q0 -64 -60.5 -106.5t-157.5 -42.5q-98 0 -159 42t-77 113h116q25 -63 126 -63q45 0 75.5 17.5t30.5 44.5q0 24 -18 37t-48 13h-111v86h108q29 0 47 13t18 37q0 27 -29 44.5t-74 17.5q-93 0 -122 -56h-115q18 66 77.5 106.5
t157.5 40.5q81 0 146 -38t65 -113z" />
    <glyph glyph-name="uni0438" unicode="&#x438;" horiz-adv-x="613" 
d="M182 0h-106v467h106v-317l249 317h106v-467h-106v317z" />
    <glyph glyph-name="uni0439" unicode="&#x439;" horiz-adv-x="613" 
d="M182 0h-106v467h106v-317l249 317h106v-467h-106v317zM115 716h89q3 -42 31.5 -68t70.5 -26t70.5 26t31.5 68h89q-4 -80 -58 -132t-133 -52t-133 52t-58 132z" />
    <glyph glyph-name="uni043A" unicode="&#x43a;" horiz-adv-x="544" 
d="M76 467h106v-192l207 192h145l-255 -234l255 -233h-145l-207 181v-181h-106v467z" />
    <glyph glyph-name="uni043B" unicode="&#x43b;" horiz-adv-x="594" 
d="M126 467h387v-467h-106v374h-175v-103q0 -53 -5.5 -93.5t-22 -84.5t-53.5 -68.5t-93 -24.5h-39v99h27q28 0 45.5 15.5t24 45.5t8.5 53t2 60v194z" />
    <glyph glyph-name="uni043C" unicode="&#x43c;" horiz-adv-x="735" 
d="M553 292l-186 -292l-185 291v-291h-106v467h114l178 -282l179 282h112v-467h-106v292z" />
    <glyph glyph-name="uni043D" unicode="&#x43d;" horiz-adv-x="613" 
d="M431 467h106v-467h-106v189h-249v-189h-106v467h106v-185h249v185z" />
    <glyph glyph-name="uni043E" unicode="&#x43e;" horiz-adv-x="594" 
d="M297 480q107 0 178 -70.5t71 -176.5q0 -105 -71.5 -175.5t-177.5 -70.5q-107 0 -178.5 70.5t-71.5 175.5q0 106 71.5 176.5t178.5 70.5zM297 85q62 0 102.5 42.5t40.5 105.5q0 65 -40.5 107t-102.5 42t-103 -42.5t-41 -106.5q0 -63 41 -105.5t103 -42.5z" />
    <glyph glyph-name="uni043F" unicode="&#x43f;" horiz-adv-x="605" 
d="M76 467h453v-467h-106v374h-241v-374h-106v467z" />
    <glyph glyph-name="uni0440" unicode="&#x440;" horiz-adv-x="614" 
d="M182 -204h-106v671h106v-43q53 56 147 56q109 0 173.5 -72.5t64.5 -173.5q0 -102 -64.5 -174.5t-173.5 -72.5q-94 0 -147 56v-247zM178 234q0 -71 42.5 -110t101.5 -39q60 0 99.5 43.5t39.5 105.5q0 61 -39.5 104.5t-99.5 43.5q-59 0 -101.5 -39t-42.5 -109z" />
    <glyph glyph-name="uni0441" unicode="&#x441;" horiz-adv-x="562" 
d="M519 322h-111q-37 60 -114 60q-62 0 -101.5 -42t-39.5 -106t39.5 -106.5t101.5 -42.5q77 0 114 60h111q-25 -73 -86 -115.5t-139 -42.5q-105 0 -176 70.5t-71 176.5q0 105 71 175.5t176 70.5q78 0 139 -42.5t86 -115.5z" />
    <glyph glyph-name="uni0442" unicode="&#x442;" horiz-adv-x="499" 
d="M19 374v93h461v-93h-178v-374h-106v374h-177z" />
    <glyph glyph-name="uni0443" unicode="&#x443;" horiz-adv-x="548" 
d="M218 10l-209 457h118l150 -327l149 327h113l-225 -492q-49 -106 -70 -133q-33 -41 -99 -45q-11 -1 -24 -1h-57v93h41q34 0 54.5 17t40.5 63z" />
    <glyph glyph-name="uni0444" unicode="&#x444;" horiz-adv-x="786" 
d="M340 669h106v-202h43q108 0 178.5 -66t70.5 -167q0 -107 -67 -170.5t-181 -63.5h-44v-204h-106v204h-44q-115 0 -182 63.5t-67 170.5q0 101 70.5 167t178.5 66h44v202zM489 374h-43v-281h43q70 0 106.5 39t36.5 102t-38.5 101.5t-104.5 38.5zM340 374h-43
q-67 0 -105.5 -39t-38.5 -101q0 -63 36.5 -102t106.5 -39h44v281z" />
    <glyph glyph-name="uni0445" unicode="&#x445;" horiz-adv-x="550" 
d="M528 467l-188 -229l191 -238h-133l-126 155l-127 -155h-126l190 234l-187 233h135l120 -150l121 150h130z" />
    <glyph glyph-name="uni0446" unicode="&#x446;" horiz-adv-x="642" 
d="M604 -126h-102v126h-426v467h106v-374h239v374h106v-374h77v-219z" />
    <glyph glyph-name="uni0447" unicode="&#x447;" horiz-adv-x="573" 
d="M52 312v155h106v-140q0 -43 26 -61t85 -18q50 0 122 12v207h106v-467h-106v162q-60 -12 -123 -12q-216 0 -216 162z" />
    <glyph glyph-name="uni0448" unicode="&#x448;" horiz-adv-x="841" 
d="M765 0h-689v467h106v-374h185v374h106v-374h186v374h106v-467z" />
    <glyph glyph-name="uni0449" unicode="&#x449;" horiz-adv-x="880" 
d="M842 -126h-102v126h-664v467h106v-374h185v374h106v-374h186v374h106v-374h77v-219z" />
    <glyph glyph-name="uni044A" unicode="&#x44a;" horiz-adv-x="625" 
d="M415 323q89 0 135 -46.5t46 -115.5q0 -70 -46 -115.5t-135 -45.5h-255v374h-146v93h252v-144h149zM411 93q37 0 58 17.5t21 50.5t-21 51t-58 18h-145v-137h145z" />
    <glyph glyph-name="uni044B" unicode="&#x44b;" horiz-adv-x="755" 
d="M573 467h106v-467h-106v467zM315 323q89 0 135.5 -46.5t46.5 -115.5q0 -70 -46.5 -115.5t-135.5 -45.5h-239v467h106v-144h133zM312 93q37 0 58 17.5t21 50.5t-21.5 51t-57.5 18h-130v-137h130z" />
    <glyph glyph-name="uni044C" unicode="&#x44c;" horiz-adv-x="540" 
d="M330 323q89 0 135.5 -46.5t46.5 -115.5q0 -70 -46.5 -115.5t-135.5 -45.5h-254v467h106v-144h148zM327 93q37 0 58 17.5t21 50.5t-21.5 51t-57.5 18h-145v-137h145z" />
    <glyph glyph-name="uni044D" unicode="&#x44d;" horiz-adv-x="561" 
d="M189 188v92h211q-11 46 -46.5 74t-85.5 28q-77 0 -112 -56q-19 0 -56.5 0.5t-56.5 0.5q24 70 85.5 111.5t139.5 41.5q105 0 175 -70t70 -177q0 -106 -70 -176t-175 -70q-77 0 -138.5 42t-86.5 111h114q35 -55 111 -55q50 0 86 28t47 75h-212z" />
    <glyph glyph-name="uni044E" unicode="&#x44e;" horiz-adv-x="807" 
d="M516 480q104 0 173.5 -70.5t69.5 -176.5q0 -105 -69.5 -175.5t-173.5 -70.5q-93 0 -160 56.5t-82 145.5h-92v-189h-106v467h106v-185h93q16 88 82.5 143t158.5 55zM516 85q60 0 98.5 42t38.5 106q0 65 -38.5 107t-98.5 42q-61 0 -100 -42t-39 -107q0 -64 39 -106t100 -42
z" />
    <glyph glyph-name="uni044F" unicode="&#x44f;" horiz-adv-x="547" 
d="M365 146h-34l-170 -146h-142l175 148q-74 8 -112.5 52.5t-38.5 106.5q0 69 46 114.5t135 45.5h247v-467h-106v146zM365 374h-137q-37 0 -58 -17.5t-21 -49.5t21 -50t58 -18h137v135z" />
    <glyph glyph-name="uni0451" unicode="&#x451;" horiz-adv-x="575" 
d="M296 85q76 0 110 51h115q-25 -69 -86.5 -109t-138.5 -40q-107 0 -178 70t-71 177q0 106 68.5 176t175.5 70q103 0 170 -69.5t67 -172.5q0 -28 -2 -42h-369q9 -49 47.5 -80t91.5 -31zM291 385q-51 0 -88 -29t-44 -75h257q-8 47 -41.5 75.5t-83.5 28.5z" />
    <glyph glyph-name="uni0452" unicode="&#x452;" horiz-adv-x="616" 
d="M444 255q0 55 -30 87t-87 32q-54 0 -93 -39t-39 -103v-232h-106v521h-80v85h80v63h106v-63h154v-85h-154v-105q48 56 149 56q94 0 150 -55t56 -147v-293q0 -181 -184 -181h-72v93h71q79 0 79 88v278z" />
    <glyph glyph-name="uni0453" unicode="&#x453;" horiz-adv-x="471" 
d="M76 467h367v-93h-261v-374h-106v467z" />
    <glyph glyph-name="uni0454" unicode="&#x454;" horiz-adv-x="561" 
d="M372 280v-92h-212q11 -47 47 -75t86 -28q76 0 111 55h114q-25 -69 -86.5 -111t-138.5 -42q-105 0 -175 70t-70 176q0 107 70 177t175 70q78 0 139.5 -41.5t85.5 -111.5q-19 0 -56.5 -0.5t-56.5 -0.5q-35 56 -112 56q-50 0 -85.5 -28t-46.5 -74h211z" />
    <glyph glyph-name="uni0455" unicode="&#x455;" horiz-adv-x="532" 
d="M499 332h-115q-29 56 -127 56q-45 0 -72 -15t-27 -40q0 -42 86 -50l89 -7q161 -13 161 -139q0 -65 -57.5 -107.5t-155.5 -42.5q-100 0 -163.5 42t-79.5 113h116q23 -63 138 -63q42 0 69 14t27 39q0 44 -85 52l-95 9q-156 15 -156 136q0 66 56.5 108.5t150.5 42.5
q100 0 160.5 -40.5t79.5 -107.5z" />
    <glyph glyph-name="uni0456" unicode="&#x456;" horiz-adv-x="268" 
d="M79 467h106v-467h-106v467zM72 558v121h119v-121h-119z" />
    <glyph glyph-name="uni0457" unicode="&#x457;" horiz-adv-x="262" 
d="M78 467h106v-467h-106v467z" />
    <glyph glyph-name="uni0458" unicode="&#x458;" horiz-adv-x="282" 
d="M98 467h106v-490q0 -181 -184 -181h-72v93h71q79 0 79 88v490zM91 558v121h119v-121h-119z" />
    <glyph glyph-name="uni0459" unicode="&#x459;" horiz-adv-x="871" 
d="M126 467h387v-144h148q89 0 135.5 -46.5t46.5 -115.5q0 -70 -46.5 -115.5t-135.5 -45.5h-254v374h-175v-103q0 -53 -5.5 -93.5t-22 -84.5t-53.5 -68.5t-93 -24.5h-39v99h27q28 0 45.5 15.5t24 45.5t8.5 53t2 60v194zM658 93q37 0 58 17.5t21 50.5t-21.5 51t-57.5 18h-145
v-137h145z" />
    <glyph glyph-name="uni045A" unicode="&#x45a;" horiz-adv-x="895" 
d="M431 467h106v-144h148q89 0 135.5 -46.5t46.5 -115.5q0 -70 -46.5 -115.5t-135.5 -45.5h-254v189h-249v-189h-106v467h106v-185h249v185zM682 93q37 0 58 17.5t21 50.5t-21.5 51t-57.5 18h-145v-137h145z" />
    <glyph glyph-name="uni045B" unicode="&#x45b;" horiz-adv-x="616" 
d="M344 472q94 0 150 -55t56 -147v-270h-106v255q0 55 -30 87t-87 32q-54 0 -93 -39t-39 -103v-232h-106v521h-80v85h80v63h106v-63h154v-85h-154v-105q48 56 149 56z" />
    <glyph glyph-name="uni045C" unicode="&#x45c;" horiz-adv-x="544" 
d="M76 467h106v-192l207 192h145l-255 -234l255 -233h-145l-207 181v-181h-106v467z" />
    <glyph glyph-name="uni045E" unicode="&#x45e;" horiz-adv-x="548" 
d="M218 10l-209 457h118l150 -327l149 327h113l-225 -492q-49 -106 -70 -133q-33 -41 -99 -45q-11 -1 -24 -1h-57v93h41q34 0 54.5 17t40.5 63z" />
    <glyph glyph-name="uni045F" unicode="&#x45f;" horiz-adv-x="603" 
d="M353 -126h-103v126h-174v467h106v-374h239v374h106v-467h-174v-126z" />
    <glyph glyph-name="uni0490" unicode="&#x490;" horiz-adv-x="559" 
d="M81 664h345v138h109v-239h-344v-563h-110v664z" />
    <glyph glyph-name="uni0491" unicode="&#x491;" horiz-adv-x="471" 
d="M340 583h103v-209h-261v-374h-106v467h264v116z" />
    <glyph glyph-name="uni0492" unicode="&#x492;" horiz-adv-x="593" 
d="M454 383v-101h-229v-282h-110v282h-96v101h96v281h454v-101h-344v-180h229z" />
    <glyph glyph-name="uni0493" unicode="&#x493;" horiz-adv-x="494" 
d="M19 259h79v208h367v-93h-261v-115h170v-90h-170v-169h-106v169h-79v90z" />
    <glyph glyph-name="uni049A" unicode="&#x49a;" horiz-adv-x="644" 
d="M282 332l238 -232h102v-247h-109v147h-38l-284 275v-275h-110v664h110v-278l288 278h143z" />
    <glyph glyph-name="uni049B" unicode="&#x49b;" horiz-adv-x="563" 
d="M534 -126h-103v126h-42l-207 181v-181h-106v467h106v-192l207 192h145l-255 -234l153 -140h102v-219z" />
    <glyph glyph-name="uni04A2" unicode="&#x4a2;" horiz-adv-x="781" 
d="M547 664h110v-564h90v-247h-109v147h-91v282h-356v-282h-110v664h110v-281h356v281z" />
    <glyph glyph-name="uni04A3" unicode="&#x4a3;" horiz-adv-x="652" 
d="M614 -126h-102v126h-81v189h-249v-189h-106v467h106v-185h249v185h106v-374h77v-219z" />
    <glyph glyph-name="uni04AE" unicode="&#x4ae;" horiz-adv-x="619" 
d="M311 348l189 316h119l-254 -424v-240h-110v240l-255 424h121z" />
    <glyph glyph-name="uni04AF" unicode="&#x4af;" horiz-adv-x="548" 
d="M539 467l-212 -463v-208h-106v208l-212 463h118l150 -327l149 327h113z" />
    <glyph glyph-name="uni04B0" unicode="&#x4b0;" horiz-adv-x="619" 
d="M311 348l189 316h119l-214 -356h147v-101h-187v-207h-110v207h-185v101h144l-214 356h121z" />
    <glyph glyph-name="uni04B1" unicode="&#x4b1;" horiz-adv-x="548" 
d="M539 467l-186 -405h137v-92h-163v-174h-106v174h-163v92h136l-185 405h118l150 -327l149 327h113z" />
    <glyph glyph-name="uni04BA" unicode="&#x4ba;" horiz-adv-x="686" 
d="M634 0h-111v192q0 68 -38 97.5t-124 29.5q-85 0 -171 -17v-302h-111v664h111v-261q85 17 167 17q144 0 210.5 -55.5t66.5 -171.5v-193z" />
    <glyph glyph-name="uni04BB" unicode="&#x4bb;" horiz-adv-x="603" 
d="M331 480q94 0 150 -55t56 -147v-278h-106v263q0 55 -30 87t-87 32q-54 0 -93 -39t-39 -103v-240h-106v669h106v-245q48 56 149 56z" />
    <glyph glyph-name="uni04D8" unicode="&#x4d8;" horiz-adv-x="754" 
d="M184 489h-119q38 86 118 137t183 51q151 0 248 -99.5t97 -245.5q0 -145 -97 -245t-242 -100t-237 99t-92 245q0 31 1 48h552q-12 87 -76 142t-154 55q-122 0 -182 -87zM373 88q86 0 148 53t74 137h-437q12 -85 70.5 -137.5t144.5 -52.5z" />
    <glyph glyph-name="uni04D9" unicode="&#x4d9;" horiz-adv-x="575" 
d="M279 382q-76 0 -110 -51h-115q25 69 86.5 109t138.5 40q107 0 178 -70t71 -177q0 -106 -68.5 -176t-175.5 -70q-103 0 -170 69.5t-67 172.5q0 28 2 42h369q-9 49 -47.5 80t-91.5 31zM284 82q51 0 88 29t44 75h-257q8 -47 41.5 -75.5t83.5 -28.5z" />
    <glyph glyph-name="uni04E8" unicode="&#x4e8;" horiz-adv-x="772" 
d="M386 677q148 0 245.5 -99.5t97.5 -245.5t-97.5 -245.5t-245.5 -99.5t-245.5 99.5t-97.5 245.5t97.5 245.5t245.5 99.5zM386 88q87 0 149.5 54t78.5 140h-457q16 -86 78.5 -140t150.5 -54zM386 576q-87 0 -150 -54t-79 -139h457q-16 85 -78.5 139t-149.5 54z" />
    <glyph glyph-name="uni04E9" unicode="&#x4e9;" horiz-adv-x="594" 
d="M297 480q107 0 178 -70t71 -177q0 -106 -71 -176t-178 -70t-178.5 70t-71.5 176q0 107 71 177t179 70zM297 83q52 0 90 29t49 78h-279q11 -49 49 -78t91 -29zM297 384q-52 0 -89.5 -28t-49.5 -76h278q-13 48 -50.5 76t-88.5 28z" />
    <glyph glyph-name="uni1E02" unicode="&#x1e02;" horiz-adv-x="654" 
d="M519 332q82 -46 82 -148q0 -81 -55 -132.5t-161 -51.5h-304v664h304q106 0 161 -52t55 -133q0 -101 -82 -147zM191 101h187q53 0 83 23t30 67q0 45 -30 68t-83 23h-187v-181zM191 383h187q53 0 83 23t30 66q0 45 -30 68t-83 23h-187v-180z" />
    <glyph glyph-name="uni1E03" unicode="&#x1e03;" horiz-adv-x="614" 
d="M76 669h106v-245q53 56 147 56q109 0 173.5 -72.5t64.5 -174.5q0 -101 -64.5 -173.5t-173.5 -72.5q-94 0 -147 56v-43h-106v669zM178 233q0 -70 42.5 -109t101.5 -39q60 0 99.5 43.5t39.5 104.5q0 62 -39.5 105.5t-99.5 43.5q-59 0 -101.5 -39t-42.5 -110z" />
    <glyph glyph-name="uni1E0A" unicode="&#x1e0a;" horiz-adv-x="713" 
d="M81 664h226q168 0 265.5 -95t97.5 -237t-97.5 -237t-265.5 -95h-226v664zM560 332q0 103 -68 167t-184 64h-117v-462h117q116 0 184 64t68 167z" />
    <glyph glyph-name="uni1E0B" unicode="&#x1e0b;" horiz-adv-x="614" 
d="M432 669h106v-669h-106v43q-53 -56 -147 -56q-109 0 -173.5 72.5t-64.5 173.5q0 102 64.5 174.5t173.5 72.5q94 0 147 -56v245zM436 233q0 71 -42.5 110t-101.5 39q-60 0 -99.5 -43.5t-39.5 -105.5q0 -61 39.5 -104.5t99.5 -43.5q59 0 101.5 39t42.5 109z" />
    <glyph glyph-name="uni1E1E" unicode="&#x1e1e;" horiz-adv-x="582" 
d="M539 563h-348v-180h341v-101h-341v-282h-110v664h458v-101z" />
    <glyph glyph-name="uni1E1F" unicode="&#x1e1f;" horiz-adv-x="377" 
d="M206 0h-106v374h-86v93h86v50q0 67 47 109.5t131 42.5h74v-93h-74q-35 0 -53.5 -18t-18.5 -48v-43h146v-93h-146v-374z" />
    <glyph glyph-name="uni1E40" unicode="&#x1e40;" horiz-adv-x="952" 
d="M760 488l-284 -488l-285 488v-488h-110v664h130l266 -462l268 462h125v-664h-110v488z" />
    <glyph glyph-name="uni1E41" unicode="&#x1e41;" horiz-adv-x="938" 
d="M765 0v265q0 55 -28 86t-84 31q-52 0 -89.5 -39t-37.5 -103v-240h-106v265q0 55 -28 86t-84 31q-52 0 -89 -38.5t-37 -101.5v-242h-106v467h106v-43q49 56 142 56q118 0 170 -79q63 79 174 79q92 0 147.5 -55t55.5 -146v-279h-106z" />
    <glyph glyph-name="uni1E56" unicode="&#x1e56;" horiz-adv-x="665" 
d="M627 464q0 -87 -57.5 -143.5t-168.5 -56.5h-210v-264h-110v664h320q111 0 168.5 -56.5t57.5 -143.5zM517 464q0 47 -32 73t-88 26h-206v-198h206q56 0 88 26t32 73z" />
    <glyph glyph-name="uni1E57" unicode="&#x1e57;" horiz-adv-x="614" 
d="M182 -204h-106v671h106v-43q53 56 147 56q109 0 173.5 -72.5t64.5 -173.5q0 -102 -64.5 -174.5t-173.5 -72.5q-94 0 -147 56v-247zM178 234q0 -71 42.5 -110t101.5 -39q60 0 99.5 43.5t39.5 105.5q0 61 -39.5 104.5t-99.5 43.5q-59 0 -101.5 -39t-42.5 -109z" />
    <glyph glyph-name="uni1E60" unicode="&#x1e60;" horiz-adv-x="622" 
d="M24 174h115q22 -41 69.5 -63.5t109.5 -22.5q70 0 113.5 27t43.5 71q0 41 -30.5 63t-96.5 29l-115 12q-97 9 -144 58t-47 125q0 91 70.5 147.5t189.5 56.5q114 0 188 -55.5t99 -132.5h-116q-18 39 -66 63t-107 24q-69 0 -108.5 -28.5t-39.5 -70.5q0 -77 110 -88l123 -13
q93 -10 146.5 -59.5t53.5 -125.5q0 -84 -70.5 -144t-196.5 -60q-122 0 -194.5 52.5t-99.5 134.5z" />
    <glyph glyph-name="uni1E61" unicode="&#x1e61;" horiz-adv-x="532" 
d="M499 332h-115q-29 56 -127 56q-45 0 -72 -15t-27 -40q0 -42 86 -50l89 -7q161 -13 161 -139q0 -65 -57.5 -107.5t-155.5 -42.5q-100 0 -163.5 42t-79.5 113h116q23 -63 138 -63q42 0 69 14t27 39q0 44 -85 52l-95 9q-156 15 -156 136q0 66 56.5 108.5t150.5 42.5
q100 0 160.5 -40.5t79.5 -107.5z" />
    <glyph glyph-name="uni1E6A" unicode="&#x1e6a;" horiz-adv-x="605" 
d="M24 664h556v-101h-223v-563h-110v563h-223v101z" />
    <glyph glyph-name="uni1E6B" unicode="&#x1e6b;" horiz-adv-x="409" 
d="M114 584h106v-117h146v-93h-146v-211q0 -70 71 -70h75v-93h-76q-86 0 -131 38.5t-45 106.5v229h-86v93h86v117z" />
    <glyph glyph-name="Wgrave" unicode="&#x1e80;" horiz-adv-x="1054" 
d="M9 664h115l173 -515l169 515h121l172 -514l171 514h115l-224 -664h-121l-174 524l-170 -524h-122z" />
    <glyph glyph-name="wgrave" unicode="&#x1e81;" horiz-adv-x="849" 
d="M19 467h110l124 -331l123 331h108l124 -332l124 332h106l-174 -467h-111l-125 335l-125 -335h-110z" />
    <glyph glyph-name="Wacute" unicode="&#x1e82;" horiz-adv-x="1054" 
d="M9 664h115l173 -515l169 515h121l172 -514l171 514h115l-224 -664h-121l-174 524l-170 -524h-122z" />
    <glyph glyph-name="wacute" unicode="&#x1e83;" horiz-adv-x="849" 
d="M19 467h110l124 -331l123 331h108l124 -332l124 332h106l-174 -467h-111l-125 335l-125 -335h-110z" />
    <glyph glyph-name="Wdieresis" unicode="&#x1e84;" horiz-adv-x="1054" 
d="M9 664h115l173 -515l169 515h121l172 -514l171 514h115l-224 -664h-121l-174 524l-170 -524h-122z" />
    <glyph glyph-name="wdieresis" unicode="&#x1e85;" horiz-adv-x="849" 
d="M19 467h110l124 -331l123 331h108l124 -332l124 332h106l-174 -467h-111l-125 335l-125 -335h-110z" />
    <glyph glyph-name="Ygrave" unicode="&#x1ef2;" horiz-adv-x="619" 
d="M311 348l189 316h119l-254 -424v-240h-110v240l-255 424h121z" />
    <glyph glyph-name="ygrave" unicode="&#x1ef3;" horiz-adv-x="548" 
d="M218 10l-209 457h118l150 -327l149 327h113l-225 -492q-49 -106 -70 -133q-33 -41 -99 -45q-11 -1 -24 -1h-57v93h41q34 0 54.5 17t40.5 63z" />
    <glyph glyph-name="Udotaccent" unicode="&#xf47e;" horiz-adv-x="731" 
d="M76 276v388h110v-387q0 -92 47.5 -140.5t132.5 -48.5t132.5 48.5t47.5 140.5v387h110v-388q0 -137 -78.5 -213t-211.5 -76t-211.5 76t-78.5 213z" />
    <glyph glyph-name="udotaccent" unicode="&#xf47f;" horiz-adv-x="597" 
d="M269 -13q-92 0 -147.5 55t-55.5 147v278h106v-263q0 -55 29 -87t85 -32q53 0 91 39t38 103v240h106v-467h-106v43q-48 -56 -146 -56z" />
    <glyph glyph-name="cyrbreve" unicode="&#xf6d4;" horiz-adv-x="488" 
d="M53 716h89q3 -42 31.5 -68t70.5 -26t70.5 26t31.5 68h89q-4 -80 -58 -132t-133 -52t-133 52t-58 132z" />
    <glyph glyph-name="Tcommaaccent" horiz-adv-x="605" 
d="M24 664h556v-101h-223v-563h-110v563h-223v101z" />
    <glyph glyph-name="tcommaaccent" horiz-adv-x="409" 
d="M114 584h106v-117h146v-93h-146v-211q0 -70 71 -70h75v-93h-76q-86 0 -131 38.5t-45 106.5v229h-86v93h86v117z" />
    <glyph glyph-name="cyrbreve.cap" horiz-adv-x="508" 
d="M53 885h90q4 -39 35.5 -63.5t75.5 -24.5t75.5 24.5t35.5 63.5h90q-5 -77 -62.5 -127.5t-138.5 -50.5t-138.5 50.5t-62.5 127.5z" />
    </font>
</defs>
</svg>
