<svg width="86" height="86" viewBox="0 0 86 86" fill="none" xmlns="http://www.w3.org/2000/svg">
<rect width="86" height="86" rx="32" fill="#9BC332"/>
<path d="M19 41.6148C19.1185 40.7361 19.183 39.8469 19.3637 38.9823C21.46 28.9368 27.4289 22.4436 37.3371 19.7501C41.8548 18.5218 46.3995 18.8515 50.8398 20.3777C51.0146 20.4375 51.1905 20.495 51.3888 20.5619C51.4205 20.38 51.4322 20.2264 51.4732 20.0821C51.6785 19.3747 52.6006 19.1189 53.0159 19.7149C53.5919 20.5419 54.0717 21.4406 54.5351 22.338C54.7498 22.7545 54.5187 23.1498 54.1444 23.3809C53.3749 23.8548 52.5912 24.3088 51.7947 24.7359C51.3606 24.9681 50.8515 24.7886 50.6122 24.3886C50.3658 23.9757 50.4491 23.4888 50.8421 23.1756C51.0556 23.0055 51.2984 22.8706 51.5859 22.6817C50.2074 22.0905 48.849 21.6705 47.4471 21.3878C42.8426 20.4598 38.3706 20.9091 34.0805 22.8108C30.2245 24.5188 27.1086 27.1513 24.7295 30.6425C22.6238 33.7325 21.3791 37.1463 20.999 40.8581C20.8793 42.0324 20.9462 43.2255 20.9321 44.4103C20.9286 44.6754 20.9708 44.9417 20.9486 45.2045C20.9098 45.655 20.5603 45.9858 20.1274 46.0281C19.6816 46.0715 19.2956 45.8321 19.1678 45.3828C19.0809 45.0708 19.054 44.7435 19 44.4244C19 43.4871 19 42.5509 19 41.6136V41.6148Z" fill="#FFFEEB"/>
<path d="M34.8337 67C34.5862 66.7525 34.2988 66.5319 34.0982 66.2504C33.711 65.7037 33.3685 65.1253 33.0154 64.5552C32.5931 63.8724 32.6916 63.4008 33.3521 62.9715C33.9797 62.5632 34.6108 62.1608 35.2478 61.7678C35.8274 61.4112 36.394 61.5015 36.6861 61.9814C36.9712 62.4483 36.8116 62.9703 36.2661 63.3398C36.0502 63.4853 35.8285 63.6214 35.4731 63.849C36.5617 64.1399 37.5073 64.4426 38.4751 64.642C42.94 65.5641 47.2841 65.1464 51.4921 63.3844C55.6109 61.6599 58.8921 58.9066 61.3627 55.2054C63.4615 52.0614 64.7191 48.5937 64.9771 44.8139C65.0769 43.3439 64.9466 41.8576 64.9244 40.3794C64.9208 40.1472 64.8962 39.9032 64.9537 39.6838C65.0663 39.2568 65.4769 39.0198 65.9356 39.0667C66.3966 39.1136 66.7063 39.4421 66.7732 39.9865C67.0747 42.4348 67.0454 44.8749 66.555 47.2985C64.9056 55.4623 60.3105 61.335 52.7778 64.8825C50.3025 66.0486 47.6653 66.6715 44.9402 66.9085C44.7243 66.9272 44.5108 66.9695 44.2961 67H41.673C40.7955 66.885 39.9133 66.8017 39.0441 66.6469C38.0387 66.4686 37.0462 66.2257 36.0209 66.0052C36.0104 66.4991 35.7241 66.8005 35.303 66.9988H34.8349L34.8337 67Z" fill="#FFFEEB"/>
<path d="M19 57.9141C19.1642 57.3018 19.2569 56.6577 19.5127 56.0864C19.8341 55.3673 20.2294 54.6634 20.6987 54.0311C22.178 52.0403 23.7066 50.0859 25.2187 48.1186C25.844 47.3056 26.4458 47.3021 27.0605 48.1103C28.6748 50.2349 30.3242 52.3336 31.8926 54.491C34.9486 58.6943 32.6153 64.7171 27.538 65.814C23.6432 66.6551 19.6816 63.8795 19.1009 59.9061C19.0809 59.7712 19.0352 59.6398 19.0012 59.5072C19.0012 58.977 19.0012 58.4456 19.0012 57.9153L19 57.9141ZM26.1056 49.951C26.0563 50.0612 26.0399 50.1281 26.0024 50.1774C24.6932 51.8878 23.3769 53.5924 22.0724 55.3063C21.1116 56.5697 20.6893 57.9927 20.9591 59.5694C21.3287 61.7303 22.5604 63.226 24.658 63.8595C26.7508 64.4918 28.602 63.9147 30.0297 62.2688C31.4633 60.617 31.7847 58.6755 30.9213 56.6777C30.4908 55.6805 29.7575 54.8065 29.1076 53.915C28.1551 52.6069 27.1544 51.3329 26.1044 49.951H26.1056Z" fill="#FFFEEB"/>
<path d="M42.9988 57.8215C36.8211 57.7792 31.4142 53.319 30.3009 47.261C29.6205 43.5563 30.3677 40.1308 32.6483 37.1346C35.7758 33.0263 38.9984 28.9896 42.1846 24.9259C42.709 24.2572 43.3413 24.2502 43.8563 24.913C47.0824 29.0647 50.339 33.1929 53.51 37.3868C56.478 41.3121 56.6868 47.1237 54.1434 51.3423C52.1785 54.6012 49.3442 56.6566 45.6383 57.4836C44.7761 57.676 43.8798 57.7124 42.9999 57.8215H42.9988ZM43.0398 26.9096C42.9518 27.0047 42.8732 27.0774 42.8076 27.1607C39.9217 30.8467 37.0053 34.5103 34.1628 38.2291C32.1697 40.8358 31.5186 43.8226 32.1591 47.0322C33.4061 53.2744 39.6565 57.1317 45.8143 55.5151C53.3328 53.5419 56.5096 44.5006 51.857 38.2831C50.5947 36.5961 49.2832 34.9479 47.9916 33.2832C46.3469 31.1634 44.6986 29.0459 43.0387 26.9096H43.0398Z" fill="#FFFEEB"/>
<path d="M66.9666 30.0583C66.9478 34.4 63.5516 37.6684 59.4574 37.4783C56.1586 37.3258 53.2516 34.6253 52.814 31.3452C52.5371 29.2747 53.0076 27.4082 54.2628 25.7494C55.836 23.6706 57.4279 21.6083 59.0198 19.5448C59.5513 18.8561 60.1929 18.8597 60.7173 19.5471C62.2881 21.6071 63.8531 23.6718 65.4227 25.733C66.441 27.0692 66.9431 28.5802 66.9666 30.0583ZM59.8328 21.4816C59.7812 21.5883 59.7636 21.6529 59.726 21.7021C58.4086 23.4231 57.0865 25.1394 55.7714 26.8615C55.0922 27.7508 54.7274 28.7573 54.6218 29.8741C54.3449 32.7964 56.7228 35.5391 59.6498 35.6048C61.7532 35.6518 63.3651 34.7203 64.3857 32.8996C65.4227 31.0496 65.3887 29.1245 64.2273 27.3589C63.1762 25.76 61.9479 24.2771 60.7971 22.745C60.5003 22.3497 60.1976 21.9602 59.8328 21.4816Z" fill="#FFFEEB"/>
<path d="M26.2815 62.7885C25.6621 62.8084 25.2468 62.4823 25.1975 61.9403C25.153 61.4453 25.5155 61.0405 26.0962 60.9361C27.6036 60.6663 28.04 60.2135 28.2829 58.6685C28.3744 58.0878 28.7615 57.7605 29.3035 57.8062C29.8067 57.8485 30.1458 58.252 30.1434 58.8034C30.1317 60.9092 28.3732 62.7228 26.2815 62.7885Z" fill="#FFFEEB"/>
<path d="M52.2016 46.6486C51.9083 47.3983 51.6784 48.1807 51.3101 48.8917C50.334 50.7816 48.8477 52.1588 46.9015 53.0328C46.2985 53.3038 45.7753 53.1771 45.5254 52.6914C45.2649 52.1858 45.4632 51.6403 46.0814 51.3576C47.6065 50.6595 48.8101 49.6143 49.5914 48.1291C49.8859 47.5695 50.0642 46.949 50.2941 46.3554C50.5299 45.7465 51.0625 45.4955 51.5904 45.7477C51.933 45.9119 52.1219 46.2251 52.2016 46.6475V46.6486Z" fill="#FFFEEB"/>
<path d="M52.3482 42.802C52.3552 43.2935 51.9317 43.7381 51.4402 43.7546C50.9369 43.771 50.4782 43.3146 50.4864 42.8032C50.4935 42.2952 50.9076 41.887 51.4167 41.8881C51.9235 41.8881 52.3411 42.2975 52.3494 42.8032L52.3482 42.802Z" fill="#FFFEEB"/>
<path d="M60.0102 34.312C59.3908 34.3343 58.9732 34.0106 58.9216 33.4697C58.8746 32.977 59.236 32.5711 59.8167 32.4632C61.3312 32.1817 61.7793 31.7171 62.0081 30.1956C62.0949 29.6172 62.4843 29.2852 63.0252 29.3286C63.5249 29.3697 63.8721 29.7779 63.8686 30.3246C63.8581 32.4327 62.1113 34.2381 60.0102 34.3132V34.312Z" fill="#FFFEEB"/>
</svg>
