<svg fill="none" height="86" viewBox="0 0 86 86" width="86" xmlns="http://www.w3.org/2000/svg"><rect fill="#9bc332" height="86" rx="32" width="86"/><g fill="#fffeeb"><path d="m43.9384 19c.9628.1828 1.9443.2962 2.8837.5606 3.3514.9431 5.9782 2.9118 7.8934 5.8095 1.5956 2.4139 2.3137 5.0923 2.279 7.9797-.0019.1715.0037.3431.0093.5156.001.029.0197.0581.0169.0496.5738.1622 1.1578.2457 1.6678.4866 1.4324.6787 2.2321 1.859 2.2827 3.4377.0356 1.1146.0328 2.2649-.2025 3.3448-.3365 1.5478-1.7559 2.6043-3.3496 2.7684-.1228.0121-.2428.0421-.3937.0684-.0469.4847-.075.9628-.1415 1.4353-.7519 5.3857-5.1402 9.339-10.5774 9.533-.3591.0131-.7181.0122-1.0781.0094-.7659-.0056-1.0622-.2503-1.2244-1.0012-.1406-.6497-.4396-.9553-.9543-.9778-.5053-.0225-.9075.2962-1.0031.7931-.0947.4959.1556.9459.6291 1.11.1312.0459.2737.0609.4106.09.6046.1256.9431.5306.8924 1.0687-.0534.5681-.4781.914-1.1043.8999-1.2965-.03-2.444-.9618-2.7758-2.2555-.3206-1.2496.2456-2.6268 1.348-3.2783 1.5347-.9065 3.419-.3647 4.2346 1.229.1106.2156.2006.3412.479.3262 3.7142-.209 6.4057-1.9658 8.0341-5.3126.5831-1.198.8062-2.4871.8062-3.8164 0-1.5618-.0028-3.1246.0019-4.6864.0018-.6046.2653-1.0068.7181-1.1343.6365-.179 1.2327.2456 1.259.9431.0309.8109.0112 1.6246.014 2.4365v.5015c.9159.0816 1.8403-.5915 1.9303-1.5159.0909-.9412.09-1.9049-.0019-2.8461-.0881-.9037-.9215-1.5093-1.9424-1.5721-.2963-.0179-.5934.0028-.8906-.0094-.6909-.0281-1.0659-.3966-1.0856-1.0856-.0159-.5465.0056-1.094-.0047-1.6406-.0984-5.2132-2.4796-8.994-7.1847-11.2383-4.3742-2.0858-10.1134-.9065-13.4526 2.6634-2.2509 2.4055-3.3608 5.2498-3.3608 8.5374v9.4206c0 1.0003-.3525 1.3471-1.3434 1.3631-1.1493.0178-2.2368-.1453-3.1621-.9112-.9337-.7734-1.4324-1.7671-1.4755-2.9643-.0319-.8878-.0441-1.7859.0543-2.6661.2025-1.814 1.5834-3.1555 3.3974-3.4096.1669-.0234.3328-.0544.4884-.0797.0572-.944.061-1.8674.1772-2.7767.7753-6.0467 5.4354-10.928 11.4052-11.9743.5053-.0881 1.0143-.1528 1.5215-.2287zm-14.9563 17.0637c-.914-.0591-1.8149.5953-1.904 1.5149-.0909.9403-.0918 1.9031 0 2.8424.09.9225 1.0172 1.5947 1.9031 1.514v-5.8713z"/><path d="m67.0001 57.4361c-.2063.9974-.5916 1.8918-1.3912 2.5771-.84.719-1.8178.9871-2.8987.9871-9.5734-.0019-19.1467 0-28.7201-.0084-.4012 0-.69.1012-.9797.3956-1.6302 1.6602-3.2801 3.3017-4.9329 4.9395-.2512.2484-.5493.449-.8259.6712h-.4687c-.5578-.2259-.7894-.6309-.7819-1.2403.0207-1.8589.0038-3.7179.0103-5.5769.0019-.6422.2747-1.0331.7594-1.14.6609-.1462 1.2121.3094 1.2262 1.0509.0178.9684.0047 1.9368.0047 2.9052v.5447c.1593-.1397.2615-.2213.3534-.3131 1.2159-1.214 2.4402-2.4196 3.6392-3.6505.4003-.4106.8353-.5812 1.41-.5803 9.7318.0112 19.4636.0122 29.1954-.0038.4687 0 .9815-.0862 1.3949-.2906.7585-.3759 1.0134-1.0977 1.0125-1.9199-.0019-1.8749 0-3.7489 0-5.6238 0-7.2635 0-14.5279 0-21.7914 0-.5887-.0703-1.1502-.465-1.6274-.4687-.5662-1.0884-.7481-1.7915-.7472-1.5308.0019-3.0617.0066-4.5926-.0028-.7153-.0047-1.1643-.4171-1.1475-1.0162.015-.5147.4032-.9553.9647-.9581 1.8421-.0093 3.6908-.0675 5.5245.0638 1.7849.1275 3.0702 1.4455 3.4217 3.2183.0178.09.0516.1762.0778.2644v28.8738z"/><path d="m19.0019 28.5622c.2081-1.0153.6065-1.919 1.4268-2.6071.7518-.63 1.619-.9365 2.5808-.9487 1.6237-.0216 3.2474-.0122 4.8711-.0038.5915.0028.9684.2953 1.0715.7809.1013.4763-.1115.9413-.5559 1.1081-.2119.0797-.4566.0956-.6872.0966-1.468.0084-2.9352.0009-4.4032.0047-1.5197.0037-2.3099.794-2.3109 2.3155-.0019 9.1187-.0019 18.2365 0 27.3552 0 1.4306.5906 2.1158 2.0053 2.3427.6918.1106 1.0452.5203.9712 1.1268-.0694.5709-.5728.9122-1.244.8447-1.9284-.195-3.2615-1.4081-3.6552-3.3243-.015-.074-.0478-.1453-.0722-.2184 0-9.6249 0-19.2489 0-28.8739z"/><path d="m42.4075 23.0059c5.3867.0394 9.4028 3.3233 10.3843 8.0087.1275.6075.1659 1.2366.1988 1.859.0318.6103-.3572 1.0547-.9056 1.1119-.5288.0553-.9675-.3319-1.0762-.9431-.1622-.9169-.2119-1.8731-.5138-2.7412-1.1849-3.4077-4.5054-5.5357-8.0903-5.2788-3.5417.254-6.551 2.9108-7.2466 6.4141-.0815.4106-.0872.8362-.1387 1.2534-.031.2456-.0441.5043-.1331.7303-.1613.4115-.6591.6384-1.0819.5418-.4959-.1134-.8071-.5062-.7996-1.0631.0572-4.0779 2.5274-7.674 6.3288-9.1937 1.1849-.4743 2.4215-.7087 3.0739-.6993z"/><path d="m44.0059 46.9766h-1.9827v-1.9799c.6056 0 1.1915-.0085 1.7765.0112.0712.0028.194.1528.1969.2381.0178.5588.0093 1.1175.0093 1.7306z"/><path d="m39.9739 46.9852h-1.9256v-1.964h1.9256z"/><path d="m47.9658 46.9861h-1.9321v-1.9668h1.9321z"/></g></svg>