<svg fill="none" height="86" viewBox="0 0 86 86" width="86" xmlns="http://www.w3.org/2000/svg"><rect fill="#9bc332" height="86" rx="32" width="86"/><g fill="#fffeeb"><path d="m67 53.5541c-.045.1275-.0987.2525-.135.3825-.3537 1.2424-1.1074 2.1573-2.2861 2.6885-1.0374.4675-2.0923.8962-3.1447 1.3312-.595.2449-1.1337.0487-1.3374-.4613-.2075-.5224.0275-1.0049.6324-1.2649 1.0025-.4299 2.0149-.8386 3.0136-1.2811.9474-.42 1.4848-1.3424 1.3673-2.2848-.1249-1.0012-.8911-1.8299-1.9173-1.9574-.3987-.05-.8537.0175-1.2287.1688-3.5447 1.4249-7.1207 2.7823-10.5904 4.3709-1.3761.6312-2.7023.8587-4.1484.8124-.5462-.0175-1.0937-.0025-1.6399-.0025-1.1399 0-2.281.0025-3.421-.0025-.1862 0-.3774-.0075-.5562-.0525-.4587-.1162-.7199-.5099-.6787-.9837.0388-.4374.3663-.7711.82-.8186.1862-.0188.3749-.0138.5612-.0138 2.1711 0 4.3434.0063 6.5145-.0037 1.0499-.005 1.8511-.7375 2.0061-1.7949.1325-.9024-.4713-1.8524-1.3874-2.1311-.2625-.08-.5537-.0975-.8312-.0975-2.906-.0062-5.8121.0088-8.7181-.01-1.3436-.0087-2.4585.4512-3.3922 1.4137-.8912.9186-1.8136 1.8073-2.7236 2.706-.1437.1425-.2799.3325-.4562.395-.5724.2025-.5537.6387-.5499 1.1186.0137 2.0111.0062 4.021.0062 6.0696.1325.015.25.0387.3662.04 3.8122.0012 7.6244 0 11.4354 0 2.0161 0 3.9234-.4725 5.7608-1.2774.8562-.375 1.7211-.7325 2.5848-1.0912.6262-.26 1.1662-.08 1.3749.4475.205.5174-.03 1.0124-.6387 1.2624-1.9449.7986-3.8185 1.8098-5.9133 2.1735-1.1637.2013-2.3536.3275-3.5335.3425-3.6084.0438-7.2182.0163-10.8266.0163h-.6125v1.5648c-.0012.9387-.2975 1.2412-1.2211 1.2412-3.781 0-7.5619-.0075-11.3416.01-.565.0025-.9662-.1687-1.2137-.6762 0-.1875 0-.3737 0-.5612.2575-.205.4975-.4425.7812-.6037.145-.0825.3662-.0375.5524-.0388 1.165-.0025 2.3299 0 3.516 0v-11.7765c-1.2799-.3425-2.5385-.6962-3.8084-1.01-.45-.1112-.7975-.3124-1.0412-.6999v-.5612c.42-.6737.6787-.7737 1.4799-.5637.5574.1462 1.1224.275 1.6699.4524 1.8448.5962 3.7234.8537 5.6658.7462 1.1674-.0637 2.3423-.0125 3.5134-.0112 1.1487 0 1.3212.1425 1.5137 1.3649.8574-.8775 1.6598-1.6999 2.4623-2.5211.9349-.9561 2.0636-1.5524 3.3847-1.7598.3987-.0625.8087-.075 1.2137-.075 2.8585-.0063 5.7183.0575 8.5743-.0213 2.6023-.0712 4.3997 1.9524 4.2397 4.2297-.0025.0287.0162.0575.0425.1387.2862-.115.5699-.2249.8511-.3412 2.4636-1.0174 4.9534-1.9761 7.3832-3.071 2.7698-1.2474 5.5346.48 5.9346 2.9485.01.0575.045.1125.0687.1675v1.2162zm-36.1209 11.1466v-11.5153h-5.1034v11.4978c.1313.0063.2363.0175.3425.0175z"/><path d="m37.6998 21.2615c.485.1763.8249-.1475 1.2074-.5412 2.3023-2.3735 6.1645-2.276 8.3806.2.2425.2712.47.37.8324.3537 3.5885-.1587 6.3333 2.6898 6.0758 6.2683-.0113.1512.0812.36.1962.4637 2.7936 2.5211 2.7873 6.3508-.0175 8.8943-.1062.0963-.1975.2887-.1825.4237.38 3.3423-2.4598 6.5783-6.187 6.2995-.2774-.0212-.4499.0525-.6362.2638-2.3585 2.6773-6.377 2.6773-8.738.0012-.1863-.21-.3575-.28-.635-.2662-3.6872.18-6.4245-2.6173-6.1883-6.2958.0088-.14-.0737-.3312-.1799-.4249-2.8048-2.5111-2.8136-6.397-.0225-8.8943.1225-.1088.2074-.3425.1924-.5075-.2987-3.3485 2.4086-6.2695 5.8996-6.2383zm-.1288 1.8461c-2.5185.015-4.3384 2.2936-3.8097 4.7872.13.6149.0213.8911-.4887 1.2336-2.4973 1.6774-2.5023 4.9596-.0087 6.632.5174.3475.6287.62.4999 1.2274-.6024 2.8498 1.7487 5.2308 4.6284 4.6884.6975-.1312.9362-.0313 1.3324.5599 1.5924 2.3761 4.9546 2.3811 6.547.01.41-.6112.6262-.7049 1.3237-.5724 2.9085.5512 5.2371-1.8174 4.6296-4.7159-.105-.5025.0288-.8749.46-1.1661 2.561-1.7287 2.566-4.9409.0162-6.6795-.4787-.3263-.5712-.6112-.4724-1.2037.0662-.3962.1312-.8087.0912-1.2036-.2462-2.4324-2.3161-3.9335-4.7534-3.4748-.6399.12-.8874-.0037-1.2711-.5249-.2563-.3488-.5325-.7025-.865-.9725-1.7911-1.4498-4.4034-1.0186-5.6995.915-.4137.6174-.6425.7074-1.3737.5687-.2587-.05-.5237-.0725-.7862-.1075z"/><path d="m57.247 59.6423c-.5325.0025-.9537-.4187-.9462-.9437.0075-.5037.43-.9186.9312-.9136.495.005.9262.4349.9287.9286.0025.505-.4125.9275-.9137.93z"/><path d="m35.0263 32.4268c.0062-4.4559 3.5584-7.9894 8.0181-7.9744 4.4246.015 7.9394 3.566 7.9319 8.0119-.0075 4.4534-3.5648 7.9944-8.0194 7.9806-4.4147-.0137-7.9369-3.5747-7.9306-8.0193zm14.0801.025c.0013-3.431-2.6985-6.1258-6.1233-6.1095-3.416.0162-6.0832 2.6885-6.087 6.0983-.0025 3.4247 2.706 6.1295 6.122 6.1132 3.4123-.0162 6.0846-2.696 6.0871-6.102z"/><path d="m41.9507 33.1545c1.0199-1.02 1.9761-1.9761 2.9323-2.9311.1437-.1437.2812-.2924.4337-.4262.4362-.3849.9674-.3799 1.3386.005.3613.3737.3763.8912-.0125 1.2999-.6337.665-1.2949 1.3049-1.9448 1.9549-.6275.6274-1.2549 1.2574-1.8861 1.8823-.5887.5825-1.0687.5862-1.6461.0138-.575-.5712-1.1512-1.1399-1.7187-1.7174-.4637-.4712-.4899-.9987-.0874-1.4011.3924-.3925.9436-.3625 1.4086.0825.2025.1937.4012.3912.5949.5937.1825.1912.3563.3912.5875.6449z"/></g></svg>