<svg fill="none" height="86" viewBox="0 0 86 86" width="86" xmlns="http://www.w3.org/2000/svg"><rect fill="#9bc332" height="86" rx="32" width="86"/><g fill="#fffeeb"><path d="m49.1524 19c1.8126 1.0588 3.6252 2.1201 5.4403 3.1764 1.1451.6663 2.2951 1.3238 3.4402 1.9901.7175.4175.8375.8713.425 1.5926-.4025.705-.8188 1.4013-1.2125 2.1101-.3251.5863-.8038.9313-1.4589 1.0626-.1412.0287-.3012.145-.3787.2675-.2988.475-.5838.96-.8376 1.4601-.065.1287-.055.3612.02.485.6301 1.0288.6588 2.0651.0513 3.1001-.1713.2913-.16.4538.08.7113 1.0275 1.1051 1.4301 2.4214 1.2163 3.9252-.0225.1613-.0113.3438.0425.4963 1.7788 5.0928.7613 9.5455-3.0289 13.3707-.0325.0325-.0588.0713-.1163.1425.7588.8938 1.3851 1.8939 1.5889 3.0577.2 1.145.2387 2.3176.3562 3.5527.145 0 .3713-.005.5988 0 .9963.0225 2.0051-.0463 2.9839.0962 1.2713.1863 2.1726 1.3288 2.1989 2.6127.025 1.265.0012 2.5313.01 3.7964.0037.4888-.29.7613-.6563.9938h-34.2493c-.5075-.2763-.6825-.6975-.665-1.2751.035-1.1088.005-2.2188.0112-3.3276.01-1.6839 1.2126-2.8877 2.8952-2.8964 1.3551-.0075 2.7101-.0013 4.1027-.0013v-3.4702c-.7888 0-1.5801.0238-2.3689-.005-1.1413-.0425-1.9951-.5825-2.4839-1.6226-.4812-1.0238-.3512-2.0138.3263-2.9101.5175-.685 1.2338-1.0563 2.0901-1.0776 1.1063-.0262 2.2139-.015 3.3214-.0062.5963.005 1.0088.4088 1.0013.9463-.0075.5363-.4187.9175-1.0263.9225-.9825.0088-1.9651 0-2.9476.0025-.7276.0013-1.1576.3451-1.1651.9251-.0075.5838.4263.9488 1.1413.9488 4.8503.0012 9.6993.0012 14.5495 0 .7151 0 1.1501-.365 1.1451-.9463-.0062-.5788-.4388-.9238-1.1626-.9276-.125 0-.25 0-.3737 0-.8426 0-1.6839.0038-2.5264-.0012-.6488-.0038-1.0663-.3675-1.0763-.9201-.01-.5712.4163-.9413 1.0888-.955 1.3863-.0275 2.7851.055 4.1552-.11 3.2952-.3963 5.8203-3.6727 5.4928-6.9854-.015-.1525-.0538-.3025-.0788-.4388-.0537-.0237-.0812-.0387-.11-.0487-.7788-.2613-1.3163-.13-1.7913.6725-.4588.7738-1.3501 1.0276-2.2551.9788-.2838-.015-.4188.0675-.5451.3025-.2487.4676-.5187.9251-.795 1.3776-.595.9763-1.6313 1.2651-2.6214.7013-1.8688-1.0638-3.7314-2.1401-5.5865-3.2277-.9788-.5737-1.2463-1.6276-.7001-2.6289.1125-.205.2226-.4125.3526-.6062.4137-.6163.685-1.1638.1862-1.9501-.4388-.6913-.3125-1.5564.1063-2.2889 1.7401-3.0477 3.4839-6.0953 5.259-9.123.55-.9388 1.4438-1.3563 2.5289-1.295.2825.0162.4287-.0663.545-.3063.13-.2663.2825-.5213.4425-.7713.3025-.4725.5276-.9088.3225-1.5401-.1162-.3563.0375-.8713.2176-1.2413.3875-.7975.855-1.5588 1.3238-2.3139.1425-.22.3975-.3737.5988-.56zm-22.2674 46.0937h31.8117c0-.8288 0-1.6251 0-2.4202 0-1.0188-.2813-1.2963-1.3138-1.2963-9.7305 0-19.461 0-29.1916 0-.125 0-.25-.005-.3737.0025-.5401.0338-.9176.385-.9288.9213-.0188.9201-.005 1.8401-.005 2.7927zm21.3249-23.4325c-.11-.115-.2063-.2163-.3025-.3188-1.2988-1.3826-1.6289-3.4114-.8388-5.1365.94-2.0501 3.1514-3.1264 5.3478-2.6139.1437.0338.37.0463.4525-.0375.5188-.5238.4213-1.2963-.2163-1.6688-2.3689-1.3814-4.744-2.7539-7.1229-4.119-.585-.3363-1.0713-.1875-1.4238.4025-.2637.4426-.5138.8926-.77 1.3388-1.4088 2.4464-2.8214 4.8916-4.2277 7.3404-.3426.5963-.2588 1.1113.2725 1.4214 2.4214 1.415 4.8502 2.8188 7.2854 4.2114.4812.275.9525.1275 1.2613-.3312.1037-.1538.1875-.3213.2837-.4901zm6.4241-.1188c-.4513.2863-.8913.6076-1.3701.8551-.2538.1312-.2788.2712-.25.5112.4538 3.6715-1.6701 7.2867-5.1153 8.7193-.2387.1-.4813.1937-.6525.2625.1.6512.1912 1.2388.2813 1.8238 5.429-1.4451 8.4991-7.4129 7.1066-12.1719zm-3.2902-.5913c1.5476-.0075 2.7801-1.26 2.7751-2.8151-.005-1.5451-1.2625-2.8039-2.8001-2.8026-1.5288 0-2.8026 1.2725-2.8089 2.8051-.0062 1.5601 1.2651 2.8214 2.8339 2.8139zm-2.2839 18.5373c0-.5776.005-1.1064 0-1.6351-.0125-1.0913-.7325-1.8114-1.8288-1.8164-1.4338-.0062-2.8677-.0012-4.3027-.0012-.1813 0-.3626 0-.5501 0v3.4539h6.6816zm-15.117-.0138h6.4878v-3.4089h-6.4878zm21.6049-32.4142c.325-.5663.6188-1.0763.9338-1.6238-2.4414-1.4126-4.8553-2.8089-7.2892-4.2165-.3237.56-.6162 1.0688-.935 1.6226 2.4364 1.4101 4.8415 2.8014 7.2916 4.219zm-10.6368 16.5846c-1.9039-1.1025-3.769-2.1813-5.6703-3.2814-.3138.545-.6138 1.0651-.9351 1.6226 1.9039 1.1013 3.7715 2.1814 5.6703 3.2802.3113-.5401.6113-1.0613.9351-1.6214zm2.2838-17.0859c1.9114 1.1051 3.7702 2.1802 5.6716 3.279.315-.5463.6138-1.0663.9338-1.6226-1.9076-1.1026-3.774-2.1826-5.6703-3.2789-.3238.5625-.6188 1.0725-.9351 1.6213zm5.5703 32.9218c.2588-2.3902-.3237-4.5065-1.4738-5.3991-.5363.2975-1.0726.5963-1.6613.9238 1.4775 1.1988 1.3275 2.8502 1.295 4.4753z"/><path d="m38.1081 51.3406c.0025.5175-.435.95-.95.94-.4988-.01-.9113-.4288-.9138-.9288-.0025-.5188.4325-.9488.95-.9388.4988.01.9113.43.9138.9288z"/></g></svg>