<svg fill="none" height="86" viewBox="0 0 86 86" width="86" xmlns="http://www.w3.org/2000/svg"><rect fill="#9bc332" height="86" rx="32" width="86"/><g fill="#fffeeb"><path d="m28.3625 19h22.83c.1537.1287.3188.2462.46.3875 3.6288 3.6325 7.26 7.2625 10.8713 10.9125.215.2175.3187.5888.375.9063.0637.3637.0149.7474.0149 1.1224v28.5863c0 1.1037-.1937 1.2937-1.315 1.295-.9975 0-1.995 0-2.9937 0-.15 0-.3.0163-.4813.0263 0 1.2387-.0162 2.44.0075 3.6387.01.5-.1187.8862-.5762 1.125h-33.9638c-.5375-.2337-.5912-.6875-.5912-1.2038.0063-14.1337.005-28.2674.005-42.4024 0-.0775-.0012-.1563 0-.2338.02-.67.3037-.9587.985-.9638 1.0912-.0074 2.1825-.0025 3.2737-.0025h.5301c0-.7312.0212-1.4012-.0076-2.0687-.0212-.5013.1175-.8863.575-1.125zm32.9312 12.8025c-.2387 0-.425 0-.6112 0-3.1025 0-6.205 0-9.3075 0-1.02 0-1.2225-.2062-1.2225-1.2425 0-3.1237 0-6.2488 0-9.3725v-.555h-20.7288v39.9375h31.87zm-36.6737 33.5663h31.87v-3.1613h-.6462c-8.9201 0-17.8401 0-26.7588 0-1.09 0-1.2912-.1987-1.2912-1.2737 0-12.1713 0-24.3426 0-36.5151v-.5887h-3.175v41.5375zm35.3375-35.2025c-2.7363-2.7388-5.4837-5.4888-8.1837-8.1925v8.1925z"/><path d="m47.7713 53.4038c3.0712 0 6.1425 0 9.2137.0012.1863 0 .3813-.0087.5563.0425.365.1088.5775.3725.5725.7613-.005.3887-.2225.6475-.5913.7487-.1762.0475-.37.0413-.5562.0413-6.1425.0012-12.285.0012-18.4275.0012-.0775 0-.1563.0013-.2338 0-.56-.0175-.9175-.32-.9275-.785-.01-.4775.3613-.8087.945-.8087 3.1488-.0038 6.2988-.0025 9.4475-.0025z"/><path d="m47.78 43.8026h9.0738c.2025 0 .4062.0013.605.0325.41.065.6375.33.6525.735.0137.4038-.1925.6875-.5975.78-.18.0413-.37.0513-.5563.0513-6.1425.0025-12.285.0025-18.4275.0025-.0312 0-.0625 0-.0937 0-.6738-.0113-1.0525-.2975-1.0575-.8-.005-.5038.37-.8013 1.0462-.8025 3.1175-.0038 6.2363-.0013 9.3538-.0013z"/><path d="m47.7313 48.6062h9.1675c.1712 0 .345-.005.5137.0163.4075.0525.645.295.6975.7.0513.3887-.19.7262-.595.83-.1625.0425-.3387.0525-.5075.0525-6.1737.0025-12.3487.0025-18.5225 0-.185 0-.3762-.0163-.5525-.0663-.38-.1087-.5637-.4012-.5425-.7762.0225-.3975.2488-.67.66-.7338.1838-.0287.3725-.0212.56-.0212h9.1213z"/><path d="m47.725 35.7925c-3.04 0-6.08 0-9.12 0-.1713 0-.3438.0062-.5138-.0138-.4025-.0475-.7075-.3587-.705-.7462.0013-.4.1925-.6888.5975-.7875.1638-.04.3388-.0488.5088-.0488 6.1737-.0025 12.3475-.0025 18.5212 0 .17 0 .345.0075.5075.05.4025.1063.6425.4475.5888.8363-.0563.4037-.2988.6425-.7038.6962-.1537.02-.3112.0125-.4675.0125-3.0712 0-6.1425 0-9.2137 0z"/><path d="m47.7475 40.595c-3.025 0-6.0488 0-9.0738 0-.14 0-.2812.005-.4212-.0038-.5325-.03-.8675-.3325-.8738-.7837-.005-.4413.3325-.7638.8563-.81.1237-.0113.2487-.005.3737-.005 6.0963 0 12.1913 0 18.2875.0025.2163 0 .44.0087.6475.0612.3788.0963.5775.3713.5675.7575-.0112.4063-.2325.6738-.6387.7488-.1825.0337-.3725.03-.5588.03-3.0562.0012-6.1112 0-9.1675 0z"/><path d="m35.76 26.2088c.7625 0 1.5263-.0075 2.2888.0025.6037.0075.9012.2863.9062.8825.0125 1.5438.0125 3.0888 0 4.6338-.005.5687-.3087.8625-.8787.8662-1.5263.01-3.0513.0088-4.5775 0-.5913-.0037-.9113-.3037-.9163-.8862-.0137-1.5438-.0137-3.0888 0-4.6338.005-.56.3238-.8537.8888-.8625.7625-.0112 1.5262-.0025 2.2887-.0025zm-1.56 1.6225v3.1375h3.125v-3.1375z"/><path d="m34.165 35.7837c-.28 0-.5625.0175-.8412-.0038-.435-.0337-.6725-.3062-.7313-.7225-.0525-.3675.2175-.7762.6188-.8075.6475-.0512 1.305-.0525 1.9512.0075.4088.0375.6388.4288.5888.8238-.0525.4062-.2938.655-.6988.695-.2925.0287-.5912.0062-.8875.0062v.0025z"/><path d="m34.1888 48.6174c.28 0 .5625-.0188.8412.005.4213.035.7088.3262.7238.7212.0175.4325-.19.77-.6138.805-.6462.0538-1.3037.0488-1.95-.0062-.41-.035-.5962-.3788-.5975-.7775 0-.3875.3025-.7038.71-.7388.2938-.0262.5913-.005.8875-.005 0 0 0-.0012 0-.0025z"/><path d="m34.1463 54.9949c-.265 0-.5313.0175-.7938-.005-.4475-.0388-.7725-.3888-.7687-.7963.0037-.4125.3287-.7612.7812-.7812.5438-.0225 1.0913-.0238 1.635 0 .455.0212.7625.3675.7588.7925-.0038.4212-.3125.75-.7713.785-.2787.0212-.56.0037-.8412.0037z"/><path d="m34.1812 40.5751c-.2962 0-.5937.0237-.8862-.005-.4125-.04-.71-.3538-.7038-.7413.0075-.3962.19-.7387.6038-.7712.6475-.05 1.3037-.0513 1.9512-.0025.4075.03.6063.3537.6088.7625.0025.4-.2688.7075-.6875.7512-.2925.03-.5913.0063-.8863.0063z"/><path d="m34.2037 43.79c.295.0138.5925.0075.885.045.4113.0525.6325.3163.665.7225.0325.395-.2187.7625-.6287.7925-.6325.0463-1.2738.0425-1.9063 0-.4162-.0287-.6062-.36-.6287-.7537-.0213-.3788.2762-.7163.68-.76.3075-.0338.6212-.0063.9325-.0063 0-.0137 0-.0262 0-.04z"/></g></svg>