<svg fill="none" height="64" viewBox="0 0 64 64" width="64" xmlns="http://www.w3.org/2000/svg" xmlns:xlink="http://www.w3.org/1999/xlink"><clipPath id="a"><path d="m0 0h64v64h-64z"/></clipPath><g clip-path="url(#a)" fill="#fffeeb"><path d="m33.8094 0c1.2312.165625 2.475.270313 3.6937.504688 10.1125 1.945312 17.6719 7.450002 22.625 16.459412 2.7844 5.0656 4.0532 10.5609 3.6969 16.3203-.7422 11.9875-6.4328 20.9719-16.9063 26.8328-5.0437 2.8219-10.5562 4.0609-16.3171 3.7062-11.9875-.739-20.95941-6.4343-26.84223-16.8953-2.1875-3.8875-3.342182-8.1234-3.65312-12.5812-.0125-.1813-.0703125-.3594-.10625-.5375 0-1.2469 0-2.4953 0-3.7422.0359375-.1797.09375-.3563.10625-.5375.310938-4.4547 1.48906-8.6766 3.64531-12.5781 4.96719-8.99691 12.51404-14.50629 22.62184-16.448475 1.2188-.232812 2.461-.339063 3.6922-.503125h3.7422zm-1.8969 60.9797c15.9844.039 29.0281-12.9797 29.0672-29.0156.0406-15.9844-12.9797-29.02816-29.0156-29.06722-15.9844-.03907-29.02816 12.97972-29.06722 29.01562-.03907 15.9844 12.97972 29.0281 29.01562 29.0672z"/><path d="m38.8529 44.5203c-.1531.5922-.2687 1.111-.4297 1.6156-.039.125-.2125.2454-.35.2938-1.2921.4484-2.564.9969-3.8921 1.2891-1.9188.4218-3.8422.4187-5.5735-.7688-1.2594-.8641-1.8062-2.0625-1.7265-3.5703.1437-2.7125 1.2296-5.1969 1.875-7.7875.3156-1.2641.6484-2.5406.7812-3.8297.1578-1.5359-.6156-2.2266-2.1703-2.15-.4531.0219-.9078.0984-1.3531.1938-.4188.089-.8235.2359-1.3157.3796.1438-.5828.2563-1.1031.4063-1.6125.0406-.1375.1719-.3078.3016-.3531 2.1671-.7703 4.2953-1.6765 6.6843-1.5359 2.0594.1219 3.9547 1.375 4.2516 3.1969.1812 1.1171.1094 2.3437-.15 3.45-.6344 2.7046-1.4594 5.364-2.1719 8.05-.1515.575-.1906 1.189-.2109 1.7875-.0328.9937.4234 1.5515 1.4031 1.7515 1.1063.225 2.1891.0922 3.2469-.2844.0922-.0328.189-.0546.3937-.114z"/><path d="m35.0752 15.9703c2.3735.0109 4.1453 1.6781 4.1188 3.8156-.0203 1.5938-1.1844 2.975-2.9063 3.4532-1.9093.5296-4.0265-.3157-4.8687-1.9438-1.1953-2.3109.4656-5.0422 3.2219-5.3.1656-.0156.3312-.0187.4343-.0234z"/></g></svg>