<svg fill="none" height="33" viewBox="0 0 33 33" width="33" xmlns="http://www.w3.org/2000/svg"><circle cx="16.5002" cy="16.0588" fill="#222" r="16.0588"/><g fill="#fff"><path d="m21.0879 15.0731v1.9715c-.0039.0473-.0107.0944-.0113.1417-.0059.4504-.0161.9001-.1132 1.3433-.2533 1.1559-1.1204 1.9353-2.3008 2.0459-.3944.0369-.7919.0398-1.188.0589-.0384.0018-.0764.0085-.1146.0128h-1.7205c-.0471-.0045-.0941-.0104-.1414-.0133-.4404-.0256-.8868-.0134-1.32-.0831-1.0282-.1655-1.7353-.7433-2.0677-1.7453-.1375-.4142-.1712-.8454-.1819-1.2792-.0036-.1487-.0111-.2973-.0169-.4459v-2.0431c.0056-.1307.0075-.2617.0172-.3922.0221-.2941.0273-.5912.0762-.881.1898-1.1227.8235-1.864 1.9371-2.1504.2937-.0756.607-.0799.9122-.105.261-.0215.5233-.026.7852-.038h1.7205c.0472.0045.0941.0104.1415.0133.4374.0252.8807.0136 1.3112.0819 1.0602.1681 1.7732.7697 2.0944 1.8064.1236.3989.1537.8128.1638 1.2282.0037.1577.0113.3153.017.4728zm-4.6638-2.9034c-.6454.0276-1.3673.0269-2.082.0982-.7313.0728-1.2548.4746-1.5198 1.1773-.1271.3368-.168.6909-.1719 1.0467-.0099.8929-.0158 1.7861-.007 2.679.0036.3721.0229.7476.0792 1.1148.1414.9216.8451 1.546 1.7722 1.5874.6473.0289 1.2954.0561 1.9431.0527.7372-.0039 1.4774-.0081 2.2104-.076.7588-.0703 1.2902-.4934 1.5465-1.2279.1144-.3276.1517-.6701.1549-1.0138.0088-.8929.0147-1.7862.0059-2.6791-.0036-.3661-.0233-.7355-.0787-1.0968-.1416-.9216-.8434-1.5437-1.7721-1.5876-.6682-.0315-1.3369-.0486-2.0803-.0746z"/><path d="m14.2417 16.0532c.0025-1.234 1.0107-2.2373 2.2455-2.2346 1.234.0027 2.2376 1.0112 2.2348 2.2457-.0029 1.234-1.0114 2.2374-2.2459 2.2347-1.2338-.0026-2.2369-1.011-2.2344-2.2458zm3.7634.0054c0-.8385-.6831-1.5222-1.5213-1.5231-.8388-.0009-1.5238.6812-1.5252 1.5188-.0014.843.683 1.5286 1.5256 1.5278.8377-.0009 1.521-.6853 1.521-1.5235z"/><path d="m18.9729 14.1766c-.2979 0-.5391-.2432-.5373-.542.0017-.2939.2426-.5328.5371-.5328.2979 0 .5396.2436.5375.5418-.002.2936-.2434.533-.5375.533z"/></g></svg>