<svg fill="none" height="33" viewBox="0 0 33 33" width="33" xmlns="http://www.w3.org/2000/svg"><path d="m16.2204 32.1176c8.8691 0 16.0589-7.1897 16.0589-16.0588 0-8.86902-7.1898-16.0588-16.0589-16.0588-8.869 0-16.058779 7.18978-16.058779 16.0588 0 8.8691 7.189779 16.0588 16.058779 16.0588z" fill="#222"/><g fill="#fff"><path d="m16.7006 15.3355c.1273-.1434.2316-.2879.3624-.4106.4014-.3784.8762-.5688 1.4312-.5642.3051.0023.6056.0241.8992.1089.672.1938 1.062.6572 1.2489 1.3132.1399.492.1651.9977.1663 1.5046.0023 1.0689-.0035 2.1389 0 3.2078 0 .0997-.0275.1261-.1262.1261-.5505-.0046-1.1021-.0046-1.6526 0-.0975 0-.1181-.0287-.1181-.1204.0034-1.0173.0034-2.0345 0-3.0529 0-.2546-.0172-.5104-.0883-.7581-.1319-.4564-.4587-.6892-.937-.664-.6537.0344-.9931.3578-1.0757 1.0218-.0195.1583-.0298.3177-.0287.4771 0 .9898 0 1.9795.0023 2.9692 0 .0986-.0241.1273-.125.1273-.5551-.0046-1.1101-.0046-1.6652 0-.0895 0-.1147-.0229-.1147-.1135.0023-1.9588.0023-3.9188 0-5.8776 0-.0975.0321-.1193.1238-.1193.5265.0035 1.054.0046 1.5804 0 .0975 0 .1216.031.1204.1227-.0057.234-.0023.4679-.0023.703z"/><path d="m13.6819 17.5741c0 .9691-.0011 1.9382.0023 2.9073 0 .1078-.0264.1399-.1376.1388-.5505-.0058-1.101-.0046-1.6526 0-.0883 0-.1147-.0218-.1147-.1124.0023-1.9623.0023-3.9245 0-5.8879 0-.0815.0195-.1101.1055-.1101.5585.0034 1.117.0046 1.6756 0 .1078 0 .1215.0401.1215.133-.0023.9771-.0011 1.9542-.0011 2.9313z"/><path d="m13.8331 12.5659c0 .609-.4931 1.1045-1.1009 1.1045-.5998 0-1.0976-.4955-1.0999-1.0953-.0023-.6055.4955-1.1044 1.1021-1.1044.6021 0 1.0976.4943 1.0987 1.0941z"/></g></svg>