<svg fill="none" height="248" viewBox="0 0 138 248" width="138" xmlns="http://www.w3.org/2000/svg"><path d="m-176.877 95.8207c-3.067-3.6633-5.314-7.1634-8.311-9.8234-14.14-12.53-30.621-15.8901-48.389-10.0334-17.465 5.7634-28.07 18.0135-31.347 36.4231-1.849 10.361-1.405 20.511 1.756 30.451 8.989 28.35 41.647 40.53 68.592 24.92 8.264-4.784 15.943-11.41 22.194-18.644 26.594-30.777 52.486-62.16 78.7992-93.1935 19.9692-23.5668 42.9349-43.2135 73.7665-50.89025 37.9483-9.45005 74.5623-6.48671 107.2667 16.63675 28.5136 20.1368 44.1986 48.6969 48.9986 82.95 4.026 28.794.491 56.701-13.859 82.414-20.368 36.47-51.7142 56.56-93.4785 60.27-25.1194 2.24-49.4663-.7-72.1745-12.226-26.1729-13.277-43.8946-34.277-54.8975-61.157-.8896-2.147-1.6856-4.34-2.5515-6.51-.07-.14-.258-.234-.866-.817-1.218 1.68-2.365 3.337-3.606 4.923-10.37 13.347-20.414 26.997-31.229 39.971-19.267 23.076-44.457 34.813-74.399 36.283-27.647 1.353-54.125-3.01-77.629-18.597-28.818-19.11-45.814-46.363-51.479-80.08-5.596-33.367-1.265-65.497 17.159-94.7105 19.127-30.3568 47.009-47.50691 82.335-52.54694 26.173-3.73335 52.018-2.076678 75.663 10.66334 10.792 5.8101 20.109 14.4201 29.848 22.0968 1.1.8634 1.522 4.4567.656 5.6001-13.953 18.4567-28.163 36.7035-42.795 55.6036zm234.4556 28.7933c0-3.5.4449-7.047-.117-10.453-.6086-3.757-1.8728-7.444-3.2774-11.014-11.8925-30.3797-50.77734-33.5531-68.5459-14.1163-12.8758 14.0703-15.3573 30.8463-11.5648 48.6273 6.4847 30.496 35.67763 40.296 59.6499 29.703 18.1666-8.027 23.6211-24.22 23.8552-42.747z" fill="#9bc332"/></svg>