<svg fill="none" height="40" viewBox="0 0 40 40" width="40" xmlns="http://www.w3.org/2000/svg"><rect fill="#9bc332" height="40" rx="6" width="40"/><path d="m16.0154 12.0154c-.1699-.1699-.4004-.2654-.6407-.2654-2.0019 0-3.6247 1.6228-3.6247 3.6247v1.7097c0 1.0943.2636 2.1725.7684 3.1433 1.6151 3.106 4.1479 5.6388 7.2539 7.2539.9708.5048 2.049.7684 3.1433.7684h2.4801c1.5764 0 2.8543-1.2779 2.8543-2.8543 0-.7158-.3577-1.3842-.9533-1.7812-.3136-.2091-1.637-1.0914-1.8061-1.1333-.158-.0391-.3232-.0391-.4812 0-.1691.0419-1.6122 1.0701-2.0651 1.2713s-.9644.2271-1.4353.0726c-.1618-.0531-1.1349-.4972-1.7913-.9354-1.1977-.7995-1.8195-1.402-2.6074-2.6074-.3584-.5484-.735-1.3512-.7828-1.4836-.1952-.5407-.1227-1.342.2828-1.8812.4056-.5391 1.6024-1.6302 1.6765-1.8585.0653-.2008.0653-.4172 0-.618-.0523-.1611-2.2714-2.4256-2.2714-2.4256z" stroke="#fff" stroke-linejoin="round" stroke-miterlimit="1.41421" stroke-width="1.5"/></svg>