<svg fill="none" height="170" viewBox="0 0 163 170" width="163" xmlns="http://www.w3.org/2000/svg"><g fill="#9bc332"><circle cx="81.3701" cy="85" fill-opacity=".3" r="81.3701"/><path d="m5.11275 162.824c4.39496.444 8.15885.879 11.93175 1.187 10.9102.888 21.8386 1.196 32.7624.335 5.8615-.462 11.6911-1.327 17.5299-2.052.8899-.109 1.7707-.399 2.6152-.707 3.5368-1.283 4.354-3.444 2.4517-6.675-1.4847-2.524-2.7605-5.089-2.3746-8.129.6856-5.451 3.7367-9.212 8.5493-11.632 3.5005-1.758 7.2916-2.551 11.1554-2.633 11.4372-.24 22.8782-.276 34.3152-.466 7.991-.132 15.973-.526 23.795-2.311 2.23-.508 4.486-1.296 6.475-2.411 3.909-2.184 4.372-6.027 1.389-9.375-1.757-1.976-4.082-3.009-6.542-3.743-1.567-.472-3.192-.757-4.768-1.197-1.475-.407-2.274-1.586-2.056-2.882.24-1.441 1.403-2.374 2.973-2.089 4.418.803 8.754 1.904 12.373 4.781 7.441 5.913 6.538 15.284-1.885 19.621-4.095 2.111-8.585 2.791-13.066 3.421-10.584 1.486-21.24 1.26-31.887 1.337-7.922.054-15.8541.285-23.7541.806-2.4971.163-5.1032 1.178-7.3279 2.397-4.7083 2.574-5.7253 6.988-3.0919 11.623 3.8183 6.72 1.421 12.851-6.1657 14.655-5.1532 1.223-10.4743 1.844-15.7546 2.401-11.2916 1.187-22.6241 1.128-33.9429.335-5.984-.421-11.9499-1.119-17.91578-1.762-2.424493-.263-3.12369-1.215-2.765011-3.684.849025-5.85 2.674201-11.428 4.994271-16.843.51758-1.21.45402-2.076-.28604-3.231-4.049895-6.348-5.05783-13.445-4.803576-20.803.413162-11.968 4.285986-22.87 10.955636-32.6714 6.0385-8.8769 12.6037-17.3958 18.9282-26.0778.7628-1.0422 1.689-1.6993 3.0284-1.3866 1.3575.3217 1.8433 1.3549 2.0158 2.6282.168 1.228.3905 2.4469.8809 3.7066.3269-1.6721.6038-3.3532.9988-5.0071.5267-2.1932 1.067-4.3909 1.748-6.5433 1.2804-4.0283 3.1555-7.6715 6.379-10.6078 4.5176-4.11 8.8671-8.4102 13.2712-12.647.9216-.8836 1.9296-1.4546 3.2008-.9697 1.2849.4894 1.5846 1.595 1.7072 2.8638.227 2.4016.572 4.7941 1.1759 7.1912.5584-2.5738 1.0987-5.1521 1.6844-7.7169.2497-1.1011.6084-2.175.899-3.2625 1.3303-4.9935 3.9999-8.7772 8.5674-11.6138 7.5595-4.6854 15.1463-9.2621 23.346-12.75575 1.2076-.51657 2.3476-.90174 3.4866.05891 1.135.96064.922 2.19314.686 3.44834-.345 1.8125-.645 3.6341-.59 5.5962.399-.7794.735-1.595 1.203-2.3291 2.17-3.3668 4.349-6.73357 6.597-10.05051.381-.56641 1.058-1.11924 1.702-1.29596 13.73-3.838043 27.582-5.04338 41.612-1.72191 1.098.25829 2.174.62533 3.241.9969 1.494.52563 2.275 1.60862 1.821 3.15834-1.503 5.14304-3.069 10.26804-4.685 15.37484-.445 1.3956-1.78 1.5542-3.056 1.7219-2.307.3081-4.604.6933-6.906 1.0513.014.1631.027.3308.037.4939 1.425.1903 2.851.3625 4.272.5755 2.629.3897 3.473 1.8895 2.42 4.3319-5.585 12.9687-12.499 25.1988-20.64 36.7311-.622.8836-1.78 1.5678-2.833 1.9484-6.375 2.2929-13.031 3.2988-19.723 4.1145-.663.0815-1.326.1767-1.993.2673-.023.1541-.046.3127-.064.4668 2.588.5392 5.163 1.1555 7.764 1.595 1.612.2719 3.301.1178 4.894.4577.94.1993 2.116.8111 2.507 1.5814.345.6842.068 2.0889-.463 2.755-6.552 8.2561-13.721 15.9594-21.3623 23.2191-.5539.525-1.3121.879-2.0295 1.191-6.5379 2.873-13.4209 4.382-20.4946 5.107-.7719.082-1.5437.168-2.3201.254-.0091.149-.0227.299-.0318.448 2.2928.336 4.5857.676 6.8785 1.006.336.05.6765.037 1.017.064 1.4256.118 2.9058.145 3.4733 1.849.5721 1.712-.5812 2.605-1.6981 3.516-10.4925 8.578-21.33 16.625-33.8111 22.19-12.1089 5.397-24.6853 8.827-38.02 9.167-.5358.013-1.3848.426-1.5437.856-1.70261 4.645-3.29623 9.33-5.05785 14.387zm7.63665-20.341c24.6445-1.546 44.9802-11.782 63.4908-27.052-.5358-.123-.79-.191-1.0488-.241-5.5527-1.069-10.8012-2.945-15.5776-5.995-.7037-.448-1.4302-1.214-1.6526-1.975-.5358-1.822.9216-3.095 3.1872-2.977 9.4483.498 18.7739-.127 27.9044-2.846 3.6957-1.101 7.0646-2.5602 9.6298-5.6234 1.7024-2.0346 3.7414-3.7791 5.5434-5.7321 2.979-3.2263 5.889-6.5206 9.008-9.9871-.663-.1178-.976-.1813-1.289-.2311-6.438-1.0286-12.5133-3.0496-18.075-6.5115-1.1079-.6888-1.8207-1.5951-1.5029-2.9363.3315-1.3957 1.353-1.9485 2.765-2.0346 2.9376-.1767 5.8799-.3761 8.8079-.6752 6.929-.7114 13.834-1.6041 20.486-3.7927.835-.2764 1.784-.8791 2.225-1.6041 4.83-7.9661 9.625-15.9594 14.306-24.0161 1.489-2.5647 2.606-5.347 3.973-8.2017-1.385-.1224-2.507-.3127-3.628-.2991-3.115.0408-6.225.1586-9.335.2583-2.002.0634-3.419-1.2008-2.965-2.9137.218-.8201.958-1.6584 1.685-2.1614 5.357-3.7066 11.369-5.7412 17.779-6.72.523-.0815 1.299-.4123 1.44-.8066 1.166-3.3396 2.211-6.7199 3.309-10.14562-.517-.1586-.776-.25829-1.048-.32173-11.773-2.8049-23.473-2.02551-35.165.61626-2.256.51204-3.8 1.53159-5.075 3.45739-4.064 6.1264-7.038 12.7421-9.39 19.6706-.472 1.3911-1.298 2.2792-2.8374 2.1433-1.5573-.1405-2.2656-1.1918-2.3564-2.6418-.2179-3.6024-.4404-7.2093-.5357-10.8163-.0409-1.4999.2361-3.0043.3859-4.6673-.4722.1768-.8036.2447-1.0806.4079-6.2065 3.5978-12.3858 7.2456-18.624 10.7936-2.6697 1.518-4.3314 3.7066-5.1214 6.6112-.7401 2.7188-1.7616 5.4059-2.1385 8.1746-.7128 5.1929-1.076 10.4402-1.5437 15.6648-.1226 1.3594-.5403 2.4832-1.975 2.8185-1.4892.3489-2.5062-.3489-3.11-1.7129-.6402-1.4455-1.4438-2.8366-1.9251-4.3319-1.2304-3.8335-2.3201-7.7169-3.5232-11.7679-3.0238 2.9816-5.9886 6.0811-9.1532 8.9675-3.1827 2.9091-4.908 6.5433-6.0566 10.5716-1.9478 6.8469-2.7196 13.8433-2.8014 20.9348-.0181 1.4682-.345 2.7596-1.9659 3.1538-1.7071.4124-2.6833-.5755-3.2599-2.0164-1.1532-2.8774-2.2747-5.7729-3.3734-8.673-.3042-.8066-.4903-1.6585-.7855-2.6871-.3723.4305-.572.6299-.7309.8519-4.7491 6.6112-9.639 13.1318-14.211 19.8654-5.5981 8.2472-9.34381 17.2822-10.41985 27.2742-.66288 6.185-.43586 12.312 1.94776 18.184.2588.635.59478 1.233 1.01248 2.08.54937-1.087.92621-1.844 1.30759-2.596 15.24162-30.179 36.21752-55.4821 64.00382-74.985 8.354-5.8635 17.1349-10.993 26.5781-14.9307 1.989-.8293 3.369-.3852 4 1.1736.595 1.4681-.168 2.6055-1.961 3.5389-6.7105 3.4937-13.6616 6.643-20.0179 10.6985-27.9634 17.8399-49.1708 41.9467-64.9709 70.9337-1.5028 2.759-2.8966 5.583-4.5493 8.782z"/></g></svg>