<svg fill="none" height="33" viewBox="0 0 33 33" width="33" xmlns="http://www.w3.org/2000/svg"><circle cx="16.7795" cy="16.0588" fill="#222" r="16.0588"/><path d="m16.7617 12.6177c.9417.0368 1.8836.0703 2.825.1129.2218.01.4445.0393.6631.0796.5297.0971.8684.4536.9687 1.0091.1387.7682.1665 1.5453.1408 2.3225-.0178.5433-.0706 1.086-.1228 1.6274-.0385.4003-.1994.7408-.5527.9676-.2136.1372-.4547.1762-.6991.2019-.9484.1-1.9007.1226-2.8527.1178-.9551-.0049-1.9101-.0336-2.8648-.0646-.3108-.01-.622-.0492-.9301-.095-.5203-.0773-.89-.4325-.9802-.97-.0689-.4101-.1069-.8267-.1364-1.242-.0475-.6713-.0341-1.344.0205-2.0144.0256-.3134.0608-.6286.1255-.9356.1156-.5503.5004-.8812 1.056-.9507.8931-.1116 1.791-.1217 2.6889-.1368.2166-.0035.4331-.0006.6497-.0006.0002-.0096.0006-.0195.0008-.0291zm-.8895 4.6063c.7963-.4587 1.583-.9119 2.3824-1.3725-.8007-.4612-1.5873-.9144-2.3824-1.3723z" fill="#fff"/></svg>