<svg width="86" height="86" viewBox="0 0 86 86" fill="none" xmlns="http://www.w3.org/2000/svg">
<rect width="86" height="86" rx="32" fill="#9BC332"/>
<path d="M67 53.4424C66.6588 54.1023 66.11 54.3111 65.385 54.2836C64.3251 54.2436 63.2626 54.2811 62.2001 54.2673C61.9476 54.2636 61.8176 54.3486 61.6876 54.5648C59.6014 58.0372 54.8666 58.0322 52.7766 54.5648C52.7054 54.4473 52.5704 54.2886 52.4629 54.2861C51.2004 54.2661 49.9392 54.2736 48.6605 54.2736C48.6867 54.4073 48.7092 54.4961 48.7217 54.5873C48.7767 54.9823 48.6192 55.2761 48.2392 55.3861C47.8667 55.4936 47.4968 55.3673 47.4105 54.9811C47.2505 54.2736 46.7955 54.2198 46.2055 54.2636C45.6618 54.3036 45.1118 54.2486 44.5681 54.2861C44.3918 54.2973 44.1543 54.4236 44.0656 54.5686C41.9769 58.0285 37.2158 58.0347 35.1521 54.5623C35.0208 54.3411 34.8908 54.2586 34.6421 54.2661C34.1271 54.2836 33.6096 54.2461 33.0971 54.2848C32.9234 54.2986 32.6984 54.4336 32.6046 54.5811C31.4959 56.3435 29.9097 57.271 27.8285 57.1335C25.6698 56.991 24.1874 55.8198 23.3361 53.8348C23.2611 53.6586 23.0911 53.4786 22.9199 53.3961C22.4024 53.1449 21.8612 52.9411 21.2737 52.6961C20.9824 53.4211 20.7237 54.1486 20.3937 54.8423C20.2837 55.0748 20.0237 55.3048 19.7812 55.3911C19.4175 55.5186 19.1875 55.2198 19 54.9386V54.4711C19.58 53.1086 20.3187 51.8074 20.195 50.2262C20.1062 49.095 20.175 47.9512 20.1787 46.8125C20.1837 45.0876 21.1524 44.1226 22.8811 44.1151C23.0499 44.1151 23.2199 44.1151 23.4611 44.1151C23.3961 43.9214 23.3561 43.7801 23.3011 43.6451C22.3912 41.3764 21.4774 39.109 20.5737 36.8365C20.4675 36.5703 20.3475 36.4241 20.03 36.3716C19.5125 36.2866 19.1787 35.8516 19.16 35.2953C19.135 34.5628 19.1325 33.8291 19.1575 33.0979C19.1812 32.4104 19.6312 31.9842 20.3212 31.9354C20.4762 31.9242 20.6337 31.9304 20.79 31.9304C25.3511 31.9304 29.9135 31.9304 34.4746 31.9304C34.5996 31.9304 34.7246 31.9279 34.8496 31.9304C35.3871 31.9467 35.7033 32.2254 35.6858 32.6667C35.6696 33.0866 35.3683 33.3316 34.8396 33.3316C31.4334 33.3341 28.0285 33.3329 24.6224 33.3329C23.4511 33.3329 22.2787 33.3329 21.1074 33.3329C20.9399 33.3329 20.7725 33.3329 20.5787 33.3329V35.0128H21.0987C29.926 35.0128 38.752 35.0153 47.5793 35.0016C47.833 35.0016 48.1317 34.8953 48.3317 34.7403C49.6754 33.6966 51.0079 32.6392 52.3216 31.5592C52.7316 31.2229 53.1454 31.0717 53.6816 31.0767C55.9003 31.1017 58.1177 31.0867 60.3364 31.0867C60.5064 31.0867 60.6752 31.0867 60.8752 31.0867V29.408C60.7202 29.408 60.5564 29.408 60.3927 29.408C57.8927 29.408 55.3941 29.4005 52.8941 29.4192C52.6404 29.4217 52.3416 29.528 52.1404 29.6842C50.7229 30.7854 49.3317 31.9192 47.9167 33.0241C47.7218 33.1766 47.4493 33.3166 47.2118 33.3191C44.2593 33.3391 41.3069 33.3341 38.3545 33.3291C37.8833 33.3291 37.5733 33.0441 37.5695 32.6454C37.5658 32.2454 37.8695 31.9604 38.337 31.9304C38.4307 31.9242 38.5245 31.9279 38.6182 31.9279C39.2895 31.9279 39.962 31.9279 40.6332 31.9279C42.6169 31.9279 44.6018 31.9392 46.5855 31.9142C46.8668 31.9104 47.1955 31.7917 47.4193 31.6192C48.8142 30.5405 50.1754 29.418 51.5729 28.343C51.8216 28.1518 52.1879 28.0193 52.5016 28.0168C55.2828 27.9918 58.0627 28.0018 60.8439 28.003C61.8914 28.003 62.3089 28.428 62.3101 29.4842C62.3101 30.0455 62.3139 30.6067 62.3101 31.1679C62.3026 32.0354 61.8526 32.4842 60.9739 32.4867C58.8802 32.4917 56.7865 32.4879 54.6941 32.4879C54.5266 32.4879 54.3603 32.4879 54.1691 32.4879V34.5466H54.6753C56.4403 34.5466 58.2065 34.5566 59.9714 34.5404C60.5364 34.5354 60.9477 34.7378 61.2902 35.1878C63.0651 37.5228 64.8563 39.844 66.6375 42.1752C66.7775 42.3589 66.8788 42.5701 66.9987 42.7701V45.5776C66.7625 45.8863 66.5038 46.1563 66.0625 45.9913C65.6313 45.8313 65.5788 45.4713 65.5888 45.0726C65.6013 44.5938 65.5913 44.1139 65.5913 43.5876C65.36 43.5876 65.1775 43.5876 64.9938 43.5876C62.4951 43.5876 59.9977 43.5901 57.499 43.5864C56.7453 43.5864 56.3815 43.2951 56.374 42.6401C56.3578 41.1289 56.359 39.6165 56.374 38.1053C56.3803 37.489 56.7265 37.1665 57.3528 37.1603C58.414 37.1503 59.4764 37.1578 60.5377 37.1565C60.6677 37.1565 60.7977 37.1403 60.9939 37.1265C60.7827 36.849 60.5927 36.6428 60.4514 36.4053C60.2364 36.0453 59.9514 35.9316 59.5302 35.9391C57.9065 35.9653 56.2828 35.9491 54.6591 35.9491C54.4953 35.9491 54.3316 35.9491 54.1716 35.9491V47.9175C56.0615 46.7113 57.9852 46.5363 59.8902 47.6925C61.7951 48.8487 62.5201 50.6399 62.3226 52.8299H65.5913C65.5913 51.4887 65.5975 50.1799 65.5875 48.8725C65.585 48.4712 65.6388 48.11 66.0663 47.9563C66.5013 47.8 66.77 48.0587 66.9975 48.3837V53.4374L67 53.4424ZM42.0081 36.4416V44.0901H47.3305C47.3305 43.1651 47.3305 42.2664 47.3305 41.3664C47.3305 40.7039 47.5768 40.3564 48.038 40.3539C48.498 40.3514 48.7342 40.6914 48.7367 41.3627C48.7367 41.6427 48.7367 41.9239 48.7367 42.2039C48.7367 42.8226 48.7367 43.4426 48.7367 44.0826H52.7091V33.0641C51.6792 33.8854 50.7454 34.7166 49.7242 35.4166C48.9455 35.9503 48.558 36.5628 48.7355 37.499C48.7467 37.559 48.738 37.624 48.7355 37.6853C48.718 38.174 48.4705 38.4627 48.0592 38.4727C47.6293 38.484 47.3493 38.1865 47.333 37.6778C47.3205 37.2665 47.3305 36.854 47.3305 36.4416H42.0069H42.0081ZM21.5987 47.755C21.9549 47.1288 22.4624 46.925 23.1374 46.925C30.3047 46.935 37.472 46.9313 44.6393 46.9325C45.4831 46.9325 45.7843 47.14 46.0918 47.9125C46.553 49.0687 47.0093 50.2274 47.4755 51.3824C47.673 51.8711 47.7617 52.5399 48.1292 52.7861C48.498 53.0336 49.1517 52.8636 49.6805 52.8674C50.5042 52.8724 51.3279 52.8686 52.0354 52.8686C52.1516 52.0336 52.1266 51.2199 52.3966 50.5199C52.7129 49.6987 52.7466 48.8937 52.7429 48.0562C52.7391 47.3388 52.7429 46.6225 52.7404 45.9051C52.7404 45.7876 52.7154 45.6701 52.6979 45.5176H52.1579C42.4456 45.5176 32.7334 45.5176 23.0199 45.5176C22.8337 45.5176 22.6437 45.5176 22.4599 45.5451C21.9562 45.6251 21.6412 45.9438 21.6062 46.4513C21.5774 46.8838 21.5999 47.3188 21.5999 47.7525L21.5987 47.755ZM28.4535 36.4441V44.0851H33.7709V36.4441H28.4535ZM35.2271 44.0926H40.5269V36.4553H35.2271V44.0926ZM43.3056 52.0686C43.3131 50.0087 41.6619 48.3437 39.607 48.34C37.5583 48.3362 35.8796 50.0087 35.8821 52.0511C35.8846 54.0886 37.5745 55.7673 39.6157 55.761C41.6432 55.7548 43.2981 54.0986 43.3056 52.0674V52.0686ZM31.8534 52.0411C31.8522 49.9874 30.176 48.3225 28.1273 48.34C26.0848 48.3575 24.4411 50.0012 24.4349 52.0311C24.4299 54.0811 26.0948 55.7585 28.1398 55.7623C30.1822 55.7673 31.8534 54.0923 31.8522 52.0411H31.8534ZM57.2378 48.34C55.1891 48.3462 53.5079 50.0287 53.5191 52.0624C53.5304 54.0986 55.2341 55.7798 57.2653 55.7623C59.2915 55.7448 60.9439 54.0848 60.9539 52.0561C60.9639 50.0149 59.2827 48.3337 57.2365 48.34H57.2378ZM21.9849 36.4328C21.9849 36.5003 21.9762 36.5353 21.9862 36.5615C22.9611 39.0052 23.9361 41.4489 24.9198 43.8876C24.9573 43.9814 25.0861 44.0989 25.1761 44.1014C25.7773 44.1201 26.3811 44.1114 26.971 44.1114V36.4328H21.9849ZM57.8015 42.1564H64.7851C64.7588 42.0789 64.7551 42.0289 64.7288 41.9952C63.9051 40.9164 63.0851 39.8352 62.2439 38.7702C62.1501 38.6515 61.9326 38.579 61.7701 38.5752C60.8639 38.5565 59.9589 38.5665 59.0527 38.5665C58.6365 38.5665 58.2202 38.5665 57.8015 38.5665V42.1564ZM31.7047 48.365C32.9571 49.6537 33.4096 51.1512 33.2346 52.8399H34.5296C34.2996 51.1187 34.8308 49.6625 36.0221 48.365H31.7047ZM43.1269 48.3387C44.4156 49.6675 44.8643 51.1524 44.6743 52.8499H46.4668C46.4693 52.7936 46.4868 52.7424 46.4718 52.7036C45.9255 51.3149 45.3793 49.9262 44.8193 48.5425C44.7831 48.4537 44.6456 48.3525 44.5506 48.3487C44.1193 48.3275 43.6869 48.34 43.1269 48.34V48.3387ZM24.6099 48.34C24.0486 48.34 23.6036 48.3337 23.1574 48.3462C23.0849 48.3487 22.9761 48.4225 22.9486 48.49C22.5587 49.4462 22.1787 50.4087 21.7874 51.3924C22.2224 51.5687 22.6024 51.7224 23.0186 51.8899C23.1049 50.5124 23.6136 49.375 24.6099 48.3387V48.34Z" fill="#FFFEEB"/>
<path d="M41.8159 52.0674C41.8046 53.2999 40.7922 54.2923 39.5684 54.2723C38.346 54.2523 37.3573 53.2286 37.3773 52.0061C37.396 50.8074 38.406 49.82 39.6072 49.8262C40.8384 49.8337 41.8271 50.8362 41.8159 52.0674ZM39.6097 52.8649C40.0484 52.8586 40.4047 52.4949 40.4047 52.0486C40.4047 51.6024 40.0534 51.2412 39.6109 51.2337C39.1535 51.2262 38.7722 51.6137 38.7847 52.0699C38.7972 52.5036 39.1772 52.8699 39.6084 52.8649H39.6097Z" fill="#FFFEEB"/>
<path d="M25.9312 52.0487C25.9312 50.82 26.9349 49.8175 28.1586 49.8262C29.3711 49.835 30.3523 50.815 30.361 52.0249C30.3698 53.2636 29.3886 54.2636 28.1598 54.2724C26.9386 54.2799 25.9324 53.2774 25.9324 52.0487H25.9312ZM28.9511 52.0462C28.9511 51.5999 28.5973 51.2387 28.1561 51.2337C27.7161 51.2287 27.3499 51.5849 27.3399 52.0274C27.3299 52.4874 27.7086 52.8749 28.1598 52.8661C28.5973 52.8586 28.9523 52.4899 28.9511 52.0462Z" fill="#FFFEEB"/>
<path d="M57.2604 54.2711C56.048 54.2836 55.018 53.2699 55.0117 52.0561C55.0055 50.8399 56.023 49.8225 57.2429 49.825C58.4492 49.8275 59.4416 50.8062 59.4666 52.0149C59.4916 53.2236 58.4792 54.2573 57.2604 54.2711ZM57.2317 52.8649C57.6592 52.8711 58.0367 52.5111 58.0554 52.0799C58.0754 51.6312 57.7004 51.2387 57.2479 51.2349C56.8167 51.2312 56.4405 51.5874 56.4217 52.0174C56.403 52.4586 56.7855 52.8599 57.2317 52.8661V52.8649Z" fill="#FFFEEB"/>
</svg>
