<svg width="86" height="86" viewBox="0 0 86 86" fill="none" xmlns="http://www.w3.org/2000/svg">
<rect width="86" height="86" rx="32" fill="#9BC332"/>
<path d="M35.5934 19.0009C39.4024 21.8556 41.7611 25.6252 42.722 30.2807C43.1711 32.4575 43.0586 34.6625 43.0736 36.8609C43.0745 37.0559 43.0736 37.2509 43.0736 37.5565C43.8705 36.9171 44.3926 36.2187 44.7826 35.4144C45.2279 34.4966 45.3714 33.5207 45.3807 32.5072C45.392 31.2669 46.0604 30.4617 47.176 30.3013C47.9147 30.1954 48.5185 30.4757 49.0144 31.0176C51.4416 33.6716 53.1084 36.7353 53.9821 40.2265C54.0234 40.3915 54.0712 40.5546 54.1209 40.7336C54.194 40.7299 54.2615 40.7449 54.3112 40.7205C55.1699 40.3005 55.993 40.4365 56.8789 40.7252C59.9154 41.7171 62.9735 42.6442 66.026 43.5855C66.4469 43.7148 66.7919 43.9126 67 44.3111V54.4359C66.9709 54.5699 66.9316 54.7021 66.9138 54.8371C66.2725 59.7776 63.7498 63.4338 59.3417 65.7288C58.2514 66.2969 57.0139 66.5828 55.844 66.9981H55.2815C55.2102 66.9691 55.1418 66.9288 55.0677 66.9128C52.4559 66.34 50.1966 65.1147 48.2822 63.2491C48.2063 63.1751 48.1201 63.1113 48.031 63.0373C47.9157 63.1207 47.8135 63.191 47.716 63.2669C45.7014 64.8279 43.458 65.9238 40.9764 66.4975C40.008 66.7216 39.0143 66.835 38.0318 66.9991H35.5944C34.6738 66.8453 33.7428 66.7347 32.8335 66.5294C30.0913 65.9106 27.6426 64.6797 25.4799 62.8835C24.9811 62.4701 24.8949 61.9235 25.2483 61.4895C25.5952 61.062 26.1389 61.0629 26.6686 61.4257C27.6576 62.1045 28.6654 62.7551 29.6704 63.4113C29.8092 63.5023 29.9732 63.5538 30.2057 63.6598C29.9395 63.1723 29.6845 62.772 29.4914 62.3435C28.3551 59.8292 28.4292 57.3449 29.751 54.9187C30.7645 53.0578 30.9135 51.1275 30.2742 49.126C30.1373 48.6966 30.0801 48.3038 30.4167 47.9476C30.7401 47.6054 31.1423 47.6307 31.551 47.7319C32.5907 47.9897 33.4747 48.5251 34.1619 49.201C34.8181 48.2701 35.4237 47.3082 36.1344 46.4307C36.86 45.5354 37.8143 44.8998 38.8774 44.4386C39.2609 44.2726 39.6321 44.2323 39.979 44.5126C40.3061 44.777 40.3783 45.1248 40.2958 45.5242C39.9771 47.0645 40.3043 48.5222 41.0083 49.876C41.8146 51.4247 42.7258 52.9181 43.592 54.4349C43.8076 54.8118 44.0279 55.1868 44.2164 55.5112C44.1873 54.2821 44.1386 53.0062 44.1311 51.7294C44.117 49.4325 44.1264 47.1357 44.1273 44.8389C44.1273 44.0908 44.3092 43.8508 45.0273 43.6248C47.2744 42.9208 49.5178 42.2045 51.7706 41.523C52.1972 41.3936 52.3284 41.268 52.2075 40.7918C51.4162 37.6746 49.9706 34.9138 47.8426 32.5044C47.7216 32.3676 47.6607 32.1763 47.5726 32.0094C47.4882 32.0582 47.4029 32.1069 47.3185 32.1557C47.2951 32.3554 47.2548 32.5541 47.2491 32.7547C47.1563 36.0275 45.6657 38.4349 42.7661 39.9537C41.8361 40.4402 41.2099 40.0324 41.1996 38.9824C41.1771 36.7803 41.2671 34.5688 41.1002 32.3769C40.7964 28.3851 39.1437 24.9624 36.3368 22.104C36.2956 22.0618 36.2403 22.0337 36.1559 21.9737C36.0425 22.6009 35.9525 23.199 35.8259 23.7887C35.2166 26.6124 34.0185 29.1632 32.2176 31.4226C30.2732 33.8619 28.9504 36.5965 28.4404 39.6752C28.2145 41.0383 28.1939 42.438 28.1161 43.8236C28.0898 44.2914 28.0345 44.7086 27.5695 44.9195C27.112 45.1276 26.7361 44.9457 26.3761 44.6354C24.9061 43.368 23.8871 41.8108 23.3152 39.9574C23.2712 39.814 23.2271 39.6696 23.1652 39.468C23.0827 39.6021 23.018 39.6865 22.9759 39.7793C21.1693 43.6895 20.4156 47.761 21.1693 52.0415C21.3278 52.9425 21.6606 53.8115 21.8968 54.7002C21.9634 54.9505 22.0299 55.2252 21.9953 55.4737C21.9334 55.9124 21.6043 56.1505 21.1806 56.188C20.7287 56.2283 20.365 56.009 20.2337 55.5758C19.8944 54.4584 19.57 53.3353 19.2916 52.2019C19.1397 51.5869 19.0937 50.9438 19 50.3128C19 49.4063 19 48.5007 19 47.5941C19.1237 46.7016 19.2222 45.8054 19.3759 44.9186C19.8119 42.392 20.6678 40.0099 21.9043 37.7637C22.1696 37.2818 22.5502 36.9631 23.109 36.904C23.9612 36.814 24.6502 37.3015 24.8143 38.1546C25.028 39.2674 25.3496 40.3343 25.9571 41.3008C26.033 41.4217 26.1267 41.5305 26.2458 41.6899C26.3536 40.8949 26.4258 40.1833 26.5505 39.4812C27.1786 35.9309 28.717 32.8138 30.9407 29.9854C33.1813 27.1345 34.2706 23.8383 34.355 20.2178C34.3681 19.6609 34.5219 19.2484 35.0319 19H35.5944L35.5934 19.0009ZM32.5925 50.295C32.5607 50.3175 32.5288 50.34 32.4969 50.3625C32.4969 50.4713 32.4913 50.58 32.4969 50.6888C32.615 52.5731 32.2597 54.3393 31.3026 55.9912C30.6145 57.1789 30.4448 58.4961 30.6491 59.8433C31.0307 62.3585 32.9113 64.3685 35.3844 64.9525C37.8462 65.5328 40.384 64.5832 41.8717 62.5263C43.3539 60.4761 43.4345 57.7283 42.0855 55.5637C41.6814 54.9149 41.2924 54.2568 40.8986 53.6015C39.6696 51.555 38.4621 49.5 38.2934 47.0185C37.234 47.671 36.0678 49.4325 35.7734 50.8228C35.7162 51.0937 35.6844 51.3816 35.7106 51.6553C35.7762 52.3528 35.57 52.7681 35.0375 52.9059C34.5453 53.0334 34.1516 52.7634 33.8666 52.1475C33.6969 51.7809 33.5085 51.4181 33.2816 51.0862C33.0866 50.7994 32.825 50.5575 32.5925 50.295ZM65.1241 45.3057C65.0285 45.2664 64.961 45.2317 64.8888 45.2092C61.8692 44.2642 58.8495 43.3155 55.8262 42.3845C55.6358 42.3264 55.3921 42.3602 55.1952 42.4202C52.2609 43.3248 49.3313 44.2473 46.396 45.1492C46.0932 45.242 45.9882 45.3648 45.991 45.692C46.007 48.2372 45.9929 50.7825 46.0013 53.3278C46.021 58.8645 49.6669 63.5754 55.0246 64.9657C55.3659 65.0538 55.7708 65.05 56.1121 64.961C61.4689 63.5632 65.1016 58.857 65.1232 53.3128C65.1297 51.5634 65.1241 49.815 65.1241 48.0657C65.1241 47.146 65.1241 46.2263 65.1241 45.3048V45.3057ZM44.8811 58.1427C45.0592 60.1283 44.5511 61.9507 43.4448 63.6326C44.6729 63.1057 45.7932 62.4382 46.7438 61.6292C46.1035 60.4301 45.496 59.2939 44.8811 58.1427Z" fill="#FFFEEB"/>
<path d="M23.1165 59.8939C22.5981 59.8939 22.1912 59.4964 22.1856 58.9836C22.18 58.4783 22.5887 58.0508 23.0921 58.0368C23.605 58.0227 24.0606 58.4708 24.054 58.9827C24.0465 59.4917 23.634 59.8939 23.1165 59.8939Z" fill="#FFFEEB"/>
<path d="M63.3318 50.716C63.2436 52.2253 63.3252 53.7684 63.0336 55.2384C62.2471 59.202 59.834 61.8082 55.9838 63.0542C55.7222 63.1385 55.3903 63.1282 55.1222 63.0513C50.942 61.8598 47.9252 57.9036 47.8802 53.5518C47.8596 51.5363 47.8736 49.5207 47.8764 47.506C47.8764 46.8807 48.0864 46.592 48.6827 46.4054C50.8407 45.7304 52.9979 45.0526 55.1625 44.3992C55.4128 44.3233 55.726 44.328 55.9772 44.4039C58.1269 45.0526 60.2709 45.7239 62.414 46.396C63.0608 46.5985 63.2474 46.8751 63.2493 47.5707C63.2511 48.6179 63.2493 49.6641 63.2493 50.7113C63.2764 50.7131 63.3036 50.7141 63.3318 50.716ZM61.4587 51.1622C61.4305 51.1603 61.4024 51.1584 61.3752 51.1566C61.3752 50.2669 61.3602 49.3763 61.3827 48.4866C61.3912 48.1538 61.3002 47.9963 60.9646 47.8951C59.2631 47.3841 57.5709 46.8395 55.8713 46.3229C55.6903 46.2676 55.4635 46.2639 55.2835 46.3192C53.5398 46.8526 51.8035 47.4095 50.0598 47.9419C49.8161 48.016 49.7448 48.121 49.7467 48.3638C49.758 50.1591 49.7214 51.9562 49.7683 53.7506C49.8536 57.0074 52.1542 60.0786 55.2385 61.1079C55.4288 61.1717 55.6791 61.1923 55.861 61.1239C58.7053 60.0551 60.5352 58.0405 61.1577 55.0706C61.423 53.8021 61.3687 52.4672 61.4587 51.1622Z" fill="#FFFEEB"/>
<path d="M54.7154 54.1152C55.7898 53.0362 56.7985 52.0162 57.8156 51.0047C58.2769 50.5453 58.8788 50.5341 59.2575 50.9578C59.5875 51.3262 59.5987 51.8465 59.2256 52.2262C57.9581 53.5162 56.6785 54.7959 55.3904 56.0652C54.9901 56.4599 54.4548 56.4524 54.0507 56.0624C53.3335 55.3687 52.6286 54.6618 51.933 53.9465C51.527 53.5284 51.527 52.9865 51.8983 52.6087C52.2789 52.2197 52.8357 52.2272 53.2717 52.6509C53.7498 53.1168 54.2101 53.6015 54.7163 54.1162L54.7154 54.1152Z" fill="#FFFEEB"/>
</svg>
