<svg width="86" height="86" viewBox="0 0 86 86" fill="none" xmlns="http://www.w3.org/2000/svg">
<rect width="86" height="86" rx="32" fill="#9BC332"/>
<path d="M48.5112 66.2918C47.483 66.2903 46.4827 66.0891 45.6073 65.5662C43.8579 64.5204 42.1834 64.5836 40.4017 65.5412C38.2969 66.6737 36.1627 66.543 34.1254 65.2754C33.2015 64.7011 32.5141 63.8947 31.9956 62.9414C31.7503 62.4905 31.5226 62.0278 31.2421 61.5989C30.4636 60.4106 29.265 59.9861 27.9284 59.7863C25.1552 59.3707 23.1165 57.6081 22.5921 55.0141C22.4012 54.0682 22.4408 53.0371 22.5716 52.072C22.7875 50.4784 22.4585 49.13 21.2775 48.0107C20.1171 46.9106 19.277 45.6327 19.0611 44.0008C18.8202 42.1868 19.2946 40.5858 20.4403 39.1771C20.7179 38.8364 21.0264 38.5176 21.3422 38.2121C22.4643 37.1252 22.8448 35.8062 22.5583 34.2918C22.1985 32.3838 22.4306 30.5977 23.6042 29.0011C24.647 27.5822 26.0689 26.7347 27.8006 26.5305C29.7263 26.3028 31.0232 25.3657 31.8766 23.6163C33.0532 21.2001 35.0552 19.9868 37.7608 20.0177C38.7699 20.0294 39.729 20.3203 40.5927 20.8241C42.2246 21.7759 43.78 21.6745 45.4472 20.827C48.918 19.0615 52.3536 20.1778 54.1427 23.6501C54.9755 25.2673 56.13 26.2955 57.966 26.4835C61.4046 26.8375 64.2908 29.9147 63.4609 34.2213C63.1554 35.8062 63.552 37.156 64.7256 38.2812C65.8772 39.3857 66.7232 40.6607 66.9391 42.294C67.18 44.1095 66.7027 45.7091 65.5628 47.1206C65.2867 47.4628 64.9783 47.7816 64.6625 48.0871C63.5359 49.1726 63.1584 50.4901 63.4419 52.0059C63.7679 53.748 63.6108 55.4034 62.6443 56.9324C61.4986 58.7464 59.7786 59.6086 57.7163 59.8759C56.1212 60.0831 55.0152 60.9203 54.3263 62.3539C53.6227 63.8168 52.6518 65.0551 51.1169 65.6896C50.3002 66.0274 49.4101 66.1875 48.5523 66.4284L48.5126 66.2933L48.5112 66.2918ZM61.3297 32.9684C61.4002 30.9135 60.1047 29.2376 58.2569 28.8322C57.756 28.722 57.2448 28.6559 56.744 28.5472C54.5657 28.0742 53.1674 26.6906 52.1788 24.7503C50.9347 22.3091 48.7946 21.6084 46.3799 22.8702C44.1135 24.0555 41.9308 24.0702 39.6556 22.8878C37.1894 21.6055 35.0508 22.2929 33.8155 24.7664C32.6507 27.1004 30.8514 28.4194 28.2662 28.7337C26.7372 28.9188 25.5988 29.7164 24.9628 31.1514C24.5839 32.0078 24.6059 32.9038 24.7719 33.8027C25.2096 36.166 24.5971 38.1974 22.8668 39.8793C22.7082 40.0335 22.5539 40.1906 22.4041 40.3522C20.8662 42.0061 20.8574 44.2578 22.3821 45.9162C22.6685 46.2275 22.977 46.5169 23.2575 46.8327C24.5383 48.2678 25.073 49.9334 24.86 51.8576C24.7631 52.7257 24.6353 53.6319 24.7778 54.478C25.0627 56.1833 26.4214 57.3231 28.3367 57.5758C30.8264 57.9048 32.6419 59.1342 33.7347 61.4079C33.861 61.6723 34.0006 61.9323 34.1621 62.1776C35.0376 63.5025 36.2817 64.1826 37.8548 63.9799C38.6303 63.88 39.3956 63.5319 40.1168 63.1926C42.0365 62.2863 43.9313 62.254 45.8408 63.1867C46.1875 63.3556 46.5312 63.5289 46.8837 63.6817C48.7667 64.4998 50.8569 63.83 51.9056 62.0704C52.1406 61.6767 52.3419 61.264 52.5666 60.8645C53.5654 59.0857 55.0739 58.0326 57.0833 57.6903C57.5357 57.6139 57.991 57.542 58.4317 57.4215C60.5159 56.8487 61.6646 54.9289 61.2386 52.6082C60.7833 50.1302 61.4105 48.0357 63.248 46.3054C63.4345 46.1291 63.6108 45.9397 63.7767 45.7443C65.0781 44.2035 65.0737 42.081 63.7591 40.552C63.4242 40.1627 63.0423 39.8132 62.703 39.4283C61.4457 38.0006 60.9008 36.3452 61.1461 34.446C61.2166 33.8996 61.2827 33.3532 61.3297 32.9728V32.9684Z" fill="#FFFEEB"/>
<path d="M51.2225 33.6881C51.5838 33.9819 52.0054 34.167 52.1376 34.4769C52.2713 34.7927 52.1582 35.2392 52.0774 35.6108C52.0406 35.7797 51.8247 35.9149 51.6823 36.0573C46.4268 41.3158 41.1713 46.5727 35.9143 51.8297C35.7983 51.9457 35.6852 52.0691 35.5574 52.1719C35.0903 52.5509 34.4661 52.5362 34.0533 52.144C33.6244 51.7371 33.5892 51.0806 33.9711 50.5988C34.0386 50.5136 34.1194 50.4357 34.1973 50.3579C39.5306 45.0231 44.8625 39.6854 50.2046 34.3594C50.4602 34.1038 50.8171 33.951 51.2225 33.6881Z" fill="#FFFEEB"/>
<path d="M33.626 35.3391C33.6363 32.6834 35.7837 30.5683 38.4555 30.5815C41.0788 30.5962 43.2101 32.7422 43.2086 35.3699C43.2072 38.0109 41.0362 40.1745 38.3967 40.1642C35.7499 40.1554 33.6172 37.9962 33.6274 35.3376L33.626 35.3391ZM40.9334 35.3494C40.9261 33.9555 39.8083 32.8303 38.4217 32.823C37.0322 32.8156 35.8571 33.9922 35.8689 35.3802C35.8806 36.7668 37.0072 37.8831 38.3982 37.889C39.8289 37.8949 40.9408 36.78 40.9334 35.3479V35.3494Z" fill="#FFFEEB"/>
<path d="M52.3713 50.9469C52.3654 53.5996 50.2238 55.7265 47.5697 55.7206C44.9272 55.7132 42.7813 53.5541 42.7901 50.9131C42.7989 48.2795 44.9698 46.1232 47.6034 46.132C50.2459 46.1409 52.3786 48.2942 52.3713 50.9469ZM45.0624 50.9557C45.0741 52.3526 46.1934 53.4674 47.5843 53.4689C48.9812 53.4689 50.1475 52.2938 50.1284 50.9043C50.1078 49.4942 48.9518 48.3808 47.5344 48.4043C46.1346 48.4278 45.0521 49.5456 45.0638 50.9557H45.0624Z" fill="#FFFEEB"/>
</svg>
