<svg width="86" height="86" viewBox="0 0 86 86" fill="none" xmlns="http://www.w3.org/2000/svg">
<rect width="86" height="86" rx="32" fill="#9BC332"/>
<path d="M26.5312 43.079C25.5646 41.6944 24.586 40.3911 23.7171 39.0186C22.8813 37.6987 22.3055 36.2526 22.086 34.6862C21.6756 31.7518 23.0977 29.4532 25.9194 28.4911C27.9894 27.7846 30.1165 27.7636 32.2572 27.977C33.1682 28.0672 34.0717 28.2266 35.0383 28.3634C35.2653 27.7741 35.4832 27.1622 35.7328 26.5654C36.6558 24.3526 37.7757 22.2661 39.5917 20.632C42.0135 18.4552 44.9749 18.4552 47.3922 20.6365C49.2052 22.2706 50.3251 24.3586 51.2466 26.573C51.4902 27.1577 51.7021 27.756 51.9351 28.3634C52.8807 28.2296 53.8007 28.0672 54.7282 27.9755C56.7156 27.7786 58.7014 27.7681 60.6361 28.3634C64.1778 29.4532 65.6555 32.1606 64.6769 35.7415C64.0095 38.1813 62.64 40.2272 61.0705 42.1605C60.8481 42.4356 60.6196 42.7046 60.4151 42.9497C61.2134 44.032 62.0296 45.0588 62.7542 46.1456C63.823 47.7466 64.6378 49.4649 64.9039 51.4041C65.2662 54.0529 64.0606 56.2191 61.5952 57.294C59.9085 58.0306 58.1211 58.2275 56.3127 58.1358C55.0259 58.0697 53.7406 57.8772 52.4643 57.6803C52.0404 57.6142 51.878 57.6923 51.7397 58.0952C50.9775 60.3035 50.0004 62.4051 48.4881 64.2136C48.0807 64.7006 47.6297 65.1606 47.1442 65.568C44.8081 67.5223 41.9909 67.4697 39.6864 65.4508C37.8178 63.8137 36.6783 61.6941 35.7358 59.4482C35.5554 59.0167 35.3795 58.5808 35.2487 58.1328C35.1285 57.7179 34.9646 57.5931 34.4941 57.6848C32.5579 58.0666 30.5976 58.3297 28.6268 58.0636C27.5775 57.9223 26.5072 57.7179 25.527 57.3361C22.767 56.2597 21.5313 53.7718 22.1612 50.8344C22.6678 48.4667 23.8869 46.4613 25.3271 44.5687C25.724 44.0471 26.1524 43.5495 26.5312 43.082V43.079ZM52.1847 43.0248C52.1035 41.5171 52.0328 40.0002 51.9246 38.4864C51.9111 38.2865 51.7532 38.034 51.5849 37.9167C49.1255 36.1939 46.5308 34.6997 43.8054 33.4414C43.6325 33.3618 43.3604 33.3603 43.1875 33.4384C40.4426 34.7027 37.8344 36.209 35.36 37.9408C35.2051 38.049 35.0698 38.285 35.0518 38.4729C34.7722 41.4855 34.7722 44.4996 35.0518 47.5121C35.0698 47.7015 35.1991 47.9406 35.3525 48.0488C37.8133 49.767 40.4035 51.2688 43.1229 52.5391C43.3243 52.6338 43.6445 52.6383 43.8445 52.5451C46.5489 51.2854 49.1255 49.7971 51.5698 48.0864C51.7502 47.9601 51.9111 47.685 51.9261 47.4685C52.0343 45.9923 52.102 44.5146 52.1847 43.0233V43.0248ZM34.4475 30.2259C32.6691 29.8922 30.8877 29.578 29.0883 29.8095C28.024 29.9463 26.9341 30.1673 25.9524 30.5822C24.371 31.2512 23.7306 32.6462 23.9681 34.3494C24.2011 36.0241 24.9332 37.4943 25.8562 38.8728C26.4846 39.8108 27.1957 40.6933 27.8165 41.5276C29.6189 40.0438 31.3267 38.6443 33.0239 37.2297C33.1486 37.126 33.2373 36.9305 33.2644 36.7652C33.4102 35.8783 33.5034 34.9823 33.6658 34.0984C33.9018 32.8146 34.1814 31.5383 34.449 30.2259H34.4475ZM52.6011 30.2094C52.9739 32.4057 53.3287 34.5433 53.7135 36.6765C53.7571 36.917 53.9255 37.1801 54.1134 37.344C55.6542 38.6834 57.2131 40.0017 58.7675 41.3246C58.8607 41.4043 58.963 41.4735 59.0847 41.5652C60.7398 39.5868 62.2596 37.574 62.879 35.0394C63.4713 32.6176 62.5453 30.9685 60.1851 30.2004C60.0077 30.1417 59.8258 30.0951 59.6439 30.053C57.2703 29.4878 54.9176 29.781 52.6026 30.2094H52.6011ZM59.1373 44.4905C57.362 45.9502 55.6392 47.3603 53.93 48.7869C53.8082 48.8891 53.7391 49.0951 53.7105 49.2634C53.4835 50.6119 53.2911 51.9648 53.0506 53.3118C52.9047 54.1311 52.6928 54.9368 52.5049 55.7757C52.9829 55.8598 53.4038 55.9455 53.8277 56.0041C55.9188 56.2943 58.0099 56.4251 60.0724 55.8162C62.5002 55.1007 63.4788 53.408 62.8775 50.9501C62.2581 48.4156 60.7383 46.4012 59.1358 44.4905H59.1373ZM27.8887 44.4394C27.5324 44.8769 27.1551 45.3128 26.8063 45.7698C25.5977 47.3618 24.5409 49.0349 24.0779 51.0133C23.5322 53.3433 24.3845 54.9549 26.6575 55.7095C27.4993 55.9891 28.4073 56.1199 29.2972 56.1981C31.038 56.3529 32.7563 56.1064 34.4294 55.7711C34.1122 54.1326 33.6598 52.5662 33.5425 50.9727C33.4313 49.4574 32.9126 48.351 31.5807 47.6324C31.483 47.5798 31.4003 47.4971 31.3161 47.4234C30.1887 46.4403 29.0612 45.4571 27.8902 44.4349L27.8887 44.4394ZM50.056 28.7903C49.8365 28.2145 49.6546 27.6839 49.4352 27.1698C48.6475 25.3147 47.7274 23.5408 46.2197 22.1488C44.4909 20.5538 42.6343 20.4937 40.895 22.0391C38.8551 23.852 37.8374 26.2798 36.9444 28.7542C37.0181 28.8204 37.0406 28.8564 37.0722 28.8685C39.1317 29.6036 41.1882 30.3417 43.2537 31.0602C43.4221 31.1189 43.6551 31.0873 43.8279 31.0212C44.7013 30.6889 45.5552 30.3011 46.4361 29.9884C47.6117 29.569 48.8053 29.2007 50.056 28.7903ZM36.9249 57.2053C37.1383 57.7645 37.3172 58.2756 37.5277 58.7747C38.3064 60.6327 39.2264 62.4066 40.7222 63.8077C42.4825 65.4568 44.3646 65.5124 46.1295 63.9189C48.1378 62.1045 49.1495 59.6962 50.0365 57.2414C49.9643 57.1752 49.9418 57.1391 49.9102 57.1286C47.8507 56.395 45.7942 55.6584 43.7287 54.9428C43.5604 54.8842 43.3273 54.9173 43.153 54.9834C42.2796 55.3141 41.4242 55.699 40.5448 56.0117C39.3692 56.4281 38.1756 56.7964 36.9264 57.2068L36.9249 57.2053ZM41.1386 32.2072C39.515 31.6646 37.9712 31.1489 36.3236 30.5972C35.9748 32.314 35.6531 33.8969 35.3164 35.5566C37.2917 34.4201 39.1633 33.3437 41.1371 32.2072H41.1386ZM51.663 35.5535C51.3263 33.8969 51.0046 32.3125 50.6573 30.6002C49.0097 31.1504 47.4644 31.6646 45.8423 32.2057C47.8191 33.3422 49.6907 34.4186 51.663 35.5535ZM41.1506 53.7928C39.1588 52.6473 37.2902 51.5725 35.3134 50.436C35.6546 52.1092 35.9793 53.6936 36.3266 55.3968C37.9802 54.8466 39.5165 54.3355 41.1506 53.7928ZM45.8333 53.7928C47.4734 54.337 49.0218 54.8496 50.6603 55.3938C51.0076 53.6635 51.3248 52.0896 51.6555 50.4435C49.6727 51.583 47.8131 52.6533 45.8318 53.7928H45.8333ZM54.0111 39.6259V46.3621C55.304 45.2166 56.5216 44.1388 57.8144 42.9933C56.5141 41.8418 55.3055 40.7714 54.0111 39.6244V39.6259ZM32.9562 39.644C31.6754 40.7774 30.4578 41.8568 29.1665 42.9993C30.4773 44.1553 31.6875 45.2241 33.0179 46.3982C33.0179 44.1117 33.0179 42.0207 33.0179 39.9296C33.0179 39.88 32.9983 39.8304 32.9577 39.6425L32.9562 39.644Z" fill="#FFFEEB"/>
<path d="M48.6536 43.0264C48.6356 45.8495 46.2949 48.1721 43.4733 48.1616C40.6306 48.151 38.2915 45.7789 38.3246 42.9377C38.3576 40.1145 40.7118 37.8055 43.5334 37.831C46.3581 37.8566 48.6716 40.2032 48.6536 43.0248V43.0264ZM43.4943 39.7507C41.737 39.7477 40.2653 41.2014 40.2443 42.9632C40.2217 44.7371 41.7054 46.2389 43.4853 46.2434C45.2412 46.2464 46.7144 44.7912 46.7369 43.0294C46.7595 41.254 45.2757 39.7537 43.4958 39.7507H43.4943Z" fill="#FFFEEB"/>
</svg>
