<svg width="86" height="86" viewBox="0 0 86 86" fill="none" xmlns="http://www.w3.org/2000/svg">
<rect width="86" height="86" rx="32" fill="#9BC332"/>
<path d="M61.0134 62.2948V64.8293H25.0056V62.3448C24.1159 62.2948 23.2704 62.3294 22.4557 62.1891C19.9596 61.7587 18.4147 59.2876 19.2102 56.8799C20.7743 52.1414 22.2482 47.3606 24.0794 42.7258C26.5832 36.3866 31.4581 32.8029 38.1413 31.6385C38.3161 31.6077 38.491 31.5751 38.6889 31.5405V28.0048C38.4833 28.0048 38.2931 28.0048 38.1028 28.0048C35.4069 28.0048 32.711 28.0048 30.015 28.0048C27.0347 28.0048 24.3119 27.2189 21.9177 25.3935C21.1375 24.7978 20.3266 24.2424 19.5234 23.6794C19.1391 23.4104 18.8874 23.0857 19.0507 22.5995C19.2121 22.1191 19.5983 22 20.071 22C35.355 22.0038 50.639 22.0038 65.923 22C66.3938 22 66.7819 22.1134 66.9472 22.5938C67.1143 23.0799 66.8645 23.4085 66.4822 23.6775C65.579 24.3155 64.674 24.9534 63.7824 25.6087C61.6053 27.2035 59.1438 27.9491 56.4747 27.9914C53.6366 28.0375 50.7966 28.0029 47.9584 28.0048C47.7624 28.0048 47.5665 28.0048 47.3282 28.0048V31.4367C48.7271 31.8114 50.1413 32.0689 51.4672 32.5685C56.7707 34.5669 60.412 38.2428 62.2797 43.6155C63.7612 47.8755 65.1486 52.1683 66.682 56.4072C67.8234 59.5643 65.5137 62.4466 62.4296 62.2987C61.9704 62.2756 61.5111 62.2948 61.0134 62.2948ZM42.9451 60.5808C49.4438 60.5808 55.9444 60.5481 62.4431 60.6019C64.2724 60.6173 65.8231 59.082 65.0602 56.9587C63.5422 52.7313 62.1587 48.4578 60.6714 44.2188C58.6826 38.5522 54.7108 34.9858 48.9019 33.6023C45.4143 32.7722 41.8095 32.8529 38.3046 33.3948C32.1249 34.3479 27.7399 37.822 25.5244 43.7192C23.8526 48.1715 22.4173 52.714 20.8819 57.22C20.7974 57.4698 20.7321 57.7388 20.7205 58.0021C20.6552 59.4529 21.8177 60.5789 23.3934 60.5808C29.9113 60.5866 36.4273 60.5827 42.9451 60.5827V60.5808ZM22.6344 23.7448C22.7401 23.8428 22.7843 23.8889 22.8342 23.9292C24.8096 25.4934 27.0808 26.2678 29.5789 26.2754C38.5217 26.3004 47.4627 26.3004 56.4056 26.2754C58.7825 26.2678 60.9769 25.5875 62.8946 24.1291C63.0387 24.0195 63.1809 23.9119 63.4 23.7448H22.6344ZM59.2648 62.3313H26.7369V63.123H59.2629V62.3313H59.2648ZM45.5488 28.0394H40.4721V31.4021H45.5488V28.0394Z" fill="#FFFEEB"/>
<path d="M43.0393 36.5749C48.7098 36.5922 53.3023 41.2212 53.285 46.9013C53.2677 52.5718 48.6406 57.1643 42.9586 57.1489C37.2901 57.1335 32.6976 52.5045 32.7129 46.8206C32.7283 41.152 37.3573 36.5576 43.0393 36.573V36.5749ZM34.4289 46.8417C34.4212 51.5822 38.2604 55.433 42.9932 55.4349C47.7087 55.4368 51.5537 51.6148 51.571 46.909C51.5883 42.1647 47.7606 38.3024 43.0316 38.2908C38.2893 38.2793 34.4346 42.1109 34.4269 46.8436L34.4289 46.8417Z" fill="#FFFEEB"/>
<path d="M24.2372 57.7734C25.4785 57.7734 26.6506 57.7734 27.8228 57.7734C28.0015 57.7734 28.1802 57.7676 28.357 57.7753C28.9065 57.7984 29.2697 58.1308 29.2735 58.6131C29.2774 59.0647 28.9296 59.4682 28.4261 59.474C26.912 59.4951 25.3959 59.5258 23.8855 59.4586C22.7787 59.4086 22.208 58.4671 22.5424 57.4045C22.7076 56.878 22.8921 56.3591 23.0862 55.8422C23.2802 55.3292 23.7241 55.1005 24.1834 55.2485C24.6561 55.4003 24.8674 55.8749 24.6926 56.4206C24.5542 56.8568 24.4005 57.2872 24.2372 57.7715V57.7734Z" fill="#FFFEEB"/>
<path d="M31.8518 58.6208C31.8518 59.0781 31.4522 59.4778 30.9987 59.4778C30.5433 59.4778 30.1474 59.0781 30.1455 58.6208C30.1455 58.15 30.5221 57.7792 30.9987 57.7792C31.4752 57.7792 31.8518 58.152 31.8518 58.6208Z" fill="#FFFEEB"/>
<path d="M46.6673 41.9802C47.0823 42.3991 47.4589 42.7757 47.8798 43.2004C47.1592 43.921 46.452 44.6454 45.7219 45.3449C45.4548 45.6004 45.3433 45.8137 45.4625 46.2134C45.7987 47.3337 45.2741 48.5327 44.2692 49.0976C43.2469 49.6741 41.9941 49.4973 41.1678 48.6595C40.3607 47.8409 40.1955 46.5996 40.7624 45.5985C41.335 44.5858 42.5186 44.0632 43.6427 44.3956C44.0328 44.5109 44.2538 44.4225 44.5151 44.1477C45.2127 43.4137 45.9409 42.7085 46.6673 41.9802ZM43.8541 46.8533C43.8484 46.3921 43.464 46.0097 43.0029 46.0078C42.5436 46.0059 42.1535 46.3844 42.1439 46.8456C42.1343 47.3279 42.5398 47.7314 43.0202 47.718C43.4813 47.7064 43.858 47.3144 43.8522 46.8533H43.8541Z" fill="#FFFEEB"/>
</svg>
