<svg width="86" height="86" viewBox="0 0 86 86" fill="none" xmlns="http://www.w3.org/2000/svg">
<rect width="86" height="86" rx="32" fill="#9BC332"/>
<path d="M30.1078 44.2521C31.7753 43.2935 33.4132 42.3453 35.0614 41.4137C35.3007 41.2786 35.2827 41.1178 35.2596 40.8991C35.0936 39.3615 35.7459 38.2627 37.1664 37.6349C37.2847 37.5821 37.443 37.4329 37.443 37.3261C37.4597 35.3987 37.4546 33.47 37.4546 31.5581C35.5465 30.6317 34.9585 29.5599 35.3458 27.675C33.5702 26.5131 31.7766 25.3397 29.974 24.1599C29.1596 24.8058 28.2744 25.0862 27.2605 24.8456C25.7191 24.4802 24.7297 22.9041 25.0655 21.3344C25.4064 19.7428 27.0109 18.7186 28.6115 19.0686C30.1426 19.4044 31.177 20.9561 30.8554 22.4924C30.7795 22.8565 30.867 23.0328 31.1719 23.2258C32.7056 24.1946 34.2212 25.1892 35.7446 26.1735C35.8784 26.2597 36.0161 26.3394 36.1435 26.4179C37.5755 25.3539 39.0281 25.4542 40.3264 26.5427C41.8163 25.6884 43.3101 24.8135 44.8232 23.9759C45.2683 23.7301 45.4768 23.5217 45.4137 22.9247C45.2876 21.7448 45.819 20.7901 46.8535 20.1867C47.8867 19.5846 48.9507 19.6103 49.9504 20.2613C50.9334 20.9008 51.3992 21.8503 51.2615 23.0212C51.2088 23.4651 51.3233 23.6709 51.699 23.8794C53.27 24.7504 54.8217 25.6549 56.3978 26.5569C57.229 25.79 58.1914 25.4915 59.2876 25.7733C60.506 26.086 61.3848 27.1474 61.4697 28.362C61.5637 29.7079 60.8856 30.8697 59.6594 31.3586C59.3249 31.4924 59.249 31.6623 59.2516 31.9891C59.2657 33.7106 59.2619 35.4321 59.2541 37.1524C59.2541 37.3968 59.2876 37.5538 59.5565 37.6606C60.7428 38.1315 61.4131 39.0141 61.471 40.2982C61.5264 41.5398 60.977 42.4919 59.8807 43.0542C58.7266 43.6461 57.6137 43.4801 56.5985 42.6721C56.5483 42.6322 56.4969 42.5949 56.4145 42.5331C55.299 43.1726 54.1758 43.8159 53.0525 44.4592C52.5379 44.7539 52.0271 45.0588 51.506 45.3419C51.2834 45.4628 51.2049 45.5915 51.2332 45.8681C51.3928 47.4262 50.7597 48.462 49.3161 49.1246C49.1887 49.1825 49.0588 49.3973 49.0575 49.5402C49.0395 51.326 49.0575 53.1119 49.0356 54.8965C49.0318 55.2284 49.208 55.2837 49.4383 55.3802C50.6761 55.8975 51.3606 57.0542 51.2551 58.4257C51.1624 59.6287 50.2657 60.6851 49.0421 60.9874C48.117 61.2164 47.2498 61.0505 46.5022 60.447C46.2668 60.2579 46.1098 60.272 45.8718 60.4097C44.3741 61.2808 42.8713 62.1428 41.3634 62.9972C41.1292 63.1297 41.0379 63.2455 41.0842 63.553C41.263 64.7354 40.859 65.7261 39.8902 66.4183C38.9059 67.1221 37.8187 67.1903 36.7559 66.6062C35.6932 66.022 35.1438 65.0738 35.248 63.8579C35.2943 63.3085 35.1103 63.0782 34.6677 62.835C33.2472 62.0566 31.85 61.2357 30.4501 60.4187C30.2005 60.2733 30.0371 60.245 29.7785 60.4432C28.78 61.2061 27.6774 61.3129 26.5721 60.7262C25.5017 60.1575 24.9651 59.2144 25.0205 57.9934C25.0771 56.7312 25.7333 55.8524 26.8887 55.3674C27.1473 55.2593 27.2541 55.1486 27.2515 54.8553C27.2373 53.1016 27.2412 51.3479 27.2489 49.5955C27.2489 49.3472 27.2077 49.1966 26.9414 49.0911C25.732 48.6151 25.0629 47.7106 25.0205 46.4072C24.9793 45.1669 25.5467 44.2225 26.6545 43.6769C27.8176 43.1057 28.928 43.2832 29.9303 44.108C29.9792 44.1478 30.0306 44.1877 30.1091 44.2508L30.1078 44.2521ZM57.7706 37.5474C57.7848 37.4856 57.8041 37.4393 57.8041 37.393C57.8067 35.5273 57.8144 33.6604 57.7925 31.7948C57.7912 31.6584 57.5931 31.4641 57.4426 31.3985C56.1456 30.8375 55.3955 29.5586 55.6168 28.1716C55.6606 27.895 55.6014 27.7753 55.3698 27.6441C53.8335 26.7756 52.3037 25.8955 50.7777 25.009C50.5629 24.8842 50.4201 24.8572 50.1949 25.0322C49.0228 25.9419 47.6654 25.9213 46.4623 25.0348C46.3478 24.9511 46.1008 24.9267 45.9811 24.9936C44.4282 25.8634 42.8881 26.7602 41.3389 27.6377C41.1099 27.7676 41.0482 27.8873 41.088 28.1652C41.263 29.3901 40.886 30.5017 39.7988 31.0511C38.9419 31.4834 38.8158 32.0238 38.9072 32.8074C38.9188 32.9026 38.9085 33.0004 38.9085 33.0969V37.5152C40.702 38.3142 41.2038 39.1595 41.0713 41.0612C41.0636 41.1757 41.1833 41.3468 41.2913 41.4137C41.7674 41.7109 42.2602 41.9811 42.7478 42.2603C43.8981 42.9204 45.0483 43.5804 46.1986 44.2405C46.8342 43.6679 47.5303 43.3578 48.3627 43.3643C49.1939 43.3707 49.8732 43.7207 50.4805 44.2585C52.1583 43.2948 53.8155 42.3478 55.4624 41.3841C55.5602 41.3262 55.6245 41.1397 55.631 41.0084C55.6515 40.6263 55.5756 40.2313 55.6464 39.862C55.8767 38.6629 56.6423 37.9218 57.7732 37.5474H57.7706ZM28.6938 49.2249V55.2052C28.762 55.2438 28.789 55.2619 28.8186 55.2747C30.4321 55.9528 31.0316 56.9744 30.8657 58.7165C30.8541 58.8413 30.9802 59.0382 31.0986 59.1063C32.6502 60.0134 34.2084 60.9076 35.7755 61.7851C35.8952 61.852 36.1177 61.8057 36.2606 61.7427C36.6671 61.5625 37.0377 61.2769 37.4571 61.156C38.5353 60.8459 39.4759 61.1997 40.3058 61.9292C41.9604 60.9797 43.6021 60.0417 45.2362 59.087C45.3365 59.0279 45.4305 58.8387 45.4176 58.7229C45.2272 57.0799 45.8409 55.9837 47.3231 55.3249C47.4389 55.2734 47.5843 55.1165 47.5843 55.0071C47.5997 53.0784 47.5959 51.1498 47.5959 49.2314C47.5213 49.1966 47.4801 49.1748 47.4363 49.158C45.8821 48.5327 45.231 47.4172 45.4073 45.7446C45.4215 45.6159 45.2722 45.4113 45.1435 45.3341C44.2352 44.7899 43.3126 44.2701 42.394 43.7426C41.6889 43.3373 40.9838 42.9333 40.2968 42.5395C38.7103 43.6937 37.5626 43.6859 36.0393 42.5254C34.3023 43.5238 32.555 44.5274 30.8284 45.5207C31.1269 47.3387 30.4617 48.4825 28.6925 49.2249H28.6938ZM60.03 28.6104C60.0223 27.7805 59.3532 27.1294 58.5169 27.1397C57.6819 27.15 57.0244 27.8139 57.0283 28.6438C57.0321 29.4673 57.7063 30.1427 58.5259 30.1453C59.3738 30.1479 60.0377 29.4685 60.03 28.6091V28.6104ZM27.9707 59.6287C28.8032 59.6236 29.4645 58.9622 29.471 58.1298C29.4774 57.3102 28.798 56.6218 27.9797 56.6193C27.1267 56.6154 26.4576 57.2909 26.4654 58.1478C26.4731 58.9867 27.1318 59.6352 27.9694 59.6287H27.9707ZM49.8179 58.1324C49.8218 57.3063 49.154 56.6244 48.337 56.6193C47.5135 56.6141 46.8316 57.278 46.8162 58.0989C46.8007 58.9494 47.4775 59.6339 48.3293 59.6287C49.1682 59.6236 49.814 58.9751 49.8179 58.1324ZM36.6787 28.6309C36.6749 29.4673 37.3259 30.1376 38.1519 30.1466C38.9921 30.1569 39.6856 29.4673 39.6817 28.6271C39.6779 27.8062 38.9985 27.1371 38.1725 27.141C37.3298 27.1449 36.6813 27.7908 36.6787 28.6309ZM38.1789 38.9395C37.331 38.9395 36.6852 39.5777 36.6787 40.4204C36.6723 41.2812 37.3388 41.9503 38.1957 41.94C39.0178 41.9297 39.6843 41.2516 39.683 40.4256C39.6817 39.5996 39.0127 38.9382 38.1802 38.9395H38.1789ZM27.9296 47.8238C28.7916 47.8328 29.4697 47.174 29.4697 46.3274C29.4697 45.5143 28.7826 44.8285 27.9682 44.8272C27.1305 44.8272 26.4744 45.4731 26.4654 46.312C26.4563 47.1573 27.0919 47.8161 27.9296 47.8251V47.8238ZM60.03 40.4359C60.0326 39.5996 59.3802 38.9434 58.5439 38.9395C57.7076 38.9369 57.0411 39.5841 57.0283 40.4127C57.0154 41.2568 57.6999 41.9451 58.5465 41.94C59.3789 41.9335 60.0287 41.2773 60.0313 40.4359H60.03ZM38.2278 65.5241C39.0564 65.4945 39.701 64.8113 39.683 63.9827C39.665 63.1773 38.9471 62.4889 38.1468 62.5121C37.3015 62.5365 36.6491 63.2365 36.6787 64.0895C36.707 64.9207 37.3902 65.5537 38.2278 65.5241ZM48.3035 47.8251C49.154 47.8302 49.8012 47.2049 49.8166 46.3622C49.8321 45.531 49.1784 44.8426 48.3614 44.8285C47.511 44.813 46.8175 45.486 46.8149 46.3287C46.8123 47.1599 47.4685 47.8199 48.3022 47.8251H48.3035ZM48.3318 21.2443C47.502 21.2533 46.8316 21.9224 46.8316 22.7433C46.8316 23.5706 47.5547 24.2795 48.3769 24.2576C49.1939 24.2358 49.8526 23.5461 49.8436 22.7214C49.8359 21.8902 49.1656 21.2366 48.3318 21.2443ZM26.4654 21.9713C26.4654 22.8037 27.1228 23.4458 27.945 23.4934C28.7775 23.5423 29.4722 22.5709 29.4684 21.9494C29.4619 21.1298 28.7762 20.4659 27.9501 20.4723C27.11 20.4801 26.4654 21.1298 26.4641 21.97L26.4654 21.9713Z" fill="#FFFEEB"/>
</svg>
