<svg fill="none" height="56" viewBox="0 0 56 56" width="56" xmlns="http://www.w3.org/2000/svg"><path clip-rule="evenodd" d="m0 56h34.0585c11.9721 0 21.6737-9.7482 21.6737-21.7778v-34.2222h-22.7745c6.6053 3.80247 10.3208 11.4074 10.4584 19.1506v21.7778c-3.1651 0-6.4677-1.5901-8.0503-4.2865-4.0594 3.1803-9.2887 4.7014-14.7242 4.1482-7.3622-.6913-11.69693-4.0099-14.79316-8.9185-4.26592-6.9135-2.47699-18.4593 5.02276-21.7778 5.6421-2.62714 12.5225-.96787 14.3114 4.7704.1377.553.0689.8297-.4127.553-4.61-2.8345-10.3208.484-10.8024 5.4618-.2753 3.042 1.3761 8.9876 9.5638 8.2963 10.1145-.8988 11.5593-18.4593 2.2018-23.22963-5.2291-2.62715-12.3849-3.24937-18.37095.82964-4.81636 3.38769-7.36215 9.26419-7.36215 15.00249z" fill="#15953e" fill-rule="evenodd"/></svg>