<svg fill="none" height="58" viewBox="0 0 58 58" width="58" xmlns="http://www.w3.org/2000/svg"><path d="m28.9933 55.5552c-1.019 0-2.0515-.3888-2.8292-1.1665l-5.4303-5.4304h-7.683c-2.2124 0-3.99572-1.7967-3.99572-3.9957v-7.6829l-5.44379-5.4438c-1.55537-1.5554-1.55537-4.103 0-5.6584l5.43039-5.4304v-7.6829c0-2.2124 1.79672-3.99573 3.99572-3.99573h7.683l5.4303-5.43039c1.5554-1.55536 4.103-1.55536 5.6584 0l5.4303 5.43039h7.683c2.2124 0 3.9957 1.79673 3.9957 3.99573v7.6829l5.4304 5.4304c1.5554 1.5554 1.5554 4.103 0 5.6584l-5.4304 5.4303v7.683c0 2.2124-1.7967 3.9957-3.9957 3.9957h-7.6561l-5.4304 5.4304c-.7911.7911-1.8101 1.1799-2.8426 1.1799z" fill="#f8ae00"/><path d="m55.9039 26.3518-6.007-6.0069v-8.5009c0-2.06488-1.676-3.74092-3.7409-3.74092h-8.5009l-6.0069-6.00695c-1.4616-1.461508-3.8348-1.461508-5.2964 0l-6.0069 6.00695h-8.5009c-2.06488 0-3.74092 1.67604-3.74092 3.74092v8.5009l-6.00695 6.0069c-1.461508 1.4616-1.461508 3.8348 0 5.2964l6.00695 6.0069v8.5009c0 2.0649 1.67604 3.7409 3.74092 3.7409h8.5009l6.0069 6.007c1.4616 1.4615 3.8348 1.4615 5.2964 0l6.0069-6.007h8.5009c2.0649 0 3.7409-1.676 3.7409-3.7409v-8.5009l6.007-6.0069c1.4615-1.4616 1.4615-3.8348 0-5.2964zm-2.494 4.5053-5.8326 5.8326v8.2595c0 1.4481-1.18 2.6281-2.6281 2.6281h-8.2595l-5.8326 5.8326c-1.0325 1.0325-2.6951 1.0325-3.7142 0l-5.8326-5.8326h-8.2595c-1.4481 0-2.6281-1.18-2.6281-2.6281v-8.2595l-5.83261-5.8326c-1.03245-1.0325-1.03245-2.6951 0-3.7142l5.83261-5.8326v-8.2595c0-1.4481 1.18-2.6281 2.6281-2.6281h8.2595l5.8326-5.83261c1.0325-1.03244 2.6951-1.03244 3.7142 0l5.8326 5.83261h8.2595c1.4481 0 2.6281 1.18 2.6281 2.6281v8.2595l5.8326 5.8326c1.0325 1.0325 1.0325 2.6951 0 3.7142z" stroke="#008669" stroke-miterlimit="10"/><g fill="#008669"><path d="m27.0759 7.71425-19.36166 19.36165c-1.05926 1.0593-1.05926 2.789 0 3.8616l4.75996 4.76c1.542-1.8772 3.9153-4.0627 7.3612-5.6852 7.3746-3.4593 11.8396-.3218 16.4118-5.7119 2.856-3.3655 2.199-6.9992 1.4213-9.1043-.3084-.8045-.7911-1.5285-1.3945-2.1453l-5.3365-5.33655c-1.0727-1.05927-2.8023-1.05927-3.8616 0z"/><path d="m30.9241 50.2859 19.3617-19.3617c1.0592-1.0593 1.0592-2.789 0-3.8616l-4.76-4.76c-1.542 1.8772-3.9152 4.0627-7.3612 5.6852-7.3746 3.4593-11.8396.3218-16.4118 5.7119-2.856 3.3655-2.199 6.9992-1.4213 9.1043.3084.8045.7911 1.5285 1.3945 2.1453l5.3365 5.3366c1.0727 1.0592 2.8023 1.0592 3.8616 0z"/><path d="m55.9039 26.3519-6.007-6.007v-8.5009c0-2.06488-1.676-3.74092-3.7409-3.74092h-8.5009l-6.0069-6.00695c-1.4616-1.461508-3.8348-1.461508-5.2963 0l-6.007 6.00695h-8.5009c-2.06488 0-3.74092 1.67604-3.74092 3.74092v8.5009l-6.00695 6.007c-1.461508 1.4615-1.461508 3.8347 0 5.2963l6.00695 6.0069v8.5009c0 2.0649 1.67604 3.7409 3.74092 3.7409h8.5009l6.007 6.007c1.4615 1.4615 3.8347 1.4615 5.2963 0l6.0069-6.007h8.5009c2.0649 0 3.7409-1.676 3.7409-3.7409v-8.5009l6.007-6.0069c1.4615-1.4616 1.4615-3.8348 0-5.2963zm-2.494 4.5052-5.8326 5.8326v8.2595c0 1.4481-1.18 2.6281-2.6281 2.6281h-8.2595l-5.8326 5.8326c-1.0325 1.0325-2.6951 1.0325-3.7142 0l-5.8326-5.8326h-8.2595c-1.4481 0-2.6281-1.18-2.6281-2.6281v-8.2595l-5.83261-5.8326c-1.03245-1.0325-1.03245-2.6951 0-3.7142l5.83261-5.8326v-8.2595c0-1.4481 1.18-2.6281 2.6281-2.6281h8.2595l5.8326-5.83261c1.0325-1.03244 2.6951-1.03244 3.7142 0l5.8326 5.83261h8.2595c1.4481 0 2.6281 1.18 2.6281 2.6281v8.2595l5.8326 5.8326c1.0325 1.0325 1.0325 2.6951 0 3.7142z"/></g></svg>