<svg fill="none" height="56" viewBox="0 0 51 56" width="51" xmlns="http://www.w3.org/2000/svg"><path d="m25.8339 9.7782c.3182 2.8266.0345 6.1923-1.2411 8.9172l.2292.1208c.0819-.0012.1659 0 .2482 0 8.302 0 15.0268 6.0747 15.0268 13.5741 0 1.8422-.4092 3.6066-1.1455 5.209l7.6566 6.3645c2.2327-3.3854 3.5131-7.3492 3.5131-11.5735 0-12.2639-10.8093-22.2433-24.2873-22.6121zm-10.3297 1.6903c-9.09553 3.3971-15.50419939 11.4829-15.5042 20.9218 0 8.9196 5.7294 16.629 14.034 20.3183v-11.0906c-.9635-.9402-1.7844-1.9986-2.4249-3.1563-1.70077-2.7151-2.81511-6.9706-2.80684-11.4699.01042-5.6618 1.62704-11.6202 6.70194-15.5233z" fill="#343133"/><path clip-rule="evenodd" d="m15.5608 39.3182c-5.0859-5.1952-5.3327-10.9995-3.9232-14.3231 2.6561-6.2641 12.2829-9.1271 13.7317-18.48814.3829 23.25764-12.3398 15.34884-9.8085 32.81124z" fill="#127cc1" fill-rule="evenodd"/><path clip-rule="evenodd" d="m10.1965 24.9199c-.8133-14.4046 12.3895-12.6075 14.0999-24.9199 2.2386 14.8157-12.3789 16.4184-14.0999 24.9199z" fill="#36c0ef" fill-rule="evenodd"/><g fill="#127cc1"><path d="m18.8001 43.4971c.0001.1905-.0414.3793-.1221.5555-.0808.1762-.1992.3362-.3484.4711-.1493.1347-.3265.2416-.5216.3147-.195.073-.4041.1105-.6152.1105-.2112 0-.4202-.0375-.6153-.1105-.195-.0731-.3722-.18-.5215-.3147-.1493-.1349-.2677-.2949-.3484-.4711s-.1223-.365-.1222-.5555c-.0001-.1907.0415-.3795.1222-.5557.0807-.1759.1991-.3361.3484-.4708.1493-.135.3265-.2419.5215-.3149.1951-.0729.4041-.1105.6153-.1105.2111 0 .4202.0376.6152.1105.1951.073.3723.1799.5216.3149.1492.1347.2676.2949.3484.4708.0807.1762.1222.365.1221.5557z"/><path d="m18.8001 47.1807c.0001.1905-.0414.3793-.1221.5555-.0808.1762-.1992.3362-.3484.4711-.1493.1347-.3265.2416-.5216.3147-.195.073-.4041.1105-.6152.1105-.2112 0-.4202-.0375-.6153-.1105-.195-.0731-.3722-.18-.5215-.3147-.1493-.1349-.2677-.2949-.3484-.4711s-.1223-.365-.1222-.5555c-.0001-.1907.0415-.3795.1222-.5557.0807-.1759.1991-.3361.3484-.4708.1493-.135.3265-.2419.5215-.3149.1951-.0729.4041-.1105.6153-.1105.2111 0 .4202.0376.6152.1105.1951.073.3723.1799.5216.3149.1492.1347.2676.2949.3484.4708.0807.1762.1222.365.1221.5557z"/><path d="m18.8001 50.8644c.0001.1907-.0414.3793-.1221.5554-.0808.1762-.1992.3362-.3484.4711-.1493.1347-.3265.2417-.5216.3147-.195.0731-.4041.1105-.6152.1105-.2112 0-.4202-.0374-.6153-.1105-.195-.073-.3722-.18-.5215-.3147-.1493-.1349-.2677-.2949-.3484-.4711-.0807-.1761-.1223-.3647-.1222-.5554-.0001-.1907.0415-.3796.1222-.5555.0807-.1762.1991-.3364.3484-.4711.1493-.1349.3265-.2419.5215-.3147.1951-.073.4041-.1105.6153-.1105.2111 0 .4202.0375.6152.1105.1951.0728.3723.1798.5216.3147.1492.1347.2676.2949.3484.4711.0807.1759.1222.3648.1221.5555z"/><path d="m22.883 43.4971c0 .1905-.0415.3793-.1223.5555-.0806.1762-.1991.3362-.3484.4711-.1492.1347-.3265.2416-.5216.3147-.1949.073-.4039.1105-.615.1105-.2114 0-.4203-.0375-.6154-.1105-.195-.0731-.3723-.18-.5215-.3147-.1493-.1349-.2677-.2949-.3484-.4711-.0808-.1762-.1223-.365-.1222-.5555-.0001-.1907.0414-.3795.1222-.5557.0807-.1759.1991-.3361.3484-.4708.1492-.135.3265-.2419.5215-.3149.1951-.0729.404-.1105.6154-.1105.2111 0 .4201.0376.615.1105.1951.073.3724.1799.5216.3149.1493.1347.2678.2949.3484.4708.0808.1762.1223.365.1223.5557z"/><path d="m22.8806 47.1807c.0003.1905-.0414.3793-.122.5555-.0809.1762-.1992.3362-.3484.4711-.1492.1347-.3265.2416-.5216.3147-.1951.073-.4041.1105-.6153.1105-.2111 0-.4201-.0375-.6152-.1105-.195-.0731-.3723-.18-.5215-.3147-.1493-.1349-.2677-.2949-.3484-.4711-.0808-.1762-.1223-.365-.1222-.5555-.0001-.1907.0414-.3795.1222-.5557.0807-.1759.1991-.3361.3484-.4708.1492-.135.3265-.2419.5215-.3149.1951-.0729.4041-.1105.6152-.1105.2112 0 .4202.0376.6153.1105.1951.073.3724.1799.5216.3149.1492.1347.2675.2949.3484.4708.0806.1762.1223.365.122.5557z"/><path d="m22.8806 50.8644c.0003.1907-.0414.3793-.122.5554-.0809.1762-.1992.3362-.3484.4711-.1492.1347-.3265.2417-.5216.3147-.1951.0731-.4041.1105-.6153.1105-.2111 0-.4201-.0374-.6152-.1105-.195-.073-.3723-.18-.5215-.3147-.1493-.1349-.2677-.2949-.3484-.4711-.0808-.1761-.1223-.3647-.1222-.5554-.0001-.1907.0414-.3796.1222-.5555.0807-.1762.1991-.3364.3484-.4711.1492-.1349.3265-.2419.5215-.3147.1951-.073.4041-.1105.6152-.1105.2112 0 .4202.0375.6153.1105.1951.0728.3724.1798.5216.3147.1492.1347.2675.2949.3484.4711.0806.1759.1223.3648.122.5555z"/><path d="m26.9555 43.4971c.0003.1905-.0412.3793-.122.5555-.0809.1762-.1992.3362-.3484.4711-.1492.1347-.3265.2416-.5216.3147-.1949.073-.4041.1105-.6153.1105-.2111 0-.4201-.0375-.6152-.1105-.1949-.0731-.3722-.18-.5214-.3147-.1493-.1349-.2678-.2949-.3484-.4711-.0808-.1762-.1223-.365-.1223-.5555 0-.1907.0415-.3795.1223-.5557.0806-.1759.1991-.3361.3484-.4708.1492-.135.3265-.2419.5214-.3149.1951-.0729.4041-.1105.6152-.1105.2112 0 .4204.0376.6153.1105.1951.073.3724.1799.5216.3149.1492.1347.2675.2949.3484.4708.0808.1762.1223.365.122.5557z"/><path d="m26.9555 47.1807c.0003.1905-.0412.3793-.122.5555-.0809.1762-.1992.3362-.3484.4711-.1492.1347-.3265.2416-.5216.3147-.1949.073-.4041.1105-.6153.1105-.2111 0-.4201-.0375-.6152-.1105-.1949-.0731-.3722-.18-.5214-.3147-.1493-.1349-.2678-.2949-.3484-.4711-.0808-.1762-.1223-.365-.1223-.5555 0-.1907.0415-.3795.1223-.5557.0806-.1759.1991-.3361.3484-.4708.1492-.135.3265-.2419.5214-.3149.1951-.0729.4041-.1105.6152-.1105.2112 0 .4204.0376.6153.1105.1951.073.3724.1799.5216.3149.1492.1347.2675.2949.3484.4708.0808.1762.1223.365.122.5557z"/><path d="m26.9555 50.8644c.0003.1907-.0412.3793-.122.5554-.0809.1762-.1992.3362-.3484.4711-.1492.1347-.3265.2417-.5216.3147-.1949.0731-.4041.1105-.6153.1105-.2111 0-.4201-.0374-.6152-.1105-.1949-.073-.3722-.18-.5214-.3147-.1493-.1349-.2678-.2949-.3484-.4711-.0808-.1761-.1223-.3647-.1223-.5554s.0415-.3796.1223-.5555c.0806-.1762.1991-.3364.3484-.4711.1492-.1349.3265-.2419.5214-.3147.1951-.073.4041-.1105.6152-.1105.2112 0 .4204.0375.6153.1105.1951.0728.3724.1798.5216.3147.1492.1347.2675.2949.3484.4711.0808.1759.1223.3648.122.5555z"/><path d="m31.0362 43.4971c.0002.1905-.0413.3793-.1221.5555s-.1991.3362-.3484.4711c-.1492.1347-.3264.2416-.5216.3147-.1949.073-.4041.1105-.6152.1105-.2112 0-.4202-.0375-.6153-.1105-.1949-.0731-.3722-.18-.5214-.3147-.1492-.1349-.2677-.2949-.3484-.4711-.0808-.1762-.1223-.365-.1223-.5555 0-.1907.0415-.3795.1223-.5557.0807-.1759.1992-.3361.3484-.4708.1492-.135.3265-.2419.5214-.3149.1951-.0729.4041-.1105.6153-.1105.2111 0 .4203.0376.6152.1105.1952.073.3724.1799.5216.3149.1493.1347.2676.2949.3484.4708.0808.1762.1223.365.1221.5557z"/><path d="m31.0362 47.1807c.0002.1905-.0413.3793-.1221.5555s-.1991.3362-.3484.4711c-.1492.1347-.3264.2416-.5216.3147-.1949.073-.4041.1105-.6152.1105-.2112 0-.4202-.0375-.6153-.1105-.1949-.0731-.3722-.18-.5214-.3147-.1492-.1349-.2677-.2949-.3484-.4711-.0808-.1762-.1223-.365-.1223-.5555 0-.1907.0415-.3795.1223-.5557.0807-.1759.1992-.3361.3484-.4708.1492-.135.3265-.2419.5214-.3149.1951-.0729.4041-.1105.6153-.1105.2111 0 .4203.0376.6152.1105.1952.073.3724.1799.5216.3149.1493.1347.2676.2949.3484.4708.0808.1762.1223.365.1221.5557z"/><path d="m31.0362 50.8644c.0002.1907-.0413.3793-.1221.5554-.0808.1762-.1991.3362-.3484.4711-.1492.1347-.3264.2417-.5216.3147-.1949.0731-.4041.1105-.6152.1105-.2112 0-.4202-.0374-.6153-.1105-.1949-.073-.3722-.18-.5214-.3147-.1492-.1349-.2677-.2949-.3484-.4711-.0808-.1761-.1223-.3647-.1223-.5554s.0415-.3796.1223-.5555c.0807-.1762.1992-.3364.3484-.4711.1492-.1349.3265-.2419.5214-.3147.1951-.073.4041-.1105.6153-.1105.2111 0 .4203.0375.6152.1105.1952.0728.3724.1798.5216.3147.1493.1347.2676.2949.3484.4711.0808.1759.1223.3648.1221.5555z"/><path d="m35.1142 43.4971c.0002.1905-.0414.3793-.1221.5555-.0808.1762-.1991.3362-.3483.4711-.1493.1347-.3265.2416-.5216.3147-.1951.073-.4042.1105-.6153.1105s-.4201-.0375-.6153-.1105c-.1951-.0731-.3721-.18-.5216-.3147-.1492-.1349-.2675-.2949-.3483-.4711-.0806-.1762-.1223-.365-.1221-.5555-.0002-.1907.0415-.3795.1221-.5557.0808-.1759.1991-.3361.3483-.4708.1495-.135.3265-.2419.5216-.3149.1952-.0729.4042-.1105.6153-.1105s.4202.0376.6153.1105c.1951.073.3723.1799.5216.3149.1492.1347.2675.2949.3483.4708.0807.1762.1223.365.1221.5557z"/><path d="m35.1146 47.1807c0 .1905-.0414.3793-.122.5555-.0809.1762-.1992.3362-.3484.4711-.1495.1347-.3267.2416-.5216.3147-.1951.073-.4042.1105-.6153.1105s-.4201-.0375-.6152-.1105c-.1952-.0731-.3724-.18-.5216-.3147-.1493-.1349-.2676-.2949-.3484-.4711-.0806-.1762-.1223-.365-.1221-.5555-.0002-.1907.0415-.3795.1221-.5557.0808-.1759.1991-.3361.3484-.4708.1492-.135.3264-.2419.5216-.3149.1951-.0729.4041-.1105.6152-.1105s.4202.0376.6153.1105c.1949.073.3721.1799.5216.3149.1492.1347.2675.2949.3484.4708.0806.1762.122.365.122.5557z"/><path d="m35.1146 50.8644c0 .1907-.0414.3793-.122.5554-.0809.1762-.1992.3362-.3484.4711-.1495.1347-.3267.2417-.5216.3147-.1951.0731-.4042.1105-.6153.1105s-.4201-.0374-.6152-.1105c-.1952-.073-.3724-.18-.5216-.3147-.1493-.1349-.2676-.2949-.3484-.4711-.0806-.1761-.1223-.3647-.1221-.5554-.0002-.1907.0415-.3796.1221-.5555.0808-.1762.1991-.3364.3484-.4711.1492-.1349.3264-.2419.5216-.3147.1951-.073.4041-.1105.6152-.1105s.4202.0375.6153.1105c.1949.0728.3721.1798.5216.3147.1492.1347.2675.2949.3484.4711.0806.1759.122.3648.122.5555z"/><path d="m39.1913 43.4971c.0002.1905-.0415.3793-.1221.5555-.0809.1762-.1992.3362-.3484.4711-.1494.1347-.3265.2416-.5216.3147-.1951.073-.4041.1105-.6153.1105-.2111 0-.4201-.0375-.6152-.1105-.1952-.0731-.3724-.18-.5216-.3147-.1493-.1349-.2676-.2949-.3484-.4711-.0806-.1762-.1223-.365-.1221-.5555-.0002-.1907.0415-.3795.1221-.5557.0808-.1759.1991-.3361.3484-.4708.1492-.135.3264-.2419.5216-.3149.1951-.0729.4041-.1105.6152-.1105.2112 0 .4202.0376.6153.1105.1951.073.3722.1799.5216.3149.1492.1347.2675.2949.3484.4708.0806.1762.1223.365.1221.5557z"/><path d="m39.1913 47.1807c.0002.1905-.0415.3793-.1221.5555-.0809.1762-.1992.3362-.3484.4711-.1494.1347-.3265.2416-.5216.3147-.1951.073-.4041.1105-.6153.1105-.2111 0-.4201-.0375-.6152-.1105-.1952-.0731-.3724-.18-.5216-.3147-.1493-.1349-.2676-.2949-.3484-.4711-.0806-.1762-.1223-.365-.1221-.5555-.0002-.1907.0415-.3795.1221-.5557.0808-.1759.1991-.3361.3484-.4708.1492-.135.3264-.2419.5216-.3149.1951-.0729.4041-.1105.6152-.1105.2112 0 .4202.0376.6153.1105.1951.073.3722.1799.5216.3149.1492.1347.2675.2949.3484.4708.0806.1762.1223.365.1221.5557z"/><path d="m39.1913 50.8644c.0002.1907-.0415.3793-.1221.5554-.0809.1762-.1992.3362-.3484.4711-.1494.1347-.3265.2417-.5216.3147-.1951.0731-.4041.1105-.6153.1105-.2111 0-.4201-.0374-.6152-.1105-.1952-.073-.3724-.18-.5216-.3147-.1493-.1349-.2676-.2949-.3484-.4711-.0806-.1761-.1223-.3647-.1221-.5554-.0002-.1907.0415-.3796.1221-.5555.0808-.1762.1991-.3364.3484-.4711.1492-.1349.3264-.2419.5216-.3147.1951-.073.4041-.1105.6152-.1105.2112 0 .4202.0375.6153.1105.1951.0728.3722.1798.5216.3147.1492.1347.2675.2949.3484.4711.0806.1759.1223.3648.1221.5555z"/><path d="m39.1913 39.8135c.0002.1905-.0415.3793-.1221.5555-.0809.1762-.1992.3362-.3484.4711-.1494.1347-.3265.2417-.5216.3147s-.4041.1105-.6153.1105c-.2111 0-.4201-.0375-.6152-.1105-.1952-.073-.3724-.18-.5216-.3147-.1493-.1349-.2676-.2949-.3484-.4711-.0806-.1762-.1223-.365-.1221-.5555-.0002-.1907.0415-.3795.1221-.5557.0808-.1759.1991-.3361.3484-.4708.1492-.135.3264-.2419.5216-.3149.1951-.0729.4041-.1105.6152-.1105.2112 0 .4202.0376.6153.1105.1951.073.3722.1799.5216.3149.1492.1347.2675.2949.3484.4708.0806.1762.1223.365.1221.5557z"/><path d="m39.1913 54.5482c.0002.1907-.0415.3795-.1221.5555-.0809.1762-.1992.3363-.3484.4711-.1494.1349-.3265.2418-.5216.3147-.1951.073-.4041.1105-.6153.1105-.2111 0-.4201-.0375-.6152-.1105-.1952-.0729-.3724-.1798-.5216-.3147-.1493-.1348-.2676-.2949-.3484-.4711-.0806-.176-.1223-.3648-.1221-.5555-.0002-.1907.0415-.3793.1221-.5555.0808-.1762.1991-.3361.3484-.4711.1492-.1347.3264-.2418.5216-.3147.1951-.073.4041-.1105.6152-.1105.2112 0 .4202.0375.6153.1105.1951.0729.3722.18.5216.3147.1492.135.2675.2949.3484.4711.0806.1762.1223.3648.1221.5555z"/><path d="m43.2681 43.4971c.0002.1905-.0413.3793-.1221.5555-.0809.1762-.1992.3362-.3484.4711-.1492.1347-.3265.2416-.5216.3147-.1951.073-.4041.1105-.6153.1105-.2111 0-.4201-.0375-.6152-.1105-.1949-.0731-.3722-.18-.5214-.3147-.1495-.1349-.2678-.2949-.3486-.4711-.0806-.1762-.1221-.365-.1221-.5555 0-.1907.0415-.3795.1221-.5557.0808-.1759.1991-.3361.3486-.4708.1492-.135.3265-.2419.5214-.3149.1951-.0729.4041-.1105.6152-.1105.2112 0 .4202.0376.6153.1105.1951.073.3724.1799.5216.3149.1492.1347.2675.2949.3484.4708.0808.1762.1223.365.1221.5557z"/><path d="m43.2681 47.1807c.0002.1905-.0413.3793-.1221.5555-.0809.1762-.1992.3362-.3484.4711-.1492.1347-.3265.2416-.5216.3147-.1951.073-.4041.1105-.6153.1105-.2111 0-.4201-.0375-.6152-.1105-.1949-.0731-.3722-.18-.5214-.3147-.1495-.1349-.2678-.2949-.3486-.4711-.0806-.1762-.1221-.365-.1221-.5555 0-.1907.0415-.3795.1221-.5557.0808-.1759.1991-.3361.3486-.4708.1492-.135.3265-.2419.5214-.3149.1951-.0729.4041-.1105.6152-.1105.2112 0 .4202.0376.6153.1105.1951.073.3724.1799.5216.3149.1492.1347.2675.2949.3484.4708.0808.1762.1223.365.1221.5557z"/><path d="m43.2681 50.8644c.0002.1907-.0413.3793-.1221.5554-.0809.1762-.1992.3362-.3484.4711-.1492.1347-.3265.2417-.5216.3147-.1951.0731-.4041.1105-.6153.1105-.2111 0-.4201-.0374-.6152-.1105-.1949-.073-.3722-.18-.5214-.3147-.1495-.1349-.2678-.2949-.3486-.4711-.0806-.1761-.1221-.3647-.1221-.5554s.0415-.3796.1221-.5555c.0808-.1762.1991-.3364.3486-.4711.1492-.1349.3265-.2419.5214-.3147.1951-.073.4041-.1105.6152-.1105.2112 0 .4202.0375.6153.1105.1951.0728.3724.1798.5216.3147.1492.1347.2675.2949.3484.4711.0808.1759.1223.3648.1221.5555z"/><path d="m47.3469 47.1807c.0002.1905-.0412.3793-.122.5555-.0809.1762-.1992.3362-.3484.4711-.1492.1347-.3265.2416-.5216.3147-.1949.073-.4042.1105-.6153.1105s-.4201-.0375-.6152-.1105c-.195-.0731-.3722-.18-.5214-.3147-.1493-.1349-.2678-.2949-.3484-.4711-.0808-.1762-.1223-.365-.1223-.5555 0-.1907.0415-.3795.1223-.5557.0806-.1759.1991-.3361.3484-.4708.1492-.135.3264-.2419.5214-.3149.1951-.0729.4041-.1105.6152-.1105s.4204.0376.6153.1105c.1951.073.3724.1799.5216.3149.1492.1347.2675.2949.3484.4708.0808.1762.1222.365.122.5557z"/></g><path clip-rule="evenodd" d="m24.9081 20.3516c-.7729 5.384-6.6875 9.0143-6.6413 14.2137-.0483 2.7178 2.5114 6.8938 7.5607 6.7374 2.6828-.0324 4.8496-1.0441 6.2184-2.5341 2.5286-2.9536 1.7374-6.7366.1128-9.8729-1.8481-3.2662-5.0611-5.8481-7.2506-8.5441z" fill="#343133" fill-rule="evenodd"/><path clip-rule="evenodd" d="m28.0244 27.3657c-.1509 1.0504-1.3048 1.7587-1.2958 2.773-.0094.5303.4901 1.3451 1.4752 1.3146.5233-.0064.9461-.2038 1.213-.4945.4934-.5763.3191-1.3143.0021-1.9262-.3605-.6372-.9674-1.1411-1.3945-1.6669z" fill="#fff" fill-rule="evenodd"/></svg>