<svg width="40" height="40" viewBox="0 0 40 40" fill="none" xmlns="http://www.w3.org/2000/svg">
<rect width="40" height="40" rx="6" fill="#9BC332"/>
<path d="M16.0154 12.0154C15.8455 11.8455 15.615 11.75 15.3747 11.75C13.3728 11.75 11.75 13.3728 11.75 15.3747V17.0844C11.75 18.1787 12.0136 19.2569 12.5184 20.2277C14.1335 23.3337 16.6663 25.8665 19.7723 27.4816C20.7431 27.9864 21.8213 28.25 22.9156 28.25H25.3957C26.9721 28.25 28.25 26.9721 28.25 25.3957C28.25 24.6799 27.8923 24.0115 27.2967 23.6145C26.9831 23.4054 25.6597 22.5231 25.4906 22.4812C25.3326 22.4421 25.1674 22.4421 25.0094 22.4812C24.8403 22.5231 23.3972 23.5513 22.9443 23.7525C22.4914 23.9537 21.9799 23.9796 21.509 23.8251C21.3472 23.772 20.3741 23.3279 19.7177 22.8897C18.52 22.0902 17.8982 21.4877 17.1103 20.2823C16.7519 19.7339 16.3753 18.9311 16.3275 18.7987C16.1323 18.258 16.2048 17.4567 16.6103 16.9175C17.0159 16.3784 18.2127 15.2873 18.2868 15.059C18.3521 14.8582 18.3521 14.6418 18.2868 14.441C18.2345 14.2799 16.0154 12.0154 16.0154 12.0154Z" stroke="white" stroke-width="1.5" stroke-miterlimit="1.41421" stroke-linejoin="round"/>
</svg>
