<svg fill="none" height="33" viewBox="0 0 33 33" width="33" xmlns="http://www.w3.org/2000/svg"><circle cx="16.0588" cy="16.0588" fill="#f1f1f1" r="16.0588"/><path d="m15.1796 20.6471c-.0015-.0386-.0045-.0771-.0045-.1163 0-1.3139 0-2.6278 0-3.941v-.1259h-1.4105v-1.6317h1.4098c0-.0459 0-.0807 0-.1155.0015-.4266-.0089-.8547.0089-1.2806.0216-.514.1739-.985.5381-1.3694.2772-.2919.622-.457 1.0121-.5407.3166-.0674.6377-.0593.958-.0474.2601.0096.5202.0326.7795.0496.0201.0015.0409.0074.0654.0119v1.4553c-.0312 0-.0624 0-.0936 0-.3203.0045-.6414 0-.9609.0163-.3783.0193-.5916.2289-.6079.6081-.0164.3933-.006.788-.0067 1.1821 0 .0052.0037.0103.0104.0259h1.6059c-.0705.5488-.1404 1.085-.2103 1.6316h-1.4001c-.0029.0348-.0074.0608-.0074.086v4.0394c0 .0208.003.0415.0045.0623h-1.69z" fill="#222"/></svg>