<svg fill="none" height="170" viewBox="0 0 170 170" width="170" xmlns="http://www.w3.org/2000/svg"><g fill="#9bc332"><circle cx="84.3701" cy="85.3701" fill-opacity=".3" r="81.3701"/><path d="m169.98 142.788c-1.871 2.308-2.769 2.554-5.71 1.556-21.389-7.258-42.783-14.503-64.159-21.806-1.3895-.474-2.2379-.295-3.2984.766-8.9999 8.995-18.0747 17.92-27.1328 26.858-.5074.503-1.0356 1.015-1.6428 1.381-2.0379 1.227-4.554.033-4.9242-2.321-.0956-.595-.0582-1.214-.0582-1.822 0-11.786 0-23.572 0-35.355 0-.607 0-1.214 0-1.933-.5074-.2-.9981-.408-1.5014-.579-19.4013-6.587-38.8027-13.1791-58.21235-19.7378-1.73843-.5864-3.22732-1.3391-3.33545195-3.3936-.10397295-1.988 1.31006195-2.8739 2.85718195-3.6599 54.14912-27.4697 108.29442-54.9518 162.44342-82.43394.137-.070702.241-.203787.362-.30776h4.317v142.788zm-6.779-5.843v-121.582c-30.156 29.8736-60.703 60.1422-91.4459 90.602 24.6665 8.36 49.0629 16.627 73.6549 24.962v-1.988c0-9.902 0-19.805.008-29.7113 0-.7112.021-1.4515.191-2.1336.374-1.4764 1.734-2.5078 3.178-2.4163 1.518.0957 2.636.8526 3.048 2.3664.187.6779.208 1.4182.208 2.1294.012 10.8424 0 21.6884.033 32.5314 0 .561.246 1.493.612 1.626 3.456 1.272 6.962 2.412 10.518 3.61zm-8.679-123.1124c-.113-.1498-.225-.3036-.333-.4534-47.316 24.022-94.6362 48.0439-142.2433 72.2155.8026.3203 1.2892.5407 1.7924.7112 16.4278 5.5646 32.8638 11.1126 49.2749 16.7231 1.2934.441 2.0421.225 2.9778-.72 29.0459-29.1827 58.1252-58.3326 87.2042-87.4825.387-.3867.882-.6695 1.331-.9981zm-84.7674 126.5474c.1331.079.2662.158.4035.237 6.8331-7.07 13.6703-14.136 20.5242-21.227-6.7665-2.287-13.791-4.666-20.9235-7.078v28.068z"/><path d="m19.8477 154.005c-3.0028.016-4.6248-2.704-3.4228-4.862.316-.57.786-1.069 1.2476-1.535 7.694-7.71 15.3964-15.413 23.1112-23.107.5032-.503 1.0522-1.014 1.676-1.33 1.3808-.699 2.7241-.458 3.7929.644 1.019 1.052 1.2186 2.35.5698 3.673-.287.578-.7444 1.097-1.2061 1.563-7.7688 7.79-15.5419 15.584-23.3565 23.328-.786.777-1.859 1.26-2.4121 1.622z"/><path d="m88.9065 169.996c-3.0236-.021-4.6497-2.645-3.5185-4.75.3577-.665.915-1.247 1.4556-1.788 7.4237-7.444 14.8594-14.881 22.3044-22.304.503-.503 1.04-1.023 1.655-1.36 1.356-.749 2.679-.549 3.822.482 1.073.969 1.327 2.708.553 3.947-.374.603-.869 1.144-1.376 1.647-7.428 7.444-14.8517 14.889-22.3212 22.292-.8609.852-1.9962 1.43-2.5785 1.838z"/><path d="m14.3412 158.962c-.0333 1.797-1.518 3.219-3.323 3.186-1.79664-.033-3.21899-1.518-3.18572-3.323.03327-1.797 1.51801-3.219 3.32302-3.182 1.7966.034 3.219 1.518 3.1857 3.323z"/><path d="m152.022 85.0125c0 1.7176-1.58 3.2938-3.294 3.2897-1.717 0-3.293-1.5804-3.289-3.2939 0-1.7176 1.58-3.2939 3.294-3.2897 1.717 0 3.293 1.5804 3.289 3.2939z"/></g></svg>