<svg fill="none" height="33" viewBox="0 0 33 33" width="33" xmlns="http://www.w3.org/2000/svg"><circle cx="16.9411" cy="16.0588" fill="#f1f1f1" r="16.0588"/><g fill="#222"><path d="m20.6764 19.7108-3.0048-4.3653-.3397-.4937-2.1493-3.1226-.1782-.2587h-2.6411l.6441.936 2.8579 4.1524.3397.4932 2.2962 3.3363.1782.2585h2.6411l-.6441-.936zm-1.6831.3386-2.3856-3.4661-.3397-.4934-2.7682-4.0219h1.1907l2.2387 3.2526.3397.4934 2.9152 4.2354z"/><path d="m16.268 16.09.3398.4934-.4028.4687-3.09 3.5948h-.762l3.5123-4.088z"/><path d="m21.0025 11.4705-3.3309 3.875-.4027.4685-.3397-.4934.4027-.4688 2.2563-2.6261.6523-.7552z"/></g></svg>