<svg fill="none" height="56" viewBox="0 0 42 56" width="42" xmlns="http://www.w3.org/2000/svg"><path d="m16.3597 39.6667v-11.6667h9.3485v14l-2.3371-2.3333z" fill="#ffc107" stroke="#ffc107"/><path d="m25.4184 27.7244h-8.8324v11.4744h5.2478.1032c1.4141.0257 2.6218 1.3345 3.4814 2.3516v-2.3516-3.094zm-2.5101-26.973463.0129.012873.0086.008584 18.1847 17.142706c.5803.545.8769 1.2831.8769 2.0211h.0086v22.0218c0 1.5489-1.2593 2.8063-2.811 2.8063h-.1031-2.6647-8.2177-14.4069c-1.5387 0-2.7894-1.2444-2.7894-2.7848v-17.0441c0-1.5363 1.2464-2.785 2.7894-2.785h14.4069c1.5386 0 2.7892 1.2443 2.7892 2.785v14.259h5.4285v-18.0695l-15.4169-14.52955-15.42551 14.53385v29.2993h26.93991 3.9025 2.7809c1.5428 0 2.7937 1.2485 2.7937 2.7892v2.7762h-2.523l-.043.0042c-.1547.0045-.3138 0-.4813-.0042h-.6146-35.54449c-1.53869 0-2.78941-1.2443-2.78941-2.7848v-33.2729c0-.8668.395416-1.6392 1.01863-2.1498l18.07737-17.03117c1.0788-1.01269 2.7507-.999817 3.8123-.004293z" fill="#212427"/></svg>