<svg fill="none" height="22" viewBox="0 0 56 22" width="56" xmlns="http://www.w3.org/2000/svg"><path d="m50.921 0h-7.0904l-1.2589 7.09044h9.3333l4.0951-7.09044z" fill="#b2d234"/><path d="m7.0904 7.09045-1.24445 7.10495-1.25891 7.0904h7.10486l1.2445-7.0904 1.2589-7.10495z" fill="#50b748"/><path d="m21.2858 7.09045-1.2444 7.10495-1.2589 7.0904h7.1049l1.2444-7.0904 1.2445-7.10495z" fill="#7fc241"/><path d="m41.3271 14.1954 1.2445-7.10495h-7.0905l-1.2589 7.10495-.3907 2.2284c-.4775 2.6915 1.3313 4.862 4.0083 4.862h11.5617l4.0951-7.0904z" fill="#99ca3c"/><path d="m7.09044 7.09044h-7.09044l4.09509-7.09044h4.25426z" fill="#50b748"/><path d="m14.1954 7.09044h-7.10495l1.25892-7.09044h7.09043z" fill="#2ca449"/><path d="m21.2858 7.09044h-7.0905l1.2445-7.09044h7.1049z" fill="#7fc241"/><path d="m28.3762 7.09044h-7.0904l1.2589-7.09044h7.0904z" fill="#50b748"/><path d="m35.4811 7.09044h-7.1049l1.2589-7.09044h7.0905z" fill="#99ca3c"/><path d="m42.5715 7.09044h-7.0904l.3907-2.22842c.4775-2.67701 3.0387-4.86202 5.7302-4.86202h2.2284z" fill="#7fc241"/></svg>