<svg fill="none" height="56" viewBox="0 0 56 56" width="56" xmlns="http://www.w3.org/2000/svg"><path clip-rule="evenodd" d="m29.3081 30.0148c5.0117.7737 5.6891 3.739 6.0942 6.4989l.0676.4706.046.3203.2439 1.6242c.4775 3.1011 1.4735 9.5383 1.4735 12.8974 0 .8395-.0738 1.4839-.2087 1.8379-.2249.5456-.8801 1.0692-1.7849 1.5057-2.189.5388-4.4771.8302-6.834.8302-.2496 0-.4951-.0121-.7415-.0194-.9526-.2706-1.6685-.7222-2.0475-1.3395-1.1445-1.863-1.2135-6.0138-1.2364-10.8645l-.0026-.5626-.0093-1.4539c-.0373-5.1351-.0693-9.5626 1.7964-11.1514.7226-.6111 1.7493-.8134 3.1433-.5939zm-10.9266 11.1799c1.086-.0611 1.7844 5.2808 1.9248 9.3315.0983 2.8201-.1978 3.9802-.6706 4.3967-.5353-.1787-1.0614-.3721-1.5797-.5821-.3458-.6284-.6101-1.6168-.778-2.9114-.5127-4.0686-.0674-10.163 1.1035-10.2347zm27.2274 7.9828c-.0678.371-.1633.6576-.2811.8995-.9285.7451-1.9045 1.4292-2.9258 2.0447-.3254.0547-.6143.0166-.7555-.2221-1.3536-2.3784-1.8616-9.8398-.5518-10.4892 1.7079-.8249 4.7674 6.4771 4.5142 7.7671zm-17.6075-49.1775c15.249 0 27.6497 12.0761 27.9916 27.1028l.007.5194v.2401c-.028 6.7877-2.526 12.9978-6.6413 17.8043-.1492-.0749-.4215-.3201-.9149-1.058-.5104-.7419-4.9127-7.5168-4.9127-15.2819 0-1.5239 2.1966-3.9044 4.1403-5.9939 1.453-1.5724 2.8294-3.0555 3.3362-4.2212.6456-1.5041.1939-2.5544-.5204-2.9104-.6467-.3164-1.6174-.0856-2.2987 1.1243-1.1179 1.9583-1.4761 2.3242-3.1068 3.6344-1.6045 1.3096-4.1555 2.6278-4.1555.9214 0-.9214 1.4208-3.0081 2.1228-4.4707.7168-1.479-.0559-2.5497-1.536-2.5497-2.9066 0-4.836 3.7026-4.836 4.9853 0 1.2817.6218 1.4642.6218 2.9568 0 1.5038-3.189 3.4544-6.1931 3.4544-2.8922 0-4.5694-.5854-5.2643-2.2346l-.0887-.2315-.2009-.5944c-.7127-2.0826-1.2238-3.593-2.1137-5.1715-.4725-.8348-1.2016-1.4135-1.8321-1.9227-.8241-.6401-1.2516-1.2294-1.3408-1.669-.0823-.4361-.1265-1.2579 1.2822-3.1523 1.4058-1.88365 1.6028-3.30665.8993-4.0409-.255-.2612-.6897-.42856-1.2479-.42856-.9873 0-2.3593.52317-3.7733 1.9602-2.1979 2.25216-.9501 4.39046-.9501 5.32916 0 .9381-.4027 1.4687-1.7217 2.7449-1.3286 1.2819-1.7872 2.3809-1.9391 6.7979-.0582 2.2758-.4591 3.5859-.8189 4.7476-.3109 1.0181-.5968 1.9754-.6122 3.3584-.0247 1.5326.2304 2.5203.5282 3.6599.2923 1.0534.6027 2.2603.8016 4.2793.3164 3.1253.2064 5.7654-.3688 8.4637l-.1535.676-.0359.1943c-.1178.4742-.2578 1.0502-.4471 1.2659-7.08667-5.0335-11.708-13.254-11.708-22.5463 0-15.3206 12.5361-27.7429 28.0014-27.7429z" fill="#f14635" fill-rule="evenodd"/></svg>