<svg fill="none" height="33" viewBox="0 0 33 33" width="33" xmlns="http://www.w3.org/2000/svg"><circle cx="16.0588" cy="16.0588" fill="#222" r="16.0588"/><path d="m15.1796 20.6472c-.0015-.0385-.0045-.0771-.0045-.1163 0-1.3139 0-2.6278 0-3.941v-.1259h-1.4105v-1.6316h1.4098c0-.046 0-.0808 0-.1156.0015-.4266-.0089-.8547.0089-1.2806.0216-.514.1739-.985.5381-1.3694.2772-.2918.622-.457 1.0121-.5407.3166-.0674.6377-.0592.958-.0474.2601.0096.5202.0326.7795.0496.0201.0015.0409.0074.0654.0119v1.4554c-.0312 0-.0624 0-.0936 0-.3203.0044-.6414 0-.9609.0162-.3783.0193-.5916.2289-.6079.6081-.0164.3933-.006.7881-.0067 1.1821 0 .0052.0037.0104.0104.0259h1.6059c-.0705.5488-.1404 1.0851-.2103 1.6317h-1.4001c-.0029.0348-.0074.0607-.0074.0859v4.0395c0 .0207.003.0414.0045.0622h-1.69z" fill="#fff"/></svg>