<svg width="86" height="86" viewBox="0 0 86 86" fill="none" xmlns="http://www.w3.org/2000/svg">
<rect width="86" height="86" rx="32" fill="#9BC332"/>
<path d="M49.1524 19C50.965 20.0588 52.7776 21.1201 54.5927 22.1764C55.7378 22.8427 56.8878 23.5002 58.0329 24.1665C58.7504 24.584 58.8704 25.0378 58.4579 25.7591C58.0554 26.4641 57.6391 27.1604 57.2454 27.8692C56.9203 28.4555 56.4416 28.8005 55.7865 28.9318C55.6453 28.9605 55.4853 29.0768 55.4078 29.1993C55.109 29.6743 54.824 30.1593 54.5702 30.6594C54.5052 30.7881 54.5152 31.0206 54.5902 31.1444C55.2203 32.1732 55.249 33.2095 54.6415 34.2445C54.4702 34.5358 54.4815 34.6983 54.7215 34.9558C55.749 36.0609 56.1516 37.3772 55.9378 38.881C55.9153 39.0423 55.9265 39.2248 55.9803 39.3773C57.7591 44.4701 56.7416 48.9228 52.9514 52.748C52.9189 52.7805 52.8926 52.8193 52.8351 52.8905C53.5939 53.7843 54.2202 54.7844 54.424 55.9482C54.624 57.0932 54.6627 58.2658 54.7802 59.5009C54.9252 59.5009 55.1515 59.4959 55.379 59.5009C56.3753 59.5234 57.3841 59.4546 58.3629 59.5971C59.6342 59.7834 60.5355 60.9259 60.5618 62.2098C60.5868 63.4748 60.563 64.7411 60.5718 66.0062C60.5755 66.495 60.2818 66.7675 59.9155 67H25.6662C25.1587 66.7237 24.9837 66.3025 25.0012 65.7249C25.0362 64.6161 25.0062 63.5061 25.0124 62.3973C25.0224 60.7134 26.225 59.5096 27.9076 59.5009C29.2627 59.4934 30.6177 59.4996 32.0103 59.4996V56.0294C31.2215 56.0294 30.4302 56.0532 29.6414 56.0244C28.5001 55.9819 27.6463 55.4419 27.1575 54.4018C26.6763 53.378 26.8063 52.388 27.4838 51.4917C28.0013 50.8067 28.7176 50.4354 29.5739 50.4141C30.6802 50.3879 31.7878 50.3991 32.8953 50.4079C33.4916 50.4129 33.9041 50.8167 33.8966 51.3542C33.8891 51.8905 33.4779 52.2717 32.8703 52.2767C31.8878 52.2855 30.9052 52.2767 29.9227 52.2792C29.1951 52.2805 28.7651 52.6243 28.7576 53.2043C28.7501 53.7881 29.1839 54.1531 29.8989 54.1531C34.7492 54.1543 39.5982 54.1543 44.4484 54.1531C45.1635 54.1531 45.5985 53.7881 45.5935 53.2068C45.5873 52.628 45.1547 52.283 44.4309 52.2792C44.3059 52.2792 44.1809 52.2792 44.0572 52.2792C43.2146 52.2792 42.3733 52.283 41.5308 52.278C40.882 52.2742 40.4645 51.9105 40.4545 51.3579C40.4445 50.7867 40.8708 50.4166 41.5433 50.4029C42.9296 50.3754 44.3284 50.4579 45.6985 50.2929C48.9937 49.8966 51.5188 46.6202 51.1913 43.3075C51.1763 43.155 51.1375 43.005 51.1125 42.8687C51.0588 42.845 51.0313 42.83 51.0025 42.82C50.2237 42.5587 49.6862 42.69 49.2112 43.4925C48.7524 44.2663 47.8611 44.5201 46.9561 44.4713C46.6723 44.4563 46.5373 44.5388 46.411 44.7738C46.1623 45.2414 45.8923 45.6989 45.616 46.1514C45.021 47.1277 43.9847 47.4165 42.9946 46.8527C41.1258 45.7889 39.2632 44.7126 37.4081 43.625C36.4293 43.0513 36.1618 41.9974 36.708 40.9961C36.8205 40.7911 36.9306 40.5836 37.0606 40.3899C37.4743 39.7736 37.7456 39.2261 37.2468 38.4398C36.808 37.7485 36.9343 36.8834 37.3531 36.1509C39.0932 33.1032 40.837 30.0556 42.6121 27.0279C43.1621 26.0891 44.0559 25.6716 45.141 25.7329C45.4235 25.7491 45.5697 25.6666 45.686 25.4266C45.816 25.1603 45.9685 24.9053 46.1285 24.6553C46.431 24.1828 46.6561 23.7465 46.451 23.1152C46.3348 22.7589 46.4885 22.2439 46.6686 21.8739C47.0561 21.0764 47.5236 20.3151 47.9924 19.56C48.1349 19.34 48.3899 19.1863 48.5912 19C48.7787 19 48.9649 19 49.1524 19ZM26.885 65.0937H58.6967C58.6967 64.2649 58.6967 63.4686 58.6967 62.6735C58.6967 61.6547 58.4154 61.3772 57.3829 61.3772C47.6524 61.3772 37.9219 61.3772 28.1913 61.3772C28.0663 61.3772 27.9413 61.3722 27.8176 61.3797C27.2775 61.4135 26.9 61.7647 26.8888 62.301C26.87 63.2211 26.8838 64.1411 26.8838 65.0937H26.885ZM48.2099 41.6612C48.0999 41.5462 48.0036 41.4449 47.9074 41.3424C46.6086 39.9598 46.2785 37.931 47.0686 36.2059C48.0086 34.1558 50.22 33.0795 52.4164 33.592C52.5601 33.6258 52.7864 33.6383 52.8689 33.5545C53.3877 33.0307 53.2902 32.2582 52.6526 31.8857C50.2837 30.5043 47.9086 29.1318 45.5297 27.7667C44.9447 27.4304 44.4584 27.5792 44.1059 28.1692C43.8422 28.6118 43.5921 29.0618 43.3359 29.508C41.9271 31.9544 40.5145 34.3996 39.1082 36.8484C38.7656 37.4447 38.8494 37.9597 39.3807 38.2698C41.8021 39.6848 44.2309 41.0886 46.6661 42.4812C47.1473 42.7562 47.6186 42.6087 47.9274 42.15C48.0311 41.9962 48.1149 41.8287 48.2111 41.6599L48.2099 41.6612ZM54.634 41.5424C54.1827 41.8287 53.7427 42.15 53.2639 42.3975C53.0101 42.5287 52.9851 42.6687 53.0139 42.9087C53.4677 46.5802 51.3438 50.1954 47.8986 51.628C47.6599 51.728 47.4173 51.8217 47.2461 51.8905C47.3461 52.5417 47.4373 53.1293 47.5274 53.7143C52.9564 52.2692 56.0265 46.3014 54.634 41.5424ZM51.3438 40.9511C52.8914 40.9436 54.1239 39.6911 54.1189 38.136C54.1139 36.5909 52.8564 35.3321 51.3188 35.3334C49.79 35.3334 48.5162 36.6059 48.5099 38.1385C48.5037 39.6986 49.775 40.9599 51.3438 40.9524V40.9511ZM49.0599 59.4884C49.0599 58.9108 49.0649 58.382 49.0599 57.8533C49.0474 56.762 48.3274 56.0419 47.2311 56.0369C45.7973 56.0307 44.3634 56.0357 42.9284 56.0357C42.7471 56.0357 42.5658 56.0357 42.3783 56.0357V59.4896H49.0599V59.4884ZM33.9429 59.4746H40.4307V56.0657H33.9429V59.4746ZM55.5478 27.0604C55.8728 26.4941 56.1666 25.9841 56.4816 25.4366C54.0402 24.024 51.6263 22.6277 49.1924 21.2201C48.8687 21.7801 48.5762 22.2889 48.2574 22.8427C50.6938 24.2528 53.0989 25.6441 55.549 27.0617L55.5478 27.0604ZM44.911 43.645C43.0071 42.5425 41.142 41.4637 39.2407 40.3636C38.9269 40.9086 38.6269 41.4287 38.3056 41.9862C40.2095 43.0875 42.0771 44.1676 43.9759 45.2664C44.2872 44.7263 44.5872 44.2051 44.911 43.645ZM47.1948 26.5591C49.1062 27.6642 50.965 28.7393 52.8664 29.8381C53.1814 29.2918 53.4802 28.7718 53.8002 28.2155C51.8926 27.1129 50.0262 26.0329 48.1299 24.9366C47.8061 25.4991 47.5111 26.0091 47.1948 26.5579V26.5591ZM52.7651 59.4809C53.0239 57.0907 52.4414 54.9744 51.2913 54.0818C50.755 54.3793 50.2187 54.6781 49.63 55.0056C51.1075 56.2044 50.9575 57.8558 50.925 59.4809H52.7651Z" fill="#FFFEEB"/>
<path d="M38.1081 51.3406C38.1106 51.8581 37.6731 52.2906 37.1581 52.2806C36.6593 52.2706 36.2468 51.8518 36.2443 51.3518C36.2418 50.833 36.6768 50.403 37.1943 50.413C37.6931 50.423 38.1056 50.843 38.1081 51.3418V51.3406Z" fill="#FFFEEB"/>
</svg>
