<svg width="86" height="86" viewBox="0 0 86 86" fill="none" xmlns="http://www.w3.org/2000/svg">
<rect width="86" height="86" rx="32" fill="#9BC332"/>
<path d="M67 53.5541C66.955 53.6816 66.9013 53.8066 66.865 53.9366C66.5113 55.179 65.7576 56.0939 64.5789 56.6251C63.5415 57.0926 62.4866 57.5213 61.4342 57.9563C60.8392 58.2012 60.3005 58.005 60.0968 57.495C59.8893 56.9726 60.1243 56.4901 60.7292 56.2301C61.7317 55.8002 62.7441 55.3915 63.7428 54.949C64.6902 54.529 65.2276 53.6066 65.1101 52.6642C64.9852 51.663 64.219 50.8343 63.1928 50.7068C62.7941 50.6568 62.3391 50.7243 61.9641 50.8756C58.4194 52.3005 54.8434 53.6579 51.3737 55.2465C49.9976 55.8777 48.6714 56.1052 47.2253 56.0589C46.6791 56.0414 46.1316 56.0564 45.5854 56.0564C44.4455 56.0564 43.3044 56.0589 42.1644 56.0539C41.9782 56.0539 41.787 56.0464 41.6082 56.0014C41.1495 55.8852 40.8883 55.4915 40.9295 55.0177C40.9683 54.5803 41.2958 54.2466 41.7495 54.1991C41.9357 54.1803 42.1244 54.1853 42.3107 54.1853C44.4818 54.1853 46.6541 54.1916 48.8252 54.1816C49.8751 54.1766 50.6763 53.4441 50.8313 52.3867C50.9638 51.4843 50.36 50.5343 49.4439 50.2556C49.1814 50.1756 48.8902 50.1581 48.6127 50.1581C45.7067 50.1519 42.8006 50.1669 39.8946 50.1481C38.551 50.1394 37.4361 50.5993 36.5024 51.5618C35.6112 52.4804 34.6888 53.3691 33.7788 54.2678C33.6351 54.4103 33.4989 54.6003 33.3226 54.6628C32.7502 54.8653 32.7689 55.3015 32.7727 55.7814C32.7864 57.7925 32.7789 59.8024 32.7789 61.851C32.9114 61.866 33.0289 61.8897 33.1451 61.891C36.9573 61.8922 40.7695 61.891 44.5805 61.891C46.5966 61.891 48.5039 61.4185 50.3413 60.6136C51.1975 60.2386 52.0624 59.8811 52.9261 59.5224C53.5523 59.2624 54.0923 59.4424 54.301 59.9699C54.506 60.4873 54.271 60.9823 53.6623 61.2323C51.7174 62.0309 49.8438 63.0421 47.749 63.4058C46.5853 63.6071 45.3954 63.7333 44.2155 63.7483C40.6071 63.7921 36.9973 63.7646 33.3889 63.7646H32.7764C32.7764 64.312 32.7764 64.8207 32.7764 65.3294C32.7752 66.2681 32.4789 66.5706 31.5553 66.5706C27.7743 66.5706 23.9934 66.5631 20.2137 66.5806C19.6487 66.5831 19.2475 66.4119 19 65.9044C19 65.7169 19 65.5307 19 65.3432C19.2575 65.1382 19.4975 64.9007 19.7812 64.7395C19.9262 64.657 20.1474 64.702 20.3336 64.7007C21.4986 64.6982 22.6635 64.7007 23.8496 64.7007V52.9242C22.5697 52.5817 21.3111 52.228 20.0412 51.9142C19.5912 51.803 19.2437 51.6018 19 51.2143V50.6531C19.42 49.9794 19.6787 49.8794 20.4799 50.0894C21.0373 50.2356 21.6023 50.3644 22.1498 50.5418C23.9946 51.138 25.8732 51.3955 27.8156 51.288C28.983 51.2243 30.1579 51.2755 31.329 51.2768C32.4777 51.2768 32.6502 51.4193 32.8427 52.6417C33.7001 51.7642 34.5025 50.9418 35.305 50.1206C36.2399 49.1645 37.3686 48.5682 38.6897 48.3608C39.0884 48.2983 39.4984 48.2858 39.9034 48.2858C42.7619 48.2795 45.6217 48.3433 48.4777 48.2645C51.08 48.1933 52.8774 50.2169 52.7174 52.4942C52.7149 52.5229 52.7336 52.5517 52.7599 52.6329C53.0461 52.5179 53.3298 52.408 53.611 52.2917C56.0746 51.2743 58.5644 50.3156 60.9942 49.2207C63.764 47.9733 66.5288 49.7007 66.9288 52.1692C66.9388 52.2267 66.9738 52.2817 66.9975 52.3367V53.5529L67 53.5541ZM30.8791 64.7007V53.1854H25.7757V64.6832C25.907 64.6895 26.012 64.7007 26.1182 64.7007C27.6931 64.7007 29.2692 64.7007 30.8791 64.7007Z" fill="#FFFEEB"/>
<path d="M37.6998 21.2615C38.1848 21.4378 38.5247 21.114 38.9072 20.7203C41.2095 18.3468 45.0717 18.4443 47.2878 20.9203C47.5303 21.1915 47.7578 21.2903 48.1202 21.274C51.7087 21.1153 54.4535 23.9638 54.196 27.5423C54.1847 27.6935 54.2772 27.9023 54.3922 28.006C57.1858 30.5271 57.1795 34.3568 54.3747 36.9003C54.2685 36.9966 54.1772 37.189 54.1922 37.324C54.5722 40.6663 51.7324 43.9023 48.0052 43.6235C47.7278 43.6023 47.5553 43.676 47.369 43.8873C45.0105 46.5646 40.992 46.5646 38.631 43.8885C38.4447 43.6785 38.2735 43.6085 37.996 43.6223C34.3088 43.8023 31.5715 41.005 31.8077 37.3265C31.8165 37.1865 31.734 36.9953 31.6278 36.9016C28.823 34.3905 28.8142 30.5046 31.6053 28.0073C31.7278 27.8985 31.8127 27.6648 31.7977 27.4998C31.499 24.1513 34.2063 21.2303 37.6973 21.2615H37.6998ZM37.571 23.1076C35.0525 23.1226 33.2326 25.4012 33.7613 27.8948C33.8913 28.5097 33.7826 28.7859 33.2726 29.1284C30.7753 30.8058 30.7703 34.088 33.2639 35.7604C33.7813 36.1079 33.8926 36.3804 33.7638 36.9878C33.1614 39.8376 35.5125 42.2186 38.3922 41.6762C39.0897 41.545 39.3284 41.6449 39.7246 42.2361C41.317 44.6122 44.6792 44.6172 46.2716 42.2461C46.6816 41.6349 46.8978 41.5412 47.5953 41.6737C50.5038 42.2249 52.8324 39.8563 52.2249 36.9578C52.1199 36.4553 52.2537 36.0829 52.6849 35.7917C55.2459 34.063 55.2509 30.8508 52.7011 29.1122C52.2224 28.7859 52.1299 28.501 52.2287 27.9085C52.2949 27.5123 52.3599 27.0998 52.3199 26.7049C52.0737 24.2725 50.0038 22.7714 47.5665 23.2301C46.9266 23.3501 46.6791 23.2264 46.2954 22.7052C46.0391 22.3564 45.7629 22.0027 45.4304 21.7327C43.6393 20.2829 41.027 20.7141 39.7309 22.6477C39.3172 23.2651 39.0884 23.3551 38.3572 23.2164C38.0985 23.1664 37.8335 23.1439 37.571 23.1089V23.1076Z" fill="#FFFEEB"/>
<path d="M57.247 59.6423C56.7145 59.6448 56.2933 59.2236 56.3008 58.6986C56.3083 58.1949 56.7308 57.78 57.232 57.785C57.727 57.79 58.1582 58.2199 58.1607 58.7136C58.1632 59.2186 57.7482 59.6411 57.247 59.6436V59.6423Z" fill="#FFFEEB"/>
<path d="M35.0263 32.4268C35.0325 27.9709 38.5847 24.4374 43.0444 24.4524C47.469 24.4674 50.9838 28.0184 50.9763 32.4643C50.9688 36.9177 47.4115 40.4587 42.9569 40.4449C38.5422 40.4312 35.02 36.8702 35.0263 32.4256V32.4268ZM49.1064 32.4518C49.1077 29.0208 46.4079 26.326 42.9831 26.3423C39.5671 26.3585 36.8999 29.0308 36.8961 32.4406C36.8936 35.8653 39.6021 38.5701 43.0181 38.5538C46.4304 38.5376 49.1027 35.8578 49.1052 32.4518H49.1064Z" fill="#FFFEEB"/>
<path d="M41.9507 33.1545C42.9706 32.1345 43.9268 31.1784 44.883 30.2234C45.0267 30.0797 45.1642 29.931 45.3167 29.7972C45.7529 29.4123 46.2841 29.4173 46.6553 29.8022C47.0166 30.1759 47.0316 30.6934 46.6428 31.1021C46.0091 31.7671 45.3479 32.407 44.698 33.057C44.0705 33.6844 43.4431 34.3144 42.8119 34.9393C42.2232 35.5218 41.7432 35.5255 41.1658 34.9531C40.5908 34.3819 40.0146 33.8132 39.4471 33.2357C38.9834 32.7645 38.9572 32.237 39.3597 31.8346C39.7521 31.4421 40.3033 31.4721 40.7683 31.9171C40.9708 32.1108 41.1695 32.3083 41.3632 32.5108C41.5457 32.702 41.7195 32.902 41.9507 33.1557V33.1545Z" fill="#FFFEEB"/>
</svg>
