<svg fill="none" height="33" viewBox="0 0 33 33" width="33" xmlns="http://www.w3.org/2000/svg"><circle cx="16.5002" cy="16.0588" fill="#f1f1f1" r="16.0588"/><g fill="#222"><path d="m21.0879 15.073v1.9715c-.0039.0473-.0107.0944-.0113.1417-.0059.4504-.0161.9001-.1132 1.3433-.2533 1.1558-1.1204 1.9353-2.3008 2.0459-.3944.0369-.7919.0397-1.188.0589-.0384.0018-.0764.0085-.1146.0128h-1.7205c-.0471-.0045-.0941-.0104-.1414-.0133-.4404-.0256-.8868-.0135-1.32-.0832-1.0282-.1654-1.7353-.7432-2.0677-1.7453-.1375-.4141-.1712-.8454-.1819-1.2791-.0036-.1487-.0111-.2973-.0169-.4459v-2.0432c.0056-.1306.0075-.2616.0172-.3921.0221-.2941.0273-.5913.0762-.8811.1898-1.1226.8235-1.8639 1.9371-2.1503.2937-.0756.607-.0799.9122-.105.261-.0215.5233-.026.7852-.038h1.7205c.0472.0045.0941.0104.1415.0132.4374.0253.8807.0137 1.3112.0819 1.0602.1682 1.7732.7698 2.0944 1.8065.1236.3989.1537.8127.1638 1.2282.0037.1577.0113.3152.017.4728zm-4.6638-2.9034c-.6454.0276-1.3673.0268-2.082.0982-.7313.0727-1.2548.4746-1.5198 1.1773-.1271.3368-.168.6909-.1719 1.0467-.0099.8929-.0158 1.7861-.007 2.679.0036.3721.0229.7476.0792 1.1148.1414.9216.8451 1.546 1.7722 1.5874.6473.0288 1.2954.0561 1.9431.0527.7372-.004 1.4774-.0081 2.2104-.076.7588-.0703 1.2902-.4934 1.5465-1.2279.1144-.3276.1517-.6701.1549-1.0139.0088-.8929.0147-1.7861.0059-2.679-.0036-.3662-.0233-.7355-.0787-1.0969-.1416-.9215-.8434-1.5436-1.7721-1.5875-.6682-.0316-1.3369-.0486-2.0803-.0746z"/><path d="m14.2417 16.0529c.0025-1.2339 1.0107-2.2372 2.2455-2.2345 1.234.0027 2.2376 1.0111 2.2348 2.2456-.0029 1.234-1.0114 2.2375-2.2459 2.2348-1.2338-.0027-2.2369-1.011-2.2344-2.2459zm3.7634.0054c0-.8384-.6831-1.5221-1.5213-1.523-.8388-.0009-1.5238.6812-1.5252 1.5187-.0014.8431.683 1.5286 1.5256 1.5279.8377-.0009 1.521-.6854 1.521-1.5236z"/><path d="m18.9729 14.1764c-.2979 0-.5391-.2432-.5373-.542.0017-.2939.2426-.5328.5371-.5328.2979 0 .5396.2435.5375.5418-.002.2935-.2434.533-.5375.533z"/></g></svg>