<svg width="160" height="37" viewBox="0 0 160 37" fill="none" xmlns="http://www.w3.org/2000/svg">
<path d="M0 32.4198L3.58638 25.6327C5.91415 27.8319 8.38401 28.9281 11.0027 28.9281C12.4914 28.9281 13.5741 28.5559 14.2508 27.8116C14.7989 27.2635 15.0763 26.5868 15.0763 25.7748C15.0763 24.9966 14.7718 24.3538 14.1561 23.8327C13.6418 23.3794 12.2478 22.8177 9.98773 22.1343L7.80884 21.4576C5.64348 20.7809 4.09389 19.908 3.15331 18.8389C1.92853 17.5126 1.31275 15.6111 1.31275 13.121C1.31275 9.89322 2.3007 7.28802 4.26982 5.3189C6.30662 3.2821 9.06745 2.26709 12.5591 2.26709C15.8883 2.26709 19.2108 3.14 22.5401 4.88582L19.1973 11.4293C17.3567 9.97442 15.5162 9.25038 13.6756 9.25038C12.5117 9.25038 11.5915 9.57519 10.9148 10.218C10.3667 10.7661 10.0892 11.3481 10.0892 11.9639C10.0892 12.5458 10.2313 13.033 10.5223 13.4187C10.9757 13.9668 11.9095 14.454 13.3305 14.8736L15.9019 15.6517C18.6153 16.4908 20.5709 17.56 21.7687 18.8524C23.1558 20.3411 23.8528 22.2629 23.8528 24.6177C23.8528 28.0078 22.8378 30.7213 20.801 32.7581C18.6018 34.9573 15.4214 36.0535 11.2531 36.0535C8.95919 36.0535 6.84119 35.6949 4.9059 34.9911C3.24804 34.4092 1.61725 33.5498 0 32.4198Z" fill="white"/>
<path d="M45.1613 15.7463V13.6689H52.916V35.3293H45.1613V32.9542C43.6726 35.018 41.4328 36.0533 38.4284 36.0533C35.3901 36.0533 32.7917 34.9098 30.6263 32.6158C28.5557 30.4166 27.5272 27.7708 27.5272 24.6717C27.5272 21.1191 28.6437 18.2229 30.8699 15.9967C32.9067 13.9599 35.5052 12.9449 38.672 12.9449C41.3178 12.9381 43.4832 13.8787 45.1613 15.7463ZM40.4111 19.5289C39.1186 19.5289 37.9886 19.9958 37.0209 20.9364C35.9856 21.9379 35.4713 23.1153 35.4713 24.4754C35.4713 25.8964 35.9721 27.0739 36.9736 28.0144C38.0089 28.9821 39.1727 29.4693 40.4652 29.4693C41.7915 29.4693 42.9554 28.9685 43.9568 27.9671C44.9245 26.9994 45.4117 25.8355 45.4117 24.4754C45.4117 23.0882 44.911 21.9108 43.9095 20.9364C42.9012 19.9958 41.7374 19.5289 40.4111 19.5289Z" fill="white"/>
<path d="M58.2482 35.3292V13.6688H66.0029V16.3823C67.6202 14.2508 69.9141 13.1816 72.8847 13.1816C75.5982 13.1816 77.7297 13.9598 79.2793 15.5094C80.1184 16.3485 80.6665 17.2214 80.9304 18.1281C81.1875 19.0349 81.3161 20.1785 81.3161 21.5657V35.3292H73.5614V24.3739C73.5614 22.2423 73.2366 20.8348 72.5938 20.1582C72.0118 19.5424 71.1863 19.2379 70.1239 19.2379C68.96 19.2379 68.0059 19.5762 67.2616 20.2529C66.4225 21.0311 66.0029 22.1747 66.0029 23.6904V35.3225H58.2482V35.3292Z" fill="white"/>
<path d="M111.117 0V35.3292H103.362V32.9541C101.745 35.018 99.5661 36.0533 96.8187 36.0533C93.8143 36.0533 91.2768 35.0518 89.2129 33.0488C86.8851 30.7887 85.7213 27.9129 85.7213 24.4212C85.7213 20.9363 86.8987 18.074 89.2603 15.8477C91.2971 13.9057 93.8481 12.938 96.9135 12.938C99.4646 12.938 101.616 13.8719 103.355 15.7462V0H111.117ZM98.6119 29.4625C99.8367 29.4625 100.953 29.0294 101.955 28.1565C103.051 27.155 103.599 25.9302 103.599 24.4754C103.599 23.1829 103.112 22.019 102.144 20.9837C101.237 20.0161 100.06 19.5289 98.6052 19.5289C97.2518 19.5289 96.1015 19.9958 95.1677 20.9363C94.1662 21.9378 93.6654 23.1626 93.6654 24.6175C93.6654 25.8761 94.1662 27.0061 95.1677 28.0076C96.1421 28.9753 97.2857 29.4625 98.6119 29.4625Z" fill="white"/>
<path d="M131.228 21.004L131.045 21.2341C131.004 21.1461 130.95 21.0649 130.896 20.9905C130.801 20.8552 130.707 20.7334 130.598 20.6116C130.592 20.6048 130.592 20.598 130.585 20.598L130.801 20.4424L130.815 20.4627C130.822 20.4695 130.828 20.4762 130.828 20.4762C130.91 20.571 130.984 20.6725 131.059 20.774C131.072 20.7943 131.092 20.8213 131.106 20.8416L131.228 21.004Z" fill="white"/>
<path d="M157.239 16.5582C155.216 14.0138 152.387 12.7417 148.774 12.7417C146.757 12.7417 144.734 13.2289 142.995 14.2507C141.358 15.2183 139.855 16.6461 138.691 18.1077C136.228 21.2137 134.049 23.7241 132.236 25.8151C131.451 26.7354 131.214 27.0534 130.233 27.7571C129.035 28.6233 127.973 28.8466 126.965 28.5759C126.119 28.5421 125.293 28.2849 124.603 27.8113C123.344 26.9248 122.803 25.3955 122.803 23.9001C122.803 22.7768 123.108 21.4844 123.886 20.6385C124.623 19.8265 125.652 19.2919 126.748 19.1701C127.262 19.1092 127.797 19.1431 128.311 19.2716C128.325 19.2716 128.332 19.2716 128.345 19.2784C129.82 19.5626 129.983 19.5491 130.585 20.5911C130.592 20.5979 130.592 20.6047 130.598 20.6047C130.707 20.7265 130.801 20.8483 130.896 20.9836L131.065 20.7671L134.821 15.9018C132.906 13.7973 130.341 12.7417 127.141 12.7417C123.588 12.762 120.793 13.9935 118.723 16.4431C117.031 18.5273 116.172 21.0242 116.172 23.9339C116.172 26.7489 116.99 29.1646 118.614 31.2014C120.644 33.7525 123.487 35.0382 127.147 35.0382C129.556 35.0382 131.877 34.4021 133.637 32.7307C135.403 31.0525 136.885 29.0293 138.164 26.9587C138.543 28.5218 139.24 29.936 140.248 31.2014C142.278 33.7525 145.12 35.0382 148.781 35.0382C152.306 35.0382 155.094 33.8134 157.138 31.3841C158.877 29.3338 159.743 26.8572 159.743 23.9339C159.736 21.0716 158.904 18.6152 157.239 16.5582ZM145.221 21.1189C146.006 19.84 147.197 19.1972 148.774 19.1972C149.965 19.1972 150.953 19.5964 151.731 20.3814C152.604 21.2813 153.044 22.4588 153.044 23.9068C153.044 24.9219 152.8 25.8421 152.32 26.6542C151.535 27.9534 150.344 28.603 148.767 28.603C147.556 28.603 146.554 28.2037 145.763 27.4053C144.897 26.4917 144.47 25.3279 144.47 23.9068C144.484 22.8648 144.721 21.9377 145.221 21.1189Z" fill="white"/>
<path d="M151.927 20.192C151.095 19.3529 150.039 18.9266 148.774 18.9266C147.103 18.9266 145.83 19.6168 144.991 20.9769C144.477 21.8228 144.213 22.804 144.213 23.9069C144.213 25.3956 144.673 26.6339 145.58 27.5881C146.419 28.4339 147.495 28.867 148.774 28.867C150.445 28.867 151.717 28.17 152.557 26.7896C153.057 25.9437 153.314 24.9693 153.314 23.9069C153.314 22.398 152.847 21.1461 151.927 20.192ZM148.774 28.3324C147.644 28.3324 146.697 27.9602 145.966 27.2159C145.147 26.3565 144.748 25.2738 144.748 23.9069C144.748 22.8987 144.978 22.0325 145.451 21.2611C146.189 20.0499 147.278 19.4612 148.774 19.4612C149.89 19.4612 150.817 19.8334 151.542 20.5642C152.36 21.41 152.78 22.5401 152.78 23.9069C152.78 24.8746 152.55 25.7543 152.096 26.5189C151.366 27.7234 150.242 28.3324 148.774 28.3324ZM151.927 20.192C151.095 19.3529 150.039 18.9266 148.774 18.9266C147.103 18.9266 145.83 19.6168 144.991 20.9769C144.477 21.8228 144.213 22.804 144.213 23.9069C144.213 25.3956 144.673 26.6339 145.58 27.5881C146.419 28.4339 147.495 28.867 148.774 28.867C150.445 28.867 151.717 28.17 152.557 26.7896C153.057 25.9437 153.314 24.9693 153.314 23.9069C153.314 22.398 152.847 21.1461 151.927 20.192ZM148.774 28.3324C147.644 28.3324 146.697 27.9602 145.966 27.2159C145.147 26.3565 144.748 25.2738 144.748 23.9069C144.748 22.8987 144.978 22.0325 145.451 21.2611C146.189 20.0499 147.278 19.4612 148.774 19.4612C149.89 19.4612 150.817 19.8334 151.542 20.5642C152.36 21.41 152.78 22.5401 152.78 23.9069C152.78 24.8746 152.55 25.7543 152.096 26.5189C151.366 27.7234 150.242 28.3324 148.774 28.3324ZM157.449 16.3891C155.385 13.7974 152.462 12.4779 148.774 12.4779C146.629 12.4779 144.585 13.0125 142.86 14.0207C141.33 14.9207 139.774 16.3146 138.482 17.9454C136.12 20.916 134.083 23.2776 132.033 25.646L131.823 25.8896C131.322 26.4715 131.065 26.7828 130.544 27.1956C129.901 27.8046 129.11 28.2444 128.25 28.4542C127.831 28.5557 127.404 28.6031 126.971 28.576C126.126 28.5422 125.3 28.285 124.61 27.8114C123.351 26.9249 122.81 25.3956 122.81 23.9002C122.81 22.7769 123.114 21.4844 123.893 20.6386C124.63 19.8266 125.659 19.292 126.755 19.1702C127.269 19.1093 127.804 19.1431 128.318 19.2717C129.11 19.4544 129.868 19.8469 130.429 20.4221C130.483 20.4694 130.537 20.5303 130.592 20.5912C130.598 20.598 130.598 20.6048 130.605 20.6048C130.713 20.7266 130.808 20.8484 130.903 20.9837C130.957 21.0649 131.011 21.1461 131.052 21.2273L131.234 20.9972L135.179 15.8816L135.031 15.7124C133.075 13.5538 130.422 12.4644 127.147 12.4644C123.534 12.4914 120.631 13.7703 118.52 16.2673C116.787 18.3988 115.908 20.9769 115.908 23.9205C115.908 26.776 116.747 29.2797 118.405 31.3571C120.482 33.9691 123.426 35.2954 127.141 35.2954C129.908 35.2954 132.155 34.4969 133.813 32.9203C135.274 31.5398 136.668 29.794 138.055 27.6151C138.461 28.9685 139.125 30.2339 140.031 31.3639C142.109 33.9759 145.052 35.3022 148.767 35.3022C152.354 35.3022 155.236 34.0435 157.327 31.5601C159.093 29.4692 160 26.9046 160 23.934C160.007 21.0378 159.147 18.4935 157.449 16.3891ZM130.822 20.4559L130.808 20.4356V20.4288C130.199 19.3867 129.942 19.3055 128.582 19.0484L128.419 19.0146L128.352 19.001C127.824 18.8792 127.262 18.8386 126.721 18.9063C125.584 19.0349 124.481 19.5965 123.69 20.4627C122.952 21.2611 122.539 22.513 122.539 23.9002C122.539 25.6731 123.236 27.1753 124.454 28.0211C125.165 28.5219 126.024 28.8061 126.938 28.8399C128.054 29.1241 129.184 28.8467 130.395 27.9738C131.309 27.3174 131.593 26.979 132.236 26.2347L132.446 25.9911C134.496 23.6295 136.54 21.2544 138.908 18.2838C140.167 16.6936 141.669 15.3538 143.137 14.4876C144.782 13.52 146.737 13.0125 148.781 13.0125C150.54 13.0125 152.117 13.3237 153.49 13.9463C154.871 14.5688 156.062 15.4959 157.036 16.7274C158.653 18.7371 159.472 21.1596 159.472 23.934C159.472 26.776 158.613 29.2256 156.928 31.215C154.938 33.5766 152.191 34.7676 148.774 34.7676C145.228 34.7676 142.427 33.509 140.451 31.0323C139.47 29.8008 138.786 28.4136 138.421 26.8978L138.265 26.2685L137.927 26.8166C136.452 29.2053 134.983 31.0797 133.447 32.5346C131.884 34.0165 129.759 34.7676 127.134 34.7676C123.581 34.7676 120.787 33.509 118.811 31.0323C117.227 29.0497 116.429 26.661 116.429 23.934C116.429 21.1123 117.268 18.6559 118.919 16.6191C120.949 14.2102 123.635 13.0328 127.134 13.0125C130.165 13.0125 132.628 13.9936 134.469 15.9154L130.896 20.5506C130.876 20.5236 130.856 20.5033 130.828 20.4762C130.828 20.4694 130.828 20.4627 130.822 20.4559ZM148.774 28.867C150.445 28.867 151.717 28.17 152.557 26.7896C153.057 25.9437 153.314 24.9693 153.314 23.9069C153.314 22.398 152.847 21.1461 151.927 20.192C151.095 19.3529 150.039 18.9266 148.774 18.9266C147.103 18.9266 145.83 19.6168 144.991 20.9769C144.477 21.8228 144.213 22.804 144.213 23.9069C144.213 25.3956 144.673 26.6339 145.58 27.5881C146.419 28.4407 147.495 28.867 148.774 28.867ZM148.774 19.4679C149.89 19.4679 150.817 19.8401 151.542 20.5709C152.36 21.4168 152.78 22.5468 152.78 23.9137C152.78 24.8814 152.55 25.761 152.096 26.5257C151.366 27.7234 150.249 28.3392 148.781 28.3392C147.651 28.3392 146.703 27.967 145.972 27.2227C145.154 26.3633 144.754 25.2806 144.754 23.9137C144.754 22.9055 144.985 22.0393 145.458 21.2679C146.189 20.0567 147.278 19.4679 148.774 19.4679ZM151.927 20.192C151.095 19.3529 150.039 18.9266 148.774 18.9266C147.103 18.9266 145.83 19.6168 144.991 20.9769C144.477 21.8228 144.213 22.804 144.213 23.9069C144.213 25.3956 144.673 26.6339 145.58 27.5881C146.419 28.4339 147.495 28.867 148.774 28.867C150.445 28.867 151.717 28.17 152.557 26.7896C153.057 25.9437 153.314 24.9693 153.314 23.9069C153.314 22.398 152.847 21.1461 151.927 20.192ZM148.774 28.3324C147.644 28.3324 146.697 27.9602 145.966 27.2159C145.147 26.3565 144.748 25.2738 144.748 23.9069C144.748 22.8987 144.978 22.0325 145.451 21.2611C146.189 20.0499 147.278 19.4612 148.774 19.4612C149.89 19.4612 150.817 19.8334 151.542 20.5642C152.36 21.41 152.78 22.5401 152.78 23.9069C152.78 24.8746 152.55 25.7543 152.096 26.5189C151.366 27.7234 150.242 28.3324 148.774 28.3324ZM151.927 20.192C151.095 19.3529 150.039 18.9266 148.774 18.9266C147.103 18.9266 145.83 19.6168 144.991 20.9769C144.477 21.8228 144.213 22.804 144.213 23.9069C144.213 25.3956 144.673 26.6339 145.58 27.5881C146.419 28.4339 147.495 28.867 148.774 28.867C150.445 28.867 151.717 28.17 152.557 26.7896C153.057 25.9437 153.314 24.9693 153.314 23.9069C153.314 22.398 152.847 21.1461 151.927 20.192ZM148.774 28.3324C147.644 28.3324 146.697 27.9602 145.966 27.2159C145.147 26.3565 144.748 25.2738 144.748 23.9069C144.748 22.8987 144.978 22.0325 145.451 21.2611C146.189 20.0499 147.278 19.4612 148.774 19.4612C149.89 19.4612 150.817 19.8334 151.542 20.5642C152.36 21.41 152.78 22.5401 152.78 23.9069C152.78 24.8746 152.55 25.7543 152.096 26.5189C151.366 27.7234 150.242 28.3324 148.774 28.3324Z" fill="white"/>
</svg>
