<svg width="138" height="248" viewBox="0 0 138 248" fill="none" xmlns="http://www.w3.org/2000/svg">
<path d="M-176.877 95.8207C-179.944 92.1574 -182.191 88.6573 -185.188 85.9973C-199.328 73.4673 -215.809 70.1072 -233.577 75.9639C-251.042 81.7273 -261.647 93.9774 -264.924 112.387C-266.773 122.748 -266.329 132.898 -263.168 142.838C-254.179 171.188 -221.521 183.368 -194.576 167.758C-186.312 162.974 -178.633 156.348 -172.382 149.114C-145.788 118.337 -119.896 86.954 -93.5828 55.9205C-73.6136 32.3537 -50.6479 12.707 -19.8163 5.03025C18.132 -4.4198 54.746 -1.45646 87.4504 21.667C115.964 41.8038 131.649 70.3639 136.449 104.617C140.475 133.411 136.94 161.318 122.59 187.031C102.222 223.501 70.8758 243.591 29.1115 247.301C3.9921 249.541 -20.3548 246.601 -43.063 235.075C-69.2359 221.798 -86.9576 200.798 -97.9605 173.918C-98.8501 171.771 -99.6461 169.578 -100.512 167.408C-100.582 167.268 -100.77 167.174 -101.378 166.591C-102.596 168.271 -103.743 169.928 -104.984 171.514C-115.354 184.861 -125.398 198.511 -136.213 211.485C-155.48 234.561 -180.67 246.298 -210.612 247.768C-238.259 249.121 -264.737 244.758 -288.241 229.171C-317.059 210.061 -334.055 182.808 -339.72 149.091C-345.316 115.724 -340.985 83.594 -322.561 54.3805C-303.434 24.0237 -275.552 6.87359 -240.226 1.83356C-214.053 -1.89979 -188.208 -0.243118 -164.563 12.4969C-153.771 18.307 -144.454 26.917 -134.715 34.5937C-133.615 35.4571 -133.193 39.0504 -134.059 40.1938C-148.012 58.6505 -162.222 76.8973 -176.854 95.7974L-176.877 95.8207ZM57.5786 124.614C57.5786 121.114 58.0235 117.567 57.4616 114.161C56.853 110.404 55.5888 106.717 54.1842 103.147C42.2917 72.7673 3.40686 69.5939 -14.3617 89.0307C-27.2375 103.101 -29.719 119.877 -25.9265 137.658C-19.4418 168.154 9.75113 177.954 33.7234 167.361C51.89 159.334 57.3445 143.141 57.5786 124.614Z" fill="#9BC332"/>
</svg>
