<svg width="163" height="170" viewBox="0 0 163 170" fill="none" xmlns="http://www.w3.org/2000/svg">
<circle cx="81.3701" cy="85" r="81.3701" fill="#9BC332" fill-opacity="0.3"/>
<path d="M5.11275 162.824C9.50771 163.268 13.2716 163.703 17.0445 164.011C27.9547 164.899 38.8831 165.207 49.8069 164.346C55.6684 163.884 61.498 163.019 67.3368 162.294C68.2267 162.185 69.1075 161.895 69.952 161.587C73.4888 160.304 74.306 158.143 72.4037 154.912C70.919 152.388 69.6432 149.823 70.0291 146.783C70.7147 141.332 73.7658 137.571 78.5784 135.151C82.0789 133.393 85.87 132.6 89.7338 132.518C101.171 132.278 112.612 132.242 124.049 132.052C132.04 131.92 140.022 131.526 147.844 129.741C150.074 129.233 152.33 128.445 154.319 127.33C158.228 125.146 158.691 121.303 155.708 117.955C153.951 115.979 151.626 114.946 149.166 114.212C147.599 113.74 145.974 113.455 144.398 113.015C142.923 112.608 142.124 111.429 142.342 110.133C142.582 108.692 143.745 107.759 145.315 108.044C149.733 108.847 154.069 109.948 157.688 112.825C165.129 118.738 164.226 128.109 155.803 132.446C151.708 134.557 147.218 135.237 142.737 135.867C132.153 137.353 121.497 137.127 110.85 137.204C102.928 137.258 94.9959 137.489 87.0959 138.01C84.5988 138.173 81.9927 139.188 79.768 140.407C75.0597 142.981 74.0427 147.395 76.6761 152.03C80.4944 158.75 78.0971 164.881 70.5104 166.685C65.3572 167.908 60.0361 168.529 54.7558 169.086C43.4642 170.273 32.1317 170.214 20.8129 169.421C14.8289 169 8.863 168.302 2.89712 167.659C0.472627 167.396 -0.22657 166.444 0.132109 163.975C0.981134 158.125 2.80631 152.547 5.12638 147.132C5.64396 145.922 5.5804 145.056 4.84034 143.901C0.790445 137.553 -0.21749 130.456 0.036764 123.098C0.449926 111.13 4.32275 100.228 10.9924 90.4266C17.0309 81.5497 23.5961 73.0308 29.9206 64.3488C30.6834 63.3066 31.6096 62.6495 32.949 62.9622C34.3065 63.2839 34.7923 64.3171 34.9648 65.5904C35.1328 66.8184 35.3553 68.0373 35.8457 69.297C36.1726 67.6249 36.4495 65.9438 36.8445 64.2899C37.3712 62.0967 37.9115 59.899 38.5925 57.7466C39.8729 53.7183 41.748 50.0751 44.9715 47.1388C49.4891 43.0288 53.8386 38.7286 58.2427 34.4918C59.1643 33.6082 60.1723 33.0372 61.4435 33.5221C62.7284 34.0115 63.0281 35.1171 63.1507 36.3859C63.3777 38.7875 63.7227 41.18 64.3266 43.5771C64.885 41.0033 65.4253 38.425 66.011 35.8602C66.2607 34.7591 66.6194 33.6852 66.91 32.5977C68.2403 27.6042 70.9099 23.8205 75.4774 20.9839C83.0369 16.2985 90.6237 11.7218 98.8234 8.22815C100.031 7.71158 101.171 7.32641 102.31 8.28706C103.445 9.2477 103.232 10.4802 102.996 11.7354C102.651 13.5479 102.351 15.3695 102.406 17.3316C102.805 16.5522 103.141 15.7366 103.609 15.0025C105.779 11.6357 107.958 8.26893 110.206 4.95199C110.587 4.38558 111.264 3.83275 111.908 3.65603C125.638 -0.182013 139.49 -1.38735 153.52 1.93412C154.618 2.19241 155.694 2.55945 156.761 2.93102C158.255 3.45665 159.036 4.53964 158.582 6.08936C157.079 11.2324 155.513 16.3574 153.897 21.4642C153.452 22.8598 152.117 23.0184 150.841 23.1861C148.534 23.4942 146.237 23.8794 143.935 24.2374C143.949 24.4005 143.962 24.5682 143.972 24.7313C145.397 24.9216 146.823 25.0938 148.244 25.3068C150.873 25.6965 151.717 27.1963 150.664 29.6387C145.079 42.6074 138.165 54.8375 130.024 66.3698C129.402 67.2534 128.244 67.9376 127.191 68.3182C120.816 70.6111 114.16 71.617 107.468 72.4327C106.805 72.5142 106.142 72.6094 105.475 72.7C105.452 72.8541 105.429 73.0127 105.411 73.1668C107.999 73.706 110.574 74.3223 113.175 74.7618C114.787 75.0337 116.476 74.8796 118.069 75.2195C119.009 75.4188 120.185 76.0306 120.576 76.8009C120.921 77.4851 120.644 78.8898 120.113 79.5559C113.561 87.812 106.392 95.5153 98.7507 102.775C98.1968 103.3 97.4386 103.654 96.7212 103.966C90.1833 106.839 83.3003 108.348 76.2266 109.073C75.4547 109.155 74.6829 109.241 73.9065 109.327C73.8974 109.476 73.8838 109.626 73.8747 109.775C76.1675 110.111 78.4604 110.451 80.7532 110.781C81.0892 110.831 81.4297 110.818 81.7702 110.845C83.1958 110.963 84.676 110.99 85.2435 112.694C85.8156 114.406 84.6623 115.299 83.5454 116.21C73.0529 124.788 62.2154 132.835 49.7343 138.4C37.6254 143.797 25.049 147.227 11.7143 147.567C11.1785 147.58 10.3295 147.993 10.1706 148.423C8.46799 153.068 6.87437 157.753 5.11275 162.81V162.824ZM12.7494 142.483C37.3939 140.937 57.7296 130.701 76.2402 115.431C75.7044 115.308 75.4502 115.24 75.1914 115.19C69.6387 114.121 64.3902 112.245 59.6138 109.195C58.9101 108.747 58.1836 107.981 57.9612 107.22C57.4254 105.398 58.8828 104.125 61.1484 104.243C70.5967 104.741 79.9223 104.116 89.0528 101.397C92.7485 100.296 96.1174 98.8368 98.6826 95.7736C100.385 93.739 102.424 91.9945 104.226 90.0415C107.205 86.8152 110.115 83.5209 113.234 80.0544C112.571 79.9366 112.258 79.8731 111.945 79.8233C105.507 78.7947 99.4317 76.7737 93.87 73.3118C92.7621 72.623 92.0493 71.7167 92.3671 70.3755C92.6986 68.9798 93.7201 68.427 95.1321 68.3409C98.0697 68.1642 101.012 67.9648 103.94 67.6657C110.869 66.9543 117.774 66.0616 124.426 63.873C125.261 63.5966 126.21 62.9939 126.651 62.2689C131.481 54.3028 136.276 46.3095 140.957 38.2528C142.446 35.6881 143.563 32.9058 144.93 30.0511C143.545 29.9287 142.423 29.7384 141.302 29.752C138.187 29.7928 135.077 29.9106 131.967 30.0103C129.965 30.0737 128.548 28.8095 129.002 27.0966C129.22 26.2765 129.96 25.4382 130.687 24.9352C136.044 21.2286 142.056 19.194 148.466 18.2152C148.989 18.1337 149.765 17.8029 149.906 17.4086C151.072 14.069 152.117 10.6887 153.215 7.26298C152.698 7.10438 152.439 7.00469 152.167 6.94125C140.394 4.13635 128.694 4.91574 117.002 7.55751C114.746 8.06955 113.202 9.0891 111.927 11.0149C107.863 17.1413 104.889 23.757 102.537 30.6855C102.065 32.0766 101.239 32.9647 99.6996 32.8288C98.1423 32.6883 97.434 31.637 97.3432 30.187C97.1253 26.5846 96.9028 22.9777 96.8075 19.3707C96.7666 17.8708 97.0436 16.3664 97.1934 14.7034C96.7212 14.8802 96.3898 14.9481 96.1128 15.1113C89.9063 18.7091 83.727 22.3569 77.4888 25.9049C74.8191 27.4229 73.1574 29.6115 72.3674 32.5161C71.6273 35.2349 70.6058 37.922 70.2289 40.6907C69.5161 45.8836 69.1529 51.1309 68.6852 56.3555C68.5626 57.7149 68.1449 58.8387 66.7102 59.174C65.221 59.5229 64.204 58.8251 63.6002 57.4611C62.96 56.0156 62.1564 54.6245 61.6751 53.1292C60.4447 49.2957 59.355 45.4123 58.1519 41.3613C55.1281 44.3429 52.1633 47.4424 48.9987 50.3288C45.816 53.2379 44.0907 56.8721 42.9421 60.9004C40.9943 67.7473 40.2225 74.7437 40.1407 81.8352C40.1226 83.3034 39.7957 84.5948 38.1748 84.989C36.4677 85.4014 35.4915 84.4135 34.9149 82.9726C33.7617 80.0952 32.6402 77.1997 31.5415 74.2996C31.2373 73.493 31.0512 72.6411 30.756 71.6125C30.3837 72.043 30.184 72.2424 30.0251 72.4644C25.276 79.0756 20.3861 85.5962 15.8141 92.3298C10.216 100.577 6.47029 109.612 5.39425 119.604C4.73137 125.789 4.95839 131.916 7.34201 137.788C7.60081 138.423 7.93679 139.021 8.35449 139.868C8.90386 138.781 9.2807 138.024 9.66208 137.272C24.9037 107.093 45.8796 81.7899 73.6659 62.287C82.0199 56.4235 90.8008 51.294 100.244 47.3563C102.233 46.527 103.613 46.9711 104.244 48.5299C104.839 49.998 104.076 51.1354 102.283 52.0688C95.5725 55.5625 88.6214 58.7118 82.2651 62.7673C54.3017 80.6072 33.0943 104.714 17.2942 133.701C15.7914 136.46 14.3976 139.284 12.7449 142.483H12.7494Z" fill="#9BC332"/>
</svg>
