<svg fill="none" height="33" viewBox="0 0 33 33" width="33" xmlns="http://www.w3.org/2000/svg"><circle cx="16.9411" cy="16.0588" fill="#222" r="16.0588"/><g fill="#fff"><path d="m20.6764 19.711-3.0048-4.3652-.3397-.4937-2.1493-3.1226-.1782-.2588h-2.6411l.6441.9361 2.8579 4.1523.3397.4932 2.2962 3.3363.1782.2586h2.6411l-.6441-.9361zm-1.6831.3387-2.3856-3.4661-.3397-.4934-2.7682-4.022h1.1907l2.2387 3.2527.3397.4934 2.9152 4.2354z"/><path d="m16.268 16.0901.3398.4934-.4028.4687-3.09 3.5948h-.762l3.5123-4.088z"/><path d="m21.0025 11.4707-3.3309 3.8751-.4027.4684-.3397-.4934.4027-.4687 2.2563-2.6262.6523-.7552z"/></g></svg>