<svg fill="none" height="33" viewBox="0 0 56 33" width="56" xmlns="http://www.w3.org/2000/svg"><path d="m20.0758.674764.3353 4.664086h.1358c1.9483-3.64738 4.6985-5.33885 8.1916-5.33885 4.4311 0 6.7962 1.82369 8.3275 5.33885h.1314c2.7547-4.25832 5.9761-5.33885 8.7987-5.33885 8.3728 0 10.0039 5.813 10.0039 11.8221v20.6122h-10.7424v-18.1092c0-2.9043.1314-5.74466-2.9541-5.74466-3.2258 0-3.7604 2.56686-3.7604 5.53946v18.3144h-10.747v-18.1092c0-2.9043.1359-5.74466-2.9541-5.74466-3.2212 0-3.7605 2.56686-3.7605 5.53946v18.3144h-10.6064v-19.0576c-2.68675.0684-5.57284-1.4862-5.43692-5.53941-3.022-.2006-5.03818-2.29784-5.03818-6.21421v-.948316z" fill="#f50f64"/></svg>