<svg fill="none" height="37" viewBox="0 0 160 37" width="160" xmlns="http://www.w3.org/2000/svg"><g fill="#054996"><path d="m0 32.4195 3.58638-6.787c2.32777 2.1992 4.79763 3.2954 7.41632 3.2954 1.4887 0 2.5714-.3722 3.2481-1.1165.5481-.5481.8255-1.2248.8255-2.0368 0-.7782-.3045-1.421-.9202-1.9421-.5143-.4534-1.9083-1.015-4.16837-1.6984l-2.17889-.6767c-2.16536-.6767-3.71495-1.5496-4.65553-2.6188-1.22478-1.3262-1.84056-3.2277-1.84056-5.7179 0-3.2277.98795-5.8329 2.95707-7.80203 2.0368-2.03679 4.79763-3.05181 8.28928-3.05181 3.3292 0 6.6517.87291 9.981 2.61874l-3.3428 6.5435c-1.8406-1.4549-3.6811-2.17895-5.5217-2.17895-1.1639 0-2.0841.32481-2.7608.96765-.5481.5481-.8256 1.13-.8256 1.7458 0 .582.1421 1.0692.4331 1.4549.4534.5481 1.3872 1.0353 2.8082 1.4548l2.5714.7782c2.7134.8391 4.669 1.9082 5.8668 3.2007 1.3871 1.4887 2.0841 3.4104 2.0841 5.7653 0 3.3901-1.015 6.1036-3.0518 8.1404-2.1992 2.1992-5.3796 3.2954-9.5479 3.2954-2.29391 0-4.41191-.3587-6.3472-1.0624-1.65786-.5819-3.28865-1.4413-4.9059-2.5714z"/><path d="m45.1615 15.7462v-2.0774h7.7547v21.6604h-7.7547v-2.3751c-1.4887 2.0639-3.7285 3.0992-6.7329 3.0992-3.0383 0-5.6367-1.1436-7.8021-3.4375-2.0706-2.1992-3.0992-4.845-3.0992-7.9442 0-3.5526 1.1166-6.4487 3.3428-8.675 2.0368-2.0368 4.6353-3.0518 7.8021-3.0518 2.6458-.0068 4.8112.9338 6.4893 2.8014zm-4.7503 3.7827c-1.2924 0-2.4225.4669-3.3901 1.4074-1.0353 1.0015-1.5496 2.1789-1.5496 3.5391 0 1.421.5008 2.5984 1.5022 3.539 1.0353.9676 2.1992 1.4548 3.4917 1.4548 1.3263 0 2.4901-.5007 3.4916-1.5022.9677-.9676 1.4549-2.1315 1.4549-3.4916 0-1.3872-.5008-2.5646-1.5022-3.5391-1.0083-.9405-2.1722-1.4074-3.4985-1.4074z"/><path d="m58.248 35.3292v-21.6604h7.7547v2.7135c1.6173-2.1315 3.9112-3.2007 6.8818-3.2007 2.7135 0 4.845.7782 6.3946 2.3278.8391.8391 1.3872 1.712 1.6511 2.6187.2571.9068.3857 2.0504.3857 3.4376v13.7635h-7.7547v-10.9553c0-2.1316-.3248-3.5391-.9676-4.2157-.582-.6158-1.4075-.9203-2.4699-.9203-1.1639 0-2.118.3383-2.8623 1.015-.8391.7782-1.2587 1.9218-1.2587 3.4375v11.6321h-7.7547z"/><path d="m111.117 0v35.3292h-7.755v-2.3751c-1.617 2.0639-3.796 3.0992-6.5433 3.0992-3.0045 0-5.542-1.0015-7.6059-3.0045-2.3277-2.2601-3.4916-5.1359-3.4916-8.6276 0-3.4849 1.1774-6.3472 3.539-8.5735 2.0368-1.942 4.5879-2.9097 7.6532-2.9097 2.5511 0 4.7026.9339 6.4416 2.8082v-15.7462zm-12.5051 29.4625c1.2247 0 2.3411-.4331 3.3431-1.306 1.096-1.0015 1.644-2.2263 1.644-3.6811 0-1.2925-.487-2.4564-1.455-3.4917-.907-.9676-2.084-1.4548-3.5389-1.4548-1.3534 0-2.5037.4669-3.4375 1.4074-1.0015 1.0015-1.5022 2.2263-1.5022 3.6812 0 1.2586.5007 2.3886 1.5022 3.3901.9744.9677 2.118 1.4549 3.4443 1.4549z"/></g><path d="m131.228 21.004-.183.2301c-.04-.088-.095-.1692-.149-.2436-.094-.1354-.189-.2572-.298-.379-.006-.0067-.006-.0135-.013-.0135l.217-.1556.013.0203c.007.0067.014.0135.014.0135.081.0947.155.1962.23.2977.013.0203.033.0474.047.0677z" fill="#9bc332"/><path d="m157.239 16.5583c-2.023-2.5443-4.852-3.8165-8.465-3.8165-2.017 0-4.04.4872-5.779 1.509-1.638.9676-3.14 2.3954-4.304 3.857-2.463 3.106-4.642 5.6165-6.455 7.7074-.785.9203-1.022 1.2383-2.003 1.942-1.198.8662-2.26 1.0895-3.269.8188-.845-.0338-1.671-.291-2.361-.7646-1.259-.8865-1.8-2.4158-1.8-3.9112 0-1.1233.304-2.4157 1.082-3.2616.738-.812 1.767-1.3466 2.863-1.4684.514-.0609 1.049-.027 1.563.1015.013 0 .02 0 .034.0068 1.475.2842 1.637.2707 2.24 1.3127.006.0068.006.0136.013.0136.108.1218.203.2436.298.3789l.169-.2165 3.756-4.8653c-1.915-2.1045-4.48-3.1601-7.681-3.1601-3.552.0203-6.347 1.2519-8.418 3.7014-1.691 2.0842-2.551 4.5811-2.551 7.4908 0 2.815.819 5.2307 2.443 7.2675 2.03 2.5511 4.872 3.8368 8.533 3.8368 2.409 0 4.73-.6361 6.489-2.3075 1.767-1.6782 3.248-3.7014 4.527-5.772.379 1.5631 1.076 2.9773 2.085 4.2427 2.03 2.5511 4.872 3.8368 8.532 3.8368 3.526 0 6.314-1.2248 8.357-3.6541 1.739-2.0503 2.606-4.5269 2.606-7.4502-.007-2.8623-.84-5.3187-2.504-7.3757zm-12.018 4.5607c.785-1.2789 1.976-1.9217 3.553-1.9217 1.191 0 2.179.3992 2.957 1.1842.873.9 1.312 2.0774 1.312 3.5255 0 1.015-.243 1.9352-.724 2.7473-.785 1.2992-1.975 1.9488-3.552 1.9488-1.211 0-2.213-.3993-3.005-1.1977-.866-.9135-1.292-2.0774-1.292-3.4984.014-1.0421.25-1.9692.751-2.788z" fill="#9bc332"/><path d="m151.927 20.192c-.832-.8391-1.888-1.2654-3.153-1.2654-1.672 0-2.944.6902-3.783 2.0503-.514.8459-.778 1.8271-.778 2.93 0 1.4887.46 2.7271 1.367 3.6812.839.8458 1.915 1.2789 3.194 1.2789 1.671 0 2.943-.697 3.782-2.0774.501-.8459.758-1.8203.758-2.8827 0-1.5089-.467-2.7608-1.387-3.7149zm-3.153 8.1404c-1.13 0-2.078-.3722-2.808-1.1165-.819-.8594-1.218-1.9421-1.218-3.309 0-1.0082.23-1.8743.703-2.6458.738-1.2112 1.827-1.7999 3.323-1.7999 1.116 0 2.043.3722 2.767 1.103.819.8458 1.239 1.9759 1.239 3.3427 0 .9677-.23 1.8474-.684 2.612-.73 1.2045-1.854 1.8135-3.322 1.8135zm3.153-8.1404c-.832-.8391-1.888-1.2654-3.153-1.2654-1.672 0-2.944.6902-3.783 2.0503-.514.8459-.778 1.8271-.778 2.93 0 1.4887.46 2.7271 1.367 3.6812.839.8458 1.915 1.2789 3.194 1.2789 1.671 0 2.943-.697 3.782-2.0774.501-.8459.758-1.8203.758-2.8827 0-1.5089-.467-2.7608-1.387-3.7149zm-3.153 8.1404c-1.13 0-2.078-.3722-2.808-1.1165-.819-.8594-1.218-1.9421-1.218-3.309 0-1.0082.23-1.8743.703-2.6458.738-1.2112 1.827-1.7999 3.323-1.7999 1.116 0 2.043.3722 2.767 1.103.819.8458 1.239 1.9759 1.239 3.3427 0 .9677-.23 1.8474-.684 2.612-.73 1.2045-1.854 1.8135-3.322 1.8135zm8.675-11.9433c-2.064-2.5917-4.987-3.9112-8.675-3.9112-2.145 0-4.189.5346-5.914 1.5428-1.53.9-3.086 2.2939-4.378 3.9247-2.362 2.9706-4.399 5.3322-6.449 7.7006l-.21.2436c-.501.5819-.758.8932-1.279 1.306-.643.609-1.434 1.0488-2.294 1.2586-.419.1015-.846.1489-1.279.1218-.845-.0338-1.671-.291-2.361-.7646-1.259-.8865-1.8-2.4158-1.8-3.9112 0-1.1233.304-2.4158 1.082-3.2616.738-.812 1.767-1.3466 2.863-1.4684.514-.0609 1.049-.027 1.563.1015.792.1827 1.55.5752 2.111 1.1504.054.0473.108.1082.163.1691.006.0068.006.0136.013.0136.108.1218.203.2436.298.3789.054.0812.108.1624.149.2436l.182-.2301 3.945-5.1156-.148-.1692c-1.956-2.1586-4.609-3.248-7.884-3.248-3.613.027-6.516 1.3059-8.627 3.8029-1.733 2.1315-2.612 4.7096-2.612 7.6532 0 2.8556.839 5.3593 2.497 7.4366 2.077 2.612 5.021 3.9383 8.736 3.9383 2.767 0 5.014-.7985 6.672-2.3751 1.461-1.3804 2.855-3.1263 4.242-5.3052.406 1.3534 1.069 2.6188 1.976 3.7488 2.078 2.612 5.021 3.9383 8.736 3.9383 3.586 0 6.469-1.2586 8.56-3.742 1.766-2.091 2.673-4.6556 2.673-7.6262.007-2.8962-.853-5.4405-2.551-7.5449zm-26.627 4.0668-.014-.0203v-.0068c-.609-1.042-.866-1.1232-2.226-1.3804l-.163-.0338-.067-.0136c-.528-.1218-1.09-.1624-1.631-.0947-1.137.1286-2.24.6902-3.032 1.5564-.737.7984-1.15 2.0503-1.15 3.4375 0 1.7729.697 3.2751 1.915 4.1209.711.5008 1.57.785 2.484.8188 1.116.2842 2.246.0068 3.457-.8661.914-.6564 1.198-.9947 1.841-1.7391l.21-.2436c2.05-2.3616 4.094-4.7367 6.462-7.7073 1.259-1.5902 2.761-2.93 4.229-3.7962 1.644-.9676 3.6-1.4751 5.644-1.4751 1.759 0 3.336.3112 4.709.9338 1.381.6225 2.572 1.5496 3.546 2.7811 1.617 2.0097 2.436 4.4322 2.436 7.2066 0 2.8421-.859 5.2916-2.544 7.281-1.99 2.3616-4.737 3.5526-8.154 3.5526-3.546 0-6.347-1.2586-8.323-3.7353-.981-1.2315-1.665-2.6187-2.03-4.1344l-.156-.6294-.338.5482c-1.475 2.3886-2.944 4.263-4.48 5.7179-1.563 1.4819-3.688 2.233-6.313 2.233-3.553 0-6.347-1.2586-8.323-3.7353-1.584-1.9826-2.382-4.3713-2.382-7.0983 0-2.8217.839-5.2781 2.49-7.3148 2.03-2.409 4.716-3.5864 8.215-3.6067 3.031 0 5.494.9812 7.335 2.9029l-3.573 4.6352c-.02-.027-.041-.0473-.068-.0744 0-.0068 0-.0135-.006-.0203zm17.952 8.4111c1.671 0 2.943-.697 3.782-2.0774.501-.8459.758-1.8203.758-2.8827 0-1.5089-.467-2.7608-1.387-3.7149-.832-.8391-1.888-1.2654-3.153-1.2654-1.672 0-2.944.6902-3.783 2.0503-.514.8459-.778 1.8271-.778 2.93 0 1.4887.46 2.7271 1.367 3.6812.839.8526 1.915 1.2789 3.194 1.2789zm0-9.399c1.116 0 2.043.3721 2.767 1.1029.819.8459 1.239 1.9759 1.239 3.3428 0 .9677-.23 1.8473-.684 2.612-.73 1.1977-1.847 1.8135-3.315 1.8135-1.13 0-2.078-.3722-2.809-1.1165-.818-.8594-1.218-1.9421-1.218-3.309 0-1.0082.23-1.8744.704-2.6458.731-1.2112 1.82-1.7999 3.316-1.7999zm3.153.724c-.832-.8391-1.888-1.2654-3.153-1.2654-1.672 0-2.944.6902-3.783 2.0503-.514.8459-.778 1.8271-.778 2.93 0 1.4887.46 2.7271 1.367 3.6812.839.8458 1.915 1.2789 3.194 1.2789 1.671 0 2.943-.697 3.782-2.0774.501-.8459.758-1.8203.758-2.8827 0-1.5089-.467-2.7608-1.387-3.7149zm-3.153 8.1404c-1.13 0-2.078-.3722-2.808-1.1165-.819-.8594-1.218-1.9421-1.218-3.309 0-1.0082.23-1.8743.703-2.6458.738-1.2112 1.827-1.7999 3.323-1.7999 1.116 0 2.043.3722 2.767 1.103.819.8458 1.239 1.9759 1.239 3.3427 0 .9677-.23 1.8474-.684 2.612-.73 1.2045-1.854 1.8135-3.322 1.8135zm3.153-8.1404c-.832-.8391-1.888-1.2654-3.153-1.2654-1.672 0-2.944.6902-3.783 2.0503-.514.8459-.778 1.8271-.778 2.93 0 1.4887.46 2.7271 1.367 3.6812.839.8458 1.915 1.2789 3.194 1.2789 1.671 0 2.943-.697 3.782-2.0774.501-.8459.758-1.8203.758-2.8827 0-1.5089-.467-2.7608-1.387-3.7149zm-3.153 8.1404c-1.13 0-2.078-.3722-2.808-1.1165-.819-.8594-1.218-1.9421-1.218-3.309 0-1.0082.23-1.8743.703-2.6458.738-1.2112 1.827-1.7999 3.323-1.7999 1.116 0 2.043.3722 2.767 1.103.819.8458 1.239 1.9759 1.239 3.3427 0 .9677-.23 1.8474-.684 2.612-.73 1.2045-1.854 1.8135-3.322 1.8135z" fill="#9bc332"/></svg>