<svg fill="none" height="49" viewBox="0 0 56 49" width="56" xmlns="http://www.w3.org/2000/svg"><path d="m18.269 26.7152v5.1896c0 .3202.2618.5739.5843.5739h5.5135c2.5682 0 4.1139-.9003 4.1139-2.918 0-1.758-1.3205-2.8455-4.3026-2.8455zm.5843-10.3369c-.3225 0-.5782.2598-.5843.58v4.966h4.546c2.5681 0 4.1869-.8216 4.1869-2.8456 0-1.7217-1.357-2.6943-3.8096-2.6943h-4.339zm-6.2439 20.1966v-24.2866c0-.5317.4321-.9606.9676-.9606h10.4856c4.4061 0 8.7207 1.9393 8.7207 6.8509 0 2.9604-1.5884 4.6036-3.4749 5.6549 3.055 1.1599 4.9476 2.918 4.9476 6.5125 0 4.7909-3.9251 7.1894-9.8892 7.1894h-10.7898c-.5355 0-.9676-.429-.9676-.9605zm24.9694.3865v-25.0598c0-.3202.2616-.58.5841-.58h4.26c.5356 0 .9676.429.9676.9606v24.2927c0 .5315-.432.9605-.9676.9605h-4.26c-.3225 0-.5841-.2538-.5841-.574zm-34.88894-12.5299c0 14.3061 12.15904 22.009 25.31004 22.009 13.1512 0 25.3102-7.7089 25.3102-22.009 0-14.3061-12.159-22.01493-25.3163-22.01493-13.1449 0-25.30394 7.70883-25.30394 22.01493zm-1.22322 0c0-15.00689 12.68856-23.22926 26.53326-23.22926 13.8448 0 26.5394 8.22237 26.5394 23.22926 0 15.0069-12.6885 23.2232-26.5333 23.2232-13.8508 0-26.53936-8.2163-26.53936-23.2232zm-1.46664 0c0 16.2876 14.003 24.4315 27.9999 24.4315 13.997 0 28.0001-8.1439 28.0001-24.4315 0-16.28766-13.997-24.4315-28.0001-24.4315-14.0029 0-27.9999 8.14384-27.9999 24.4315z" fill="#131313"/></svg>