<?xml version="1.0" standalone="no"?>
<!DOCTYPE svg PUBLIC "-//W3C//DTD SVG 1.1//EN" "http://www.w3.org/Graphics/SVG/1.1/DTD/svg11.dtd" >
<svg xmlns="http://www.w3.org/2000/svg" xmlns:xlink="http://www.w3.org/1999/xlink" version="1.1">
<metadata>
Created by FontForge 20190801 at Wed Apr 26 08:58:50 2017
 By www-data
Copyright (c) 2017 by Gayane Bagdasaryan, Vyacheslav Kirilenko. All rights reserved.
</metadata>
<defs>
<font id="AeroportLight" horiz-adv-x="572" >
  <font-face 
    font-family="AeroportLight"
    font-weight="300"
    font-stretch="normal"
    units-per-em="1000"
    panose-1="2 0 0 0 0 0 0 0 0 0"
    ascent="755"
    descent="-245"
    x-height="452"
    cap-height="664"
    bbox="-49 -217 1103 872"
    underline-thickness="50"
    underline-position="-100"
    unicode-range="U+0020-F6D4"
  />
<missing-glyph horiz-adv-x="240" 
 />
    <glyph glyph-name=".notdef" horiz-adv-x="240" 
 />
    <glyph glyph-name=".null" horiz-adv-x="0" 
 />
    <glyph glyph-name="nonmarkingreturn" horiz-adv-x="333" 
 />
    <glyph glyph-name="space" unicode=" " horiz-adv-x="240" 
 />
    <glyph glyph-name="comma" unicode="," horiz-adv-x="217" 
d="M95 -107h-51l64 107h-45v92h92v-100z" />
    <glyph glyph-name="period" unicode="." horiz-adv-x="218" 
d="M63 0v92h92v-92h-92z" />
    <glyph glyph-name="A" unicode="A" horiz-adv-x="668" 
d="M595 0l-70 159h-382l-70 -159h-73l292 664h85l291 -664h-73zM334 591l-163 -369h326z" />
    <glyph glyph-name="B" unicode="B" horiz-adv-x="656" 
d="M506 332q56 -32 74 -70.5t18 -88.5q0 -76 -52.5 -124.5t-154.5 -48.5h-302v664h302q102 0 154.5 -49t52.5 -125q0 -49 -18 -87.5t-74 -70.5zM158 63h234q137 0 137 118q0 58 -36 88.5t-101 30.5h-234v-237zM158 363h234q66 0 101.5 30t35.5 89q0 58 -36 88.5t-101 30.5
h-234v-238z" />
    <glyph glyph-name="C" unicode="C" horiz-adv-x="711" 
d="M387 614q-117 0 -194 -80t-77 -202t77 -202t194 -80q131 0 203 106h76q-40 -78 -112.5 -123.5t-166.5 -45.5q-144 0 -242 99.5t-98 245.5t98 245.5t242 99.5q94 0 166.5 -45.5t112.5 -123.5h-76q-72 106 -203 106z" />
    <glyph glyph-name="D" unicode="D" horiz-adv-x="720" 
d="M89 664h219q169 0 267 -95t98 -237t-98 -237t-267 -95h-219v664zM604 332q0 121 -78 195t-212 74h-156v-538h156q134 0 212 74t78 195z" />
    <glyph glyph-name="E" unicode="E" horiz-adv-x="599" 
d="M531 601h-373v-238h366v-63h-366v-237h373v-63h-442v664h442v-63z" />
    <glyph glyph-name="F" unicode="F" horiz-adv-x="578" 
d="M531 601h-373v-238h366v-63h-366v-300h-69v664h442v-63z" />
    <glyph glyph-name="G" unicode="G" horiz-adv-x="756" 
d="M387 614q-117 0 -194 -80t-77 -202t77 -202t195 -80q99 0 163.5 61.5t84.5 160.5h-251v63h324q0 -152 -93 -250t-223 -98q-146 0 -246 99.5t-100 245.5t98 245.5t242 99.5q93 0 169.5 -46.5t118.5 -122.5h-76q-32 47 -89 76.5t-123 29.5z" />
    <glyph glyph-name="H" unicode="H" horiz-adv-x="738" 
d="M649 0h-69v300h-422v-300h-69v664h69v-301h422v301h69v-664z" />
    <glyph glyph-name="I" unicode="I" horiz-adv-x="247" 
d="M158 664v-664h-69v664h69z" />
    <glyph glyph-name="J" unicode="J" horiz-adv-x="404" 
d="M251 664h69v-490q0 -82 -52 -128t-138 -46h-125v63h125q121 0 121 111v490z" />
    <glyph glyph-name="K" unicode="K" horiz-adv-x="597" 
d="M221 332l371 -332h-94l-340 299v-299h-69v664h69v-296l336 296h98z" />
    <glyph glyph-name="L" unicode="L" horiz-adv-x="562" 
d="M158 664v-601h373v-63h-442v664h69z" />
    <glyph glyph-name="M" unicode="M" horiz-adv-x="968" 
d="M810 571l-327 -571l-325 571v-571h-69v664h96l299 -528l301 528h94v-664h-69v571z" />
    <glyph glyph-name="N" unicode="N" horiz-adv-x="770" 
d="M612 664h69v-664h-78l-445 569v-569h-69v664h78l445 -569v569z" />
    <glyph glyph-name="O" unicode="O" horiz-adv-x="772" 
d="M386 677q142 0 240.5 -99t98.5 -246t-98.5 -246t-240.5 -99t-240.5 99t-98.5 246t98.5 246t240.5 99zM386 50q117 0 193.5 79.5t76.5 202.5t-76.5 202.5t-193.5 79.5t-193.5 -79.5t-76.5 -202.5t76.5 -202.5t193.5 -79.5z" />
    <glyph glyph-name="P" unicode="P" horiz-adv-x="654" 
d="M612 473q0 -83 -55 -136.5t-163 -53.5h-236v-283h-69v664h305q108 0 163 -54t55 -137zM543 473q0 63 -40 95.5t-110 32.5h-235v-255h235q70 0 110 32t40 95z" />
    <glyph glyph-name="Q" unicode="Q" horiz-adv-x="772" 
d="M386 677q142 0 240.5 -99t98.5 -246q0 -152 -106 -253l79 -82h-85l-42 44q-82 -54 -185 -54q-142 0 -240.5 99t-98.5 246t98.5 246t240.5 99zM386 50q78 0 140 37l-172 180h85l136 -142q81 81 81 207q0 123 -76.5 202.5t-193.5 79.5t-193.5 -79.5t-76.5 -202.5
t76.5 -202.5t193.5 -79.5z" />
    <glyph glyph-name="R" unicode="R" horiz-adv-x="648" 
d="M612 473q0 -83 -55 -136.5t-163 -53.5h-101l329 -283h-104l-326 283h-34v-283h-69v664h305q108 0 163 -54t55 -137zM543 473q0 63 -40 95.5t-110 32.5h-235v-255h235q70 0 110 32t40 95z" />
    <glyph glyph-name="S" unicode="S" horiz-adv-x="605" 
d="M29 155h74q23 -45 79 -75t125 -30q83 0 136.5 36.5t53.5 90.5q0 53 -38.5 81.5t-117.5 37.5l-114 13q-90 10 -137 57t-47 117q0 87 68 140.5t184 53.5q110 0 178 -51.5t93 -117.5h-75q-22 47 -76 76.5t-123 29.5q-82 0 -130.5 -36.5t-48.5 -90.5q0 -101 137 -115l126 -14
q89 -10 139.5 -57t50.5 -119q0 -79 -68.5 -137t-190.5 -58q-118 0 -185 50t-93 118z" />
    <glyph glyph-name="T" unicode="T" horiz-adv-x="595" 
d="M26 664h543v-63h-237v-601h-69v601h-237v63z" />
    <glyph glyph-name="U" unicode="U" horiz-adv-x="740" 
d="M84 273v391h69v-390q0 -110 57.5 -167t159.5 -57t159.5 57t57.5 167v390h69v-391q0 -136 -77 -211t-209 -75t-209 75t-77 211z" />
    <glyph glyph-name="V" unicode="V" horiz-adv-x="660" 
d="M78 664l252 -591l252 591h73l-283 -664h-85l-282 664h73z" />
    <glyph glyph-name="W" unicode="W" horiz-adv-x="1061" 
d="M10 664h75l203 -582l198 582h88l204 -582l198 582h73l-228 -664h-88l-205 584l-197 -584h-88z" />
    <glyph glyph-name="X" unicode="X" horiz-adv-x="590" 
d="M497 0l-201 277l-200 -277h-81l239 333l-239 331h79l200 -276l199 276h82l-240 -333l240 -331h-78z" />
    <glyph glyph-name="Y" unicode="Y" horiz-adv-x="560" 
d="M281 315l208 349h71l-246 -411v-253h-69v253l-245 411h74z" />
    <glyph glyph-name="Z" unicode="Z" horiz-adv-x="638" 
d="M580 664v-63l-439 -538h439v-63h-522v63l438 538h-439v63h523z" />
    <glyph glyph-name="a" unicode="a" horiz-adv-x="542" 
d="M259 465q94 0 152 -46.5t58 -128.5v-290h-66v56q-61 -69 -163 -69q-82 0 -134.5 38t-52.5 109q0 74 53.5 110.5t137.5 36.5h159v9q0 59 -40 87t-106 28q-51 0 -88.5 -21t-52.5 -55h-71q19 64 76.5 100t137.5 36zM403 186v35h-161q-58 0 -90.5 -22t-32.5 -65
q0 -42 33 -64.5t89 -22.5q75 0 118.5 41t43.5 98z" />
    <glyph glyph-name="b" unicode="b" horiz-adv-x="593" 
d="M541 226q0 -100 -60.5 -169.5t-167.5 -69.5q-53 0 -96 20t-67 50v-57h-66v669h66v-274q24 30 67 50t96 20q107 0 167.5 -69.5t60.5 -169.5zM475 226q0 74 -45.5 126.5t-116.5 52.5q-69 0 -117 -47t-48 -132t48 -132t117 -47q71 0 116.5 52.5t45.5 126.5z" />
    <glyph glyph-name="c" unicode="c" horiz-adv-x="541" 
d="M494 331h-71q-19 33 -55.5 53.5t-81.5 20.5q-73 0 -120.5 -52t-47.5 -127t47.5 -127t120.5 -52q45 0 81.5 20.5t55.5 53.5h71q-24 -62 -79 -98t-129 -36q-99 0 -166.5 68.5t-67.5 170.5t67.5 170.5t166.5 68.5q74 0 129 -36t79 -98z" />
    <glyph glyph-name="d" unicode="d" horiz-adv-x="593" 
d="M52 226q0 100 60.5 169.5t167.5 69.5q53 0 96 -20t67 -50v274h66v-669h-66v57q-24 -30 -67 -50t-96 -20q-107 0 -167.5 69.5t-60.5 169.5zM118 226q0 -74 45.5 -126.5t116.5 -52.5q69 0 117 47t48 132t-48 132t-117 47q-71 0 -116.5 -52.5t-45.5 -126.5z" />
    <glyph glyph-name="e" unicode="e" horiz-adv-x="548" 
d="M496 231q0 -18 -2 -29h-374q7 -66 53 -110.5t111 -44.5q97 0 138 74h68q-24 -64 -78 -99t-128 -35q-101 0 -166.5 67.5t-65.5 172.5q0 103 64 170.5t164 67.5q93 0 154.5 -67.5t61.5 -166.5zM120 262h308q-8 62 -47 102.5t-101 40.5q-67 0 -109.5 -39t-50.5 -104z" />
    <glyph glyph-name="f" unicode="f" horiz-adv-x="329" 
d="M165 0h-66v392h-84v60h84v78q0 64 43.5 101.5t125.5 37.5h46v-60h-46q-48 0 -75.5 -24t-27.5 -64v-69h149v-60h-149v-392z" />
    <glyph glyph-name="g" unicode="g" horiz-adv-x="595" 
d="M54 226q0 100 60.5 169.5t167.5 69.5q53 0 96 -20t67 -50v57h66v-430q0 -109 -60.5 -174t-166.5 -65q-70 0 -129 35t-88 99h72q44 -74 145 -74q77 0 119 50.5t42 132.5v31q-24 -30 -67 -50t-96 -20q-107 0 -167.5 69.5t-60.5 169.5zM120 226q0 -74 45.5 -126.5
t116.5 -52.5q69 0 117 47t48 132t-48 132t-117 47q-71 0 -116.5 -52.5t-45.5 -126.5z" />
    <glyph glyph-name="h" unicode="h" horiz-adv-x="578" 
d="M310 465q92 0 143.5 -56.5t51.5 -145.5v-263h-66v263q0 63 -33 102.5t-96 39.5q-64 0 -112 -45t-48 -120v-240h-66v669h66v-274q55 70 160 70z" />
    <glyph glyph-name="i" unicode="i" horiz-adv-x="238" 
d="M86 452h66v-452h-66v452zM78 571v88h81v-88h-81z" />
    <glyph glyph-name="j" unicode="j" horiz-adv-x="254" 
d="M102 452h66v-480q0 -92 -36.5 -134t-123.5 -42h-57v60h57q53 0 73.5 28.5t20.5 87.5v480zM94 571v88h81v-88h-81z" />
    <glyph glyph-name="k" unicode="k" horiz-adv-x="475" 
d="M84 669h66v-426l234 209h85l-254 -226l255 -226h-86l-234 197v-197h-66v669z" />
    <glyph glyph-name="l" unicode="l" horiz-adv-x="234" 
d="M84 669h66v-669h-66v669z" />
    <glyph glyph-name="m" unicode="m" horiz-adv-x="924" 
d="M784 0v271q0 60 -32.5 97t-95.5 37q-62 0 -109.5 -43.5t-47.5 -118.5v-243h-66v271q0 60 -32.5 97t-95.5 37q-61 0 -108 -42.5t-47 -114.5v-248h-66v452h66v-54q52 67 154 67q117 0 171 -92q72 92 181 92q92 0 143 -55t51 -142v-268h-66z" />
    <glyph glyph-name="n" unicode="n" horiz-adv-x="578" 
d="M310 465q92 0 143.5 -56.5t51.5 -145.5v-263h-66v263q0 63 -33 102.5t-96 39.5q-64 0 -112 -45t-48 -120v-240h-66v452h66v-57q55 70 160 70z" />
    <glyph glyph-name="o" unicode="o" horiz-adv-x="570" 
d="M517 226q0 -103 -66 -171t-166 -68t-166.5 68t-66.5 171t66.5 171t166.5 68t166 -68t66 -171zM451 226q0 75 -46.5 127t-119.5 52q-74 0 -120.5 -52t-46.5 -127t46.5 -127t120.5 -52q73 0 119.5 52t46.5 127z" />
    <glyph glyph-name="p" unicode="p" horiz-adv-x="593" 
d="M541 226q0 -100 -60.5 -169.5t-167.5 -69.5q-53 0 -96 20t-67 50v-261h-66v656h66v-57q24 30 67 50t96 20q107 0 167.5 -69.5t60.5 -169.5zM475 226q0 74 -45.5 126.5t-116.5 52.5q-69 0 -117 -47t-48 -132t48 -132t117 -47q71 0 116.5 52.5t45.5 126.5z" />
    <glyph glyph-name="q" unicode="q" horiz-adv-x="593" 
d="M52 226q0 100 60.5 169.5t167.5 69.5q53 0 96 -20t67 -50v57h66v-656h-66v261q-24 -30 -67 -50t-96 -20q-107 0 -167.5 69.5t-60.5 169.5zM118 226q0 -74 45.5 -126.5t116.5 -52.5q69 0 117 47t48 132t-48 132t-117 47q-71 0 -116.5 -52.5t-45.5 -126.5z" />
    <glyph glyph-name="r" unicode="r" horiz-adv-x="384" 
d="M84 452h66v-73q55 77 180 77h12v-60h-11q-83 0 -132 -48.5t-49 -128.5v-219h-66v452z" />
    <glyph glyph-name="s" unicode="s" horiz-adv-x="507" 
d="M470 327h-73q-36 78 -151 78q-55 0 -89 -21.5t-34 -57.5q0 -35 25 -49t80 -18l96 -7q141 -11 141 -128q0 -57 -53.5 -97t-141.5 -40q-92 0 -151 41t-74 98h72q34 -79 164 -79q50 0 83.5 21t33.5 56q0 36 -25 50t-81 18l-97 8q-138 12 -138 125q0 58 52.5 99t136.5 41
q94 0 151 -40.5t73 -97.5z" />
    <glyph glyph-name="t" unicode="t" horiz-adv-x="397" 
d="M125 588h66v-136h159v-60h-159v-244q0 -48 23 -68t74 -20h62v-60h-63q-84 0 -123 33t-39 101v258h-94v60h94v136z" />
    <glyph glyph-name="u" unicode="u" 
d="M265 -13q-91 0 -141.5 56.5t-50.5 145.5v263h66v-263q0 -63 32 -102.5t94 -39.5q63 0 110 45.5t47 119.5v240h66v-452h-66v57q-55 -70 -157 -70z" />
    <glyph glyph-name="v" unicode="v" horiz-adv-x="507" 
d="M496 452l-209 -452h-68l-209 452h73l172 -374l172 374h69z" />
    <glyph glyph-name="w" unicode="w" horiz-adv-x="821" 
d="M376 452h76l141 -372l141 372h67l-171 -452h-76l-143 369l-143 -369h-76l-171 452h72l140 -372z" />
    <glyph glyph-name="x" unicode="x" horiz-adv-x="491" 
d="M470 452l-184 -224l188 -228h-82l-147 178l-146 -178h-79l186 226l-185 226h82l144 -176l144 176h79z" />
    <glyph glyph-name="y" unicode="y" horiz-adv-x="518" 
d="M16 452h73l172 -374l172 374h69l-210 -455q-10 -21 -26.5 -59t-23 -52t-21 -37t-26.5 -31t-32 -15t-45 -7h-36v60h16q42 0 63.5 20.5t46.5 83.5l17 41z" />
    <glyph glyph-name="z" unicode="z" horiz-adv-x="462" 
d="M429 0h-389v60l297 332h-297v60h382v-60l-298 -332h305v-60z" />
    <glyph glyph-name="nbspace" unicode="&#xa0;" horiz-adv-x="240" 
 />
    <glyph glyph-name="Agrave" unicode="&#xc0;" horiz-adv-x="668" 
d="M595 0l-70 159h-382l-70 -159h-73l292 664h85l291 -664h-73zM334 591l-163 -369h326z" />
    <glyph glyph-name="Aacute" unicode="&#xc1;" horiz-adv-x="668" 
d="M595 0l-70 159h-382l-70 -159h-73l292 664h85l291 -664h-73zM334 591l-163 -369h326z" />
    <glyph glyph-name="Acircumflex" unicode="&#xc2;" horiz-adv-x="668" 
d="M595 0l-70 159h-382l-70 -159h-73l292 664h85l291 -664h-73zM334 591l-163 -369h326z" />
    <glyph glyph-name="Atilde" unicode="&#xc3;" horiz-adv-x="668" 
d="M595 0l-70 159h-382l-70 -159h-73l292 664h85l291 -664h-73zM334 591l-163 -369h326z" />
    <glyph glyph-name="Adieresis" unicode="&#xc4;" horiz-adv-x="668" 
d="M595 0l-70 159h-382l-70 -159h-73l292 664h85l291 -664h-73zM334 591l-163 -369h326z" />
    <glyph glyph-name="Aring" unicode="&#xc5;" horiz-adv-x="668" 
d="M595 0l-70 159h-382l-70 -159h-73l292 664h85l291 -664h-73zM334 591l-163 -369h326z" />
    <glyph glyph-name="AE" unicode="&#xc6;" horiz-adv-x="979" 
d="M469 0v159h-290l-112 -159h-77l471 664h450v-63h-373v-238h366v-63h-366v-237h373v-63h-442zM469 567l-245 -345h245v345z" />
    <glyph glyph-name="Ccedilla" unicode="&#xc7;" horiz-adv-x="711" 
d="M387 614q-117 0 -194 -80t-77 -202t77 -202t194 -80q131 0 203 106h76q-78 -149 -239 -167l-133 -173h-76l133 173q-131 12 -217.5 109t-86.5 234q0 146 98 245.5t242 99.5q94 0 166.5 -45.5t112.5 -123.5h-76q-72 106 -203 106z" />
    <glyph glyph-name="Egrave" unicode="&#xc8;" horiz-adv-x="599" 
d="M531 601h-373v-238h366v-63h-366v-237h373v-63h-442v664h442v-63z" />
    <glyph glyph-name="Eacute" unicode="&#xc9;" horiz-adv-x="599" 
d="M531 601h-373v-238h366v-63h-366v-237h373v-63h-442v664h442v-63z" />
    <glyph glyph-name="Ecircumflex" unicode="&#xca;" horiz-adv-x="599" 
d="M531 601h-373v-238h366v-63h-366v-237h373v-63h-442v664h442v-63z" />
    <glyph glyph-name="Edieresis" unicode="&#xcb;" horiz-adv-x="599" 
d="M531 601h-373v-238h366v-63h-366v-237h373v-63h-442v664h442v-63z" />
    <glyph glyph-name="Igrave" unicode="&#xcc;" horiz-adv-x="247" 
d="M158 664v-664h-69v664h69z" />
    <glyph glyph-name="Iacute" unicode="&#xcd;" horiz-adv-x="247" 
d="M158 664v-664h-69v664h69z" />
    <glyph glyph-name="Icircumflex" unicode="&#xce;" horiz-adv-x="247" 
d="M158 664v-664h-69v664h69z" />
    <glyph glyph-name="Idieresis" unicode="&#xcf;" horiz-adv-x="247" 
d="M158 664v-664h-69v664h69z" />
    <glyph glyph-name="Eth" unicode="&#xd0;" horiz-adv-x="743" 
d="M112 664h219q169 0 267 -95t98 -237t-98 -237t-267 -95h-219v300h-91v63h91v301zM627 332q0 121 -78 195t-212 74h-156v-238h234v-63h-234v-237h156q134 0 212 74t78 195z" />
    <glyph glyph-name="Ntilde" unicode="&#xd1;" horiz-adv-x="770" 
d="M612 664h69v-664h-78l-445 569v-569h-69v664h78l445 -569v569z" />
    <glyph glyph-name="Ograve" unicode="&#xd2;" horiz-adv-x="772" 
d="M386 677q142 0 240.5 -99t98.5 -246t-98.5 -246t-240.5 -99t-240.5 99t-98.5 246t98.5 246t240.5 99zM386 50q117 0 193.5 79.5t76.5 202.5t-76.5 202.5t-193.5 79.5t-193.5 -79.5t-76.5 -202.5t76.5 -202.5t193.5 -79.5z" />
    <glyph glyph-name="Oacute" unicode="&#xd3;" horiz-adv-x="772" 
d="M386 677q142 0 240.5 -99t98.5 -246t-98.5 -246t-240.5 -99t-240.5 99t-98.5 246t98.5 246t240.5 99zM386 50q117 0 193.5 79.5t76.5 202.5t-76.5 202.5t-193.5 79.5t-193.5 -79.5t-76.5 -202.5t76.5 -202.5t193.5 -79.5z" />
    <glyph glyph-name="Ocircumflex" unicode="&#xd4;" horiz-adv-x="772" 
d="M386 677q142 0 240.5 -99t98.5 -246t-98.5 -246t-240.5 -99t-240.5 99t-98.5 246t98.5 246t240.5 99zM386 50q117 0 193.5 79.5t76.5 202.5t-76.5 202.5t-193.5 79.5t-193.5 -79.5t-76.5 -202.5t76.5 -202.5t193.5 -79.5z" />
    <glyph glyph-name="Otilde" unicode="&#xd5;" horiz-adv-x="772" 
d="M386 677q142 0 240.5 -99t98.5 -246t-98.5 -246t-240.5 -99t-240.5 99t-98.5 246t98.5 246t240.5 99zM386 50q117 0 193.5 79.5t76.5 202.5t-76.5 202.5t-193.5 79.5t-193.5 -79.5t-76.5 -202.5t76.5 -202.5t193.5 -79.5z" />
    <glyph glyph-name="Odieresis" unicode="&#xd6;" horiz-adv-x="772" 
d="M386 677q142 0 240.5 -99t98.5 -246t-98.5 -246t-240.5 -99t-240.5 99t-98.5 246t98.5 246t240.5 99zM386 50q117 0 193.5 79.5t76.5 202.5t-76.5 202.5t-193.5 79.5t-193.5 -79.5t-76.5 -202.5t76.5 -202.5t193.5 -79.5z" />
    <glyph glyph-name="Oslash" unicode="&#xd8;" horiz-adv-x="784" 
d="M740 677l-99 -110q89 -97 89 -235q0 -147 -98.5 -246t-240.5 -99q-118 0 -207 69l-62 -69h-81l98 110q-87 97 -87 235q0 147 98.5 246t240.5 99q115 0 206 -69l62 69h81zM391 50q117 0 193.5 79.5t76.5 202.5q0 108 -63 187l-372 -415q69 -54 165 -54zM121 332
q0 -110 62 -186l371 414q-70 54 -163 54q-117 0 -193.5 -79.5t-76.5 -202.5z" />
    <glyph glyph-name="Ugrave" unicode="&#xd9;" horiz-adv-x="740" 
d="M84 273v391h69v-390q0 -110 57.5 -167t159.5 -57t159.5 57t57.5 167v390h69v-391q0 -136 -77 -211t-209 -75t-209 75t-77 211z" />
    <glyph glyph-name="Uacute" unicode="&#xda;" horiz-adv-x="740" 
d="M84 273v391h69v-390q0 -110 57.5 -167t159.5 -57t159.5 57t57.5 167v390h69v-391q0 -136 -77 -211t-209 -75t-209 75t-77 211z" />
    <glyph glyph-name="Ucircumflex" unicode="&#xdb;" horiz-adv-x="740" 
d="M84 273v391h69v-390q0 -110 57.5 -167t159.5 -57t159.5 57t57.5 167v390h69v-391q0 -136 -77 -211t-209 -75t-209 75t-77 211z" />
    <glyph glyph-name="Udieresis" unicode="&#xdc;" horiz-adv-x="740" 
d="M84 273v391h69v-390q0 -110 57.5 -167t159.5 -57t159.5 57t57.5 167v390h69v-391q0 -136 -77 -211t-209 -75t-209 75t-77 211z" />
    <glyph glyph-name="Yacute" unicode="&#xdd;" horiz-adv-x="560" 
d="M281 315l208 349h71l-246 -411v-253h-69v253l-245 411h74z" />
    <glyph glyph-name="Thorn" unicode="&#xde;" horiz-adv-x="654" 
d="M158 664v-134h236q108 0 163 -54t55 -137t-55 -136.5t-163 -53.5h-236v-149h-69v664h69zM543 339q0 63 -40 95.5t-110 32.5h-235v-255h235q70 0 110 32t40 95z" />
    <glyph glyph-name="germandbls" unicode="&#xdf;" horiz-adv-x="585" 
d="M428 345q90 -46 90 -159q0 -80 -49 -133t-137 -53h-46v60h24q67 0 104.5 34.5t37.5 91.5t-37.5 92t-104.5 35h-24v60h23q63 0 98 35t35 91t-39.5 89.5t-101.5 33.5q-67 0 -109 -46.5t-42 -126.5v-449h-66v449q0 113 58 173t160 60q90 0 148 -50t58 -133q0 -105 -80 -154z
" />
    <glyph glyph-name="agrave" unicode="&#xe0;" horiz-adv-x="542" 
d="M259 465q94 0 152 -46.5t58 -128.5v-290h-66v56q-61 -69 -163 -69q-82 0 -134.5 38t-52.5 109q0 74 53.5 110.5t137.5 36.5h159v9q0 59 -40 87t-106 28q-51 0 -88.5 -21t-52.5 -55h-71q19 64 76.5 100t137.5 36zM403 186v35h-161q-58 0 -90.5 -22t-32.5 -65
q0 -42 33 -64.5t89 -22.5q75 0 118.5 41t43.5 98z" />
    <glyph glyph-name="aacute" unicode="&#xe1;" horiz-adv-x="542" 
d="M259 465q94 0 152 -46.5t58 -128.5v-290h-66v56q-61 -69 -163 -69q-82 0 -134.5 38t-52.5 109q0 74 53.5 110.5t137.5 36.5h159v9q0 59 -40 87t-106 28q-51 0 -88.5 -21t-52.5 -55h-71q19 64 76.5 100t137.5 36zM403 186v35h-161q-58 0 -90.5 -22t-32.5 -65
q0 -42 33 -64.5t89 -22.5q75 0 118.5 41t43.5 98z" />
    <glyph glyph-name="acircumflex" unicode="&#xe2;" horiz-adv-x="542" 
d="M259 465q94 0 152 -46.5t58 -128.5v-290h-66v56q-61 -69 -163 -69q-82 0 -134.5 38t-52.5 109q0 74 53.5 110.5t137.5 36.5h159v9q0 59 -40 87t-106 28q-51 0 -88.5 -21t-52.5 -55h-71q19 64 76.5 100t137.5 36zM403 186v35h-161q-58 0 -90.5 -22t-32.5 -65
q0 -42 33 -64.5t89 -22.5q75 0 118.5 41t43.5 98z" />
    <glyph glyph-name="atilde" unicode="&#xe3;" horiz-adv-x="542" 
d="M259 465q94 0 152 -46.5t58 -128.5v-290h-66v56q-61 -69 -163 -69q-82 0 -134.5 38t-52.5 109q0 74 53.5 110.5t137.5 36.5h159v9q0 59 -40 87t-106 28q-51 0 -88.5 -21t-52.5 -55h-71q19 64 76.5 100t137.5 36zM403 186v35h-161q-58 0 -90.5 -22t-32.5 -65
q0 -42 33 -64.5t89 -22.5q75 0 118.5 41t43.5 98z" />
    <glyph glyph-name="adieresis" unicode="&#xe4;" horiz-adv-x="542" 
d="M259 465q94 0 152 -46.5t58 -128.5v-290h-66v56q-61 -69 -163 -69q-82 0 -134.5 38t-52.5 109q0 74 53.5 110.5t137.5 36.5h159v9q0 59 -40 87t-106 28q-51 0 -88.5 -21t-52.5 -55h-71q19 64 76.5 100t137.5 36zM403 186v35h-161q-58 0 -90.5 -22t-32.5 -65
q0 -42 33 -64.5t89 -22.5q75 0 118.5 41t43.5 98z" />
    <glyph glyph-name="aring" unicode="&#xe5;" horiz-adv-x="542" 
d="M259 465q94 0 152 -46.5t58 -128.5v-290h-66v56q-61 -69 -163 -69q-82 0 -134.5 38t-52.5 109q0 74 53.5 110.5t137.5 36.5h159v9q0 59 -40 87t-106 28q-51 0 -88.5 -21t-52.5 -55h-71q19 64 76.5 100t137.5 36zM403 186v35h-161q-58 0 -90.5 -22t-32.5 -65
q0 -42 33 -64.5t89 -22.5q75 0 118.5 41t43.5 98z" />
    <glyph glyph-name="ae" unicode="&#xe6;" horiz-adv-x="896" 
d="M847 231q0 -18 -2 -29h-374q7 -66 53 -110.5t111 -44.5q97 0 138 74h68q-24 -64 -78 -99t-128 -35q-130 0 -196 104q-27 -46 -78 -75t-121 -29q-82 0 -134.5 38t-52.5 109q0 74 53.5 110.5t137.5 36.5h159v9q0 59 -40 87t-106 28q-51 0 -88.5 -21t-52.5 -55h-71
q19 64 76.5 100t137.5 36q66 0 115 -23.5t74 -66.5q64 90 183 90q93 0 154.5 -67.5t61.5 -166.5zM403 186v35h-161q-58 0 -90.5 -22t-32.5 -65q0 -42 33 -64.5t89 -22.5q75 0 118.5 41t43.5 98zM471 262h308q-8 62 -47 102.5t-101 40.5q-67 0 -109.5 -39t-50.5 -104z" />
    <glyph glyph-name="ccedilla" unicode="&#xe7;" horiz-adv-x="541" 
d="M494 331h-71q-19 33 -55.5 53.5t-81.5 20.5q-73 0 -120.5 -52t-47.5 -127t47.5 -127t120.5 -52q45 0 81.5 20.5t55.5 53.5h71q-43 -107 -159 -129l-135 -176h-76l134 173q-89 10 -147.5 76.5t-58.5 160.5q0 102 67.5 170.5t166.5 68.5q74 0 129 -36t79 -98z" />
    <glyph glyph-name="egrave" unicode="&#xe8;" horiz-adv-x="548" 
d="M496 231q0 -18 -2 -29h-374q7 -66 53 -110.5t111 -44.5q97 0 138 74h68q-24 -64 -78 -99t-128 -35q-101 0 -166.5 67.5t-65.5 172.5q0 103 64 170.5t164 67.5q93 0 154.5 -67.5t61.5 -166.5zM120 262h308q-8 62 -47 102.5t-101 40.5q-67 0 -109.5 -39t-50.5 -104z" />
    <glyph glyph-name="eacute" unicode="&#xe9;" horiz-adv-x="548" 
d="M496 231q0 -18 -2 -29h-374q7 -66 53 -110.5t111 -44.5q97 0 138 74h68q-24 -64 -78 -99t-128 -35q-101 0 -166.5 67.5t-65.5 172.5q0 103 64 170.5t164 67.5q93 0 154.5 -67.5t61.5 -166.5zM120 262h308q-8 62 -47 102.5t-101 40.5q-67 0 -109.5 -39t-50.5 -104z" />
    <glyph glyph-name="ecircumflex" unicode="&#xea;" horiz-adv-x="548" 
d="M496 231q0 -18 -2 -29h-374q7 -66 53 -110.5t111 -44.5q97 0 138 74h68q-24 -64 -78 -99t-128 -35q-101 0 -166.5 67.5t-65.5 172.5q0 103 64 170.5t164 67.5q93 0 154.5 -67.5t61.5 -166.5zM120 262h308q-8 62 -47 102.5t-101 40.5q-67 0 -109.5 -39t-50.5 -104z" />
    <glyph glyph-name="edieresis" unicode="&#xeb;" horiz-adv-x="548" 
d="M496 231q0 -18 -2 -29h-374q7 -66 53 -110.5t111 -44.5q97 0 138 74h68q-24 -64 -78 -99t-128 -35q-101 0 -166.5 67.5t-65.5 172.5q0 103 64 170.5t164 67.5q93 0 154.5 -67.5t61.5 -166.5zM120 262h308q-8 62 -47 102.5t-101 40.5q-67 0 -109.5 -39t-50.5 -104z" />
    <glyph glyph-name="igrave" unicode="&#xec;" horiz-adv-x="238" 
d="M89 452h66v-452h-66v452z" />
    <glyph glyph-name="iacute" unicode="&#xed;" horiz-adv-x="238" 
d="M89 452h66v-452h-66v452z" />
    <glyph glyph-name="icircumflex" unicode="&#xee;" horiz-adv-x="238" 
d="M89 452h66v-452h-66v452z" />
    <glyph glyph-name="idieresis" unicode="&#xef;" horiz-adv-x="238" 
d="M89 452h66v-452h-66v452z" />
    <glyph glyph-name="eth" unicode="&#xf0;" horiz-adv-x="562" 
d="M140 669h79l50 -62l133 63v-55l-101 -48l128 -162q80 -101 80 -193q0 -94 -65 -159.5t-163 -65.5t-163.5 66.5t-65.5 161.5q0 96 64.5 163.5t157.5 67.5q35 0 53 -8l-83 101l-140 -67v57l107 51zM281 47q71 0 116.5 48.5t45.5 119.5q0 72 -45.5 121.5t-116.5 49.5
q-70 0 -116.5 -50t-46.5 -121q0 -70 46.5 -119t116.5 -49z" />
    <glyph glyph-name="ntilde" unicode="&#xf1;" horiz-adv-x="578" 
d="M310 465q92 0 143.5 -56.5t51.5 -145.5v-263h-66v263q0 63 -33 102.5t-96 39.5q-64 0 -112 -45t-48 -120v-240h-66v452h66v-57q55 70 160 70z" />
    <glyph glyph-name="ograve" unicode="&#xf2;" horiz-adv-x="570" 
d="M517 226q0 -103 -66 -171t-166 -68t-166.5 68t-66.5 171t66.5 171t166.5 68t166 -68t66 -171zM451 226q0 75 -46.5 127t-119.5 52q-74 0 -120.5 -52t-46.5 -127t46.5 -127t120.5 -52q73 0 119.5 52t46.5 127z" />
    <glyph glyph-name="oacute" unicode="&#xf3;" horiz-adv-x="570" 
d="M517 226q0 -103 -66 -171t-166 -68t-166.5 68t-66.5 171t66.5 171t166.5 68t166 -68t66 -171zM451 226q0 75 -46.5 127t-119.5 52q-74 0 -120.5 -52t-46.5 -127t46.5 -127t120.5 -52q73 0 119.5 52t46.5 127z" />
    <glyph glyph-name="ocircumflex" unicode="&#xf4;" horiz-adv-x="570" 
d="M517 226q0 -103 -66 -171t-166 -68t-166.5 68t-66.5 171t66.5 171t166.5 68t166 -68t66 -171zM451 226q0 75 -46.5 127t-119.5 52q-74 0 -120.5 -52t-46.5 -127t46.5 -127t120.5 -52q73 0 119.5 52t46.5 127z" />
    <glyph glyph-name="otilde" unicode="&#xf5;" horiz-adv-x="570" 
d="M517 226q0 -103 -66 -171t-166 -68t-166.5 68t-66.5 171t66.5 171t166.5 68t166 -68t66 -171zM451 226q0 75 -46.5 127t-119.5 52q-74 0 -120.5 -52t-46.5 -127t46.5 -127t120.5 -52q73 0 119.5 52t46.5 127z" />
    <glyph glyph-name="odieresis" unicode="&#xf6;" horiz-adv-x="570" 
d="M517 226q0 -103 -66 -171t-166 -68t-166.5 68t-66.5 171t66.5 171t166.5 68t166 -68t66 -171zM451 226q0 75 -46.5 127t-119.5 52q-74 0 -120.5 -52t-46.5 -127t46.5 -127t120.5 -52q73 0 119.5 52t46.5 127z" />
    <glyph glyph-name="oslash" unicode="&#xf8;" horiz-adv-x="570" 
d="M522 465l-64 -77q59 -67 59 -162q0 -103 -66 -171t-166 -68q-72 0 -129 37l-30 -37h-79l63 76q-58 66 -58 163q0 103 66.5 171t166.5 68q71 0 127 -37l31 37h79zM118 226q0 -64 34 -112l220 266q-40 25 -87 25q-74 0 -120.5 -52t-46.5 -127zM285 47q73 0 119.5 52
t46.5 127q0 64 -34 112l-221 -266q39 -25 89 -25z" />
    <glyph glyph-name="ugrave" unicode="&#xf9;" 
d="M265 -13q-91 0 -141.5 56.5t-50.5 145.5v263h66v-263q0 -63 32 -102.5t94 -39.5q63 0 110 45.5t47 119.5v240h66v-452h-66v57q-55 -70 -157 -70z" />
    <glyph glyph-name="uacute" unicode="&#xfa;" 
d="M265 -13q-91 0 -141.5 56.5t-50.5 145.5v263h66v-263q0 -63 32 -102.5t94 -39.5q63 0 110 45.5t47 119.5v240h66v-452h-66v57q-55 -70 -157 -70z" />
    <glyph glyph-name="ucircumflex" unicode="&#xfb;" 
d="M265 -13q-91 0 -141.5 56.5t-50.5 145.5v263h66v-263q0 -63 32 -102.5t94 -39.5q63 0 110 45.5t47 119.5v240h66v-452h-66v57q-55 -70 -157 -70z" />
    <glyph glyph-name="udieresis" unicode="&#xfc;" 
d="M265 -13q-91 0 -141.5 56.5t-50.5 145.5v263h66v-263q0 -63 32 -102.5t94 -39.5q63 0 110 45.5t47 119.5v240h66v-452h-66v57q-55 -70 -157 -70z" />
    <glyph glyph-name="yacute" unicode="&#xfd;" horiz-adv-x="494" 
d="M4 452h73l172 -374l172 374h69l-210 -455q-10 -21 -26.5 -59t-23 -52t-21 -37t-26.5 -31t-32 -15t-45 -7h-36v60h16q42 0 63.5 20.5t46.5 83.5l17 41z" />
    <glyph glyph-name="thorn" unicode="&#xfe;" horiz-adv-x="593" 
d="M541 226q0 -100 -60.5 -169.5t-167.5 -69.5q-53 0 -96 20t-67 50v-261h-66v873h66v-274q24 30 67 50t96 20q107 0 167.5 -69.5t60.5 -169.5zM475 226q0 74 -45.5 126.5t-116.5 52.5q-69 0 -117 -47t-48 -132t48 -132t117 -47q71 0 116.5 52.5t45.5 126.5z" />
    <glyph glyph-name="ydieresis" unicode="&#xff;" horiz-adv-x="494" 
d="M4 452h73l172 -374l172 374h69l-210 -455q-10 -21 -26.5 -59t-23 -52t-21 -37t-26.5 -31t-32 -15t-45 -7h-36v60h16q42 0 63.5 20.5t46.5 83.5l17 41z" />
    <glyph glyph-name="Amacron" unicode="&#x100;" horiz-adv-x="668" 
d="M595 0l-70 159h-382l-70 -159h-73l292 664h85l291 -664h-73zM334 591l-163 -369h326z" />
    <glyph glyph-name="amacron" unicode="&#x101;" horiz-adv-x="542" 
d="M259 465q94 0 152 -46.5t58 -128.5v-290h-66v56q-61 -69 -163 -69q-82 0 -134.5 38t-52.5 109q0 74 53.5 110.5t137.5 36.5h159v9q0 59 -40 87t-106 28q-51 0 -88.5 -21t-52.5 -55h-71q19 64 76.5 100t137.5 36zM403 186v35h-161q-58 0 -90.5 -22t-32.5 -65
q0 -42 33 -64.5t89 -22.5q75 0 118.5 41t43.5 98z" />
    <glyph glyph-name="Abreve" unicode="&#x102;" horiz-adv-x="668" 
d="M595 0l-70 159h-382l-70 -159h-73l292 664h85l291 -664h-73zM334 591l-163 -369h326z" />
    <glyph glyph-name="abreve" unicode="&#x103;" horiz-adv-x="542" 
d="M259 465q94 0 152 -46.5t58 -128.5v-290h-66v56q-61 -69 -163 -69q-82 0 -134.5 38t-52.5 109q0 74 53.5 110.5t137.5 36.5h159v9q0 59 -40 87t-106 28q-51 0 -88.5 -21t-52.5 -55h-71q19 64 76.5 100t137.5 36zM403 186v35h-161q-58 0 -90.5 -22t-32.5 -65
q0 -42 33 -64.5t89 -22.5q75 0 118.5 41t43.5 98z" />
    <glyph glyph-name="Aogonek" unicode="&#x104;" horiz-adv-x="668" 
d="M595 0l-70 159h-382l-70 -159h-73l292 664h85l291 -664q-2 -2 -19.5 -17t-26 -23t-21 -21.5t-18.5 -25t-6 -20.5q0 -34 50 -34h41v-63h-40q-114 0 -114 83q0 53 81 121zM334 591l-163 -369h326z" />
    <glyph glyph-name="aogonek" unicode="&#x105;" horiz-adv-x="542" 
d="M259 465q94 0 152 -46.5t58 -128.5v-290q-1 -1 -19.5 -17t-26 -23.5t-21 -21.5t-19 -25t-5.5 -20q0 -34 49 -34h42v-63h-41q-113 0 -113 83q0 55 88 121v56q-61 -69 -163 -69q-82 0 -134.5 38t-52.5 109q0 74 53.5 110.5t137.5 36.5h159v9q0 59 -40 87t-106 28
q-51 0 -88.5 -21t-52.5 -55h-71q19 64 76.5 100t137.5 36zM403 186v35h-161q-58 0 -90.5 -22t-32.5 -65q0 -42 33 -64.5t89 -22.5q75 0 118.5 41t43.5 98z" />
    <glyph glyph-name="Cacute" unicode="&#x106;" horiz-adv-x="711" 
d="M387 614q-117 0 -194 -80t-77 -202t77 -202t194 -80q131 0 203 106h76q-40 -78 -112.5 -123.5t-166.5 -45.5q-144 0 -242 99.5t-98 245.5t98 245.5t242 99.5q94 0 166.5 -45.5t112.5 -123.5h-76q-72 106 -203 106z" />
    <glyph glyph-name="cacute" unicode="&#x107;" horiz-adv-x="541" 
d="M494 331h-71q-19 33 -55.5 53.5t-81.5 20.5q-73 0 -120.5 -52t-47.5 -127t47.5 -127t120.5 -52q45 0 81.5 20.5t55.5 53.5h71q-24 -62 -79 -98t-129 -36q-99 0 -166.5 68.5t-67.5 170.5t67.5 170.5t166.5 68.5q74 0 129 -36t79 -98z" />
    <glyph glyph-name="Ccircumflex" unicode="&#x108;" horiz-adv-x="711" 
d="M387 614q-117 0 -194 -80t-77 -202t77 -202t194 -80q131 0 203 106h76q-40 -78 -112.5 -123.5t-166.5 -45.5q-144 0 -242 99.5t-98 245.5t98 245.5t242 99.5q94 0 166.5 -45.5t112.5 -123.5h-76q-72 106 -203 106z" />
    <glyph glyph-name="ccircumflex" unicode="&#x109;" horiz-adv-x="541" 
d="M494 331h-71q-19 33 -55.5 53.5t-81.5 20.5q-73 0 -120.5 -52t-47.5 -127t47.5 -127t120.5 -52q45 0 81.5 20.5t55.5 53.5h71q-24 -62 -79 -98t-129 -36q-99 0 -166.5 68.5t-67.5 170.5t67.5 170.5t166.5 68.5q74 0 129 -36t79 -98z" />
    <glyph glyph-name="Cdotaccent" unicode="&#x10a;" horiz-adv-x="711" 
d="M387 614q-117 0 -194 -80t-77 -202t77 -202t194 -80q131 0 203 106h76q-40 -78 -112.5 -123.5t-166.5 -45.5q-144 0 -242 99.5t-98 245.5t98 245.5t242 99.5q94 0 166.5 -45.5t112.5 -123.5h-76q-72 106 -203 106z" />
    <glyph glyph-name="cdotaccent" unicode="&#x10b;" horiz-adv-x="541" 
d="M494 331h-71q-19 33 -55.5 53.5t-81.5 20.5q-73 0 -120.5 -52t-47.5 -127t47.5 -127t120.5 -52q45 0 81.5 20.5t55.5 53.5h71q-24 -62 -79 -98t-129 -36q-99 0 -166.5 68.5t-67.5 170.5t67.5 170.5t166.5 68.5q74 0 129 -36t79 -98z" />
    <glyph glyph-name="Ccaron" unicode="&#x10c;" horiz-adv-x="711" 
d="M387 614q-117 0 -194 -80t-77 -202t77 -202t194 -80q131 0 203 106h76q-40 -78 -112.5 -123.5t-166.5 -45.5q-144 0 -242 99.5t-98 245.5t98 245.5t242 99.5q94 0 166.5 -45.5t112.5 -123.5h-76q-72 106 -203 106z" />
    <glyph glyph-name="ccaron" unicode="&#x10d;" horiz-adv-x="541" 
d="M494 331h-71q-19 33 -55.5 53.5t-81.5 20.5q-73 0 -120.5 -52t-47.5 -127t47.5 -127t120.5 -52q45 0 81.5 20.5t55.5 53.5h71q-24 -62 -79 -98t-129 -36q-99 0 -166.5 68.5t-67.5 170.5t67.5 170.5t166.5 68.5q74 0 129 -36t79 -98z" />
    <glyph glyph-name="Dcaron" unicode="&#x10e;" horiz-adv-x="720" 
d="M89 664h219q169 0 267 -95t98 -237t-98 -237t-267 -95h-219v664zM604 332q0 121 -78 195t-212 74h-156v-538h156q134 0 212 74t78 195z" />
    <glyph glyph-name="dcaron" unicode="&#x10f;" horiz-adv-x="706" 
d="M52 226q0 100 60.5 169.5t167.5 69.5q53 0 96 -20t67 -50v274h66v-669h-66v57q-24 -30 -67 -50t-96 -20q-107 0 -167.5 69.5t-60.5 169.5zM118 226q0 -74 45.5 -126.5t116.5 -52.5q69 0 117 47t48 132t-48 132t-117 47q-71 0 -116.5 -52.5t-45.5 -126.5zM646 465h-51
l64 107h-45v92h92v-100z" />
    <glyph glyph-name="Dcroat" unicode="&#x110;" horiz-adv-x="743" 
d="M112 664h219q169 0 267 -95t98 -237t-98 -237t-267 -95h-219v300h-91v63h91v301zM627 332q0 121 -78 195t-212 74h-156v-238h234v-63h-234v-237h156q134 0 212 74t78 195z" />
    <glyph glyph-name="dcroat" unicode="&#x111;" horiz-adv-x="597" 
d="M509 0h-66v57q-24 -30 -67 -50t-96 -20q-107 0 -167.5 69.5t-60.5 169.5t60.5 169.5t167.5 69.5q53 0 96 -20t67 -50v139h-152v60h152v75h66v-75h79v-60h-79v-534zM118 226q0 -74 45.5 -126.5t116.5 -52.5q69 0 117 47t48 132t-48 132t-117 47q-71 0 -116.5 -52.5
t-45.5 -126.5z" />
    <glyph glyph-name="Emacron" unicode="&#x112;" horiz-adv-x="599" 
d="M531 601h-373v-238h366v-63h-366v-237h373v-63h-442v664h442v-63z" />
    <glyph glyph-name="emacron" unicode="&#x113;" horiz-adv-x="548" 
d="M496 231q0 -18 -2 -29h-374q7 -66 53 -110.5t111 -44.5q97 0 138 74h68q-24 -64 -78 -99t-128 -35q-101 0 -166.5 67.5t-65.5 172.5q0 103 64 170.5t164 67.5q93 0 154.5 -67.5t61.5 -166.5zM120 262h308q-8 62 -47 102.5t-101 40.5q-67 0 -109.5 -39t-50.5 -104z" />
    <glyph glyph-name="Ebreve" unicode="&#x114;" horiz-adv-x="599" 
d="M531 601h-373v-238h366v-63h-366v-237h373v-63h-442v664h442v-63z" />
    <glyph glyph-name="ebreve" unicode="&#x115;" horiz-adv-x="548" 
d="M496 231q0 -18 -2 -29h-374q7 -66 53 -110.5t111 -44.5q97 0 138 74h68q-24 -64 -78 -99t-128 -35q-101 0 -166.5 67.5t-65.5 172.5q0 103 64 170.5t164 67.5q93 0 154.5 -67.5t61.5 -166.5zM120 262h308q-8 62 -47 102.5t-101 40.5q-67 0 -109.5 -39t-50.5 -104z" />
    <glyph glyph-name="Edotaccent" unicode="&#x116;" horiz-adv-x="599" 
d="M531 601h-373v-238h366v-63h-366v-237h373v-63h-442v664h442v-63z" />
    <glyph glyph-name="edotaccent" unicode="&#x117;" horiz-adv-x="548" 
d="M496 231q0 -18 -2 -29h-374q7 -66 53 -110.5t111 -44.5q97 0 138 74h68q-24 -64 -78 -99t-128 -35q-101 0 -166.5 67.5t-65.5 172.5q0 103 64 170.5t164 67.5q93 0 154.5 -67.5t61.5 -166.5zM120 262h308q-8 62 -47 102.5t-101 40.5q-67 0 -109.5 -39t-50.5 -104z" />
    <glyph glyph-name="Eogonek" unicode="&#x118;" horiz-adv-x="599" 
d="M458 0h-369v664h442v-63h-373v-238h366v-63h-366v-237h373v-63q-2 -2 -19.5 -17t-26 -23t-21 -21.5t-18.5 -25t-6 -20.5q0 -34 50 -34h41v-63h-40q-114 0 -114 83q0 53 81 121z" />
    <glyph glyph-name="eogonek" unicode="&#x119;" horiz-adv-x="548" 
d="M496 231q0 -18 -2 -29h-374q7 -66 53 -110.5t111 -44.5q97 0 138 74h68q-19 -61 -111 -124q-33 -22 -60 -52t-27 -52q0 -34 50 -34h41v-63h-40q-114 0 -114 83q0 49 66 108h-11q-101 0 -166.5 67.5t-65.5 172.5q0 103 64 170.5t164 67.5q93 0 154.5 -67.5t61.5 -166.5z
M120 262h308q-8 62 -47 102.5t-101 40.5q-67 0 -109.5 -39t-50.5 -104z" />
    <glyph glyph-name="Ecaron" unicode="&#x11a;" horiz-adv-x="599" 
d="M531 601h-373v-238h366v-63h-366v-237h373v-63h-442v664h442v-63z" />
    <glyph glyph-name="ecaron" unicode="&#x11b;" horiz-adv-x="548" 
d="M496 231q0 -18 -2 -29h-374q7 -66 53 -110.5t111 -44.5q97 0 138 74h68q-24 -64 -78 -99t-128 -35q-101 0 -166.5 67.5t-65.5 172.5q0 103 64 170.5t164 67.5q93 0 154.5 -67.5t61.5 -166.5zM120 262h308q-8 62 -47 102.5t-101 40.5q-67 0 -109.5 -39t-50.5 -104z" />
    <glyph glyph-name="Gcircumflex" unicode="&#x11c;" horiz-adv-x="756" 
d="M387 614q-117 0 -194 -80t-77 -202t77 -202t195 -80q99 0 163.5 61.5t84.5 160.5h-251v63h324q0 -152 -93 -250t-223 -98q-146 0 -246 99.5t-100 245.5t98 245.5t242 99.5q93 0 169.5 -46.5t118.5 -122.5h-76q-32 47 -89 76.5t-123 29.5z" />
    <glyph glyph-name="gcircumflex" unicode="&#x11d;" horiz-adv-x="595" 
d="M54 226q0 100 60.5 169.5t167.5 69.5q53 0 96 -20t67 -50v57h66v-430q0 -109 -60.5 -174t-166.5 -65q-70 0 -129 35t-88 99h72q44 -74 145 -74q77 0 119 50.5t42 132.5v31q-24 -30 -67 -50t-96 -20q-107 0 -167.5 69.5t-60.5 169.5zM120 226q0 -74 45.5 -126.5
t116.5 -52.5q69 0 117 47t48 132t-48 132t-117 47q-71 0 -116.5 -52.5t-45.5 -126.5z" />
    <glyph glyph-name="Gbreve" unicode="&#x11e;" horiz-adv-x="756" 
d="M387 614q-117 0 -194 -80t-77 -202t77 -202t195 -80q99 0 163.5 61.5t84.5 160.5h-251v63h324q0 -152 -93 -250t-223 -98q-146 0 -246 99.5t-100 245.5t98 245.5t242 99.5q93 0 169.5 -46.5t118.5 -122.5h-76q-32 47 -89 76.5t-123 29.5z" />
    <glyph glyph-name="gbreve" unicode="&#x11f;" horiz-adv-x="595" 
d="M54 226q0 100 60.5 169.5t167.5 69.5q53 0 96 -20t67 -50v57h66v-430q0 -109 -60.5 -174t-166.5 -65q-70 0 -129 35t-88 99h72q44 -74 145 -74q77 0 119 50.5t42 132.5v31q-24 -30 -67 -50t-96 -20q-107 0 -167.5 69.5t-60.5 169.5zM120 226q0 -74 45.5 -126.5
t116.5 -52.5q69 0 117 47t48 132t-48 132t-117 47q-71 0 -116.5 -52.5t-45.5 -126.5z" />
    <glyph glyph-name="Gdotaccent" unicode="&#x120;" horiz-adv-x="756" 
d="M387 614q-117 0 -194 -80t-77 -202t77 -202t195 -80q99 0 163.5 61.5t84.5 160.5h-251v63h324q0 -152 -93 -250t-223 -98q-146 0 -246 99.5t-100 245.5t98 245.5t242 99.5q93 0 169.5 -46.5t118.5 -122.5h-76q-32 47 -89 76.5t-123 29.5z" />
    <glyph glyph-name="gdotaccent" unicode="&#x121;" horiz-adv-x="592" 
d="M51 226q0 100 60.5 169.5t167.5 69.5q53 0 96 -20t67 -50v57h66v-430q0 -109 -60.5 -174t-166.5 -65q-70 0 -129 35t-88 99h72q44 -74 145 -74q77 0 119 50.5t42 132.5v31q-24 -30 -67 -50t-96 -20q-107 0 -167.5 69.5t-60.5 169.5zM117 226q0 -74 45.5 -126.5
t116.5 -52.5q69 0 117 47t48 132t-48 132t-117 47q-71 0 -116.5 -52.5t-45.5 -126.5z" />
    <glyph glyph-name="uni0122" unicode="&#x122;" horiz-adv-x="756" 
d="M387 614q-117 0 -194 -80t-77 -202t77 -202t195 -80q99 0 163.5 61.5t84.5 160.5h-251v63h324q0 -152 -93 -250t-223 -98q-146 0 -246 99.5t-100 245.5t98 245.5t242 99.5q93 0 169.5 -46.5t118.5 -122.5h-76q-32 47 -89 76.5t-123 29.5z" />
    <glyph glyph-name="uni0123" unicode="&#x123;" horiz-adv-x="595" 
d="M54 226q0 100 60.5 169.5t167.5 69.5q53 0 96 -20t67 -50v57h66v-430q0 -109 -60.5 -174t-166.5 -65q-70 0 -129 35t-88 99h72q44 -74 145 -74q77 0 119 50.5t42 132.5v31q-24 -30 -67 -50t-96 -20q-107 0 -167.5 69.5t-60.5 169.5zM120 226q0 -74 45.5 -126.5
t116.5 -52.5q69 0 117 47t48 132t-48 132t-117 47q-71 0 -116.5 -52.5t-45.5 -126.5z" />
    <glyph glyph-name="Hcircumflex" unicode="&#x124;" horiz-adv-x="738" 
d="M649 0h-69v300h-422v-300h-69v664h69v-301h422v301h69v-664z" />
    <glyph glyph-name="hcircumflex" unicode="&#x125;" horiz-adv-x="578" 
d="M310 465q92 0 143.5 -56.5t51.5 -145.5v-263h-66v263q0 63 -33 102.5t-96 39.5q-64 0 -112 -45t-48 -120v-240h-66v669h66v-274q55 70 160 70z" />
    <glyph glyph-name="Hbar" unicode="&#x126;" horiz-adv-x="754" 
d="M657 0h-69v300h-422v-300h-69v498h-87v63h87v103h69v-103h422v103h69v-103h87v-63h-87v-498zM166 363h422v135h-422v-135z" />
    <glyph glyph-name="hbar" unicode="&#x127;" horiz-adv-x="583" 
d="M444 263q0 63 -33 102.5t-96 39.5q-64 0 -112 -45t-48 -120v-240h-66v534h-79v60h79v75h66v-75h152v-60h-152v-139q55 70 160 70q92 0 143.5 -56.5t51.5 -145.5v-263h-66v263z" />
    <glyph glyph-name="Itilde" unicode="&#x128;" horiz-adv-x="247" 
d="M158 664v-664h-69v664h69z" />
    <glyph glyph-name="itilde" unicode="&#x129;" horiz-adv-x="238" 
d="M89 452h66v-452h-66v452z" />
    <glyph glyph-name="Imacron" unicode="&#x12a;" horiz-adv-x="247" 
d="M158 664v-664h-69v664h69z" />
    <glyph glyph-name="imacron" unicode="&#x12b;" horiz-adv-x="238" 
d="M89 452h66v-452h-66v452z" />
    <glyph glyph-name="Ibreve" unicode="&#x12c;" horiz-adv-x="247" 
d="M158 664v-664h-69v664h69z" />
    <glyph glyph-name="ibreve" unicode="&#x12d;" horiz-adv-x="238" 
d="M89 452h66v-452h-66v452z" />
    <glyph glyph-name="Iogonek" unicode="&#x12e;" horiz-adv-x="247" 
d="M89 0v664h69v-664q-3 -3 -13.5 -12t-17 -15t-16.5 -15.5t-16.5 -17t-13 -16t-9.5 -16.5t-3 -15q0 -34 50 -34h41v-63h-40q-114 0 -114 83q0 52 83 121z" />
    <glyph glyph-name="iogonek" unicode="&#x12f;" horiz-adv-x="238" 
d="M86 452h66v-452q-1 -1 -19.5 -17t-26 -23.5t-21 -21.5t-19 -25t-5.5 -20q0 -34 49 -34h42v-63h-41q-113 0 -113 83q0 55 88 121v452zM78 571v88h81v-88h-81z" />
    <glyph glyph-name="Idotaccent" unicode="&#x130;" horiz-adv-x="247" 
d="M158 664v-664h-69v664h69z" />
    <glyph glyph-name="IJ" unicode="&#x132;" horiz-adv-x="634" 
d="M150 664v-664h-69v664h69zM473 664h69v-490q0 -82 -52 -128t-138 -46h-125v63h125q121 0 121 111v490z" />
    <glyph glyph-name="ij" unicode="&#x133;" horiz-adv-x="489" 
d="M86 452h66v-452h-66v452zM78 571v88h81v-88h-81zM337 452h66v-480q0 -92 -36.5 -134t-123.5 -42h-57v60h57q53 0 73.5 28.5t20.5 87.5v480zM329 571v88h81v-88h-81z" />
    <glyph glyph-name="Jcircumflex" unicode="&#x134;" horiz-adv-x="404" 
d="M251 664h69v-490q0 -82 -52 -128t-138 -46h-125v63h125q121 0 121 111v490z" />
    <glyph glyph-name="jcircumflex" unicode="&#x135;" horiz-adv-x="254" 
d="M102 452h66v-480q0 -92 -36.5 -134t-123.5 -42h-57v60h57q53 0 73.5 28.5t20.5 87.5v480z" />
    <glyph glyph-name="uni0136" unicode="&#x136;" horiz-adv-x="597" 
d="M221 332l371 -332h-94l-340 299v-299h-69v664h69v-296l336 296h98z" />
    <glyph glyph-name="uni0137" unicode="&#x137;" horiz-adv-x="475" 
d="M84 669h66v-426l234 209h85l-254 -226l255 -226h-86l-234 197v-197h-66v669z" />
    <glyph glyph-name="kgreenlandic" unicode="&#x138;" horiz-adv-x="482" 
d="M84 452h66v-209l234 209h85l-254 -226l255 -226h-86l-234 197v-197h-66v452z" />
    <glyph glyph-name="Lacute" unicode="&#x139;" horiz-adv-x="562" 
d="M158 664v-601h373v-63h-442v664h69z" />
    <glyph glyph-name="lacute" unicode="&#x13a;" horiz-adv-x="234" 
d="M84 669h66v-669h-66v669z" />
    <glyph glyph-name="uni013B" unicode="&#x13b;" horiz-adv-x="562" 
d="M158 664v-601h373v-63h-442v664h69z" />
    <glyph glyph-name="uni013C" unicode="&#x13c;" horiz-adv-x="234" 
d="M84 669h66v-669h-66v669z" />
    <glyph glyph-name="Lcaron" unicode="&#x13d;" horiz-adv-x="562" 
d="M491 513h-47l44 74h-49v77h92v-85zM158 664v-601h373v-63h-442v664h69z" />
    <glyph glyph-name="lcaron" unicode="&#x13e;" horiz-adv-x="364" 
d="M101 669h66v-669h-66v669zM304 465h-51l64 107h-45v92h92v-100z" />
    <glyph glyph-name="Ldot" unicode="&#x13f;" horiz-adv-x="562" 
d="M158 664v-601h373v-63h-442v664h69zM383 296v92h92v-92h-92z" />
    <glyph glyph-name="ldot" unicode="&#x140;" horiz-adv-x="330" 
d="M84 669h66v-669h-66v669zM213 302v92h92v-92h-92z" />
    <glyph glyph-name="Nacute" unicode="&#x143;" horiz-adv-x="770" 
d="M612 664h69v-664h-78l-445 569v-569h-69v664h78l445 -569v569z" />
    <glyph glyph-name="nacute" unicode="&#x144;" horiz-adv-x="578" 
d="M310 465q92 0 143.5 -56.5t51.5 -145.5v-263h-66v263q0 63 -33 102.5t-96 39.5q-64 0 -112 -45t-48 -120v-240h-66v452h66v-57q55 70 160 70z" />
    <glyph glyph-name="uni0145" unicode="&#x145;" horiz-adv-x="770" 
d="M612 664h69v-664h-78l-445 569v-569h-69v664h78l445 -569v569z" />
    <glyph glyph-name="uni0146" unicode="&#x146;" horiz-adv-x="578" 
d="M310 465q92 0 143.5 -56.5t51.5 -145.5v-263h-66v263q0 63 -33 102.5t-96 39.5q-64 0 -112 -45t-48 -120v-240h-66v452h66v-57q55 70 160 70z" />
    <glyph glyph-name="Ncaron" unicode="&#x147;" horiz-adv-x="770" 
d="M612 664h69v-664h-78l-445 569v-569h-69v664h78l445 -569v569z" />
    <glyph glyph-name="ncaron" unicode="&#x148;" horiz-adv-x="578" 
d="M310 465q92 0 143.5 -56.5t51.5 -145.5v-263h-66v263q0 63 -33 102.5t-96 39.5q-64 0 -112 -45t-48 -120v-240h-66v452h66v-57q55 70 160 70z" />
    <glyph glyph-name="napostrophe" unicode="&#x149;" horiz-adv-x="578" 
d="M310 465q92 0 143.5 -56.5t51.5 -145.5v-263h-66v263q0 63 -33 102.5t-96 39.5q-64 0 -112 -45t-48 -120v-240h-66v452h66v-57q55 70 160 70z" />
    <glyph glyph-name="Eng" unicode="&#x14a;" horiz-adv-x="770" 
d="M612 664h69v-694q0 -82 -52 -128t-138 -46h-125v63h125q121 0 121 111v30l-454 569v-569h-69v664h78l445 -560v560z" />
    <glyph glyph-name="eng" unicode="&#x14b;" horiz-adv-x="578" 
d="M310 465q92 0 143.5 -56.5t51.5 -145.5v-291q0 -92 -36.5 -134t-123.5 -42h-57v60h57q53 0 73.5 28.5t20.5 87.5v291q0 63 -33 102.5t-96 39.5q-64 0 -112 -45t-48 -120v-240h-66v452h66v-57q55 70 160 70z" />
    <glyph glyph-name="Omacron" unicode="&#x14c;" horiz-adv-x="772" 
d="M386 677q142 0 240.5 -99t98.5 -246t-98.5 -246t-240.5 -99t-240.5 99t-98.5 246t98.5 246t240.5 99zM386 50q117 0 193.5 79.5t76.5 202.5t-76.5 202.5t-193.5 79.5t-193.5 -79.5t-76.5 -202.5t76.5 -202.5t193.5 -79.5z" />
    <glyph glyph-name="omacron" unicode="&#x14d;" horiz-adv-x="570" 
d="M517 226q0 -103 -66 -171t-166 -68t-166.5 68t-66.5 171t66.5 171t166.5 68t166 -68t66 -171zM451 226q0 75 -46.5 127t-119.5 52q-74 0 -120.5 -52t-46.5 -127t46.5 -127t120.5 -52q73 0 119.5 52t46.5 127z" />
    <glyph glyph-name="Obreve" unicode="&#x14e;" horiz-adv-x="772" 
d="M386 677q142 0 240.5 -99t98.5 -246t-98.5 -246t-240.5 -99t-240.5 99t-98.5 246t98.5 246t240.5 99zM386 50q117 0 193.5 79.5t76.5 202.5t-76.5 202.5t-193.5 79.5t-193.5 -79.5t-76.5 -202.5t76.5 -202.5t193.5 -79.5z" />
    <glyph glyph-name="obreve" unicode="&#x14f;" horiz-adv-x="570" 
d="M517 226q0 -103 -66 -171t-166 -68t-166.5 68t-66.5 171t66.5 171t166.5 68t166 -68t66 -171zM451 226q0 75 -46.5 127t-119.5 52q-74 0 -120.5 -52t-46.5 -127t46.5 -127t120.5 -52q73 0 119.5 52t46.5 127z" />
    <glyph glyph-name="Ohungarumlaut" unicode="&#x150;" horiz-adv-x="772" 
d="M386 677q142 0 240.5 -99t98.5 -246t-98.5 -246t-240.5 -99t-240.5 99t-98.5 246t98.5 246t240.5 99zM386 50q117 0 193.5 79.5t76.5 202.5t-76.5 202.5t-193.5 79.5t-193.5 -79.5t-76.5 -202.5t76.5 -202.5t193.5 -79.5z" />
    <glyph glyph-name="ohungarumlaut" unicode="&#x151;" horiz-adv-x="570" 
d="M517 226q0 -103 -66 -171t-166 -68t-166.5 68t-66.5 171t66.5 171t166.5 68t166 -68t66 -171zM451 226q0 75 -46.5 127t-119.5 52q-74 0 -120.5 -52t-46.5 -127t46.5 -127t120.5 -52q73 0 119.5 52t46.5 127z" />
    <glyph glyph-name="Racute" unicode="&#x154;" horiz-adv-x="648" 
d="M612 473q0 -83 -55 -136.5t-163 -53.5h-101l329 -283h-104l-326 283h-34v-283h-69v664h305q108 0 163 -54t55 -137zM543 473q0 63 -40 95.5t-110 32.5h-235v-255h235q70 0 110 32t40 95z" />
    <glyph glyph-name="racute" unicode="&#x155;" horiz-adv-x="384" 
d="M84 452h66v-73q55 77 180 77h12v-60h-11q-83 0 -132 -48.5t-49 -128.5v-219h-66v452z" />
    <glyph glyph-name="uni0156" unicode="&#x156;" horiz-adv-x="648" 
d="M612 473q0 -83 -55 -136.5t-163 -53.5h-101l329 -283h-104l-326 283h-34v-283h-69v664h305q108 0 163 -54t55 -137zM543 473q0 63 -40 95.5t-110 32.5h-235v-255h235q70 0 110 32t40 95z" />
    <glyph glyph-name="uni0157" unicode="&#x157;" horiz-adv-x="384" 
d="M84 452h66v-73q55 77 180 77h12v-60h-11q-83 0 -132 -48.5t-49 -128.5v-219h-66v452z" />
    <glyph glyph-name="Rcaron" unicode="&#x158;" horiz-adv-x="648" 
d="M612 473q0 -83 -55 -136.5t-163 -53.5h-101l329 -283h-104l-326 283h-34v-283h-69v664h305q108 0 163 -54t55 -137zM543 473q0 63 -40 95.5t-110 32.5h-235v-255h235q70 0 110 32t40 95z" />
    <glyph glyph-name="rcaron" unicode="&#x159;" horiz-adv-x="384" 
d="M84 452h66v-73q55 77 180 77h12v-60h-11q-83 0 -132 -48.5t-49 -128.5v-219h-66v452z" />
    <glyph glyph-name="Sacute" unicode="&#x15a;" horiz-adv-x="605" 
d="M29 155h74q23 -45 79 -75t125 -30q83 0 136.5 36.5t53.5 90.5q0 53 -38.5 81.5t-117.5 37.5l-114 13q-90 10 -137 57t-47 117q0 87 68 140.5t184 53.5q110 0 178 -51.5t93 -117.5h-75q-22 47 -76 76.5t-123 29.5q-82 0 -130.5 -36.5t-48.5 -90.5q0 -101 137 -115l126 -14
q89 -10 139.5 -57t50.5 -119q0 -79 -68.5 -137t-190.5 -58q-118 0 -185 50t-93 118z" />
    <glyph glyph-name="sacute" unicode="&#x15b;" horiz-adv-x="507" 
d="M470 327h-73q-36 78 -151 78q-55 0 -89 -21.5t-34 -57.5q0 -35 25 -49t80 -18l96 -7q141 -11 141 -128q0 -57 -53.5 -97t-141.5 -40q-92 0 -151 41t-74 98h72q34 -79 164 -79q50 0 83.5 21t33.5 56q0 36 -25 50t-81 18l-97 8q-138 12 -138 125q0 58 52.5 99t136.5 41
q94 0 151 -40.5t73 -97.5z" />
    <glyph glyph-name="Scircumflex" unicode="&#x15c;" horiz-adv-x="605" 
d="M29 155h74q23 -45 79 -75t125 -30q83 0 136.5 36.5t53.5 90.5q0 53 -38.5 81.5t-117.5 37.5l-114 13q-90 10 -137 57t-47 117q0 87 68 140.5t184 53.5q110 0 178 -51.5t93 -117.5h-75q-22 47 -76 76.5t-123 29.5q-82 0 -130.5 -36.5t-48.5 -90.5q0 -101 137 -115l126 -14
q89 -10 139.5 -57t50.5 -119q0 -79 -68.5 -137t-190.5 -58q-118 0 -185 50t-93 118z" />
    <glyph glyph-name="scircumflex" unicode="&#x15d;" horiz-adv-x="507" 
d="M470 327h-73q-36 78 -151 78q-55 0 -89 -21.5t-34 -57.5q0 -35 25 -49t80 -18l96 -7q141 -11 141 -128q0 -57 -53.5 -97t-141.5 -40q-92 0 -151 41t-74 98h72q34 -79 164 -79q50 0 83.5 21t33.5 56q0 36 -25 50t-81 18l-97 8q-138 12 -138 125q0 58 52.5 99t136.5 41
q94 0 151 -40.5t73 -97.5z" />
    <glyph glyph-name="Scedilla" unicode="&#x15e;" horiz-adv-x="605" 
d="M29 155h74q23 -45 79 -75t125 -30q83 0 136.5 36.5t53.5 90.5q0 53 -38.5 81.5t-117.5 37.5l-114 13q-90 10 -137 57t-47 117q0 87 68 140.5t184 53.5q110 0 178 -51.5t93 -117.5h-75q-22 47 -76 76.5t-123 29.5q-82 0 -130.5 -36.5t-48.5 -90.5q0 -101 137 -115l126 -14
q89 -10 139.5 -57t50.5 -119q0 -71 -56.5 -126.5t-158.5 -65.5l-133 -174h-76l133 172q-103 7 -162.5 55.5t-83.5 111.5z" />
    <glyph glyph-name="scedilla" unicode="&#x15f;" horiz-adv-x="507" 
d="M470 327h-73q-36 78 -151 78q-55 0 -89 -21.5t-34 -57.5q0 -35 25 -49t80 -18l96 -7q141 -11 141 -128q0 -52 -44.5 -90t-120.5 -45l-132 -173h-76l134 174q-74 9 -121 48t-60 88h72q34 -79 164 -79q50 0 83.5 21t33.5 56q0 36 -25 50t-81 18l-97 8q-138 12 -138 125
q0 58 52.5 99t136.5 41q94 0 151 -40.5t73 -97.5z" />
    <glyph glyph-name="uni0162" unicode="&#x162;" horiz-adv-x="595" 
d="M26 664h543v-63h-237v-601l-139 -181h-70l140 181v601h-237v63z" />
    <glyph glyph-name="uni0163" unicode="&#x163;" horiz-adv-x="377" 
d="M115 588h66v-136h159v-60h-159v-244q0 -48 23 -68t74 -20h62v-60h-56l-138 -181h-76l147 186q-102 22 -102 129v258h-94v60h94v136z" />
    <glyph glyph-name="Tcaron" unicode="&#x164;" horiz-adv-x="595" 
d="M26 664h543v-63h-237v-601h-69v601h-237v63z" />
    <glyph glyph-name="tcaron" unicode="&#x165;" horiz-adv-x="498" 
d="M115 588h66v-136h159v-60h-159v-244q0 -48 23 -68t74 -20h62v-60h-63q-84 0 -123 33t-39 101v258h-94v60h94v136zM438 465h-51l64 107h-45v92h92v-100z" />
    <glyph glyph-name="Tbar" unicode="&#x166;" horiz-adv-x="595" 
d="M26 664h543v-63h-237v-238h173v-63h-173v-300h-69v300h-174v63h174v238h-237v63z" />
    <glyph glyph-name="tbar" unicode="&#x167;" horiz-adv-x="397" 
d="M125 588h66v-136h159v-60h-159v-85h159v-60h-159v-99q0 -48 23 -68t74 -20h62v-60h-63q-84 0 -123 33t-39 101v113h-94v60h94v85h-94v60h94v136z" />
    <glyph glyph-name="Utilde" unicode="&#x168;" horiz-adv-x="740" 
d="M84 273v391h69v-390q0 -110 57.5 -167t159.5 -57t159.5 57t57.5 167v390h69v-391q0 -136 -77 -211t-209 -75t-209 75t-77 211z" />
    <glyph glyph-name="utilde" unicode="&#x169;" 
d="M266 -13q-91 0 -141.5 56.5t-50.5 145.5v263h66v-263q0 -63 32 -102.5t94 -39.5q63 0 110 45.5t47 119.5v240h66v-452h-66v57q-55 -70 -157 -70z" />
    <glyph glyph-name="Umacron" unicode="&#x16a;" horiz-adv-x="740" 
d="M84 273v391h69v-390q0 -110 57.5 -167t159.5 -57t159.5 57t57.5 167v390h69v-391q0 -136 -77 -211t-209 -75t-209 75t-77 211z" />
    <glyph glyph-name="umacron" unicode="&#x16b;" 
d="M265 -13q-91 0 -141.5 56.5t-50.5 145.5v263h66v-263q0 -63 32 -102.5t94 -39.5q63 0 110 45.5t47 119.5v240h66v-452h-66v57q-55 -70 -157 -70z" />
    <glyph glyph-name="Ubreve" unicode="&#x16c;" horiz-adv-x="740" 
d="M84 273v391h69v-390q0 -110 57.5 -167t159.5 -57t159.5 57t57.5 167v390h69v-391q0 -136 -77 -211t-209 -75t-209 75t-77 211z" />
    <glyph glyph-name="ubreve" unicode="&#x16d;" 
d="M265 -13q-91 0 -141.5 56.5t-50.5 145.5v263h66v-263q0 -63 32 -102.5t94 -39.5q63 0 110 45.5t47 119.5v240h66v-452h-66v57q-55 -70 -157 -70z" />
    <glyph glyph-name="Uring" unicode="&#x16e;" horiz-adv-x="740" 
d="M84 273v391h69v-390q0 -110 57.5 -167t159.5 -57t159.5 57t57.5 167v390h69v-391q0 -136 -77 -211t-209 -75t-209 75t-77 211z" />
    <glyph glyph-name="uring" unicode="&#x16f;" 
d="M265 -13q-91 0 -141.5 56.5t-50.5 145.5v263h66v-263q0 -63 32 -102.5t94 -39.5q63 0 110 45.5t47 119.5v240h66v-452h-66v57q-55 -70 -157 -70z" />
    <glyph glyph-name="Uhungarumlaut" unicode="&#x170;" horiz-adv-x="740" 
d="M84 273v391h69v-390q0 -110 57.5 -167t159.5 -57t159.5 57t57.5 167v390h69v-391q0 -136 -77 -211t-209 -75t-209 75t-77 211z" />
    <glyph glyph-name="uhungarumlaut" unicode="&#x171;" 
d="M265 -13q-91 0 -141.5 56.5t-50.5 145.5v263h66v-263q0 -63 32 -102.5t94 -39.5q63 0 110 45.5t47 119.5v240h66v-452h-66v57q-55 -70 -157 -70z" />
    <glyph glyph-name="Uogonek" unicode="&#x172;" horiz-adv-x="740" 
d="M84 273v391h69v-391q0 -110 57.5 -167t159.5 -57t159.5 57t57.5 167v391h69v-391q0 -99 -36 -157t-115 -109q-32 -20 -67.5 -56t-35.5 -58q0 -34 50 -34h41v-63h-40q-114 0 -114 83q0 48 67 110q-24 -2 -36 -2q-132 0 -209 75t-77 211z" />
    <glyph glyph-name="uogonek" unicode="&#x173;" 
d="M265 -13q-91 0 -141.5 56.5t-50.5 145.5v263h66v-263q0 -63 32 -102.5t94 -39.5q63 0 110 45.5t47 119.5v240h66v-452q-1 -1 -19.5 -17t-26 -23.5t-21 -21.5t-19 -25t-5.5 -20q0 -34 49 -34h42v-63h-41q-113 0 -113 83q0 55 88 121v57q-55 -70 -157 -70z" />
    <glyph glyph-name="Wcircumflex" unicode="&#x174;" horiz-adv-x="1061" 
d="M10 664h75l203 -582l198 582h88l204 -582l198 582h73l-228 -664h-88l-205 584l-197 -584h-88z" />
    <glyph glyph-name="wcircumflex" unicode="&#x175;" horiz-adv-x="821" 
d="M376 452h76l141 -372l141 372h67l-171 -452h-76l-143 369l-143 -369h-76l-171 452h72l140 -372z" />
    <glyph glyph-name="Ycircumflex" unicode="&#x176;" horiz-adv-x="560" 
d="M281 315l208 349h71l-246 -411v-253h-69v253l-245 411h74z" />
    <glyph glyph-name="ycircumflex" unicode="&#x177;" horiz-adv-x="494" 
d="M4 452h73l172 -374l172 374h69l-210 -455q-10 -21 -26.5 -59t-23 -52t-21 -37t-26.5 -31t-32 -15t-45 -7h-36v60h16q42 0 63.5 20.5t46.5 83.5l17 41z" />
    <glyph glyph-name="Ydieresis" unicode="&#x178;" horiz-adv-x="560" 
d="M281 315l208 349h71l-246 -411v-253h-69v253l-245 411h74z" />
    <glyph glyph-name="Zacute" unicode="&#x179;" horiz-adv-x="638" 
d="M580 664v-63l-439 -538h439v-63h-522v63l438 538h-439v63h523z" />
    <glyph glyph-name="zacute" unicode="&#x17a;" horiz-adv-x="462" 
d="M429 0h-389v60l297 332h-297v60h382v-60l-298 -332h305v-60z" />
    <glyph glyph-name="Zdotaccent" unicode="&#x17b;" horiz-adv-x="638" 
d="M580 664v-63l-439 -538h439v-63h-522v63l438 538h-439v63h523z" />
    <glyph glyph-name="zdotaccent" unicode="&#x17c;" horiz-adv-x="462" 
d="M429 0h-389v60l297 332h-297v60h382v-60l-298 -332h305v-60z" />
    <glyph glyph-name="Icaron" unicode="&#x1cf;" horiz-adv-x="247" 
d="M158 664v-664h-69v664h69z" />
    <glyph glyph-name="icaron" unicode="&#x1d0;" horiz-adv-x="238" 
d="M86 452h66v-452h-66v452z" />
    <glyph glyph-name="uni0218" unicode="&#x218;" horiz-adv-x="605" 
d="M29 155h74q23 -45 79 -75t125 -30q83 0 136.5 36.5t53.5 90.5q0 53 -38.5 81.5t-117.5 37.5l-114 13q-90 10 -137 57t-47 117q0 87 68 140.5t184 53.5q110 0 178 -51.5t93 -117.5h-75q-22 47 -76 76.5t-123 29.5q-82 0 -130.5 -36.5t-48.5 -90.5q0 -101 137 -115l126 -14
q89 -10 139.5 -57t50.5 -119q0 -79 -68.5 -137t-190.5 -58q-118 0 -185 50t-93 118z" />
    <glyph glyph-name="uni0219" unicode="&#x219;" horiz-adv-x="507" 
d="M470 327h-73q-36 78 -151 78q-55 0 -89 -21.5t-34 -57.5q0 -35 25 -49t80 -18l96 -7q141 -11 141 -128q0 -57 -53.5 -97t-141.5 -40q-92 0 -151 41t-74 98h72q34 -79 164 -79q50 0 83.5 21t33.5 56q0 36 -25 50t-81 18l-97 8q-138 12 -138 125q0 58 52.5 99t136.5 41
q94 0 151 -40.5t73 -97.5z" />
    <glyph glyph-name="uni0401" unicode="&#x401;" horiz-adv-x="599" 
d="M531 601h-373v-238h366v-63h-366v-237h373v-63h-442v664h442v-63z" />
    <glyph glyph-name="uni0402" unicode="&#x402;" horiz-adv-x="793" 
d="M476 407q121 0 198 -52.5t77 -150.5q0 -99 -66.5 -151.5t-185.5 -52.5h-60v63h48q91 0 143 34.5t52 105.5q0 68 -54.5 104.5t-149.5 36.5q-76 0 -186 -21v-323h-70v601h-207v63h513v-63h-236v-215q92 21 184 21z" />
    <glyph glyph-name="uni0403" unicode="&#x403;" horiz-adv-x="573" 
d="M87 664h457v-63h-388v-601h-69v664z" />
    <glyph glyph-name="uni0404" unicode="&#x404;" horiz-adv-x="711" 
d="M386 614q-109 0 -184 -70t-85 -181h381v-63h-381q11 -110 85.5 -180t183.5 -70q131 0 203 106h76q-40 -78 -112.5 -123.5t-166.5 -45.5q-144 0 -242 99.5t-98 245.5t98 245.5t242 99.5q94 0 166.5 -45.5t112.5 -123.5h-76q-72 106 -203 106z" />
    <glyph glyph-name="uni0405" unicode="&#x405;" horiz-adv-x="605" 
d="M29 155h74q23 -45 79 -75t125 -30q83 0 136.5 36.5t53.5 90.5q0 53 -38.5 81.5t-117.5 37.5l-114 13q-90 10 -137 57t-47 117q0 87 68 140.5t184 53.5q110 0 178 -51.5t93 -117.5h-75q-22 47 -76 76.5t-123 29.5q-82 0 -130.5 -36.5t-48.5 -90.5q0 -101 137 -115l126 -14
q89 -10 139.5 -57t50.5 -119q0 -79 -68.5 -137t-190.5 -58q-118 0 -185 50t-93 118z" />
    <glyph glyph-name="uni0406" unicode="&#x406;" horiz-adv-x="247" 
d="M158 664v-664h-69v664h69z" />
    <glyph glyph-name="uni0407" unicode="&#x407;" horiz-adv-x="247" 
d="M158 664v-664h-69v664h69z" />
    <glyph glyph-name="uni0408" unicode="&#x408;" horiz-adv-x="404" 
d="M251 664h69v-490q0 -82 -52 -128t-138 -46h-125v63h125q121 0 121 111v490z" />
    <glyph glyph-name="uni0409" unicode="&#x409;" horiz-adv-x="1102" 
d="M1060 191q0 -83 -55.5 -137t-163.5 -54h-304v600h-316v-238q0 -47 -0.5 -73.5t-3.5 -70.5t-9.5 -69.5t-18.5 -57.5t-30 -49.5t-45 -29.5t-62 -12h-37v63h23q30 0 51 13t33.5 34.5t19 60.5t8.5 79.5t2 102.5v311h454v-283h235q108 0 163.5 -53.5t55.5 -136.5zM991 191
q0 62 -39 94.5t-108 32.5h-238v-255h238q69 0 108 32.5t39 95.5z" />
    <glyph glyph-name="uni040A" unicode="&#x40a;" horiz-adv-x="1145" 
d="M1103 191q0 -83 -55.5 -137t-163.5 -54h-304v300h-422v-300h-69v664h69v-301h422v301h69v-283h235q108 0 163.5 -53.5t55.5 -136.5zM1034 191q0 62 -39 94.5t-108 32.5h-238v-255h238q69 0 108 32.5t39 95.5z" />
    <glyph glyph-name="uni040B" unicode="&#x40b;" horiz-adv-x="809" 
d="M752 0h-69v185q0 81 -44.5 117t-148.5 36q-105 0 -199 -22v-316h-69v601h-207v63h513v-63h-237v-223q26 8 92.5 15.5t105.5 7.5q142 0 202.5 -52t60.5 -167v-182z" />
    <glyph glyph-name="uni040C" unicode="&#x40c;" horiz-adv-x="597" 
d="M221 332l371 -332h-94l-340 299v-299h-69v664h69v-296l336 296h98z" />
    <glyph glyph-name="uni040F" unicode="&#x40f;" horiz-adv-x="715" 
d="M557 664h69v-664h-235v-147h-69v147h-233v664h69v-601h399v601z" />
    <glyph glyph-name="uni0410" unicode="&#x410;" horiz-adv-x="668" 
d="M595 0l-70 159h-382l-70 -159h-73l292 664h85l291 -664h-73zM334 591l-163 -369h326z" />
    <glyph glyph-name="uni0411" unicode="&#x411;" horiz-adv-x="655" 
d="M612 191q0 -83 -55.5 -137t-163.5 -54h-304v664h490v-63h-421v-220h235q108 0 163.5 -53.5t55.5 -136.5zM543 191q0 62 -39 94.5t-108 32.5h-238v-255h238q69 0 108 32.5t39 95.5z" />
    <glyph glyph-name="uni0412" unicode="&#x412;" horiz-adv-x="656" 
d="M506 332q56 -32 74 -70.5t18 -88.5q0 -76 -52.5 -124.5t-154.5 -48.5h-302v664h302q102 0 154.5 -49t52.5 -125q0 -49 -18 -87.5t-74 -70.5zM158 63h234q137 0 137 118q0 58 -36 88.5t-101 30.5h-234v-237zM158 363h234q66 0 101.5 30t35.5 89q0 58 -36 88.5t-101 30.5
h-234v-238z" />
    <glyph glyph-name="uni0413" unicode="&#x413;" 
d="M89 664h457v-63h-388v-601h-69v664z" />
    <glyph glyph-name="uni0414" unicode="&#x414;" horiz-adv-x="749" 
d="M713 -147h-69v147h-555v-147h-69v210h65q85 77 85 301v300h453v-601h90v-210zM239 365q0 -208 -65 -302h380v538h-315v-236z" />
    <glyph glyph-name="uni0415" unicode="&#x415;" horiz-adv-x="599" 
d="M531 601h-373v-238h366v-63h-366v-237h373v-63h-442v664h442v-63z" />
    <glyph glyph-name="uni0416" unicode="&#x416;" horiz-adv-x="889" 
d="M10 0l338 332l-338 332h94l306 -298v298h69v-298l306 298h94l-338 -332l338 -332h-90l-310 300v-300h-69v300l-310 -300h-90z" />
    <glyph glyph-name="uni0417" unicode="&#x417;" horiz-adv-x="626" 
d="M495 183q0 57 -36.5 87t-100.5 30h-174v63h174q62 0 97 32.5t35 85.5q0 72 -52.5 102.5t-134.5 30.5q-68 0 -119.5 -30t-74.5 -76h-75q26 67 93 118t176 51q38 0 72 -5t68.5 -19t59.5 -36t40.5 -57.5t15.5 -81.5q0 -93 -91 -146q95 -54 95 -149q0 -68 -41.5 -114
t-97.5 -64t-119 -18q-208 0 -272 168h74q24 -47 76 -76t122 -29q82 0 136 31t54 102z" />
    <glyph glyph-name="uni0418" unicode="&#x418;" horiz-adv-x="746" 
d="M89 664h69v-572l414 572h85v-664h-69v572l-413 -572h-86v664z" />
    <glyph glyph-name="uni0419" unicode="&#x419;" horiz-adv-x="746" 
d="M89 664h69v-572l414 572h85v-664h-69v572l-413 -572h-86v664zM188 872h63q6 -43 41 -73t81 -30t81 30t41 73h63q-6 -68 -59 -116.5t-126 -48.5t-126 48.5t-59 116.5z" />
    <glyph glyph-name="uni041A" unicode="&#x41a;" horiz-adv-x="597" 
d="M221 332l371 -332h-94l-340 299v-299h-69v664h69v-296l336 296h98z" />
    <glyph glyph-name="uni041B" unicode="&#x41b;" horiz-adv-x="695" 
d="M152 664h454v-664h-69v600h-316v-238q0 -47 -0.5 -73.5t-3.5 -70.5t-9.5 -69.5t-18.5 -57.5t-30 -49.5t-45 -29.5t-62 -12h-37v63h23q30 0 51 13t33.5 34.5t19 60.5t8.5 79.5t2 102.5v311z" />
    <glyph glyph-name="uni041C" unicode="&#x41c;" horiz-adv-x="968" 
d="M810 571l-327 -571l-325 571v-571h-69v664h96l299 -528l301 528h94v-664h-69v571z" />
    <glyph glyph-name="uni041D" unicode="&#x41d;" horiz-adv-x="738" 
d="M649 0h-69v300h-422v-300h-69v664h69v-301h422v301h69v-664z" />
    <glyph glyph-name="uni041E" unicode="&#x41e;" horiz-adv-x="772" 
d="M386 677q142 0 240.5 -99t98.5 -246t-98.5 -246t-240.5 -99t-240.5 99t-98.5 246t98.5 246t240.5 99zM386 50q117 0 193.5 79.5t76.5 202.5t-76.5 202.5t-193.5 79.5t-193.5 -79.5t-76.5 -202.5t76.5 -202.5t193.5 -79.5z" />
    <glyph glyph-name="uni041F" unicode="&#x41f;" horiz-adv-x="726" 
d="M637 0h-69v601h-410v-601h-69v664h548v-664z" />
    <glyph glyph-name="uni0420" unicode="&#x420;" horiz-adv-x="654" 
d="M612 473q0 -83 -55 -136.5t-163 -53.5h-236v-283h-69v664h305q108 0 163 -54t55 -137zM543 473q0 63 -40 95.5t-110 32.5h-235v-255h235q70 0 110 32t40 95z" />
    <glyph glyph-name="uni0421" unicode="&#x421;" horiz-adv-x="711" 
d="M387 614q-117 0 -194 -80t-77 -202t77 -202t194 -80q131 0 203 106h76q-40 -78 -112.5 -123.5t-166.5 -45.5q-144 0 -242 99.5t-98 245.5t98 245.5t242 99.5q94 0 166.5 -45.5t112.5 -123.5h-76q-72 106 -203 106z" />
    <glyph glyph-name="uni0422" unicode="&#x422;" horiz-adv-x="595" 
d="M26 664h543v-63h-237v-601h-69v601h-237v63z" />
    <glyph glyph-name="uni0423" unicode="&#x423;" horiz-adv-x="581" 
d="M315 250l193 414h73l-241 -511q-44 -93 -75 -123t-96 -30h-57v63h40q40 0 66.5 18t45.5 63l14 34l-257 486h74z" />
    <glyph glyph-name="uni0424" unicode="&#x424;" horiz-adv-x="881" 
d="M476 686v-82h73q122 0 204.5 -70t82.5 -193t-82.5 -193t-204.5 -70h-73v-96h-69v96h-73q-122 0 -204.5 70t-82.5 193t82.5 193t204.5 70h73v82h69zM767 341q0 96 -63 148t-155 52h-73v-400h73q92 0 155 52t63 148zM116 341q0 -96 63 -148t155 -52h73v400h-73
q-92 0 -155 -52t-63 -148z" />
    <glyph glyph-name="uni0425" unicode="&#x425;" horiz-adv-x="590" 
d="M497 0l-201 277l-200 -277h-81l239 333l-239 331h79l200 -276l199 276h82l-240 -333l240 -331h-78z" />
    <glyph glyph-name="uni0426" unicode="&#x426;" horiz-adv-x="752" 
d="M557 664h69v-601h90v-210h-69v147h-558v664h69v-601h399v601z" />
    <glyph glyph-name="uni0427" unicode="&#x427;" horiz-adv-x="676" 
d="M57 664h69v-185q0 -81 44.5 -117t148.5 -36q105 0 199 22v316h69v-664h-69v286q-26 -8 -92.5 -15.5t-105.5 -7.5q-142 0 -202.5 52t-60.5 167v182z" />
    <glyph glyph-name="uni0428" unicode="&#x428;" horiz-adv-x="1001" 
d="M912 0h-823v664h69v-601h308v601h69v-601h308v601h69v-664z" />
    <glyph glyph-name="uni0429" unicode="&#x429;" horiz-adv-x="1039" 
d="M843 664h69v-601h90v-210h-69v147h-844v664h69v-601h308v601h69v-601h308v601z" />
    <glyph glyph-name="uni042A" unicode="&#x42a;" horiz-adv-x="743" 
d="M701 191q0 -83 -55.5 -137t-163.5 -54h-304v601h-163v63h232v-283h235q108 0 163.5 -53.5t55.5 -136.5zM632 191q0 62 -39 94.5t-108 32.5h-238v-255h238q69 0 108 32.5t39 95.5z" />
    <glyph glyph-name="uni042B" unicode="&#x42b;" horiz-adv-x="855" 
d="M766 664v-664h-69v664h69zM592 191q0 -83 -55.5 -137t-163.5 -54h-284v664h69v-283h215q108 0 163.5 -53.5t55.5 -136.5zM523 191q0 62 -39 94.5t-108 32.5h-218v-255h218q69 0 108 32.5t39 95.5z" />
    <glyph glyph-name="uni042C" unicode="&#x42c;" horiz-adv-x="654" 
d="M612 191q0 -83 -55.5 -137t-163.5 -54h-304v664h69v-283h235q108 0 163.5 -53.5t55.5 -136.5zM543 191q0 62 -39 94.5t-108 32.5h-238v-255h238q69 0 108 32.5t39 95.5z" />
    <glyph glyph-name="uni042D" unicode="&#x42d;" horiz-adv-x="704" 
d="M317 614q-131 0 -203 -106h-76q40 78 112.5 123.5t166.5 45.5q144 0 242 -99.5t98 -245.5t-98 -245.5t-242 -99.5q-94 0 -166.5 45.5t-112.5 123.5h76q72 -106 203 -106q109 0 183.5 70t85.5 180h-381v63h381q-10 111 -85 181t-184 70z" />
    <glyph glyph-name="uni042E" unicode="&#x42e;" horiz-adv-x="1020" 
d="M648 -13q-130 0 -224.5 88.5t-105.5 224.5h-160v-300h-69v664h69v-301h160q10 136 104.5 225t225.5 89q138 0 234.5 -99t96.5 -246t-96.5 -246t-234.5 -99zM648 614q-113 0 -187.5 -79.5t-74.5 -202.5t74.5 -202.5t187.5 -79.5t187.5 79.5t74.5 202.5t-74.5 202.5
t-187.5 79.5z" />
    <glyph glyph-name="uni042F" unicode="&#x42f;" horiz-adv-x="652" 
d="M40 473q0 83 55 137t163 54h305v-664h-69v283h-34l-326 -283h-104l329 283h-101q-108 0 -163 53.5t-55 136.5zM109 473q0 -63 40 -95t110 -32h235v255h-235q-70 0 -110 -32.5t-40 -95.5z" />
    <glyph glyph-name="uni0430" unicode="&#x430;" horiz-adv-x="542" 
d="M259 465q94 0 152 -46.5t58 -128.5v-290h-66v56q-61 -69 -163 -69q-82 0 -134.5 38t-52.5 109q0 74 53.5 110.5t137.5 36.5h159v9q0 59 -40 87t-106 28q-51 0 -88.5 -21t-52.5 -55h-71q19 64 76.5 100t137.5 36zM403 186v35h-161q-58 0 -90.5 -22t-32.5 -65
q0 -42 33 -64.5t89 -22.5q75 0 118.5 41t43.5 98z" />
    <glyph glyph-name="uni0431" unicode="&#x431;" horiz-adv-x="583" 
d="M302 453q98 0 163.5 -69t65.5 -165q0 -97 -67.5 -164.5t-168.5 -67.5q-115 0 -173.5 77.5t-58.5 196.5q0 79 7.5 133t28.5 100t61 71.5t102 33.5l105 13q38 5 58 17.5t25 39.5h66q-3 -19 -8.5 -34t-18.5 -33t-38 -30t-60 -17l-127 -17q-33 -4 -57.5 -17.5t-37.5 -29
t-21.5 -39t-11 -39.5t-4.5 -38q62 78 170 78zM465 220q0 72 -46.5 122.5t-119.5 50.5q-74 0 -122 -51t-48 -122q0 -72 46.5 -122.5t119.5 -50.5q74 0 122 51t48 122z" />
    <glyph glyph-name="uni0432" unicode="&#x432;" horiz-adv-x="548" 
d="M431 225q64 -28 64 -108q0 -51 -36 -84t-104 -33h-271v452h268q68 0 104 -33t36 -85q0 -80 -61 -109zM348 256q37 0 57.5 17.5t20.5 50.5t-20.5 50.5t-57.5 17.5h-198v-136h198zM351 60q37 0 57.5 17.5t20.5 50.5t-20.5 50.5t-57.5 17.5h-201v-136h201z" />
    <glyph glyph-name="uni0433" unicode="&#x433;" horiz-adv-x="462" 
d="M84 452h347v-60h-281v-392h-66v452z" />
    <glyph glyph-name="uni0434" unicode="&#x434;" horiz-adv-x="585" 
d="M543 -126h-66v126h-406v-126h-66v186h49q63 51 63 205v187h353v-392h73v-186zM183 266q0 -142 -46 -206h267v332h-221v-126z" />
    <glyph glyph-name="uni0435" unicode="&#x435;" horiz-adv-x="533" 
d="M488 231q0 -18 -2 -29h-374q7 -66 53 -110.5t111 -44.5q97 0 138 74h68q-24 -64 -78 -99t-128 -35q-101 0 -166.5 67.5t-65.5 172.5q0 103 64 170.5t164 67.5q93 0 154.5 -67.5t61.5 -166.5zM112 262h308q-8 62 -47 102.5t-101 40.5q-67 0 -109.5 -39t-50.5 -104z" />
    <glyph glyph-name="uni0436" unicode="&#x436;" horiz-adv-x="665" 
d="M299 452h66v-199l207 199h83l-234 -229l234 -223h-90l-200 191v-191h-66v191l-200 -191h-89l234 223l-234 229h82l207 -199v199z" />
    <glyph glyph-name="uni0437" unicode="&#x437;" horiz-adv-x="522" 
d="M409 225q54 -29 54 -100q0 -57 -55.5 -97.5t-140.5 -40.5q-90 0 -146 41t-72 98h72q35 -79 146 -79q52 0 91 22.5t39 60.5q0 66 -77 66h-112v60h111q76 0 76 65q0 38 -37.5 61t-91.5 23q-113 0 -144 -76h-71q16 57 69.5 96.5t146.5 39.5q76 0 135 -38t59 -103
q0 -66 -52 -99z" />
    <glyph glyph-name="uni0438" unicode="&#x438;" horiz-adv-x="589" 
d="M150 0h-66v452h66v-350l289 350h66v-452h-66v350z" />
    <glyph glyph-name="uni0439" unicode="&#x439;" horiz-adv-x="589" 
d="M150 0h-66v452h66v-350l289 350h66v-452h-66v350zM118 673h61q6 -37 39.5 -63t75.5 -26t75.5 26t39.5 63h61q-6 -62 -56.5 -106t-119.5 -44t-119.5 44t-56.5 106z" />
    <glyph glyph-name="uni043A" unicode="&#x43a;" horiz-adv-x="479" 
d="M84 452h66v-209l234 209h85l-254 -226l255 -226h-86l-234 197v-197h-66v452z" />
    <glyph glyph-name="uni043B" unicode="&#x43b;" horiz-adv-x="561" 
d="M124 452h348v-452h-66v392h-216v-133q0 -38 -1 -60t-5 -57t-13.5 -56.5t-25.5 -43t-42.5 -32t-62.5 -10.5h-19v63h9q26 0 45 12.5t28 29.5t14 46.5t6 50.5t1 55v195z" />
    <glyph glyph-name="uni043C" unicode="&#x43c;" horiz-adv-x="707" 
d="M557 343l-203 -343l-204 342v-342h-66v452h77l194 -326l193 326h75v-452h-66v343z" />
    <glyph glyph-name="uni043D" unicode="&#x43d;" horiz-adv-x="589" 
d="M439 452h66v-452h-66v197h-289v-197h-66v452h66v-195h289v195z" />
    <glyph glyph-name="uni043E" unicode="&#x43e;" horiz-adv-x="570" 
d="M517 226q0 -103 -66 -171t-166 -68t-166.5 68t-66.5 171t66.5 171t166.5 68t166 -68t66 -171zM451 226q0 75 -46.5 127t-119.5 52q-74 0 -120.5 -52t-46.5 -127t46.5 -127t120.5 -52q73 0 119.5 52t46.5 127z" />
    <glyph glyph-name="uni043F" unicode="&#x43f;" horiz-adv-x="580" 
d="M84 452h412v-452h-66v392h-280v-392h-66v452z" />
    <glyph glyph-name="uni0440" unicode="&#x440;" horiz-adv-x="593" 
d="M541 226q0 -100 -60.5 -169.5t-167.5 -69.5q-53 0 -96 20t-67 50v-261h-66v656h66v-57q24 30 67 50t96 20q107 0 167.5 -69.5t60.5 -169.5zM475 226q0 74 -45.5 126.5t-116.5 52.5q-69 0 -117 -47t-48 -132t48 -132t117 -47q71 0 116.5 52.5t45.5 126.5z" />
    <glyph glyph-name="uni0441" unicode="&#x441;" horiz-adv-x="541" 
d="M494 331h-71q-19 33 -55.5 53.5t-81.5 20.5q-73 0 -120.5 -52t-47.5 -127t47.5 -127t120.5 -52q45 0 81.5 20.5t55.5 53.5h71q-24 -62 -79 -98t-129 -36q-99 0 -166.5 68.5t-67.5 170.5t67.5 170.5t166.5 68.5q74 0 129 -36t79 -98z" />
    <glyph glyph-name="uni0442" unicode="&#x442;" horiz-adv-x="464" 
d="M21 392v60h422v-60h-178v-392h-66v392h-178z" />
    <glyph glyph-name="uni0443" unicode="&#x443;" horiz-adv-x="501" 
d="M19 452h73l172 -374l172 374h69l-210 -455q-10 -21 -26.5 -59t-23 -52t-21 -37t-26.5 -31t-32 -15t-45 -7h-36v60h16q42 0 63.5 20.5t46.5 83.5l17 41z" />
    <glyph glyph-name="uni0444" unicode="&#x444;" horiz-adv-x="746" 
d="M340 669h66v-217h48q105 0 172 -63.5t67 -161.5q0 -102 -63.5 -164.5t-175.5 -62.5h-48v-204h-66v204h-48q-113 0 -176.5 62.5t-63.5 164.5q0 98 67.5 161.5t171.5 63.5h49v217zM449 392h-43v-332h44q87 0 132 46t45 121q0 73 -48 119t-130 46zM340 392h-43
q-82 0 -130.5 -46t-48.5 -119q0 -75 45 -121t132 -46h45v332z" />
    <glyph glyph-name="uni0445" unicode="&#x445;" horiz-adv-x="491" 
d="M470 452l-184 -224l188 -228h-82l-147 178l-146 -178h-79l186 226l-185 226h82l144 -176l144 176h79z" />
    <glyph glyph-name="uni0446" unicode="&#x446;" horiz-adv-x="613" 
d="M572 -126h-66v126h-422v452h66v-392h283v392h66v-392h73v-186z" />
    <glyph glyph-name="uni0447" unicode="&#x447;" horiz-adv-x="552" 
d="M57 311v141h66v-137q0 -49 28.5 -70.5t100.5 -21.5q61 0 150 14v215h66v-452h-66v178q-18 -5 -67 -10t-78 -5q-200 0 -200 148z" />
    <glyph glyph-name="uni0448" unicode="&#x448;" horiz-adv-x="798" 
d="M714 0h-630v452h66v-392h216v392h66v-392h216v392h66v-452z" />
    <glyph glyph-name="uni0449" unicode="&#x449;" horiz-adv-x="829" 
d="M648 452h66v-392h73v-186h-66v126h-637v452h66v-392h216v392h66v-392h216v392z" />
    <glyph glyph-name="uni044A" unicode="&#x44a;" horiz-adv-x="593" 
d="M397 293q80 0 122 -42t42 -105t-41.5 -104.5t-122.5 -41.5h-238v392h-144v60h210v-159h172zM394 60q47 0 74 22.5t27 63.5q0 42 -27 64.5t-74 22.5h-169v-173h169z" />
    <glyph glyph-name="uni044B" unicode="&#x44b;" horiz-adv-x="690" 
d="M540 452h66v-452h-66v452zM297 293q80 0 122 -42t42 -105t-41.5 -104.5t-122.5 -41.5h-213v452h66v-159h147zM294 60q47 0 74 22.5t27 63.5q0 42 -27 64.5t-74 22.5h-144v-173h144z" />
    <glyph glyph-name="uni044C" unicode="&#x44c;" horiz-adv-x="517" 
d="M322 293q80 0 122 -42t42 -105t-41.5 -104.5t-122.5 -41.5h-238v452h66v-159h172zM319 60q47 0 74 22.5t27 63.5q0 42 -27 64.5t-74 22.5h-169v-173h169z" />
    <glyph glyph-name="uni044D" unicode="&#x44d;" horiz-adv-x="543" 
d="M119 331h-71q24 62 79 98t129 36q99 0 166.5 -68.5t67.5 -170.5t-67.5 -170.5t-166.5 -68.5q-74 0 -129 36t-79 98h71q19 -33 55.5 -53.5t81.5 -20.5q66 0 111.5 42t54.5 108h-244v60h243q-10 65 -55 106.5t-110 41.5q-45 0 -81.5 -20.5t-55.5 -53.5z" />
    <glyph glyph-name="uni044E" unicode="&#x44e;" horiz-adv-x="755" 
d="M702 226q0 -103 -65.5 -171t-163.5 -68q-91 0 -154.5 59t-73.5 151h-95v-197h-66v452h66v-195h95q11 91 74.5 149.5t153.5 58.5q98 0 163.5 -68t65.5 -171zM636 226q0 75 -45 127t-118 52q-72 0 -117.5 -52t-45.5 -127t45.5 -127t117.5 -52q73 0 118 52t45 127z" />
    <glyph glyph-name="uni044F" unicode="&#x44f;" horiz-adv-x="510" 
d="M122 0h-99l198 162h-18q-80 0 -122 41.5t-42 103.5t42 103.5t122 41.5h223v-452h-66v162h-39zM206 222h154v170h-154q-47 0 -74 -22.5t-27 -62.5t27 -62.5t74 -22.5z" />
    <glyph glyph-name="uni0451" unicode="&#x451;" horiz-adv-x="548" 
d="M496 231q0 -18 -2 -29h-374q7 -66 53 -110.5t111 -44.5q97 0 138 74h68q-24 -64 -78 -99t-128 -35q-101 0 -166.5 67.5t-65.5 172.5q0 103 64 170.5t164 67.5q93 0 154.5 -67.5t61.5 -166.5zM120 262h308q-8 62 -47 102.5t-101 40.5q-67 0 -109.5 -39t-50.5 -104z" />
    <glyph glyph-name="uni0452" unicode="&#x452;" horiz-adv-x="583" 
d="M444 263q0 63 -33 102.5t-96 39.5q-64 0 -112 -45t-48 -120v-240h-66v534h-79v60h79v75h66v-75h152v-60h-152v-139q55 70 160 70q92 0 143.5 -56.5t51.5 -145.5v-291q0 -92 -36.5 -134t-123.5 -42h-57v60h57q53 0 73.5 28.5t20.5 87.5v291z" />
    <glyph glyph-name="uni0453" unicode="&#x453;" horiz-adv-x="462" 
d="M84 452h347v-60h-281v-392h-66v452z" />
    <glyph glyph-name="uni0454" unicode="&#x454;" horiz-adv-x="543" 
d="M495 331h-71q-19 33 -55.5 53.5t-81.5 20.5q-65 0 -110 -41.5t-55 -106.5h243v-60h-244q9 -66 54.5 -108t111.5 -42q45 0 81.5 20.5t55.5 53.5h71q-24 -62 -79 -98t-129 -36q-99 0 -166.5 68.5t-67.5 170.5t67.5 170.5t166.5 68.5q74 0 129 -36t79 -98z" />
    <glyph glyph-name="uni0455" unicode="&#x455;" horiz-adv-x="507" 
d="M470 327h-73q-36 78 -151 78q-55 0 -89 -21.5t-34 -57.5q0 -35 25 -49t80 -18l96 -7q141 -11 141 -128q0 -57 -53.5 -97t-141.5 -40q-92 0 -151 41t-74 98h72q34 -79 164 -79q50 0 83.5 21t33.5 56q0 36 -25 50t-81 18l-97 8q-138 12 -138 125q0 58 52.5 99t136.5 41
q94 0 151 -40.5t73 -97.5z" />
    <glyph glyph-name="uni0456" unicode="&#x456;" horiz-adv-x="238" 
d="M86 452h66v-452h-66v452zM78 571v88h81v-88h-81z" />
    <glyph glyph-name="uni0457" unicode="&#x457;" horiz-adv-x="238" 
d="M86 452h66v-452h-66v452z" />
    <glyph glyph-name="uni0459" unicode="&#x459;" horiz-adv-x="839" 
d="M124 452h348v-159h172q80 0 122 -42t42 -105t-41.5 -104.5t-122.5 -41.5h-238v392h-216v-133q0 -38 -1 -60t-5 -57t-13.5 -56.5t-25.5 -43t-42.5 -32t-62.5 -10.5h-19v63h9q26 0 45 12.5t28 29.5t14 46.5t6 50.5t1 55v195zM641 60q47 0 74 22.5t27 63.5q0 42 -27 64.5
t-74 22.5h-169v-173h169z" />
    <glyph glyph-name="uni045A" unicode="&#x45a;" horiz-adv-x="872" 
d="M439 452h66v-159h172q80 0 122 -42t42 -105t-41.5 -104.5t-122.5 -41.5h-238v197h-289v-197h-66v452h66v-195h289v195zM674 60q47 0 74 22.5t27 63.5q0 42 -27 64.5t-74 22.5h-169v-173h169z" />
    <glyph glyph-name="uni045B" unicode="&#x45b;" horiz-adv-x="583" 
d="M444 263q0 63 -33 102.5t-96 39.5q-64 0 -112 -45t-48 -120v-240h-66v534h-79v60h79v75h66v-75h152v-60h-152v-139q55 70 160 70q92 0 143.5 -56.5t51.5 -145.5v-263h-66v263z" />
    <glyph glyph-name="uni045C" unicode="&#x45c;" horiz-adv-x="479" 
d="M84 452h66v-209l234 209h85l-254 -226l255 -226h-86l-234 197v-197h-66v452z" />
    <glyph glyph-name="uni045F" unicode="&#x45f;" horiz-adv-x="583" 
d="M325 -126h-66v126h-175v452h66v-392h283v392h66v-452h-174v-126z" />
    <glyph glyph-name="uni0490" unicode="&#x490;" 
d="M89 664h388v140h69v-203h-388v-601h-69v664z" />
    <glyph glyph-name="uni0491" unicode="&#x491;" horiz-adv-x="462" 
d="M365 568h66v-176h-281v-392h-66v452h281v116z" />
    <glyph glyph-name="uni0492" unicode="&#x492;" horiz-adv-x="610" 
d="M427 363v-63h-231v-300h-69v300h-106v63h106v301h457v-63h-388v-238h231z" />
    <glyph glyph-name="uni0493" unicode="&#x493;" horiz-adv-x="478" 
d="M21 247h78v205h347v-60h-281v-145h180v-60h-180v-187h-66v187h-78v60z" />
    <glyph glyph-name="uni049A" unicode="&#x49a;" horiz-adv-x="620" 
d="M221 332l300 -269h75v-210h-69v147h-29l-340 299v-299h-69v664h69v-296l336 296h98z" />
    <glyph glyph-name="uni049B" unicode="&#x49b;" horiz-adv-x="501" 
d="M470 -126h-66v126h-20l-234 197v-197h-66v452h66v-209l234 209h85l-254 -226l188 -166h67v-186z" />
    <glyph glyph-name="uni04A2" unicode="&#x4a2;" horiz-adv-x="775" 
d="M670 0h-90v300h-422v-300h-69v664h69v-301h422v301h69v-601h90v-210h-69v147z" />
    <glyph glyph-name="uni04A3" unicode="&#x4a3;" horiz-adv-x="619" 
d="M439 0v197h-289v-197h-66v452h66v-195h289v195h66v-392h73v-186h-66v126h-73z" />
    <glyph glyph-name="uni04AE" unicode="&#x4ae;" horiz-adv-x="560" 
d="M281 315l208 349h71l-246 -411v-253h-69v253l-245 411h74z" />
    <glyph glyph-name="uni04AF" unicode="&#x4af;" horiz-adv-x="507" 
d="M496 452l-210 -454v-202h-66v202l-210 454h73l172 -374l172 374h69z" />
    <glyph glyph-name="uni04B0" unicode="&#x4b0;" horiz-adv-x="560" 
d="M281 315l208 349h71l-223 -372h143v-63h-166v-229h-69v229h-161v63h138l-222 372h74z" />
    <glyph glyph-name="uni04B1" unicode="&#x4b1;" horiz-adv-x="507" 
d="M497 452l-189 -407h146v-60h-167v-189h-66v189h-167v60h145l-188 407h73l172 -374l172 374h69z" />
    <glyph glyph-name="uni04BA" unicode="&#x4ba;" horiz-adv-x="676" 
d="M619 0h-69v185q0 81 -44.5 117t-148.5 36q-105 0 -199 -22v-316h-69v664h69v-286q26 8 92.5 15.5t105.5 7.5q142 0 202.5 -52t60.5 -167v-182z" />
    <glyph glyph-name="uni04BB" unicode="&#x4bb;" horiz-adv-x="578" 
d="M310 465q92 0 143.5 -56.5t51.5 -145.5v-263h-66v263q0 63 -33 102.5t-96 39.5q-64 0 -112 -45t-48 -120v-240h-66v669h66v-274q55 70 160 70z" />
    <glyph glyph-name="uni04D8" unicode="&#x4d8;" horiz-adv-x="750" 
d="M149 508h-75q35 78 112.5 123.5t176.5 45.5q148 0 243.5 -99.5t95.5 -246.5t-95 -245.5t-238 -98.5t-233 98t-90 245v29h586q-7 109 -85 182t-184 73q-68 0 -125.5 -28.5t-88.5 -77.5zM368 50q109 0 180 69t83 177h-515q10 -112 78 -179t174 -67z" />
    <glyph glyph-name="uni04D9" unicode="&#x4d9;" horiz-adv-x="548" 
d="M52 221q0 18 2 29h374q-7 66 -53 110.5t-111 44.5q-97 0 -138 -74h-68q24 64 78 99t128 35q101 0 166.5 -67.5t65.5 -172.5q0 -103 -64 -170.5t-164 -67.5q-93 0 -154.5 67.5t-61.5 166.5zM428 190h-308q8 -62 47 -102.5t101 -40.5q67 0 109.5 39t50.5 104z" />
    <glyph glyph-name="uni04E8" unicode="&#x4e8;" horiz-adv-x="772" 
d="M386 677q142 0 240.5 -99t98.5 -246t-98.5 -246t-240.5 -99t-240.5 99t-98.5 246t98.5 246t240.5 99zM386 614q-108 0 -183 -70t-86 -181h537q-10 110 -84.5 180.5t-183.5 70.5zM386 50q108 0 182.5 70t85.5 180h-537q11 -110 85.5 -180t183.5 -70z" />
    <glyph glyph-name="uni04E9" unicode="&#x4e9;" horiz-adv-x="570" 
d="M517 226q0 -103 -66 -171t-166 -68t-166.5 68t-66.5 171t66.5 171t166.5 68t166 -68t66 -171zM285 47q66 0 110.5 42.5t53.5 107.5h-329q9 -65 54 -107.5t111 -42.5zM285 405q-66 0 -110.5 -42t-54.5 -106h328q-9 64 -53.5 106t-109.5 42z" />
    <glyph glyph-name="uni1E02" unicode="&#x1e02;" horiz-adv-x="656" 
d="M506 332q56 -32 74 -70.5t18 -88.5q0 -76 -52.5 -124.5t-154.5 -48.5h-302v664h302q102 0 154.5 -49t52.5 -125q0 -49 -18 -87.5t-74 -70.5zM158 63h234q137 0 137 118q0 58 -36 88.5t-101 30.5h-234v-237zM158 363h234q66 0 101.5 30t35.5 89q0 58 -36 88.5t-101 30.5
h-234v-238z" />
    <glyph glyph-name="uni1E03" unicode="&#x1e03;" horiz-adv-x="593" 
d="M541 226q0 -100 -60.5 -169.5t-167.5 -69.5q-53 0 -96 20t-67 50v-57h-66v669h66v-274q24 30 67 50t96 20q107 0 167.5 -69.5t60.5 -169.5zM475 226q0 74 -45.5 126.5t-116.5 52.5q-69 0 -117 -47t-48 -132t48 -132t117 -47q71 0 116.5 52.5t45.5 126.5z" />
    <glyph glyph-name="uni1E0A" unicode="&#x1e0a;" horiz-adv-x="720" 
d="M89 664h219q169 0 267 -95t98 -237t-98 -237t-267 -95h-219v664zM604 332q0 121 -78 195t-212 74h-156v-538h156q134 0 212 74t78 195z" />
    <glyph glyph-name="uni1E0B" unicode="&#x1e0b;" horiz-adv-x="593" 
d="M52 226q0 100 60.5 169.5t167.5 69.5q53 0 96 -20t67 -50v274h66v-669h-66v57q-24 -30 -67 -50t-96 -20q-107 0 -167.5 69.5t-60.5 169.5zM118 226q0 -74 45.5 -126.5t116.5 -52.5q69 0 117 47t48 132t-48 132t-117 47q-71 0 -116.5 -52.5t-45.5 -126.5z" />
    <glyph glyph-name="uni1E1E" unicode="&#x1e1e;" horiz-adv-x="578" 
d="M531 601h-373v-238h366v-63h-366v-300h-69v664h442v-63z" />
    <glyph glyph-name="uni1E1F" unicode="&#x1e1f;" horiz-adv-x="329" 
d="M165 0h-66v392h-84v60h84v78q0 64 43.5 101.5t125.5 37.5h46v-60h-46q-48 0 -75.5 -24t-27.5 -64v-69h149v-60h-149v-392z" />
    <glyph glyph-name="uni1E40" unicode="&#x1e40;" horiz-adv-x="968" 
d="M810 571l-327 -571l-325 571v-571h-69v664h96l299 -528l301 528h94v-664h-69v571z" />
    <glyph glyph-name="uni1E41" unicode="&#x1e41;" horiz-adv-x="924" 
d="M784 0v271q0 60 -32.5 97t-95.5 37q-62 0 -109.5 -43.5t-47.5 -118.5v-243h-66v271q0 60 -32.5 97t-95.5 37q-61 0 -108 -42.5t-47 -114.5v-248h-66v452h66v-54q52 67 154 67q117 0 171 -92q72 92 181 92q92 0 143 -55t51 -142v-268h-66z" />
    <glyph glyph-name="uni1E56" unicode="&#x1e56;" horiz-adv-x="654" 
d="M612 473q0 -83 -55 -136.5t-163 -53.5h-236v-283h-69v664h305q108 0 163 -54t55 -137zM543 473q0 63 -40 95.5t-110 32.5h-235v-255h235q70 0 110 32t40 95z" />
    <glyph glyph-name="uni1E57" unicode="&#x1e57;" horiz-adv-x="593" 
d="M541 226q0 -100 -60.5 -169.5t-167.5 -69.5q-53 0 -96 20t-67 50v-261h-66v656h66v-57q24 30 67 50t96 20q107 0 167.5 -69.5t60.5 -169.5zM475 226q0 74 -45.5 126.5t-116.5 52.5q-69 0 -117 -47t-48 -132t48 -132t117 -47q71 0 116.5 52.5t45.5 126.5z" />
    <glyph glyph-name="uni1E60" unicode="&#x1e60;" horiz-adv-x="605" 
d="M29 155h74q23 -45 79 -75t125 -30q83 0 136.5 36.5t53.5 90.5q0 53 -38.5 81.5t-117.5 37.5l-114 13q-90 10 -137 57t-47 117q0 87 68 140.5t184 53.5q110 0 178 -51.5t93 -117.5h-75q-22 47 -76 76.5t-123 29.5q-82 0 -130.5 -36.5t-48.5 -90.5q0 -101 137 -115l126 -14
q89 -10 139.5 -57t50.5 -119q0 -79 -68.5 -137t-190.5 -58q-118 0 -185 50t-93 118z" />
    <glyph glyph-name="uni1E61" unicode="&#x1e61;" horiz-adv-x="507" 
d="M470 327h-73q-36 78 -151 78q-55 0 -89 -21.5t-34 -57.5q0 -35 25 -49t80 -18l96 -7q141 -11 141 -128q0 -57 -53.5 -97t-141.5 -40q-92 0 -151 41t-74 98h72q34 -79 164 -79q50 0 83.5 21t33.5 56q0 36 -25 50t-81 18l-97 8q-138 12 -138 125q0 58 52.5 99t136.5 41
q94 0 151 -40.5t73 -97.5z" />
    <glyph glyph-name="uni1E6A" unicode="&#x1e6a;" horiz-adv-x="595" 
d="M26 664h543v-63h-237v-601h-69v601h-237v63z" />
    <glyph glyph-name="uni1E6B" unicode="&#x1e6b;" horiz-adv-x="377" 
d="M115 588h66v-136h159v-60h-159v-244q0 -48 23 -68t74 -20h62v-60h-63q-84 0 -123 33t-39 101v258h-94v60h94v136z" />
    <glyph glyph-name="Wgrave" unicode="&#x1e80;" horiz-adv-x="1061" 
d="M10 664h75l203 -582l198 582h88l204 -582l198 582h73l-228 -664h-88l-205 584l-197 -584h-88z" />
    <glyph glyph-name="wgrave" unicode="&#x1e81;" horiz-adv-x="821" 
d="M376 452h76l141 -372l141 372h67l-171 -452h-76l-143 369l-143 -369h-76l-171 452h72l140 -372z" />
    <glyph glyph-name="Wacute" unicode="&#x1e82;" horiz-adv-x="1061" 
d="M10 664h75l203 -582l198 582h88l204 -582l198 582h73l-228 -664h-88l-205 584l-197 -584h-88z" />
    <glyph glyph-name="wacute" unicode="&#x1e83;" horiz-adv-x="821" 
d="M376 452h76l141 -372l141 372h67l-171 -452h-76l-143 369l-143 -369h-76l-171 452h72l140 -372z" />
    <glyph glyph-name="Wdieresis" unicode="&#x1e84;" horiz-adv-x="1061" 
d="M10 664h75l203 -582l198 582h88l204 -582l198 582h73l-228 -664h-88l-205 584l-197 -584h-88z" />
    <glyph glyph-name="wdieresis" unicode="&#x1e85;" horiz-adv-x="821" 
d="M376 452h76l141 -372l141 372h67l-171 -452h-76l-143 369l-143 -369h-76l-171 452h72l140 -372z" />
    <glyph glyph-name="Ygrave" unicode="&#x1ef2;" horiz-adv-x="560" 
d="M281 315l208 349h71l-246 -411v-253h-69v253l-245 411h74z" />
    <glyph glyph-name="ygrave" unicode="&#x1ef3;" horiz-adv-x="494" 
d="M4 452h73l172 -374l172 374h69l-210 -455q-10 -21 -26.5 -59t-23 -52t-21 -37t-26.5 -31t-32 -15t-45 -7h-36v60h16q42 0 63.5 20.5t46.5 83.5l17 41z" />
    <glyph glyph-name="Udotaccent" unicode="&#xf47e;" horiz-adv-x="740" 
d="M84 273v391h69v-390q0 -110 57.5 -167t159.5 -57t159.5 57t57.5 167v390h69v-391q0 -136 -77 -211t-209 -75t-209 75t-77 211z" />
    <glyph glyph-name="udotaccent" unicode="&#xf47f;" 
d="M265 -13q-91 0 -141.5 56.5t-50.5 145.5v263h66v-263q0 -63 32 -102.5t94 -39.5q63 0 110 45.5t47 119.5v240h66v-452h-66v57q-55 -70 -157 -70z" />
    <glyph glyph-name="cyrbreve" unicode="&#xf6d4;" horiz-adv-x="472" 
d="M60 673h61q6 -37 39.5 -63t75.5 -26t75.5 26t39.5 63h61q-6 -62 -56.5 -106t-119.5 -44t-119.5 44t-56.5 106z" />
    <glyph glyph-name="Tcommaaccent" horiz-adv-x="595" 
d="M26 664h543v-63h-237v-601h-69v601h-237v63z" />
    <glyph glyph-name="tcommaaccent" horiz-adv-x="377" 
d="M115 588h66v-136h159v-60h-159v-244q0 -48 23 -68t74 -20h62v-60h-63q-84 0 -123 33t-39 101v258h-94v60h94v136z" />
    <glyph glyph-name="cyrbreve.cap" horiz-adv-x="488" 
d="M59 872h63q6 -43 41 -73t81 -30t81 30t41 73h63q-6 -68 -59 -116.5t-126 -48.5t-126 48.5t-59 116.5z" />
    </font>
</defs>
</svg>
