<svg fill="none" height="20" viewBox="0 0 20 20" width="20" xmlns="http://www.w3.org/2000/svg"><path d="m0 4.47277c.111402-.21489.286114-.29099.527181-.28185.37621.014.753029.00365 1.164549.00365 0-.13149-.00244-.25203 0-.37195.00669-.30559.09983-.41395.39508-.48883 1.28142-.32507 2.58172-.417 3.89176-.25689 1.5091.18445 2.8721.71224 3.96603 1.81469.00913.00913.02131.01461.04688.03227.03892-.03166.08522-.06453.12542-.10288.9782-.93444 2.1586-1.44945 3.4772-1.6759 1.4519-.24959 2.8891-.16132 4.3148.18993.2874.07061.3768.17836.3823.47543.0019.12176 0 .24412 0 .38656h1.1688c.4152 0 .5394.12236.54.53145v12.10445c0 .4712-.2618.6197-.6879.4097-.921-.4541-1.8969-.7439-2.9037-.9338-2.0509-.3866-4.0909-.3154-6.1156.1729-.31776.0767-.60631-.0073-.90216-.0713-2.4265-.5271-4.83229-.4578-7.21069.26-.5144.1552-1.01053.3737-1.507277.5832-.340902.1442-.493091.1126-.672673-.2034zm9.6104 10.86263c0-.0688 0-.1181 0-.1668-.00244-3.1053-.00426-6.20992-.01279-9.31518 0-.0907-.04931-.20089-.11201-.26907-.57527-.62458-1.27655-1.06166-2.0722-1.3496-1.07688-.39021-2.19334-.49127-3.32623-.41152-.54118.03835-1.07871.13271-1.61259.20089v10.22038c2.47155-.2502 4.88952-.2186 7.13582 1.0903zm7.901-1.0897v-10.1948c-1.3587-.28733-2.7077-.35977-4.0592-.06574-1.1298.24593-2.1373.73294-2.939 1.58763-.07.07487-.1193.20149-.1193.30377-.0061 3.08455-.0049 6.16914-.0049 9.25424 0 .0615.0061.1224.0097.1954 2.2372-1.2936 4.646-1.3417 7.1133-1.0805zm-16.721846-9.2634v11.3344c.566136-.1833 1.114626-.3884 1.678336-.5363.57101-.1498 1.15298-.2721 1.73738-.3531.57893-.0804 1.16577-.1175 1.75078-.1303.58197-.0122 1.16576.0292 1.74834.0481-.89791-.3086-2.10142-.4925-3.22822-.4462-.75973.031-1.51763.109-2.27552.1741-.29951.0256-.47666-.1077-.49553-.4042-.00426-.0712-.00183-.1431-.00183-.2149 0-3.0724 0-6.14476 0-9.21654v-.25506zm17.524246.00304v.24837 9.27189c0 .0652.0042.1309-.0025.1948-.0256.2368-.1796.3732-.4188.3708-.084-.0012-.1692-.0104-.2526-.0219-1.125-.1583-2.2536-.2064-3.3859-.106-.6739.0597-1.3338.1906-1.9767.4146 2.3894-.2411 4.6978.0901 6.9453.9886v-11.36177h-.9088z" fill="#000"/></svg>