<svg width="86" height="86" viewBox="0 0 86 86" fill="none" xmlns="http://www.w3.org/2000/svg">
<rect width="86" height="86" rx="32" fill="#9BC332"/>
<path d="M43.9384 19C44.9012 19.1828 45.8827 19.2962 46.8221 19.5606C50.1735 20.5037 52.8003 22.4724 54.7155 25.3701C56.3111 27.784 57.0292 30.4624 56.9945 33.3498C56.9926 33.5213 56.9982 33.6929 57.0038 33.8654C57.0048 33.8944 57.0235 33.9235 57.0207 33.915C57.5945 34.0772 58.1785 34.1607 58.6885 34.4016C60.1209 35.0803 60.9206 36.2606 60.9712 37.8393C61.0068 38.9539 61.004 40.1042 60.7687 41.1841C60.4322 42.7319 59.0128 43.7884 57.4191 43.9525C57.2963 43.9646 57.1763 43.9946 57.0254 44.0209C56.9785 44.5056 56.9504 44.9837 56.8839 45.4562C56.132 50.8419 51.7437 54.7952 46.3065 54.9892C45.9474 55.0023 45.5884 55.0014 45.2284 54.9986C44.4625 54.993 44.1662 54.7483 44.004 53.9974C43.8634 53.3477 43.5644 53.0421 43.0497 53.0196C42.5444 52.9971 42.1422 53.3158 42.0466 53.8127C41.9519 54.3086 42.2022 54.7586 42.6757 54.9227C42.8069 54.9686 42.9494 54.9836 43.0863 55.0127C43.6909 55.1383 44.0294 55.5433 43.9787 56.0814C43.9253 56.6495 43.5006 56.9954 42.8744 56.9813C41.5779 56.9513 40.4304 56.0195 40.0986 54.7258C39.778 53.4762 40.3442 52.099 41.4466 51.4475C42.9813 50.541 44.8656 51.0828 45.6812 52.6765C45.7918 52.8921 45.8818 53.0177 46.1602 53.0027C49.8744 52.7937 52.5659 51.0369 54.1943 47.6901C54.7774 46.4921 55.0005 45.203 55.0005 43.8737C55.0005 42.3119 54.9977 40.7491 55.0024 39.1873C55.0042 38.5827 55.2677 38.1805 55.7205 38.053C56.357 37.874 56.9532 38.2986 56.9795 38.9961C57.0104 39.807 56.9907 40.6207 56.9935 41.4326C56.9935 41.6013 56.9935 41.77 56.9935 41.9341C57.9094 42.0157 58.8338 41.3426 58.9238 40.4182C59.0147 39.477 59.0138 38.5133 58.9219 37.5721C58.8338 36.6684 58.0004 36.0628 56.9795 36C56.6832 35.9821 56.3861 36.0028 56.0889 35.9906C55.398 35.9625 55.023 35.594 55.0033 34.905C54.9874 34.3585 55.0089 33.811 54.9986 33.2644C54.9002 28.0512 52.519 24.2704 47.8139 22.0261C43.4397 19.9403 37.7005 21.1196 34.3613 24.6895C32.1104 27.095 31.0005 29.9393 31.0005 33.2269C31.0005 36.3674 31.0005 39.507 31.0005 42.6475C31.0005 43.6478 30.648 43.9946 29.6571 44.0106C28.5078 44.0284 27.4203 43.8653 26.495 43.0994C25.5613 42.326 25.0626 41.3323 25.0195 40.1351C24.9876 39.2473 24.9754 38.3492 25.0738 37.469C25.2763 35.655 26.6572 34.3135 28.4712 34.0594C28.6381 34.036 28.804 34.005 28.9596 33.9797C29.0168 33.0357 29.0206 32.1123 29.1368 31.203C29.9121 25.1563 34.5722 20.275 40.542 19.2287C41.0473 19.1406 41.5563 19.0759 42.0635 19C42.6888 19 43.3131 19 43.9384 19ZM28.9821 36.0637C28.0681 36.0046 27.1672 36.659 27.0781 37.5786C26.9872 38.5189 26.9863 39.4817 27.0781 40.421C27.1681 41.3435 28.0953 42.0157 28.9812 41.935V36.0637H28.9821Z" fill="#FFFEEB"/>
<path d="M67.0001 57.4361C66.7938 58.4335 66.4085 59.3279 65.6089 60.0132C64.7689 60.7322 63.7911 61.0003 62.7102 61.0003C53.1368 60.9984 43.5635 61.0003 33.9901 60.9919C33.5889 60.9919 33.3001 61.0931 33.0104 61.3875C31.3802 63.0477 29.7303 64.6892 28.0775 66.327C27.8263 66.5754 27.5282 66.776 27.2516 66.9982H26.7829C26.2251 66.7723 25.9935 66.3673 26.001 65.7579C26.0217 63.899 26.0048 62.04 26.0113 60.181C26.0132 59.5388 26.286 59.1479 26.7707 59.041C27.4316 58.8948 27.9828 59.3504 27.9969 60.0919C28.0147 61.0603 28.0016 62.0287 28.0016 62.9971C28.0016 63.149 28.0016 63.3018 28.0016 63.5418C28.1609 63.4021 28.2631 63.3205 28.355 63.2287C29.5709 62.0147 30.7952 60.8091 31.9942 59.5782C32.3945 59.1676 32.8295 58.997 33.4042 58.9979C43.136 59.0091 52.8678 59.0101 62.5996 58.9941C63.0683 58.9941 63.5811 58.9079 63.9945 58.7035C64.753 58.3276 65.0079 57.6058 65.007 56.7836C65.0051 54.9087 65.007 53.0347 65.007 51.1598C65.007 43.8963 65.007 36.6319 65.007 29.3684C65.007 28.7797 64.9367 28.2182 64.542 27.741C64.0733 27.1748 63.4536 26.9929 62.7505 26.9938C61.2197 26.9957 59.6888 27.0004 58.1579 26.991C57.4426 26.9863 56.9936 26.5739 57.0104 25.9748C57.0254 25.4601 57.4136 25.0195 57.9751 25.0167C59.8172 25.0074 61.6659 24.9492 63.4996 25.0805C65.2845 25.208 66.5698 26.526 66.9213 28.2988C66.9391 28.3888 66.9729 28.475 66.9991 28.5632V57.437L67.0001 57.4361Z" fill="#FFFEEB"/>
<path d="M19.0019 28.5622C19.21 27.5469 19.6084 26.6432 20.4287 25.9551C21.1805 25.3251 22.0477 25.0186 23.0095 25.0064C24.6332 24.9848 26.2569 24.9942 27.8806 25.0026C28.4721 25.0054 28.849 25.2979 28.9521 25.7835C29.0534 26.2598 28.8406 26.7248 28.3962 26.8916C28.1843 26.9713 27.9396 26.9872 27.709 26.9882C26.241 26.9966 24.7738 26.9891 23.3058 26.9929C21.7861 26.9966 20.9959 27.7869 20.9949 29.3084C20.993 38.4271 20.993 47.5449 20.9949 56.6636C20.9949 58.0942 21.5855 58.7794 23.0002 59.0063C23.692 59.1169 24.0454 59.5266 23.9714 60.1331C23.902 60.704 23.3986 61.0453 22.7274 60.9778C20.799 60.7828 19.4659 59.5697 19.0722 57.6535C19.0572 57.5795 19.0244 57.5082 19 57.4351C19 47.8102 19 38.1862 19 28.5612L19.0019 28.5622Z" fill="#FFFEEB"/>
<path d="M42.4075 23.0059C47.7942 23.0453 51.8103 26.3292 52.7918 31.0146C52.9193 31.6221 52.9577 32.2512 52.9906 32.8736C53.0224 33.4839 52.6334 33.9283 52.085 33.9855C51.5562 34.0408 51.1175 33.6536 51.0088 33.0424C50.8466 32.1255 50.7969 31.1693 50.495 30.3012C49.3101 26.8935 45.9896 24.7655 42.4047 25.0224C38.863 25.2764 35.8537 27.9332 35.1581 31.4365C35.0766 31.8471 35.0709 32.2727 35.0194 32.6899C34.9884 32.9355 34.9753 33.1942 34.8863 33.4202C34.725 33.8317 34.2272 34.0586 33.8044 33.962C33.3085 33.8486 32.9973 33.4558 33.0048 32.8989C33.062 28.821 35.5322 25.2249 39.3336 23.7052C40.5185 23.2309 41.7551 22.9965 42.4075 23.0059Z" fill="#FFFEEB"/>
<path d="M44.0059 46.9766H42.0232V44.9967C42.6288 44.9967 43.2147 44.9882 43.7997 45.0079C43.8709 45.0107 43.9937 45.1607 43.9966 45.246C44.0144 45.8048 44.0059 46.3635 44.0059 46.9766Z" fill="#FFFEEB"/>
<path d="M39.9739 46.9852H38.0483V45.0212H39.9739V46.9852Z" fill="#FFFEEB"/>
<path d="M47.9658 46.9861H46.0337V45.0193H47.9658V46.9861Z" fill="#FFFEEB"/>
</svg>
