<svg width="86" height="86" viewBox="0 0 86 86" fill="none" xmlns="http://www.w3.org/2000/svg">
<rect width="86" height="86" rx="32" fill="#9BC332"/>
<path d="M28.3625 19C35.9725 19 43.5825 19 51.1925 19C51.3462 19.1287 51.5113 19.2462 51.6525 19.3875C55.2813 23.02 58.9125 26.65 62.5238 30.3C62.7388 30.5175 62.8425 30.8888 62.8988 31.2063C62.9625 31.57 62.9137 31.9537 62.9137 32.3287C62.9137 41.8575 62.9137 51.3862 62.9137 60.915C62.9137 62.0187 62.72 62.2087 61.5987 62.21C60.6012 62.21 59.6037 62.21 58.605 62.21C58.455 62.21 58.305 62.2263 58.1237 62.2363C58.1237 63.475 58.1075 64.6763 58.1312 65.875C58.1412 66.375 58.0125 66.7612 57.555 67H23.5912C23.0537 66.7663 23 66.3125 23 65.7962C23.0063 51.6625 23.005 37.5288 23.005 23.3938C23.005 23.3163 23.0038 23.2375 23.005 23.16C23.025 22.49 23.3087 22.2013 23.99 22.1962C25.0812 22.1888 26.1725 22.1937 27.2637 22.1937C27.4287 22.1937 27.5938 22.1937 27.7938 22.1937C27.7938 21.4625 27.815 20.7925 27.7862 20.125C27.765 19.6237 27.9037 19.2387 28.3612 19L28.3625 19ZM61.2937 31.8025C61.055 31.8025 60.8687 31.8025 60.6825 31.8025C57.58 31.8025 54.4775 31.8025 51.375 31.8025C50.355 31.8025 50.1525 31.5963 50.1525 30.56C50.1525 27.4363 50.1525 24.3112 50.1525 21.1875V20.6325H29.4237V60.57H61.2937V31.8025ZM24.62 65.3688H56.49V62.2075H55.8438C46.9237 62.2075 38.0037 62.2075 29.085 62.2075C27.995 62.2075 27.7938 62.0088 27.7938 60.9338C27.7938 48.7625 27.7938 36.5912 27.7938 24.4187V23.83H24.6188V65.3675L24.62 65.3688ZM59.9575 30.1663C57.2212 27.4275 54.4738 24.6775 51.7738 21.9738V30.1663H59.9575Z" fill="#FFFEEB"/>
<path d="M47.7713 53.4038C50.8425 53.4038 53.9138 53.4038 56.985 53.405C57.1713 53.405 57.3663 53.3963 57.5413 53.4475C57.9063 53.5563 58.1188 53.82 58.1138 54.2088C58.1088 54.5975 57.8913 54.8563 57.5225 54.9575C57.3463 55.005 57.1525 54.9988 56.9663 54.9988C50.8238 55 44.6813 55 38.5388 55C38.4613 55 38.3825 55.0013 38.305 55C37.745 54.9825 37.3875 54.68 37.3775 54.215C37.3675 53.7375 37.7388 53.4063 38.3225 53.4063C41.4713 53.4025 44.6213 53.4038 47.77 53.4038H47.7713Z" fill="#FFFEEB"/>
<path d="M47.78 43.8026C50.805 43.8026 53.8288 43.8026 56.8538 43.8026C57.0563 43.8026 57.26 43.8039 57.4588 43.8351C57.8688 43.9001 58.0963 44.1651 58.1113 44.5701C58.125 44.9739 57.9188 45.2576 57.5138 45.3501C57.3338 45.3914 57.1438 45.4014 56.9575 45.4014C50.815 45.4039 44.6725 45.4039 38.53 45.4039C38.4988 45.4039 38.4675 45.4039 38.4363 45.4039C37.7625 45.3926 37.3838 45.1064 37.3788 44.6039C37.3738 44.1001 37.7488 43.8026 38.425 43.8014C41.5425 43.7976 44.6613 43.8001 47.7788 43.8001L47.78 43.8026Z" fill="#FFFEEB"/>
<path d="M47.7313 48.6062C50.7875 48.6062 53.8425 48.6062 56.8988 48.6062C57.07 48.6062 57.2438 48.6012 57.4125 48.6225C57.82 48.675 58.0575 48.9175 58.11 49.3225C58.1613 49.7112 57.92 50.0487 57.515 50.1525C57.3525 50.195 57.1763 50.205 57.0075 50.205C50.8338 50.2075 44.6588 50.2075 38.485 50.205C38.3 50.205 38.1088 50.1887 37.9325 50.1387C37.5525 50.03 37.3688 49.7375 37.39 49.3625C37.4125 48.965 37.6388 48.6925 38.05 48.6287C38.2338 48.6 38.4225 48.6075 38.61 48.6075C41.65 48.6075 44.69 48.6075 47.7313 48.6075V48.6062Z" fill="#FFFEEB"/>
<path d="M47.725 35.7925C44.685 35.7925 41.645 35.7925 38.605 35.7925C38.4337 35.7925 38.2612 35.7987 38.0912 35.7787C37.6887 35.7312 37.3837 35.42 37.3862 35.0325C37.3875 34.6325 37.5787 34.3437 37.9837 34.245C38.1475 34.205 38.3225 34.1962 38.4925 34.1962C44.6662 34.1937 50.84 34.1937 57.0137 34.1962C57.1837 34.1962 57.3587 34.2037 57.5212 34.2462C57.9237 34.3525 58.1637 34.6937 58.11 35.0825C58.0537 35.4862 57.8112 35.725 57.4062 35.7787C57.2525 35.7987 57.095 35.7912 56.9387 35.7912C53.8675 35.7912 50.7962 35.7912 47.725 35.7912V35.7925Z" fill="#FFFEEB"/>
<path d="M47.7475 40.595C44.7225 40.595 41.6987 40.595 38.6737 40.595C38.5337 40.595 38.3925 40.6 38.2525 40.5912C37.72 40.5612 37.385 40.2587 37.3787 39.8075C37.3737 39.3662 37.7112 39.0437 38.235 38.9975C38.3587 38.9862 38.4837 38.9925 38.6087 38.9925C44.705 38.9925 50.8 38.9925 56.8962 38.995C57.1125 38.995 57.3362 39.0037 57.5437 39.0562C57.9225 39.1525 58.1212 39.4275 58.1112 39.8137C58.1 40.22 57.8787 40.4875 57.4725 40.5625C57.29 40.5962 57.1 40.5925 56.9137 40.5925C53.8575 40.5937 50.8025 40.5925 47.7462 40.5925L47.7475 40.595Z" fill="#FFFEEB"/>
<path d="M35.76 26.2088C36.5225 26.2088 37.2863 26.2013 38.0488 26.2113C38.6525 26.2188 38.95 26.4976 38.955 27.0938C38.9675 28.6376 38.9675 30.1826 38.955 31.7276C38.95 32.2963 38.6463 32.5901 38.0763 32.5938C36.55 32.6038 35.025 32.6026 33.4988 32.5938C32.9075 32.5901 32.5875 32.2901 32.5825 31.7076C32.5688 30.1638 32.5688 28.6188 32.5825 27.0738C32.5875 26.5138 32.9063 26.2201 33.4713 26.2113C34.2338 26.2001 34.9975 26.2088 35.76 26.2088ZM34.2 27.8313V30.9688H37.325V27.8313H34.2Z" fill="#FFFEEB"/>
<path d="M34.165 35.7837C33.885 35.7837 33.6025 35.8012 33.3238 35.7799C32.8888 35.7462 32.6513 35.4737 32.5925 35.0574C32.54 34.6899 32.81 34.2812 33.2113 34.2499C33.8588 34.1987 34.5163 34.1974 35.1625 34.2574C35.5713 34.2949 35.8013 34.6862 35.7513 35.0812C35.6988 35.4874 35.4575 35.7362 35.0525 35.7762C34.76 35.8049 34.4613 35.7824 34.165 35.7824C34.165 35.7824 34.165 35.7837 34.165 35.7849V35.7837Z" fill="#FFFEEB"/>
<path d="M34.1888 48.6174C34.4688 48.6174 34.7513 48.5986 35.03 48.6224C35.4513 48.6574 35.7388 48.9486 35.7538 49.3436C35.7713 49.7761 35.5638 50.1136 35.14 50.1486C34.4938 50.2024 33.8363 50.1974 33.19 50.1424C32.78 50.1074 32.5938 49.7636 32.5925 49.3649C32.5925 48.9774 32.895 48.6611 33.3025 48.6261C33.5963 48.5999 33.8938 48.6211 34.19 48.6211C34.19 48.6211 34.19 48.6199 34.19 48.6186L34.1888 48.6174Z" fill="#FFFEEB"/>
<path d="M34.1463 54.9949C33.8813 54.9949 33.615 55.0124 33.3525 54.9899C32.905 54.9511 32.58 54.6011 32.5838 54.1936C32.5875 53.7811 32.9125 53.4324 33.365 53.4124C33.9088 53.3899 34.4563 53.3886 35 53.4124C35.455 53.4336 35.7625 53.7799 35.7588 54.2049C35.755 54.6261 35.4463 54.9549 34.9875 54.9899C34.7088 55.0111 34.4275 54.9936 34.1463 54.9936V54.9949Z" fill="#FFFEEB"/>
<path d="M34.1812 40.5751C33.885 40.5751 33.5875 40.5988 33.295 40.5701C32.8825 40.5301 32.585 40.2163 32.5912 39.8288C32.5987 39.4326 32.7812 39.0901 33.195 39.0576C33.8425 39.0076 34.4987 39.0063 35.1462 39.0551C35.5537 39.0851 35.7525 39.4088 35.755 39.8176C35.7575 40.2176 35.4862 40.5251 35.0675 40.5688C34.775 40.5988 34.4762 40.5751 34.1812 40.5751Z" fill="#FFFEEB"/>
<path d="M34.2037 43.79C34.4987 43.8038 34.7962 43.7975 35.0887 43.835C35.5 43.8875 35.7212 44.1513 35.7537 44.5575C35.7862 44.9525 35.535 45.32 35.125 45.35C34.4925 45.3963 33.8512 45.3925 33.2187 45.35C32.8025 45.3213 32.6125 44.99 32.59 44.5963C32.5687 44.2175 32.8662 43.88 33.27 43.8363C33.5775 43.8025 33.8912 43.83 34.2025 43.83C34.2025 43.8163 34.2025 43.8038 34.2025 43.79H34.2037Z" fill="#FFFEEB"/>
</svg>
