<svg width="40" height="40" viewBox="0 0 40 40" fill="none" xmlns="http://www.w3.org/2000/svg">
<rect width="40" height="40" rx="6" fill="#9BC332"/>
<path d="M24.773 23.4173C23.4131 24.7942 20 28.25 20 28.25C20 28.25 16.5032 24.7094 15.227 23.4173C12.591 20.7482 12.591 16.4208 15.227 13.7518C17.8631 11.0827 22.1369 11.0827 24.773 13.7518C27.409 16.4208 27.409 20.7482 24.773 23.4173Z" stroke="white" stroke-width="1.5" stroke-linejoin="round"/>
<path d="M22.25 18C22.25 19.2426 21.2426 20.25 20 20.25C18.7574 20.25 17.75 19.2426 17.75 18C17.75 16.7574 18.7574 15.75 20 15.75C21.2426 15.75 22.25 16.7574 22.25 18Z" stroke="white" stroke-width="1.5" stroke-linejoin="round"/>
</svg>
