<svg fill="none" height="56" viewBox="0 0 47 56" width="47" xmlns="http://www.w3.org/2000/svg"><path clip-rule="evenodd" d="m23.3349 28.9601c-2.8969 0-5.2453-2.3484-5.2453-5.2453v-18.38658c0-.27801.0993-.51739.2959-.71396l4.378-4.378048c.1576-.1574512.3645-.236212.5714-.236212.207 0 .414.0787608.5714.236212l4.378 4.378048c.1967.19657.2959.43595.2959.71396v18.38658c0 2.8969-2.3484 5.2453-5.2453 5.2453zm0 27.0399c12.8875 0 23.335-10.4473 23.335-23.335 0-6.4804-2.6417-12.3438-6.9067-16.5719l-7.2736-7.27349c-.2039-.20399-.4547-.14163-.4547.22053v8.28086c0 2.3944.0527 3.8273 1.9228 5.9248.0713.0797.1414.1605.2102.2417 2.165 2.5511 3.168 5.7659 3.168 9.1775 0 7.7355-6.2655 14.001-14.001 14.001s-14.00093-6.2655-14.00093-14.001c0-3.4116 1.00313-6.6264 3.16793-9.1775.0689-.0812.1389-.162.2102-.2417 1.8701-2.0975 1.9229-3.5302 1.9229-5.9248v-8.28086c0-.36216-.2508-.42452-.4548-.22053l-7.27353 7.27349c-4.26496 4.2281-6.90667 10.0915-6.90667 16.5719 0 12.8877 10.4474 23.335 23.3349 23.335z" fill="#f60" fill-rule="evenodd"/></svg>