<svg fill="none" height="56" viewBox="0 0 56 56" width="56" xmlns="http://www.w3.org/2000/svg"><path d="m56.0001 0h-56.0001v56h56.0001z" fill="#007dc4"/><path clip-rule="evenodd" d="m49.8554 36.1696-12.7081.838c-2.2346.1396-3.3516 2.7931-2.7931 4.6085.6982 1.8154 3.212 3.212 5.0274 1.9551zm-4.7482-9.9153-12.2892 3.6309c-2.0947.6984-2.6534 3.4915-1.6758 5.1673.9774 1.6758 3.9102 2.374 5.3067.6982zm-6.8429-8.5186-11.1721 6.2843c-1.9551 1.1173-1.8154 4.0498-.4189 5.3067 1.3966 1.3965 4.3293 1.5362 5.4463-.4189zm-8.5186-6.8429-9.4964 8.5187c-1.6757 1.5362-.8378 4.3292.6984 5.4463 1.6758.9776 4.4687.4191 5.1671-1.6758zm-9.9152-4.74816-7.2619 10.47386c-1.2569 1.8154.1397 4.4688 1.9551 5.0273 1.8155.6984 4.4688-.5585 4.6085-2.7929zm-10.61352-2.37406-4.74814 11.87032c-.83792 2.0948 1.11719 4.3291 2.93266 4.4689 1.95511.2793 4.3292-1.5362 3.9102-3.7706zm43.01262 43.01262-12.5687-2.0948c-2.2344-.4191-3.9102 1.9551-3.7705 3.9102.2792 1.9551 2.3739 3.7705 4.4689 2.9327zm0-43.01262h-48.45903v18.57362c1.53618 0 2.93268.1396 4.46885.2793 14.80298 2.2343 25.41638 15.0822 25.41638 29.606h18.5738zm-52.2296-3.77058h56.0001v56h-56.0001z" fill="#fc0" fill-rule="evenodd"/></svg>