<svg fill="none" height="54" viewBox="0 0 56 54" width="56" xmlns="http://www.w3.org/2000/svg"><g clip-rule="evenodd" fill-rule="evenodd"><path d="m27.9302 29.3044c-2.1124-6.2671-.9756-18.9879.7796-28.592404.1392-.7625545-.5658-.997508-1.5927-.282224-6.52 4.540668-19.83003 25.154128.8131 28.874628z" fill="#e31e24"/><path d="m27.9292 29.3045c-6.6317.0658-18.41622-4.9425-27.036548-9.5747-.684555-.3678-1.126393.2281-.761311 1.4227 2.316879 7.5849 17.869259 26.5742 27.797859 8.152z" fill="#00a0e3"/><path d="m27.9297 29.3044c-1.9864 6.3081-10.4061 15.9334-17.4889 22.675-.56239.5355-.1306 1.1384 1.122 1.1616 7.952.147 30.8738-8.7304 16.3669-23.8366z" fill="#b0cb1f"/><path d="m27.9308 29.3043c5.4041 3.8325 11.9848 14.7898 16.2275 23.5885.3372.6987 1.0459.4755 1.455-.705 2.5977-7.4938 1.2117-31.9696-17.6825-22.8835z" fill="#fecc00"/><path d="m27.9268 29.3042c5.3263-3.9394 17.8129-6.7927 27.5181-8.0964.7708-.1035.7768-.8445-.2228-1.5972-6.3467-4.7786-30.125-11.02815-27.2953 9.6936z" fill="#ef7f1a"/></g></svg>