<svg fill="none" height="56" viewBox="0 0 56 56" width="56" xmlns="http://www.w3.org/2000/svg"><path d="m19.9287.0497131c-5.9547.3111839-11.52442 3.1804269-15.2903 7.8798769-2.21523 2.76371-3.713142 6.06551-4.303869 9.48851-.3164609 1.8355-.3059122 1.6193-.32700958 9.7629-.02637172 9.1457-.00527433 9.71.43249658 11.92.959932 4.8049 3.612932 9.151 7.489572 12.2576 3.48631 2.7954 7.60561 4.3513 12.13631 4.5939 1.2289.0633 14.6363.0633 15.8652 0 5.5644-.2953 10.5856-2.6213 14.3673-6.6615 3.4284-3.6551 5.3957-8.3123 5.6541-13.3915.0633-1.2553.0633-14.5467 0-15.802-.2584-5.0686-2.2152-9.7153-5.6382-13.37574-3.7818-4.04542-8.8082-6.381958-14.3832-6.6773226-1.1023-.0580177-14.8789-.0580177-16.0024.0052757zm10.7544 10.0897869c2.6108.3534 4.8313 1.134 6.9938 2.4579 1.0654.6487 2.3155 1.9673 3.0855 3.2437.7806 1.2922 1.3502 3.0222 1.4557 4.4305l.037.4483h-5.1742-5.1794l-.0316-.1477c-.095-.4219-.153-.5907-.2954-.8808-.4483-.8861-1.0971-1.3819-2.2838-1.7458-.4589-.1424-.5116-.1477-1.7142-.153-1.3555 0-1.5242.0264-2.289.3429-.4853.2057-.8334.5327-1.0549 1.0021-.1477.3059-.1635.3956-.1635.8439 0 .5854.0527.7067.4641 1.1445.7806.8228 2.2469 1.3977 5.6278 2.1994 2.7848.6646 3.2912.7964 4.4041 1.1656 2.1572.7174 4.077 1.5982 4.9842 2.2838.6118.4642 1.519 1.3714 1.9251 1.9199.8123 1.1023 1.3186 2.2943 1.5876 3.7606.0844.4378.1002.7912.1002 2.0834-.0052 1.4979-.0105 1.5823-.1476 2.2416-1.1129 5.2269-5.1742 8.2913-11.9412 9.0191-1.2078.1319-4.1667.2057-5.1847.1371-2.8376-.2057-5.5749-1.0865-7.9431-2.5527-.6435-.3956-.9441-.633-1.5349-1.1709-1.577-1.4558-2.7637-3.4969-3.2911-5.6383-.1583-.654-.3112-1.6245-.3112-1.9832v-.211h5.3007 5.2954l.058.2216c.2057.8017.538 1.4082 1.076 1.9778.3587.3798.4853.4747.8967.6752 1.0443.501 1.751.6329 3.2226.5907 1.1814-.0317 1.7405-.1477 2.5422-.5327.5749-.2796.8914-.5538 1.1129-.9652.1899-.364.2321-.5538.2321-.9969-.0053-.9863-1.0602-1.8565-3.0961-2.5475-.3481-.116-1.5137-.4378-2.5844-.712-3.2859-.8386-5.9758-1.6614-7.5212-2.2944-.8808-.3639-1.9093-.9282-2.442-1.3449-.5697-.4483-1.403-1.3186-1.8355-1.9304-.8756-1.2342-1.4557-2.8429-1.6298-4.5254-.0791-.7543-.0316-2.4631.0791-3.0644.4062-2.1625 1.4716-4.0824 3.0381-5.4695 1.0179-.9019 2.8639-1.8988 4.6256-2.5001 1.5348-.5274 2.6424-.7489 4.5253-.9177.1161-.0105 1.1499-.0105 2.2944 0 1.5137.0105 2.2469.0369 2.6846.0949z" fill="#d9201a"/></svg>